<svg width="143" height="143" fill="none" xmlns="http://www.w3.org/2000/svg"><path fill-rule="evenodd" clip-rule="evenodd" d="M29.584 16.063a69.5 69.5 0 0187.118 2.645l1.301-1.52a71.503 71.503 0 00-89.625-2.721A71.5 71.5 0 001.07 59.178l1.97.344a69.5 69.5 0 0126.544-43.458zm97.409 10.35a71.542 71.542 0 014.452 6.115l-1.677 1.09a69.502 69.502 0 01-8.984 86.886 69.502 69.502 0 01-94.698 3.606A69.499 69.499 0 012.409 79.026l-1.989.216a71.5 71.5 0 10126.573-52.828z" fill="#4FB5FF"/><circle cx="71.5" cy="71.5" r="53.5" fill="#474747"/><path d="M91.004 47h-33.27a.996.996 0 00-.996.996v18.727H43.662A2.665 2.665 0 0041 69.385V84.38a2.665 2.665 0 002.662 2.662h13.076v3.586h-4.383a.996.996 0 00-.996.996A6.382 6.382 0 0057.734 98h28.09A6.183 6.183 0 0092 91.824V47.996a.996.996 0 00-.996-.996zM76.19 71.108a3.46 3.46 0 01-2.393-2.393h1.723c.37 0 .67.3.67.67v1.723zm-4.432-2.393a5.452 5.452 0 004.432 4.432v7.472a5.451 5.451 0 00-4.432 4.432H47.424a5.451 5.451 0 00-4.432-4.432v-7.472a5.452 5.452 0 004.432-4.432h24.334zm4.432 13.943v1.723c0 .37-.3.67-.67.67h-1.723a3.459 3.459 0 012.393-2.393zM43.662 68.715h1.723a3.46 3.46 0 01-2.393 2.393v-1.723c0-.37.3-.67.67-.67zm-.67 15.666v-1.723a3.46 3.46 0 012.393 2.393h-1.723a.67.67 0 01-.67-.67zm14.742 11.627a4.39 4.39 0 01-4.269-3.387h26.062a6.36 6.36 0 001.672 3.387H57.734zm32.274-4.184a4.188 4.188 0 01-4.184 4.184 4.388 4.388 0 01-4.383-4.383.996.996 0 00-.996-.996H58.73v-3.586h16.79a2.665 2.665 0 002.662-2.662V69.385a2.665 2.665 0 00-2.662-2.662H58.73v-17.73h31.278v42.831z" fill="#fff"/><path d="M53.596 76.883c0 3.185 2.69 5.777 5.995 5.777 3.306 0 5.995-2.592 5.995-5.777 0-3.186-2.69-5.777-5.995-5.777s-5.995 2.591-5.995 5.777zm5.995-3.785c2.207 0 4.003 1.698 4.003 3.785s-1.796 3.785-4.003 3.785-4.002-1.698-4.002-3.785 1.795-3.785 4.002-3.785zm-10.609 2.789a.998.998 0 00-.704.292 1.003 1.003 0 00-.292.704 1 1 0 00.996.996c.262 0 .519-.107.704-.292.185-.185.292-.442.292-.704 0-.262-.107-.52-.292-.704a1.003 1.003 0 00-.704-.292zm21.286 1.992a.999.999 0 00.704-1.7 1.002 1.002 0 00-.704-.292 1 1 0 00-.704.292 1.003 1.003 0 00-.292.704c0 .262.107.519.292.704.185.185.442.292.704.292zM62.117 59.55H86.62c.55 0 .996-.445.996-.995v-4.782a.996.996 0 00-.996-.996h-7.77a.996.996 0 000 1.992h6.774v2.79H63.113v-2.79h6.774a.996.996 0 100-1.992h-7.77a.996.996 0 00-.996.996v4.782c0 .55.446.996.996.996zm0 4.384H86.62a.996.996 0 000-1.993H62.117a.996.996 0 000 1.993zm24.504 2.789h-4.383a.996.996 0 100 1.992h4.383a.996.996 0 100-1.992zm0 4.781h-4.383a.996.996 0 100 1.992h4.383a.996.996 0 000-1.992zm0 4.781h-4.383a.996.996 0 100 1.992h4.383a.996.996 0 000-1.992zm0 4.781h-4.383a.996.996 0 000 1.993h4.383a.996.996 0 000-1.993z" fill="#fff"/><path d="M74.37 54.77c.261 0 .518-.107.703-.292a1 1 0 000-1.409 1.004 1.004 0 00-.704-.292c-.262 0-.519.107-.704.292a1.004 1.004 0 00-.292.704c0 .262.107.52.292.705.185.185.442.291.704.291z" fill="#fff"/></svg>