<svg width="143" height="143" fill="none" xmlns="http://www.w3.org/2000/svg"><path d="M61.431 141.277a70.497 70.497 0 01-60.244-74.91 70.5 70.5 0 1180.04 74.959" stroke="#4FB5FF" stroke-width="2"/><circle cx="71.5" cy="71.5" r="53.5" fill="#474747"/><path d="M90.621 61.236a.957.957 0 00.957-.957V49.87A2.874 2.874 0 0088.707 47H53.871A2.874 2.874 0 0051 49.871V93.13A2.874 2.874 0 0053.871 96h34.836a2.874 2.874 0 002.871-2.871v-7.05a.957.957 0 10-1.914 0v7.05c0 .528-.43.957-.957.957H53.871a.958.958 0 01-.957-.957V49.87c0-.528.43-.957.957-.957h34.836c.528 0 .957.43.957.957v10.41c0 .528.429.957.957.957z" fill="#fff"/><path d="M71.29 52.168c-4.856 0-8.805 3.95-8.805 8.805a8.78 8.78 0 002.764 6.4 8.77 8.77 0 006.04 2.405 8.771 8.771 0 006.041-2.405 8.78 8.78 0 002.764-6.4c0-4.855-3.95-8.805-8.804-8.805zm0 15.696a6.854 6.854 0 01-4.163-1.404 4.754 4.754 0 014.163-2.424c1.751 0 3.32.932 4.162 2.424a6.854 6.854 0 01-4.162 1.404zm-1.532-7.274v-.622a1.532 1.532 0 013.062 0v.622c0 .844-.686 1.531-1.53 1.531a1.533 1.533 0 01-1.532-1.53zm7.077 4.468a6.64 6.64 0 00-2.82-2.364 3.43 3.43 0 00.72-2.104v-.622a3.45 3.45 0 00-3.445-3.445 3.45 3.45 0 00-3.446 3.445v.622c0 .792.27 1.522.72 2.104a6.64 6.64 0 00-2.82 2.364 6.853 6.853 0 01-1.345-4.085c0-3.8 3.09-6.89 6.89-6.89s6.891 3.09 6.891 6.89c0 1.528-.5 2.94-1.345 4.085zm-.378 18.501h-13.59a.957.957 0 000 1.914h13.59a.957.957 0 000-1.914zm0-5.359h-13.59a.957.957 0 000 1.913h13.59a.957.957 0 100-1.914zm-17.001-5.08a.964.964 0 00-.677-.28.964.964 0 00-.677.28.964.964 0 00-.28.677c0 .252.102.499.28.677.18.178.425.28.677.28a.966.966 0 00.677-.28.964.964 0 00.28-.677.964.964 0 00-.28-.677zm0 5.36a.966.966 0 00-.677-.28.966.966 0 00-.677.28.964.964 0 00-.28.676c0 .252.102.499.28.677.18.178.425.28.677.28a.966.966 0 00.677-.28.964.964 0 00.28-.677.964.964 0 00-.28-.676zm0 5.359a.966.966 0 00-.677-.28.966.966 0 00-.677.28.964.964 0 00-.28.677c0 .251.102.498.28.676a.962.962 0 001.354 0 .964.964 0 00.28-.676.964.964 0 00-.28-.677zM76.457 72.84h-13.59a.957.957 0 000 1.914h13.59a.957.957 0 000-1.914zM97.99 59.472a3.994 3.994 0 00-3.05-.402 3.993 3.993 0 00-2.44 1.873l-12.044 20.86a.958.958 0 00-.123.373l-.847 7.593a.958.958 0 001.518.877l6.152-4.53a.954.954 0 00.262-.293l12.043-20.86a4.024 4.024 0 00-1.47-5.491zM81.63 87.808l.443-3.965 2.77 1.599-3.213 2.366zm4.609-3.77l-3.647-2.106 9.665-16.74 3.646 2.105-9.664 16.74zm11.565-20.032l-.944 1.634-3.646-2.106.943-1.634a2.092 2.092 0 011.279-.98 2.091 2.091 0 011.597.21c.487.28.836.735.981 1.278.146.543.071 1.11-.21 1.598z" fill="#fff"/></svg>