<svg width="143" height="143" fill="none" xmlns="http://www.w3.org/2000/svg"><path d="M2.055 59.349a70.5 70.5 0 11-.64 19.785" stroke="#4FB5FF" stroke-width="2"/><circle cx="71.5" cy="71.5" r="53.5" fill="#474747"/><path d="M95.523 59.159L71.385 47.09a.861.861 0 00-.77 0L46.477 59.159a.862.862 0 00-.477.771v24.136a.861.861 0 00.477.775L70.615 96.91a.861.861 0 00.77 0l24.138-12.068a.863.863 0 00.477-.775V59.93a.862.862 0 00-.477-.771zM71 71.034l-6.739-3.37 21.54-11.44 7.414 3.706L71 71.034zm-13.635-6.817l21.54-11.441 5 2.5-21.538 11.442-5.002-2.501zm-1.02 1.418l5.172 2.586v6.868l-1.977-1.977a.862.862 0 00-.609-.252h-2.586v-7.225zM71 48.826l6.01 3.002L55.47 63.27l-6.68-3.34L71 48.826zM47.724 61.325l6.897 3.448v8.949a.862.862 0 00.862.862h3.091l3.196 3.195a.863.863 0 001.471-.61v-8.086l6.897 3.448v22.208L47.724 83.533V61.325zm24.138 33.414V72.53l22.414-11.205v22.208L71.862 94.739z" fill="#fff"/></svg>