<svg width="1164" height="306" fill="none" xmlns="http://www.w3.org/2000/svg"><path d="M61.431 141.277a70.497 70.497 0 01-60.244-74.91 70.5 70.5 0 1180.04 74.959" stroke="#4FB5FF" stroke-width="2"/><circle cx="71.5" cy="71.5" r="53.5" fill="#474747"/><path d="M90.621 61.236a.957.957 0 00.957-.957V49.87A2.874 2.874 0 0088.707 47H53.871A2.874 2.874 0 0051 49.871V93.13A2.874 2.874 0 0053.871 96h34.836a2.874 2.874 0 002.871-2.871v-7.05a.957.957 0 10-1.914 0v7.05c0 .528-.43.957-.957.957H53.871a.958.958 0 01-.957-.957V49.87c0-.528.43-.957.957-.957h34.836c.528 0 .957.43.957.957v10.41c0 .528.429.957.957.957z" fill="#fff"/><path d="M71.29 52.168c-4.856 0-8.806 3.95-8.806 8.805a8.781 8.781 0 002.765 6.4 8.77 8.77 0 006.04 2.405 8.771 8.771 0 006.041-2.406 8.78 8.78 0 002.764-6.4c0-4.854-3.95-8.804-8.805-8.804zm0 15.696a6.854 6.854 0 01-4.163-1.404 4.755 4.755 0 014.162-2.425c1.752 0 3.322.933 4.163 2.425a6.854 6.854 0 01-4.163 1.404zm-1.532-7.274v-.622c0-.845.687-1.532 1.531-1.532.845 0 1.532.687 1.532 1.532v.622c0 .844-.687 1.531-1.532 1.531a1.533 1.533 0 01-1.53-1.531zm7.077 4.468a6.64 6.64 0 00-2.82-2.364c.45-.583.72-1.312.72-2.104v-.622a3.45 3.45 0 00-3.446-3.446 3.45 3.45 0 00-3.445 3.446v.622c0 .792.27 1.521.72 2.104a6.64 6.64 0 00-2.82 2.364 6.853 6.853 0 01-1.345-4.085c0-3.8 3.09-6.891 6.89-6.891s6.891 3.091 6.891 6.89c0 1.529-.5 2.942-1.345 4.086zm-.378 18.501h-13.59a.957.957 0 000 1.914h13.59a.957.957 0 000-1.914zm0-5.359h-13.59a.957.957 0 000 1.913h13.59a.957.957 0 000-1.914zm-17.001-5.08a.964.964 0 00-.677-.28.964.964 0 00-.677.28.964.964 0 00-.28.677c0 .251.102.498.28.676.18.178.425.28.677.28a.966.966 0 00.677-.28.964.964 0 00.28-.676.964.964 0 00-.28-.677zm0 5.36a.966.966 0 00-.677-.28.966.966 0 00-.677.28.964.964 0 00-.28.676c0 .252.102.499.28.677.18.178.425.28.677.28a.966.966 0 00.677-.28.964.964 0 00.28-.677.964.964 0 00-.28-.676zm0 5.359a.966.966 0 00-.677-.28.966.966 0 00-.677.28.964.964 0 00-.28.677c0 .251.102.498.28.676a.96.96 0 001.354 0 .964.964 0 00.28-.676.964.964 0 00-.28-.677zM76.457 72.84h-13.59a.957.957 0 000 1.914h13.59a.957.957 0 000-1.914zM97.99 59.472a3.994 3.994 0 00-3.05-.401 3.993 3.993 0 00-2.44 1.872l-12.044 20.86a.959.959 0 00-.123.373l-.847 7.594a.957.957 0 001.518.877l6.152-4.532a.954.954 0 00.262-.292l12.043-20.86a4.024 4.024 0 00-1.47-5.49zM81.63 87.808l.443-3.965 2.77 1.6-3.213 2.365zm4.609-3.77l-3.647-2.106 9.665-16.74 3.646 2.106-9.664 16.74zm11.565-20.032l-.944 1.634-3.646-2.106.943-1.633a2.092 2.092 0 011.279-.982 2.091 2.091 0 011.597.21c.487.282.836.736.981 1.28.146.543.071 1.11-.21 1.597z" fill="#fff"/><path d="M174.541 48.096V51h-9.648v-2.904h3.312V37.008c-.128.192-.344.408-.648.648a9.175 9.175 0 01-1.008.672 7.499 7.499 0 01-1.152.528 3.032 3.032 0 01-1.056.216v-2.976c.432 0 .872-.112 1.32-.336.448-.224.864-.48 1.248-.768.384-.288.688-.552.912-.792l.384-.408h3.288v14.304h3.048zM176.466 51v-3.456h2.64V51h-2.64zm17.06.168c-1.392 0-2.64-.28-3.744-.84-1.104-.56-1.976-1.344-2.616-2.352l2.472-1.536c.4.608.92 1.096 1.56 1.464.64.352 1.392.528 2.256.528 1.024 0 1.784-.224 2.28-.672.512-.448.768-1.04.768-1.776 0-.48-.112-.896-.336-1.248-.208-.368-.528-.648-.96-.84-.432-.208-.976-.312-1.632-.312h-2.04v-2.52h2.064c.512 0 .944-.088 1.296-.264.368-.192.64-.448.816-.768.192-.32.288-.688.288-1.104 0-.432-.104-.808-.312-1.128-.192-.32-.488-.568-.888-.744-.384-.192-.88-.288-1.488-.288-.864 0-1.608.176-2.232.528-.624.336-1.104.784-1.44 1.344l-2.376-1.68a7.421 7.421 0 012.448-2.28c1.008-.576 2.256-.864 3.744-.864 1.184 0 2.2.184 3.048.552.848.352 1.504.872 1.968 1.56.48.688.72 1.52.72 2.496a4.46 4.46 0 01-.576 2.208c-.368.672-.96 1.192-1.776 1.56.96.288 1.696.8 2.208 1.536.528.736.792 1.592.792 2.568 0 1.056-.28 1.952-.84 2.688-.544.72-1.288 1.264-2.232 1.632-.944.368-2.024.552-3.24.552zm13.269-17.208h3.36L216.419 51h-3.408l-1.584-4.248h-5.952L203.915 51h-3.408l6.288-17.04zm4.032 10.464l-2.352-7.032-2.448 7.032h4.8zM217.832 51l4.176-6.84c-1.056-.352-1.888-.96-2.496-1.824-.592-.88-.888-1.92-.888-3.12 0-1.008.24-1.904.72-2.688a4.993 4.993 0 011.992-1.872c.848-.464 1.84-.696 2.976-.696h6.648V51h-3.288v-6.432h-2.328L221.552 51h-3.72zm6.864-9.264h2.976v-4.968h-2.928c-.496 0-.96.096-1.392.288a2.29 2.29 0 00-1.008.816c-.24.352-.36.8-.36 1.344s.112 1.008.336 1.392c.224.368.544.648.96.84.416.192.888.288 1.416.288zm23.538 4.872c0 .96-.248 1.768-.744 2.424-.496.64-1.168 1.128-2.016 1.464-.832.336-1.744.504-2.736.504h-8.232V33.96h9.12c.8 0 1.488.216 2.064.648.592.416 1.04.96 1.344 1.632a4.662 4.662 0 01-.144 4.392 3.784 3.784 0 01-1.824 1.632c.976.288 1.744.808 2.304 1.56.576.752.864 1.68.864 2.784zm-3.336-.624c0-.432-.088-.816-.264-1.152a1.993 1.993 0 00-.72-.816 1.676 1.676 0 00-1.008-.312h-5.088v4.488h4.92c.4 0 .76-.096 1.08-.288.336-.208.6-.48.792-.816.192-.336.288-.704.288-1.104zm-7.08-9.192v4.296h4.416c.368 0 .704-.088 1.008-.264.304-.176.544-.424.72-.744.192-.32.288-.704.288-1.152 0-.432-.088-.808-.264-1.128a1.785 1.785 0 00-.672-.744 1.685 1.685 0 00-.936-.264h-4.56zM250.867 51V33.96h3.288v6.864h1.68l5.064-6.864h3.696l-6.192 8.256L265.075 51h-4.008l-5.28-7.176h-1.632V51h-3.288zm21.107-17.04h3.36L281.598 51h-3.408l-1.584-4.248h-5.952L269.094 51h-3.408l6.288-17.04zm4.032 10.464l-2.352-7.032-2.448 7.032h4.8zM169.75 93.09c-.9 0-1.716-.18-2.448-.54a5.92 5.92 0 01-1.89-1.458 7.03 7.03 0 01-1.224-2.088 6.86 6.86 0 01-.432-2.394c0-.852.15-1.662.45-2.43.3-.78.72-1.47 1.26-2.07a6.098 6.098 0 011.926-1.44 5.31 5.31 0 012.376-.54c.9 0 1.716.186 2.448.558.732.372 1.356.87 1.872 1.494a7.03 7.03 0 011.224 2.088 6.76 6.76 0 01-1.278 6.876 6.018 6.018 0 01-1.908 1.422 5.463 5.463 0 01-2.376.522zm-4.734-6.48c0 .696.114 1.368.342 2.016.228.636.552 1.206.972 1.71.42.492.918.888 1.494 1.188.588.288 1.23.432 1.926.432.732 0 1.386-.15 1.962-.45a4.784 4.784 0 001.494-1.224c.42-.516.738-1.092.954-1.728a6.007 6.007 0 00-.018-3.942 5.408 5.408 0 00-.99-1.71c-.42-.504-.918-.9-1.494-1.188a4.206 4.206 0 00-1.908-.432c-.72 0-1.374.15-1.962.45-.576.3-1.074.708-1.494 1.224a5.81 5.81 0 00-.954 1.71 6.007 6.007 0 00-.324 1.944zm16.92 6.57a4.664 4.664 0 01-1.89-.378 4.907 4.907 0 01-1.494-1.08 5.18 5.18 0 01-.99-1.566 5.132 5.132 0 01-.342-1.872c0-.888.198-1.698.594-2.43a4.54 4.54 0 011.656-1.746c.708-.432 1.524-.648 2.448-.648.876 0 1.65.204 2.322.612.672.396 1.17.936 1.494 1.62l-1.188.378a2.775 2.775 0 00-1.116-1.116 3.025 3.025 0 00-1.566-.414c-.624 0-1.194.162-1.71.486-.516.324-.93.768-1.242 1.332-.3.564-.45 1.206-.45 1.926 0 .708.156 1.35.468 1.926a3.853 3.853 0 001.242 1.386 3.069 3.069 0 001.71.504c.408 0 .798-.072 1.17-.216.384-.144.714-.336.99-.576.288-.252.48-.522.576-.81l1.206.36a3.12 3.12 0 01-.846 1.206c-.384.348-.84.624-1.368.828a4.763 4.763 0 01-1.674.288zm8.15-.18v-8.28h-3.348v-1.098h7.92v1.098h-3.348V93h-1.224zm5.43-2.7c0-.588.168-1.092.504-1.512.336-.432.798-.762 1.386-.99.6-.24 1.29-.36 2.07-.36.456 0 .93.036 1.422.108.492.072.93.18 1.314.324v-.792c0-.792-.234-1.422-.702-1.89-.468-.468-1.116-.702-1.944-.702a4.08 4.08 0 00-1.494.288c-.48.18-.984.45-1.512.81l-.468-.864a7.617 7.617 0 011.8-.936 5.183 5.183 0 011.8-.324c1.152 0 2.064.33 2.736.99.672.66 1.008 1.572 1.008 2.736v4.338c0 .168.036.294.108.378.072.072.186.114.342.126V93c-.132.012-.246.024-.342.036a.635.635 0 01-.216 0c-.3-.012-.528-.108-.684-.288a.956.956 0 01-.252-.576l-.018-.684c-.42.54-.966.96-1.638 1.26a5.164 5.164 0 01-2.052.432 3.54 3.54 0 01-1.638-.378 3.074 3.074 0 01-1.134-1.044 2.8 2.8 0 01-.396-1.458zm6.282.72c.132-.168.234-.33.306-.486a1.01 1.01 0 00.108-.414v-1.368a7.447 7.447 0 00-2.592-.486c-.876 0-1.584.174-2.124.522-.54.348-.81.822-.81 1.422 0 .348.09.678.27.99.18.3.444.552.792.756.348.192.756.288 1.224.288.588 0 1.134-.114 1.638-.342.516-.228.912-.522 1.188-.882zm4.264 1.98v-9.378h4.68c.528 0 .972.114 1.332.342.36.216.63.498.81.846.192.348.288.72.288 1.116 0 .504-.12.96-.36 1.368-.24.396-.588.696-1.044.9.54.156.978.438 1.314.846.336.408.504.9.504 1.476 0 .504-.126.942-.378 1.314-.24.372-.576.66-1.008.864-.42.204-.906.306-1.458.306h-4.68zm1.17-.882h3.474c.312 0 .594-.078.846-.234.264-.168.468-.384.612-.648a1.675 1.675 0 00.018-1.674 1.717 1.717 0 00-.576-.63 1.485 1.485 0 00-.828-.234h-3.546v3.42zm0-4.266h3.186c.312 0 .588-.084.828-.252.24-.168.426-.384.558-.648.132-.264.198-.54.198-.828 0-.432-.144-.81-.432-1.134-.276-.324-.636-.486-1.08-.486h-3.258v3.348zm7.581 5.202v-1.116c.324 0 .612-.084.864-.252.252-.18.474-.48.666-.9.204-.42.366-.996.486-1.728.12-.744.198-1.686.234-2.826l.108-2.61h6.084V93h-1.224v-8.28h-3.78l-.036 1.62c-.048 1.296-.15 2.382-.306 3.258-.156.864-.378 1.548-.666 2.052-.276.504-.618.864-1.026 1.08-.408.216-.876.324-1.404.324zM225.259 93l2.79-3.834c-.636-.096-1.152-.372-1.548-.828-.384-.468-.576-1.104-.576-1.908 0-.54.126-1.02.378-1.44.252-.42.606-.756 1.062-1.008.468-.252 1.014-.378 1.638-.378h3.582V93h-1.224v-3.636h-2.088L226.627 93h-1.368zm3.726-4.572h2.376v-3.852h-2.16c-.624 0-1.122.18-1.494.54-.372.348-.558.792-.558 1.332 0 .552.15 1.02.45 1.404.312.384.774.576 1.386.576zm10.343 4.752a4.619 4.619 0 01-1.872-.378 4.768 4.768 0 01-1.494-1.062 5.18 5.18 0 01-.99-1.566 5.182 5.182 0 01-.342-1.89c0-.876.198-1.68.594-2.412a4.677 4.677 0 011.674-1.746c.708-.444 1.512-.666 2.412-.666.924 0 1.728.222 2.412.666a4.723 4.723 0 011.638 1.764c.396.72.594 1.512.594 2.376v.288c0 .084-.006.15-.018.198h-8.028c.06.672.246 1.272.558 1.8.324.516.738.93 1.242 1.242.516.3 1.074.45 1.674.45.612 0 1.188-.156 1.728-.468.552-.312.936-.72 1.152-1.224l1.062.288a3.511 3.511 0 01-.882 1.206c-.396.36-.864.642-1.404.846a4.967 4.967 0 01-1.71.288zm-3.456-5.31h6.93c-.048-.684-.234-1.284-.558-1.8a3.325 3.325 0 00-1.242-1.206 3.211 3.211 0 00-1.674-.45c-.612 0-1.17.15-1.674.45a3.464 3.464 0 00-1.242 1.224c-.312.516-.492 1.11-.54 1.782zm12.31 5.13v-8.28h-3.348v-1.098h7.92v1.098h-3.348V93h-1.224zm10.288.18a4.619 4.619 0 01-1.872-.378 4.768 4.768 0 01-1.494-1.062 5.18 5.18 0 01-.99-1.566 5.182 5.182 0 01-.342-1.89c0-.876.198-1.68.594-2.412a4.677 4.677 0 011.674-1.746c.708-.444 1.512-.666 2.412-.666.924 0 1.728.222 2.412.666a4.723 4.723 0 011.638 1.764c.396.72.594 1.512.594 2.376v.288c0 .084-.006.15-.018.198h-8.028c.06.672.246 1.272.558 1.8.324.516.738.93 1.242 1.242.516.3 1.074.45 1.674.45.612 0 1.188-.156 1.728-.468.552-.312.936-.72 1.152-1.224l1.062.288a3.511 3.511 0 01-.882 1.206c-.396.36-.864.642-1.404.846a4.967 4.967 0 01-1.71.288zm-3.456-5.31h6.93c-.048-.684-.234-1.284-.558-1.8a3.325 3.325 0 00-1.242-1.206 3.211 3.211 0 00-1.674-.45c-.612 0-1.17.15-1.674.45a3.464 3.464 0 00-1.242 1.224c-.312.516-.492 1.11-.54 1.782zm17.277 5.238c-.864 0-1.602-.162-2.214-.486a3.44 3.44 0 01-1.404-1.404l1.008-.45c.228.42.558.75.99.99.432.228.954.342 1.566.342.732 0 1.314-.168 1.746-.504.444-.336.666-.786.666-1.35 0-.516-.174-.93-.522-1.242-.348-.312-.828-.474-1.44-.486h-.954v-.846h1.026c.264 0 .504-.072.72-.216.216-.144.384-.336.504-.576.12-.24.18-.51.18-.81 0-.468-.168-.846-.504-1.134-.324-.288-.804-.432-1.44-.432-.528 0-.972.108-1.332.324-.348.204-.63.51-.846.918l-.936-.504a3.036 3.036 0 011.224-1.296c.552-.312 1.194-.468 1.926-.468.6 0 1.122.102 1.566.306.456.192.81.474 1.062.846.264.36.396.798.396 1.314 0 .444-.108.858-.324 1.242a2.112 2.112 0 01-.9.846c.552.168.978.462 1.278.882.312.42.468.912.468 1.476s-.15 1.05-.45 1.458c-.3.408-.714.72-1.242.936-.528.216-1.134.324-1.818.324zm4.805-2.808c0-.588.168-1.092.504-1.512.336-.432.798-.762 1.386-.99.6-.24 1.29-.36 2.07-.36.456 0 .93.036 1.422.108.492.072.93.18 1.314.324v-.792c0-.792-.234-1.422-.702-1.89-.468-.468-1.116-.702-1.944-.702a4.08 4.08 0 00-1.494.288c-.48.18-.984.45-1.512.81l-.468-.864a7.617 7.617 0 011.8-.936 5.183 5.183 0 011.8-.324c1.152 0 2.064.33 2.736.99.672.66 1.008 1.572 1.008 2.736v4.338c0 .168.036.294.108.378.072.072.186.114.342.126V93c-.132.012-.246.024-.342.036a.635.635 0 01-.216 0c-.3-.012-.528-.108-.684-.288a.956.956 0 01-.252-.576l-.018-.684c-.42.54-.966.96-1.638 1.26a5.164 5.164 0 01-2.052.432 3.54 3.54 0 01-1.638-.378 3.074 3.074 0 01-1.134-1.044 2.8 2.8 0 01-.396-1.458zm6.282.72c.132-.168.234-.33.306-.486a1.01 1.01 0 00.108-.414v-1.368a7.447 7.447 0 00-2.592-.486c-.876 0-1.584.174-2.124.522-.54.348-.81.822-.81 1.422 0 .348.09.678.27.99.18.3.444.552.792.756.348.192.756.288 1.224.288.588 0 1.134-.114 1.638-.342.516-.228.912-.522 1.188-.882zm3.581 1.98l2.79-3.834c-.636-.096-1.152-.372-1.548-.828-.384-.468-.576-1.104-.576-1.908 0-.54.126-1.02.378-1.44.252-.42.606-.756 1.062-1.008.468-.252 1.014-.378 1.638-.378h3.582V93h-1.224v-3.636h-2.088L288.327 93h-1.368zm3.726-4.572h2.376v-3.852h-2.16c-.624 0-1.122.18-1.494.54-.372.348-.558.792-.558 1.332 0 .552.15 1.02.45 1.404.312.384.774.576 1.386.576zM296.959 93v-9.378h4.68c.528 0 .972.114 1.332.342.36.216.63.498.81.846.192.348.288.72.288 1.116 0 .504-.12.96-.36 1.368-.24.396-.588.696-1.044.9.54.156.978.438 1.314.846.336.408.504.9.504 1.476 0 .504-.126.942-.378 1.314-.24.372-.576.66-1.008.864-.42.204-.906.306-1.458.306h-4.68zm1.17-.882h3.474c.312 0 .594-.078.846-.234.264-.168.468-.384.612-.648a1.675 1.675 0 00.018-1.674 1.717 1.717 0 00-.576-.63 1.485 1.485 0 00-.828-.234h-3.546v3.42zm0-4.266h3.186c.312 0 .588-.084.828-.252.24-.168.426-.384.558-.648.132-.264.198-.54.198-.828 0-.432-.144-.81-.432-1.134-.276-.324-.636-.486-1.08-.486h-3.258v3.348zM306.592 93v-9.378h1.224v4.014h1.404l3.15-4.014h1.404l-3.582 4.554L314.224 93h-1.44l-3.564-4.23h-1.404V93h-1.224zm10.395 3.924c-.204 0-.414-.036-.63-.108a3.11 3.11 0 01-.63-.27l.45-.864c.132.072.252.132.36.18.12.048.246.072.378.072.312 0 .606-.156.882-.468.276-.312.54-.768.792-1.368l.468-1.17-4.176-9.306h1.296l3.438 8.118 3.168-8.118h1.224l-4.464 10.854c-.24.564-.492 1.026-.756 1.386-.264.36-.546.624-.846.792-.3.18-.618.27-.954.27zM329.795 93v-9.378h1.224v4.032h5.364v-4.032h1.224V93h-1.224v-4.248h-5.364V93h-1.224zm9.756-2.7c0-.588.168-1.092.504-1.512.336-.432.798-.762 1.386-.99.6-.24 1.29-.36 2.07-.36.456 0 .93.036 1.422.108.492.072.93.18 1.314.324v-.792c0-.792-.234-1.422-.702-1.89-.468-.468-1.116-.702-1.944-.702a4.08 4.08 0 00-1.494.288c-.48.18-.984.45-1.512.81l-.468-.864a7.617 7.617 0 011.8-.936 5.183 5.183 0 011.8-.324c1.152 0 2.064.33 2.736.99.672.66 1.008 1.572 1.008 2.736v4.338c0 .168.036.294.108.378.072.072.186.114.342.126V93c-.132.012-.246.024-.342.036a.635.635 0 01-.216 0c-.3-.012-.528-.108-.684-.288a.956.956 0 01-.252-.576l-.018-.684c-.42.54-.966.96-1.638 1.26a5.164 5.164 0 01-2.052.432 3.54 3.54 0 01-1.638-.378 3.074 3.074 0 01-1.134-1.044 2.8 2.8 0 01-.396-1.458zm6.282.72c.132-.168.234-.33.306-.486a1.01 1.01 0 00.108-.414v-1.368a7.447 7.447 0 00-2.592-.486c-.876 0-1.584.174-2.124.522-.54.348-.81.822-.81 1.422 0 .348.09.678.27.99.18.3.444.552.792.756.348.192.756.288 1.224.288.588 0 1.134-.114 1.638-.342.516-.228.912-.522 1.188-.882zm-177.415 23.16a4.664 4.664 0 01-1.89-.378 4.907 4.907 0 01-1.494-1.08 5.18 5.18 0 01-.99-1.566 5.132 5.132 0 01-.342-1.872c0-.888.198-1.698.594-2.43a4.54 4.54 0 011.656-1.746c.708-.432 1.524-.648 2.448-.648.876 0 1.65.204 2.322.612.672.396 1.17.936 1.494 1.62l-1.188.378a2.775 2.775 0 00-1.116-1.116 3.025 3.025 0 00-1.566-.414c-.624 0-1.194.162-1.71.486-.516.324-.93.768-1.242 1.332-.3.564-.45 1.206-.45 1.926 0 .708.156 1.35.468 1.926a3.853 3.853 0 001.242 1.386 3.069 3.069 0 001.71.504c.408 0 .798-.072 1.17-.216.384-.144.714-.336.99-.576.288-.252.48-.522.576-.81l1.206.36a3.12 3.12 0 01-.846 1.206c-.384.348-.84.624-1.368.828a4.763 4.763 0 01-1.674.288zm5.055-2.88c0-.588.168-1.092.504-1.512.336-.432.798-.762 1.386-.99.6-.24 1.29-.36 2.07-.36.456 0 .93.036 1.422.108.492.072.93.18 1.314.324v-.792c0-.792-.234-1.422-.702-1.89-.468-.468-1.116-.702-1.944-.702a4.08 4.08 0 00-1.494.288c-.48.18-.984.45-1.512.81l-.468-.864a7.617 7.617 0 011.8-.936 5.183 5.183 0 011.8-.324c1.152 0 2.064.33 2.736.99.672.66 1.008 1.572 1.008 2.736v4.338c0 .168.036.294.108.378.072.072.186.114.342.126V114c-.132.012-.246.024-.342.036a.635.635 0 01-.216 0c-.3-.012-.528-.108-.684-.288a.956.956 0 01-.252-.576l-.018-.684c-.42.54-.966.96-1.638 1.26a5.164 5.164 0 01-2.052.432 3.54 3.54 0 01-1.638-.378 3.074 3.074 0 01-1.134-1.044 2.8 2.8 0 01-.396-1.458zm6.282.72c.132-.168.234-.33.306-.486a1.01 1.01 0 00.108-.414v-1.368a7.447 7.447 0 00-2.592-.486c-.876 0-1.584.174-2.124.522-.54.348-.81.822-.81 1.422 0 .348.09.678.27.99.18.3.444.552.792.756.348.192.756.288 1.224.288.588 0 1.134-.114 1.638-.342.516-.228.912-.522 1.188-.882zm4.265 1.98v-9.36h1.224v7.704l5.706-7.722h1.098V114h-1.224v-7.578L185.208 114h-1.188zm4.032-10.566c-.816 0-1.446-.192-1.89-.576a1.844 1.844 0 01-.666-1.458h.9c0 .36.132.66.396.9.276.24.696.36 1.26.36.552 0 .954-.114 1.206-.342.264-.228.414-.534.45-.918h.882c0 .588-.222 1.074-.666 1.458-.444.384-1.068.576-1.872.576zM197.065 114v-8.28h-3.348v-1.098h7.92v1.098h-3.348V114h-1.224zm10.288.18a4.619 4.619 0 01-1.872-.378 4.768 4.768 0 01-1.494-1.062 5.18 5.18 0 01-.99-1.566 5.182 5.182 0 01-.342-1.89c0-.876.198-1.68.594-2.412a4.677 4.677 0 011.674-1.746c.708-.444 1.512-.666 2.412-.666.924 0 1.728.222 2.412.666a4.723 4.723 0 011.638 1.764c.396.72.594 1.512.594 2.376v.288c0 .084-.006.15-.018.198h-8.028c.06.672.246 1.272.558 1.8.324.516.738.93 1.242 1.242.516.3 1.074.45 1.674.45.612 0 1.188-.156 1.728-.468.552-.312.936-.72 1.152-1.224l1.062.288a3.511 3.511 0 01-.882 1.206c-.396.36-.864.642-1.404.846a4.967 4.967 0 01-1.71.288zm-3.456-5.31h6.93c-.048-.684-.234-1.284-.558-1.8a3.325 3.325 0 00-1.242-1.206 3.211 3.211 0 00-1.674-.45c-.612 0-1.17.15-1.674.45a3.464 3.464 0 00-1.242 1.224c-.312.516-.492 1.11-.54 1.782zm14.54 5.13v-9.36h1.224v7.704l5.706-7.722h1.098V114h-1.224v-7.578L219.625 114h-1.188zm9.806.054v-1.116c.324 0 .612-.084.864-.252.252-.18.474-.48.666-.9.204-.42.366-.996.486-1.728.12-.744.198-1.686.234-2.826l.108-2.61h6.084V114h-1.224v-8.28h-3.78l-.036 1.62c-.048 1.296-.15 2.382-.306 3.258-.156.864-.378 1.548-.666 2.052-.276.504-.618.864-1.026 1.08-.408.216-.876.324-1.404.324zm11.13-.054v-9.36h1.224v7.704l5.706-7.722h1.098V114h-1.224v-7.578L240.561 114h-1.188zm18.011.108c-.864 0-1.602-.162-2.214-.486a3.44 3.44 0 01-1.404-1.404l1.008-.45c.228.42.558.75.99.99.432.228.954.342 1.566.342.732 0 1.314-.168 1.746-.504.444-.336.666-.786.666-1.35 0-.516-.174-.93-.522-1.242-.348-.312-.828-.474-1.44-.486h-.954v-.846h1.026c.264 0 .504-.072.72-.216.216-.144.384-.336.504-.576.12-.24.18-.51.18-.81 0-.468-.168-.846-.504-1.134-.324-.288-.804-.432-1.44-.432-.528 0-.972.108-1.332.324-.348.204-.63.51-.846.918l-.936-.504a3.036 3.036 0 011.224-1.296c.552-.312 1.194-.468 1.926-.468.6 0 1.122.102 1.566.306.456.192.81.474 1.062.846.264.36.396.798.396 1.314 0 .444-.108.858-.324 1.242a2.112 2.112 0 01-.9.846c.552.168.978.462 1.278.882.312.42.468.912.468 1.476s-.15 1.05-.45 1.458c-.3.408-.714.72-1.242.936-.528.216-1.134.324-1.818.324zm5.544-.108v-9.378h4.68c.528 0 .972.114 1.332.342.36.216.63.498.81.846.192.348.288.72.288 1.116 0 .504-.12.96-.36 1.368-.24.396-.588.696-1.044.9.54.156.978.438 1.314.846.336.408.504.9.504 1.476 0 .504-.126.942-.378 1.314-.24.372-.576.66-1.008.864-.42.204-.906.306-1.458.306h-4.68zm1.17-.882h3.474c.312 0 .594-.078.846-.234.264-.168.468-.384.612-.648a1.675 1.675 0 00.018-1.674 1.717 1.717 0 00-.576-.63 1.485 1.485 0 00-.828-.234h-3.546v3.42zm0-4.266h3.186c.312 0 .588-.084.828-.252.24-.168.426-.384.558-.648.132-.264.198-.54.198-.828 0-.432-.144-.81-.432-1.134-.276-.324-.636-.486-1.08-.486h-3.258v3.348zm12.477 5.328a4.619 4.619 0 01-1.872-.378 4.83 4.83 0 01-1.476-1.062 5.138 5.138 0 01-.954-1.548 5.083 5.083 0 01-.342-1.854c0-.672.114-1.296.342-1.872a4.7 4.7 0 01.972-1.548 4.46 4.46 0 011.476-1.062 4.439 4.439 0 011.872-.396c.672 0 1.29.132 1.854.396a4.46 4.46 0 011.476 1.062c.42.444.744.96.972 1.548.228.576.342 1.2.342 1.872 0 .648-.114 1.266-.342 1.854a4.961 4.961 0 01-.972 1.548c-.408.444-.9.798-1.476 1.062a4.538 4.538 0 01-1.872.378zm-3.402-4.824c0 .696.15 1.332.45 1.908a3.74 3.74 0 001.242 1.35 3.151 3.151 0 001.71.486c.624 0 1.194-.168 1.71-.504a3.7 3.7 0 001.242-1.368 4.009 4.009 0 00.468-1.908 3.94 3.94 0 00-.468-1.908 3.7 3.7 0 00-1.242-1.368 3.069 3.069 0 00-1.71-.504c-.624 0-1.194.174-1.71.522a3.92 3.92 0 00-1.224 1.386c-.312.564-.468 1.2-.468 1.908zM283.266 114v-9.378h1.224v4.032h5.364v-4.032h1.224V114h-1.224v-4.248h-5.364V114h-1.224zm10.494 0v-9.36h1.224v7.704l5.706-7.722h1.098V114h-1.224v-7.578L294.948 114h-1.188zm13.045 0v-8.28h-3.348v-1.098h7.92v1.098h-3.348V114h-1.224zm10.288.18a4.619 4.619 0 01-1.872-.378 4.768 4.768 0 01-1.494-1.062 5.18 5.18 0 01-.99-1.566 5.182 5.182 0 01-.342-1.89c0-.876.198-1.68.594-2.412a4.677 4.677 0 011.674-1.746c.708-.444 1.512-.666 2.412-.666.924 0 1.728.222 2.412.666a4.723 4.723 0 011.638 1.764c.396.72.594 1.512.594 2.376v.288c0 .084-.006.15-.018.198h-8.028c.06.672.246 1.272.558 1.8.324.516.738.93 1.242 1.242.516.3 1.074.45 1.674.45.612 0 1.188-.156 1.728-.468.552-.312.936-.72 1.152-1.224l1.062.288a3.511 3.511 0 01-.882 1.206c-.396.36-.864.642-1.404.846a4.967 4.967 0 01-1.71.288zm-3.456-5.31h6.93c-.048-.684-.234-1.284-.558-1.8a3.325 3.325 0 00-1.242-1.206 3.211 3.211 0 00-1.674-.45c-.612 0-1.17.15-1.674.45a3.464 3.464 0 00-1.242 1.224c-.312.516-.492 1.11-.54 1.782zm14.541 5.13v-9.378h1.224v4.032h5.364v-4.032h1.224V114h-1.224v-4.248h-5.364V114h-1.224zm9.756-2.7c0-.588.168-1.092.504-1.512.336-.432.798-.762 1.386-.99.6-.24 1.29-.36 2.07-.36.456 0 .93.036 1.422.108.492.072.93.18 1.314.324v-.792c0-.792-.234-1.422-.702-1.89-.468-.468-1.116-.702-1.944-.702a4.08 4.08 0 00-1.494.288c-.48.18-.984.45-1.512.81l-.468-.864a7.617 7.617 0 011.8-.936 5.183 5.183 0 011.8-.324c1.152 0 2.064.33 2.736.99.672.66 1.008 1.572 1.008 2.736v4.338c0 .168.036.294.108.378.072.072.186.114.342.126V114c-.132.012-.246.024-.342.036a.635.635 0 01-.216 0c-.3-.012-.528-.108-.684-.288a.956.956 0 01-.252-.576l-.018-.684c-.42.54-.966.96-1.638 1.26a5.164 5.164 0 01-2.052.432 3.54 3.54 0 01-1.638-.378 3.074 3.074 0 01-1.134-1.044 2.8 2.8 0 01-.396-1.458zm6.282.72c.132-.168.234-.33.306-.486a1.01 1.01 0 00.108-.414v-1.368a7.447 7.447 0 00-2.592-.486c-.876 0-1.584.174-2.124.522-.54.348-.81.822-.81 1.422 0 .348.09.678.27.99.18.3.444.552.792.756.348.192.756.288 1.224.288.588 0 1.134-.114 1.638-.342.516-.228.912-.522 1.188-.882zm4.264 1.98v-9.378h1.26l3.726 6.462 3.744-6.462h1.206V114h-1.17v-7.542l-3.384 5.868h-.792l-3.42-5.868V114h-1.17z" fill="#474747"/><path fill-rule="evenodd" clip-rule="evenodd" d="M292.584 179.063a69.504 69.504 0 0187.118 2.645l1.301-1.519a71.498 71.498 0 00-89.625-2.722 71.502 71.502 0 00-27.308 44.71l1.97.344a69.502 69.502 0 0126.544-43.458zm97.409 10.351a71.517 71.517 0 014.452 6.113l-1.677 1.09a69.504 69.504 0 01-8.984 86.887 69.503 69.503 0 01-94.698 3.606 69.499 69.499 0 01-23.677-45.084l-1.989.216a71.5 71.5 0 10126.573-52.828z" fill="#4FB5FF"/><circle cx="334.5" cy="234.5" r="53.5" fill="#474747"/><path d="M354.004 210h-33.27a.996.996 0 00-.996.996v18.727h-13.076a2.665 2.665 0 00-2.662 2.662v14.996a2.665 2.665 0 002.662 2.662h13.076v3.586h-4.383a.996.996 0 00-.996.996 6.382 6.382 0 006.375 6.375h28.09a6.182 6.182 0 006.176-6.176v-43.828a.996.996 0 00-.996-.996zm-14.814 24.108a3.462 3.462 0 01-2.393-2.393h1.723c.369 0 .67.3.67.67v1.723zm-4.432-2.393a5.451 5.451 0 004.432 4.432v7.472a5.45 5.45 0 00-4.432 4.432h-24.334a5.45 5.45 0 00-4.432-4.432v-7.472a5.452 5.452 0 004.432-4.432h24.334zm4.432 13.943v1.723c0 .369-.301.67-.67.67h-1.723a3.46 3.46 0 012.393-2.393zm-32.528-13.943h1.723a3.46 3.46 0 01-2.393 2.393v-1.723c0-.37.301-.67.67-.67zm-.67 15.666v-1.723a3.458 3.458 0 012.393 2.393h-1.723a.671.671 0 01-.67-.67zm14.742 11.627a4.39 4.39 0 01-4.268-3.387h26.061a6.357 6.357 0 001.672 3.387h-23.465zm32.274-4.184a4.189 4.189 0 01-4.184 4.184 4.388 4.388 0 01-4.383-4.383.996.996 0 00-.996-.996H321.73v-3.586h16.79a2.665 2.665 0 002.662-2.662v-14.996a2.665 2.665 0 00-2.662-2.662h-16.79v-17.731h31.278v42.832z" fill="#fff"/><path d="M316.596 239.883c0 3.185 2.69 5.777 5.995 5.777 3.306 0 5.995-2.592 5.995-5.777 0-3.186-2.689-5.778-5.995-5.778-3.305 0-5.995 2.592-5.995 5.778zm5.995-3.785c2.207 0 4.003 1.698 4.003 3.785s-1.796 3.785-4.003 3.785-4.002-1.698-4.002-3.785 1.795-3.785 4.002-3.785zm-10.609 2.789c-.262 0-.519.106-.705.292a1.003 1.003 0 00-.291.704c0 .262.106.519.291.704.186.185.443.292.705.292.262 0 .519-.107.704-.292.185-.185.292-.442.292-.704a1 1 0 00-.996-.996zm21.286 1.992a.995.995 0 10.001-1.993.995.995 0 00-.001 1.993zm-8.151-18.328h24.504c.55 0 .996-.446.996-.996v-4.782a.996.996 0 00-.996-.996h-7.77a.996.996 0 000 1.993h6.774v2.789h-22.512v-2.789h6.774a.996.996 0 000-1.993h-7.77a.996.996 0 00-.996.996v4.782c0 .55.446.996.996.996zm0 4.383h24.504a.996.996 0 000-1.993h-24.504a.996.996 0 000 1.993zm24.504 2.789h-4.383a.996.996 0 000 1.992h4.383a.996.996 0 000-1.992zm0 4.781h-4.383a.996.996 0 000 1.992h4.383a.996.996 0 000-1.992zm0 4.781h-4.383a.996.996 0 000 1.992h4.383a.996.996 0 000-1.992zm0 4.781h-4.383a.996.996 0 000 1.993h4.383a.996.996 0 000-1.993z" fill="#fff"/><path d="M337.369 217.77c.262 0 .519-.107.704-.292a1 1 0 00-.704-1.701c-.262 0-.519.107-.704.292a1.004 1.004 0 00-.292.704c0 .262.107.519.292.705.185.185.442.292.704.292z" fill="#fff"/><path d="M424.984 208c0-.976.064-1.832.192-2.568.128-.752.328-1.416.6-1.992a5.734 5.734 0 011.104-1.56c.448-.448 1-.872 1.656-1.272.56-.32 1.136-.632 1.728-.936a16.552 16.552 0 001.68-.96 4.69 4.69 0 001.272-1.152c.336-.432.504-.96.504-1.584 0-.48-.104-.888-.312-1.224a1.943 1.943 0 00-.864-.816c-.368-.192-.816-.288-1.344-.288-.608 0-1.176.112-1.704.336a5.93 5.93 0 00-1.392.792c-.4.304-.744.608-1.032.912l-2.016-2.112c.224-.256.528-.544.912-.864.4-.32.872-.632 1.416-.936a8.834 8.834 0 011.896-.744 8.835 8.835 0 012.328-.288c1.248 0 2.296.224 3.144.672.848.432 1.488 1.032 1.92 1.8.448.752.672 1.624.672 2.616 0 .72-.12 1.36-.36 1.92a4.565 4.565 0 01-.936 1.44c-.4.416-.848.792-1.344 1.128-.496.32-1.008.632-1.536.936-.832.448-1.504.84-2.016 1.176-.512.336-.92.648-1.224.936a3.96 3.96 0 00-.672.864c-.144.272-.272.56-.384.864h8.496V208h-12.384zm15.01 0v-3.456h2.64V208h-2.64zm11.54 0v-17.04h7.224c.784 0 1.504.16 2.16.48.656.32 1.224.752 1.704 1.296.496.544.88 1.152 1.152 1.824.272.672.408 1.36.408 2.064 0 .96-.224 1.872-.672 2.736a5.75 5.75 0 01-1.848 2.112c-.784.544-1.712.816-2.784.816h-4.032V208h-3.312zm3.312-8.616h3.84c.4 0 .76-.112 1.08-.336.32-.224.576-.544.768-.96.192-.432.288-.92.288-1.464 0-.592-.112-1.096-.336-1.512-.208-.416-.488-.728-.84-.936a2.057 2.057 0 00-1.104-.312h-3.696v5.52zm15.031-8.424h3.36l6.264 17.04h-3.408l-1.584-4.248h-5.952l-1.56 4.248h-3.408l6.288-17.04zm4.032 10.464l-2.352-7.032-2.448 7.032h4.8zm5.773-2.064c0-1.04.184-2.056.552-3.048a8.885 8.885 0 011.656-2.736 7.721 7.721 0 012.64-1.968c1.04-.496 2.224-.744 3.552-.744 1.568 0 2.92.344 4.056 1.032 1.152.688 2.008 1.584 2.568 2.688l-2.545 1.752c-.287-.64-.663-1.144-1.127-1.512a3.958 3.958 0 00-1.488-.792 5.36 5.36 0 00-1.56-.24c-.832 0-1.56.168-2.184.504a4.886 4.886 0 00-1.536 1.32 5.8 5.8 0 00-.936 1.824 7.308 7.308 0 00-.288 2.016c0 .752.12 1.48.36 2.184.24.688.576 1.304 1.008 1.848.448.528.976.952 1.583 1.272a4.602 4.602 0 002.041.456c.528 0 1.064-.088 1.608-.264a4.56 4.56 0 001.512-.84c.464-.384.824-.88 1.08-1.488l2.712 1.56c-.336.848-.888 1.568-1.656 2.16a8.078 8.078 0 01-2.544 1.344 9.12 9.12 0 01-2.808.456c-1.216 0-2.328-.248-3.336-.744a8.746 8.746 0 01-2.616-2.016 10.197 10.197 0 01-1.704-2.832 8.95 8.95 0 01-.6-3.192zm26.941 8.64v-6.648c-.176.08-.432.184-.768.312s-.76.24-1.272.336a9.878 9.878 0 01-1.8.144c-1.984 0-3.472-.44-4.464-1.32-.992-.88-1.488-2.288-1.488-4.224v-5.64h3.216v5.28c0 1.008.256 1.752.768 2.232.528.464 1.424.696 2.688.696.56 0 1.12-.056 1.68-.168a6.891 6.891 0 001.44-.48v-7.56h3.216V208h-3.216zm18.594-2.904V208h-11.832v-17.04h11.616v2.904h-8.304v4.104h7.176v2.688h-7.176v4.44h8.52zm15.326-11.232h-5.448V208h-3.288v-14.136h-5.448v-2.904h14.184v2.904zm6.146 5.496c0-1.04.184-2.056.552-3.048a8.885 8.885 0 011.656-2.736 7.721 7.721 0 012.64-1.968c1.04-.496 2.224-.744 3.552-.744 1.568 0 2.92.344 4.056 1.032 1.152.688 2.008 1.584 2.568 2.688l-2.544 1.752c-.288-.64-.664-1.144-1.128-1.512a3.958 3.958 0 00-1.488-.792 5.36 5.36 0 00-1.56-.24c-.832 0-1.56.168-2.184.504a4.886 4.886 0 00-1.536 1.32 5.8 5.8 0 00-.936 1.824 7.308 7.308 0 00-.288 2.016c0 .752.12 1.48.36 2.184.24.688.576 1.304 1.008 1.848.448.528.976.952 1.584 1.272a4.595 4.595 0 002.04.456c.528 0 1.064-.088 1.608-.264a4.56 4.56 0 001.512-.84c.464-.384.824-.88 1.08-1.488l2.712 1.56c-.336.848-.888 1.568-1.656 2.16a8.078 8.078 0 01-2.544 1.344 9.12 9.12 0 01-2.808.456c-1.216 0-2.328-.248-3.336-.744a8.746 8.746 0 01-2.616-2.016 10.197 10.197 0 01-1.704-2.832 8.95 8.95 0 01-.6-3.192zm30.229-5.496h-5.448V208h-3.288v-14.136h-5.448v-2.904h14.184v2.904zm8.989 14.256c-1.248 0-2.384-.24-3.408-.72a8.279 8.279 0 01-2.616-1.944 9.514 9.514 0 01-1.68-2.784c-.4-1.04-.6-2.104-.6-3.192 0-1.136.208-2.216.624-3.24a9.318 9.318 0 011.752-2.76 8.242 8.242 0 012.64-1.92c1.024-.48 2.144-.72 3.36-.72 1.232 0 2.352.248 3.36.744a8.066 8.066 0 012.616 1.992c.72.832 1.28 1.76 1.68 2.784.4 1.024.6 2.08.6 3.168 0 1.12-.208 2.2-.624 3.24a9.09 9.09 0 01-1.752 2.76 8.069 8.069 0 01-2.64 1.896c-1.008.464-2.112.696-3.312.696zm-4.944-8.64c0 .736.112 1.448.336 2.136.224.688.544 1.304.96 1.848.432.528.952.952 1.56 1.272.624.304 1.328.456 2.112.456.8 0 1.512-.16 2.136-.48a4.803 4.803 0 001.56-1.32c.416-.56.728-1.176.936-1.848a6.633 6.633 0 00.336-2.064c0-.736-.12-1.44-.36-2.112a5.575 5.575 0 00-.984-1.824 4.314 4.314 0 00-1.56-1.272c-.608-.32-1.296-.48-2.064-.48-.816 0-1.536.168-2.16.504-.608.32-1.12.752-1.536 1.296a6.213 6.213 0 00-.96 1.824 6.941 6.941 0 00-.312 2.064zm15.933 8.52v-17.04h3.288v12.384l8.256-12.384h3.072V208h-3.288v-12.24l-8.16 12.24h-3.168zm32.174 0v-11.184l-4.368 8.328h-1.848l-4.368-8.328V208h-3.312v-17.04h3.552l5.04 9.696 5.088-9.696h3.528V208h-3.312zm14.142.12c-1.248 0-2.384-.24-3.408-.72a8.279 8.279 0 01-2.616-1.944 9.514 9.514 0 01-1.68-2.784c-.4-1.04-.6-2.104-.6-3.192 0-1.136.208-2.216.624-3.24a9.318 9.318 0 011.752-2.76 8.242 8.242 0 012.64-1.92c1.024-.48 2.144-.72 3.36-.72 1.232 0 2.352.248 3.36.744a8.066 8.066 0 012.616 1.992c.72.832 1.28 1.76 1.68 2.784.4 1.024.6 2.08.6 3.168 0 1.12-.208 2.2-.624 3.24a9.09 9.09 0 01-1.752 2.76 8.069 8.069 0 01-2.64 1.896c-1.008.464-2.112.696-3.312.696zm-4.944-8.64c0 .736.112 1.448.336 2.136.224.688.544 1.304.96 1.848.432.528.952.952 1.56 1.272.624.304 1.328.456 2.112.456.8 0 1.512-.16 2.136-.48a4.803 4.803 0 001.56-1.32c.416-.56.728-1.176.936-1.848a6.633 6.633 0 00.336-2.064c0-.736-.12-1.44-.36-2.112a5.575 5.575 0 00-.984-1.824 4.314 4.314 0 00-1.56-1.272c-.608-.32-1.296-.48-2.064-.48-.816 0-1.536.168-2.16.504-.608.32-1.12.752-1.536 1.296a6.213 6.213 0 00-.96 1.824 6.941 6.941 0 00-.312 2.064zm14.781-.12c0-1.04.184-2.056.552-3.048a8.885 8.885 0 011.656-2.736 7.721 7.721 0 012.64-1.968c1.04-.496 2.224-.744 3.552-.744 1.568 0 2.92.344 4.056 1.032 1.152.688 2.008 1.584 2.568 2.688l-2.544 1.752c-.288-.64-.664-1.144-1.128-1.512a3.958 3.958 0 00-1.488-.792 5.36 5.36 0 00-1.56-.24c-.832 0-1.56.168-2.184.504a4.886 4.886 0 00-1.536 1.32 5.8 5.8 0 00-.936 1.824 7.308 7.308 0 00-.288 2.016c0 .752.12 1.48.36 2.184.24.688.576 1.304 1.008 1.848.448.528.976.952 1.584 1.272a4.595 4.595 0 002.04.456c.528 0 1.064-.088 1.608-.264a4.56 4.56 0 001.512-.84c.464-.384.824-.88 1.08-1.488l2.712 1.56c-.336.848-.888 1.568-1.656 2.16a8.078 8.078 0 01-2.544 1.344 9.12 9.12 0 01-2.808.456c-1.216 0-2.328-.248-3.336-.744a8.746 8.746 0 01-2.616-2.016 10.197 10.197 0 01-1.704-2.832 8.95 8.95 0 01-.6-3.192zm30.229-5.496h-5.448V208h-3.288v-14.136h-5.448v-2.904h14.184v2.904zM685.513 208v-17.04h3.288v12.384l8.256-12.384h3.072V208h-3.288v-12.24l-8.16 12.24h-3.168zm-257.911 42v-12.78h5.292c.552 0 1.056.114 1.512.342.468.228.87.54 1.206.936.336.384.6.816.792 1.296.192.468.288.948.288 1.44a4.37 4.37 0 01-.468 1.98c-.3.612-.726 1.11-1.278 1.494-.552.384-1.2.576-1.944.576h-4.14V250h-1.26zm1.26-5.832h4.086c.504 0 .942-.138 1.314-.414.372-.276.66-.636.864-1.08.204-.444.306-.924.306-1.44 0-.528-.12-1.014-.36-1.458a2.77 2.77 0 00-.954-1.044 2.206 2.206 0 00-1.278-.396h-3.978v5.832zm8.824 3.132c0-.588.168-1.092.504-1.512.336-.432.798-.762 1.386-.99.6-.24 1.29-.36 2.07-.36.456 0 .93.036 1.422.108.492.072.93.18 1.314.324v-.792c0-.792-.234-1.422-.702-1.89-.468-.468-1.116-.702-1.944-.702a4.08 4.08 0 00-1.494.288c-.48.18-.984.45-1.512.81l-.468-.864a7.617 7.617 0 011.8-.936 5.183 5.183 0 011.8-.324c1.152 0 2.064.33 2.736.99.672.66 1.008 1.572 1.008 2.736v4.338c0 .168.036.294.108.378.072.072.186.114.342.126V250c-.132.012-.246.024-.342.036a.635.635 0 01-.216 0c-.3-.012-.528-.108-.684-.288a.956.956 0 01-.252-.576l-.018-.684c-.42.54-.966.96-1.638 1.26a5.164 5.164 0 01-2.052.432 3.54 3.54 0 01-1.638-.378 3.074 3.074 0 01-1.134-1.044 2.8 2.8 0 01-.396-1.458zm6.282.72c.132-.168.234-.33.306-.486a1.01 1.01 0 00.108-.414v-1.368a7.447 7.447 0 00-2.592-.486c-.876 0-1.584.174-2.124.522-.54.348-.81.822-.81 1.422 0 .348.09.678.27.99.18.3.444.552.792.756.348.192.756.288 1.224.288.588 0 1.134-.114 1.638-.342.516-.228.912-.522 1.188-.882zm8.35 2.16a4.664 4.664 0 01-1.89-.378 4.907 4.907 0 01-1.494-1.08 5.18 5.18 0 01-.99-1.566 5.132 5.132 0 01-.342-1.872c0-.888.198-1.698.594-2.43a4.54 4.54 0 011.656-1.746c.708-.432 1.524-.648 2.448-.648.876 0 1.65.204 2.322.612.672.396 1.17.936 1.494 1.62l-1.188.378a2.775 2.775 0 00-1.116-1.116 3.025 3.025 0 00-1.566-.414c-.624 0-1.194.162-1.71.486-.516.324-.93.768-1.242 1.332-.3.564-.45 1.206-.45 1.926 0 .708.156 1.35.468 1.926a3.853 3.853 0 001.242 1.386 3.069 3.069 0 001.71.504c.408 0 .798-.072 1.17-.216.384-.144.714-.336.99-.576.288-.252.48-.522.576-.81l1.206.36a3.12 3.12 0 01-.846 1.206c-.384.348-.84.624-1.368.828a4.763 4.763 0 01-1.674.288zm9.791 0a4.664 4.664 0 01-1.89-.378 4.907 4.907 0 01-1.494-1.08 5.18 5.18 0 01-.99-1.566 5.132 5.132 0 01-.342-1.872c0-.888.198-1.698.594-2.43a4.54 4.54 0 011.656-1.746c.708-.432 1.524-.648 2.448-.648.876 0 1.65.204 2.322.612.672.396 1.17.936 1.494 1.62l-1.188.378a2.775 2.775 0 00-1.116-1.116 3.025 3.025 0 00-1.566-.414c-.624 0-1.194.162-1.71.486-.516.324-.93.768-1.242 1.332-.3.564-.45 1.206-.45 1.926 0 .708.156 1.35.468 1.926a3.853 3.853 0 001.242 1.386 3.069 3.069 0 001.71.504c.408 0 .798-.072 1.17-.216.384-.144.714-.336.99-.576.288-.252.48-.522.576-.81l1.206.36a3.12 3.12 0 01-.846 1.206c-.384.348-.84.624-1.368.828a4.763 4.763 0 01-1.674.288zm11.175-.18v-3.924c-.384.18-.786.318-1.206.414a6.88 6.88 0 01-1.35.126c-1.032 0-1.812-.264-2.34-.792-.516-.528-.774-1.338-.774-2.43v-2.772h1.224v2.61c0 .84.168 1.452.504 1.836.348.384.9.576 1.656.576.42 0 .84-.048 1.26-.144.42-.096.762-.222 1.026-.378v-4.5h1.224V250h-1.224zm3.9 0v-9.36h1.224v7.704l5.706-7.722h1.098V250h-1.224v-7.578L478.372 250h-1.188zm13.045 0v-8.28h-3.348v-1.098h7.92v1.098h-3.348V250h-1.224zm6.22 0v-9.378h1.224v3.312h2.124c1.068 0 1.872.276 2.412.828.552.54.828 1.254.828 2.142 0 .576-.12 1.098-.36 1.566-.24.468-.594.84-1.062 1.116-.456.276-1.032.414-1.728.414h-3.438zm1.224-.972h2.052c.492 0 .888-.096 1.188-.288.3-.204.522-.462.666-.774.144-.324.216-.672.216-1.044 0-.36-.066-.69-.198-.99a1.432 1.432 0 00-.648-.738c-.3-.192-.72-.288-1.26-.288h-2.016v4.122zm7.074.972v-9.36h1.224V250h-1.224zm3.901 0v-9.378h4.68c.528 0 .972.114 1.332.342.36.216.63.498.81.846.192.348.288.72.288 1.116 0 .504-.12.96-.36 1.368-.24.396-.588.696-1.044.9.54.156.978.438 1.314.846.336.408.504.9.504 1.476 0 .504-.126.942-.378 1.314-.24.372-.576.66-1.008.864-.42.204-.906.306-1.458.306h-4.68zm1.17-.882h3.474c.312 0 .594-.078.846-.234.264-.168.468-.384.612-.648a1.675 1.675 0 00.018-1.674 1.717 1.717 0 00-.576-.63 1.485 1.485 0 00-.828-.234h-3.546v3.42zm0-4.266h3.186c.312 0 .588-.084.828-.252.24-.168.426-.384.558-.648.132-.264.198-.54.198-.828 0-.432-.144-.81-.432-1.134-.276-.324-.636-.486-1.08-.486h-3.258v3.348zm7.725 2.448c0-.588.168-1.092.504-1.512.336-.432.798-.762 1.386-.99.6-.24 1.29-.36 2.07-.36.456 0 .93.036 1.422.108.492.072.93.18 1.314.324v-.792c0-.792-.234-1.422-.702-1.89-.468-.468-1.116-.702-1.944-.702a4.08 4.08 0 00-1.494.288c-.48.18-.984.45-1.512.81l-.468-.864a7.617 7.617 0 011.8-.936 5.183 5.183 0 011.8-.324c1.152 0 2.064.33 2.736.99.672.66 1.008 1.572 1.008 2.736v4.338c0 .168.036.294.108.378.072.072.186.114.342.126V250c-.132.012-.246.024-.342.036a.635.635 0 01-.216 0c-.3-.012-.528-.108-.684-.288a.956.956 0 01-.252-.576l-.018-.684c-.42.54-.966.96-1.638 1.26a5.164 5.164 0 01-2.052.432 3.54 3.54 0 01-1.638-.378 3.074 3.074 0 01-1.134-1.044 2.8 2.8 0 01-.396-1.458zm6.282.72c.132-.168.234-.33.306-.486a1.01 1.01 0 00.108-.414v-1.368a7.447 7.447 0 00-2.592-.486c-.876 0-1.584.174-2.124.522-.54.348-.81.822-.81 1.422 0 .348.09.678.27.99.18.3.444.552.792.756.348.192.756.288 1.224.288.588 0 1.134-.114 1.638-.342.516-.228.912-.522 1.188-.882zm8.333 2.16a4.619 4.619 0 01-1.872-.378 4.768 4.768 0 01-1.494-1.062 5.18 5.18 0 01-.99-1.566 5.182 5.182 0 01-.342-1.89c0-.876.198-1.68.594-2.412a4.677 4.677 0 011.674-1.746c.708-.444 1.512-.666 2.412-.666.924 0 1.728.222 2.412.666a4.723 4.723 0 011.638 1.764c.396.72.594 1.512.594 2.376v.288c0 .084-.006.15-.018.198h-8.028c.06.672.246 1.272.558 1.8.324.516.738.93 1.242 1.242.516.3 1.074.45 1.674.45.612 0 1.188-.156 1.728-.468.552-.312.936-.72 1.152-1.224l1.062.288a3.511 3.511 0 01-.882 1.206c-.396.36-.864.642-1.404.846a4.967 4.967 0 01-1.71.288zm-3.456-5.31h6.93c-.048-.684-.234-1.284-.558-1.8a3.325 3.325 0 00-1.242-1.206 3.211 3.211 0 00-1.674-.45c-.612 0-1.17.15-1.674.45a3.464 3.464 0 00-1.242 1.224c-.312.516-.492 1.11-.54 1.782zm9.952 5.13v-9.378h1.26l3.726 6.462 3.744-6.462h1.206V250h-1.17v-7.542l-3.384 5.868h-.792l-3.42-5.868V250h-1.17zm21.295.18a4.664 4.664 0 01-1.89-.378 4.907 4.907 0 01-1.494-1.08 5.18 5.18 0 01-.99-1.566 5.132 5.132 0 01-.342-1.872c0-.888.198-1.698.594-2.43a4.54 4.54 0 011.656-1.746c.708-.432 1.524-.648 2.448-.648.876 0 1.65.204 2.322.612.672.396 1.17.936 1.494 1.62l-1.188.378a2.775 2.775 0 00-1.116-1.116 3.025 3.025 0 00-1.566-.414c-.624 0-1.194.162-1.71.486-.516.324-.93.768-1.242 1.332-.3.564-.45 1.206-.45 1.926 0 .708.156 1.35.468 1.926a3.853 3.853 0 001.242 1.386 3.069 3.069 0 001.71.504c.408 0 .798-.072 1.17-.216.384-.144.714-.336.99-.576.288-.252.48-.522.576-.81l1.206.36a3.12 3.12 0 01-.846 1.206c-.384.348-.84.624-1.368.828a4.763 4.763 0 01-1.674.288zm8.151-.18v-8.28h-3.348v-1.098h7.92v1.098h-3.348V250H568.1zm10.234.18a4.619 4.619 0 01-1.872-.378 4.83 4.83 0 01-1.476-1.062 5.138 5.138 0 01-.954-1.548 5.083 5.083 0 01-.342-1.854c0-.672.114-1.296.342-1.872a4.7 4.7 0 01.972-1.548 4.46 4.46 0 011.476-1.062 4.439 4.439 0 011.872-.396c.672 0 1.29.132 1.854.396a4.46 4.46 0 011.476 1.062c.42.444.744.96.972 1.548.228.576.342 1.2.342 1.872 0 .648-.114 1.266-.342 1.854a4.961 4.961 0 01-.972 1.548c-.408.444-.9.798-1.476 1.062a4.538 4.538 0 01-1.872.378zm-3.402-4.824c0 .696.15 1.332.45 1.908a3.74 3.74 0 001.242 1.35 3.151 3.151 0 001.71.486c.624 0 1.194-.168 1.71-.504a3.7 3.7 0 001.242-1.368 4.009 4.009 0 00.468-1.908 3.94 3.94 0 00-.468-1.908 3.7 3.7 0 00-1.242-1.368 3.069 3.069 0 00-1.71-.504c-.624 0-1.194.174-1.71.522a3.92 3.92 0 00-1.224 1.386c-.312.564-.468 1.2-.468 1.908zM585.025 250v-9.36h1.224v7.704l5.706-7.722h1.098V250h-1.224v-7.578L586.213 250h-1.188zm10.688 0v-9.378h1.26l3.726 6.462 3.744-6.462h1.206V250h-1.17v-7.542l-3.384 5.868h-.792l-3.42-5.868V250h-1.17zm16.635.18a4.619 4.619 0 01-1.872-.378A4.83 4.83 0 01609 248.74a5.138 5.138 0 01-.954-1.548 5.083 5.083 0 01-.342-1.854c0-.672.114-1.296.342-1.872a4.7 4.7 0 01.972-1.548 4.46 4.46 0 011.476-1.062 4.439 4.439 0 011.872-.396c.672 0 1.29.132 1.854.396a4.46 4.46 0 011.476 1.062c.42.444.744.96.972 1.548.228.576.342 1.2.342 1.872 0 .648-.114 1.266-.342 1.854a4.961 4.961 0 01-.972 1.548c-.408.444-.9.798-1.476 1.062a4.538 4.538 0 01-1.872.378zm-3.402-4.824c0 .696.15 1.332.45 1.908a3.74 3.74 0 001.242 1.35 3.151 3.151 0 001.71.486c.624 0 1.194-.168 1.71-.504a3.7 3.7 0 001.242-1.368 4.009 4.009 0 00.468-1.908 3.94 3.94 0 00-.468-1.908 3.7 3.7 0 00-1.242-1.368 3.069 3.069 0 00-1.71-.504c-.624 0-1.194.174-1.71.522a3.92 3.92 0 00-1.224 1.386c-.312.564-.468 1.2-.468 1.908zm14.179 4.824a4.664 4.664 0 01-1.89-.378 4.907 4.907 0 01-1.494-1.08 5.18 5.18 0 01-.99-1.566 5.132 5.132 0 01-.342-1.872c0-.888.198-1.698.594-2.43a4.54 4.54 0 011.656-1.746c.708-.432 1.524-.648 2.448-.648.876 0 1.65.204 2.322.612.672.396 1.17.936 1.494 1.62l-1.188.378a2.775 2.775 0 00-1.116-1.116 3.025 3.025 0 00-1.566-.414c-.624 0-1.194.162-1.71.486-.516.324-.93.768-1.242 1.332-.3.564-.45 1.206-.45 1.926 0 .708.156 1.35.468 1.926a3.853 3.853 0 001.242 1.386 3.069 3.069 0 001.71.504c.408 0 .798-.072 1.17-.216.384-.144.714-.336.99-.576.288-.252.48-.522.576-.81l1.206.36a3.12 3.12 0 01-.846 1.206c-.384.348-.84.624-1.368.828a4.763 4.763 0 01-1.674.288zm8.151-.18v-8.28h-3.348v-1.098h7.92v1.098H632.5V250h-1.224zm6.22 0v-9.378h1.224v3.312h2.43c1.068 0 1.872.276 2.412.828.552.54.828 1.254.828 2.142 0 .576-.12 1.098-.36 1.566-.24.468-.594.84-1.062 1.116-.456.276-1.032.414-1.728.414h-3.744zm1.224-.972h2.358c.492 0 .888-.096 1.188-.288.3-.204.522-.462.666-.774.144-.324.216-.672.216-1.044 0-.36-.066-.69-.198-.99a1.432 1.432 0 00-.648-.738c-.3-.192-.72-.288-1.26-.288h-2.322v4.122zM427.332 271v-9.378h1.224v4.014h1.404l3.15-4.014h1.404l-3.582 4.554 4.032 4.824h-1.44l-3.564-4.23h-1.404V271h-1.224zm12.873.18a4.619 4.619 0 01-1.872-.378 4.83 4.83 0 01-1.476-1.062 5.138 5.138 0 01-.954-1.548 5.083 5.083 0 01-.342-1.854c0-.672.114-1.296.342-1.872a4.7 4.7 0 01.972-1.548 4.46 4.46 0 011.476-1.062 4.439 4.439 0 011.872-.396c.672 0 1.29.132 1.854.396a4.46 4.46 0 011.476 1.062c.42.444.744.96.972 1.548.228.576.342 1.2.342 1.872 0 .648-.114 1.266-.342 1.854a4.961 4.961 0 01-.972 1.548c-.408.444-.9.798-1.476 1.062a4.538 4.538 0 01-1.872.378zm-3.402-4.824c0 .696.15 1.332.45 1.908a3.74 3.74 0 001.242 1.35 3.151 3.151 0 001.71.486c.624 0 1.194-.168 1.71-.504a3.7 3.7 0 001.242-1.368 4.009 4.009 0 00.468-1.908 3.94 3.94 0 00-.468-1.908 3.7 3.7 0 00-1.242-1.368 3.069 3.069 0 00-1.71-.504c-.624 0-1.194.174-1.71.522a3.92 3.92 0 00-1.224 1.386c-.312.564-.468 1.2-.468 1.908zM446.896 271v-9.378h1.224v4.032h5.364v-4.032h1.224V271h-1.224v-4.248h-5.364V271h-1.224zm14.581.18a4.664 4.664 0 01-1.89-.378 4.907 4.907 0 01-1.494-1.08 5.18 5.18 0 01-.99-1.566 5.132 5.132 0 01-.342-1.872c0-.888.198-1.698.594-2.43a4.54 4.54 0 011.656-1.746c.708-.432 1.524-.648 2.448-.648.876 0 1.65.204 2.322.612.672.396 1.17.936 1.494 1.62l-1.188.378a2.775 2.775 0 00-1.116-1.116 3.025 3.025 0 00-1.566-.414c-.624 0-1.194.162-1.71.486-.516.324-.93.768-1.242 1.332-.3.564-.45 1.206-.45 1.926 0 .708.156 1.35.468 1.926a3.853 3.853 0 001.242 1.386 3.069 3.069 0 001.71.504c.408 0 .798-.072 1.17-.216.384-.144.714-.336.99-.576.288-.252.48-.522.576-.81l1.206.36a3.12 3.12 0 01-.846 1.206c-.384.348-.84.624-1.368.828a4.763 4.763 0 01-1.674.288zm8.151-.18v-8.28h-3.348v-1.098h7.92v1.098h-3.348V271h-1.224zm11.026.18c-.78 0-1.482-.204-2.106-.612a4.732 4.732 0 01-1.458-1.512v5.778h-1.224v-13.212h1.098v1.818a4.248 4.248 0 011.494-1.422 3.837 3.837 0 011.998-.558c.648 0 1.242.138 1.782.414.54.264 1.008.624 1.404 1.08.396.456.702.978.918 1.566.228.576.342 1.176.342 1.8 0 .876-.18 1.686-.54 2.43a4.422 4.422 0 01-1.476 1.764c-.636.444-1.38.666-2.232.666zm-.342-1.08c.516 0 .978-.102 1.386-.306a3.3 3.3 0 001.044-.864c.3-.36.528-.762.684-1.206.156-.456.234-.924.234-1.404 0-.504-.09-.984-.27-1.44a3.553 3.553 0 00-.738-1.206 3.756 3.756 0 00-1.116-.828 3.09 3.09 0 00-1.368-.306c-.312 0-.636.06-.972.18-.336.12-.66.294-.972.522-.3.216-.552.462-.756.738-.204.276-.33.57-.378.882v2.88c.192.444.45.846.774 1.206.324.348.696.63 1.116.846.432.204.876.306 1.332.306zm7.373 4.824c-.204 0-.414-.036-.63-.108a3.11 3.11 0 01-.63-.27l.45-.864c.132.072.252.132.36.18.12.048.246.072.378.072.312 0 .606-.156.882-.468.276-.312.54-.768.792-1.368l.468-1.17-4.176-9.306h1.296l3.438 8.118 3.168-8.118h1.224l-4.464 10.854c-.24.564-.492 1.026-.756 1.386-.264.36-.546.624-.846.792-.3.18-.618.27-.954.27zm8.711-3.924v-9.378h1.224v4.014h1.404l3.15-4.014h1.404l-3.582 4.554 4.032 4.824h-1.44l-3.564-4.23h-1.404V271h-1.224zm16.84 2.178V271h-7.488v-9.378h1.224v8.298h4.86v-8.298h1.224v8.298h1.278v3.258h-1.098zm2.936-2.178v-9.36h1.224v7.704l5.706-7.722h1.098V271h-1.224v-7.578L517.36 271h-1.188zm10.687 0v-9.36h1.224v7.704l5.706-7.722h1.098V271h-1.224v-7.578L528.047 271h-1.188zm15.276 0v-9.378h7.542V271h-1.224v-8.28h-5.094V271h-1.224zm14.244.18a4.619 4.619 0 01-1.872-.378 4.83 4.83 0 01-1.476-1.062 5.138 5.138 0 01-.954-1.548 5.083 5.083 0 01-.342-1.854c0-.672.114-1.296.342-1.872a4.7 4.7 0 01.972-1.548 4.46 4.46 0 011.476-1.062 4.439 4.439 0 011.872-.396c.672 0 1.29.132 1.854.396a4.46 4.46 0 011.476 1.062c.42.444.744.96.972 1.548.228.576.342 1.2.342 1.872 0 .648-.114 1.266-.342 1.854a4.961 4.961 0 01-.972 1.548c-.408.444-.9.798-1.476 1.062a4.538 4.538 0 01-1.872.378zm-3.402-4.824c0 .696.15 1.332.45 1.908a3.74 3.74 0 001.242 1.35 3.151 3.151 0 001.71.486c.624 0 1.194-.168 1.71-.504a3.7 3.7 0 001.242-1.368 4.009 4.009 0 00.468-1.908 3.94 3.94 0 00-.468-1.908 3.7 3.7 0 00-1.242-1.368 3.069 3.069 0 00-1.71-.504c-.624 0-1.194.174-1.71.522a3.92 3.92 0 00-1.224 1.386c-.312.564-.468 1.2-.468 1.908zM573.04 271v-3.924c-.384.18-.786.318-1.206.414a6.88 6.88 0 01-1.35.126c-1.032 0-1.812-.264-2.34-.792-.516-.528-.774-1.338-.774-2.43v-2.772h1.224v2.61c0 .84.168 1.452.504 1.836.348.384.9.576 1.656.576.42 0 .84-.048 1.26-.144.42-.096.762-.222 1.026-.378v-4.5h1.224V271h-1.224zm7.967.18a4.619 4.619 0 01-1.872-.378 4.768 4.768 0 01-1.494-1.062 5.18 5.18 0 01-.99-1.566 5.182 5.182 0 01-.342-1.89c0-.876.198-1.68.594-2.412a4.677 4.677 0 011.674-1.746c.708-.444 1.512-.666 2.412-.666.924 0 1.728.222 2.412.666a4.723 4.723 0 011.638 1.764c.396.72.594 1.512.594 2.376v.288c0 .084-.006.15-.018.198h-8.028c.06.672.246 1.272.558 1.8.324.516.738.93 1.242 1.242.516.3 1.074.45 1.674.45.612 0 1.188-.156 1.728-.468.552-.312.936-.72 1.152-1.224l1.062.288a3.511 3.511 0 01-.882 1.206c-.396.36-.864.642-1.404.846a4.967 4.967 0 01-1.71.288zm-3.456-5.31h6.93c-.048-.684-.234-1.284-.558-1.8a3.325 3.325 0 00-1.242-1.206 3.211 3.211 0 00-1.674-.45c-.612 0-1.17.15-1.674.45a3.464 3.464 0 00-1.242 1.224c-.312.516-.492 1.11-.54 1.782zm14.759 5.31c-.78 0-1.482-.204-2.106-.612a4.732 4.732 0 01-1.458-1.512v5.778h-1.224v-13.212h1.098v1.818a4.248 4.248 0 011.494-1.422 3.837 3.837 0 011.998-.558c.648 0 1.242.138 1.782.414.54.264 1.008.624 1.404 1.08.396.456.702.978.918 1.566.228.576.342 1.176.342 1.8 0 .876-.18 1.686-.54 2.43a4.422 4.422 0 01-1.476 1.764c-.636.444-1.38.666-2.232.666zm-.342-1.08c.516 0 .978-.102 1.386-.306a3.3 3.3 0 001.044-.864c.3-.36.528-.762.684-1.206.156-.456.234-.924.234-1.404 0-.504-.09-.984-.27-1.44a3.553 3.553 0 00-.738-1.206 3.756 3.756 0 00-1.116-.828 3.09 3.09 0 00-1.368-.306c-.312 0-.636.06-.972.18-.336.12-.66.294-.972.522-.3.216-.552.462-.756.738-.204.276-.33.57-.378.882v2.88c.192.444.45.846.774 1.206.324.348.696.63 1.116.846.432.204.876.306 1.332.306zm9.003.9v-8.28h-3.348v-1.098h7.92v1.098h-3.348V271h-1.224zm10.288.18a4.619 4.619 0 01-1.872-.378 4.768 4.768 0 01-1.494-1.062 5.18 5.18 0 01-.99-1.566 5.182 5.182 0 01-.342-1.89c0-.876.198-1.68.594-2.412a4.677 4.677 0 011.674-1.746c.708-.444 1.512-.666 2.412-.666.924 0 1.728.222 2.412.666a4.723 4.723 0 011.638 1.764c.396.72.594 1.512.594 2.376v.288c0 .084-.006.15-.018.198h-8.028c.06.672.246 1.272.558 1.8.324.516.738.93 1.242 1.242.516.3 1.074.45 1.674.45.612 0 1.188-.156 1.728-.468.552-.312.936-.72 1.152-1.224l1.062.288a3.511 3.511 0 01-.882 1.206c-.396.36-.864.642-1.404.846a4.967 4.967 0 01-1.71.288zm-3.456-5.31h6.93c-.048-.684-.234-1.284-.558-1.8a3.325 3.325 0 00-1.242-1.206 3.211 3.211 0 00-1.674-.45c-.612 0-1.17.15-1.674.45a3.464 3.464 0 00-1.242 1.224c-.312.516-.492 1.11-.54 1.782zm9.305 5.13l3.51-4.824-3.168-4.554h1.386l2.826 4.05h1.224v-4.05h1.26v4.05h1.26l2.772-4.05h1.404l-3.186 4.554 3.546 4.824h-1.422l-3.114-4.248h-1.26V271h-1.26v-4.248h-1.224L618.53 271h-1.422zm15.895 3.924c-.204 0-.414-.036-.63-.108a3.11 3.11 0 01-.63-.27l.45-.864c.132.072.252.132.36.18.12.048.246.072.378.072.312 0 .606-.156.882-.468.276-.312.54-.768.792-1.368l.468-1.17-4.176-9.306h1.296l3.438 8.118 3.168-8.118h1.224l-4.464 10.854c-.24.564-.492 1.026-.756 1.386-.264.36-.546.624-.846.792-.3.18-.618.27-.954.27z" fill="#474747"/><path fill-rule="evenodd" clip-rule="evenodd" d="M555.584 21.063a69.5 69.5 0 01103.088 88.425l1.761.949a71.5 71.5 0 11-133.363-46.26l1.97.344a69.502 69.502 0 0126.544-43.458zm92.707 105.761l-1.421-1.407-.086.087a69.503 69.503 0 01-94.698 3.606 69.499 69.499 0 01-23.677-45.084l-1.989.216a71.5 71.5 0 00121.782 42.672l.089-.09z" fill="#4FB5FF"/><circle cx="597.5" cy="76.5" r="53.5" fill="#474747"/><path d="M625.709 62.805a4.55 4.55 0 00-3.477-.457 4.552 4.552 0 00-2.782 2.134l-3.004 5.203V54.988A2.992 2.992 0 00613.457 52h-33.468A2.992 2.992 0 00577 54.988v37.603c0 .264.105.517.292.704l9.413 9.413c.187.187.44.292.705.292h9.629a.996.996 0 000-1.992h-8.633v-6.433a2.992 2.992 0 00-2.989-2.988h-6.424V54.988c0-.55.446-.996.996-.996h33.468c.55 0 .996.447.996.996v18.148l-6.782 11.748a1.029 1.029 0 00-.19-.018h-21.516a.996.996 0 000 1.992h20.566l-1.381 2.392a1 1 0 00-.131.423l-.63 8.263a.998.998 0 001.556.897l6.841-4.676a.993.993 0 00.3-.325l1.367-2.368v8.548a.997.997 0 01-.996.996h-7.454a.996.996 0 000 1.992h7.454a2.992 2.992 0 002.989-2.988V88.013l10.94-18.949a4.587 4.587 0 00-1.677-6.259zM585.417 93.58c.55 0 .996.446.996.996v5.016l-6.012-6.012h5.016zm21.469-2.176l3.469 2.003-3.821 2.612.352-4.615zm4.973.57l-4.486-2.59 11.615-20.117 4.486 2.59-11.615 20.118zm13.802-23.905l-1.191 2.063-4.486-2.59 1.191-2.063a2.592 2.592 0 013.537-.947 2.593 2.593 0 01.949 3.537z" fill="#fff"/><path d="M600.954 91.439a.995.995 0 00-.996-.996h-8.647a.996.996 0 000 1.992h8.647a.995.995 0 00.996-.996zm6.527-12.153h-15.245a.996.996 0 000 1.992h15.245a.996.996 0 000-1.992zM585.965 75.7h21.516a.996.996 0 000-1.992h-21.516a.996.996 0 000 1.993zm21.516-13.151h-21.516a.996.996 0 000 1.992h21.516a.996.996 0 000-1.992zm0 5.579h-7.523a.997.997 0 000 1.992h7.523a.996.996 0 000-1.992zm-21.516 1.992h8.849a.996.996 0 000-1.992h-8.849a.996.996 0 000 1.992zm0 11.158h1.633a.996.996 0 000-1.992h-1.633a.996.996 0 000 1.992z" fill="#fff"/><path d="M694.528 48.168c-.912 0-1.744-.112-2.496-.336a6.4 6.4 0 01-1.944-1.008 5.134 5.134 0 01-1.296-1.584l1.728-2.184c.16.352.416.696.768 1.032.352.336.792.608 1.32.816.528.208 1.128.312 1.8.312.656 0 1.224-.096 1.704-.288.48-.192.848-.456 1.104-.792.272-.352.408-.776.408-1.272 0-.528-.168-.976-.504-1.344-.32-.368-.8-.648-1.44-.84-.64-.192-1.424-.288-2.352-.288h-.792v-2.4h.84c1.152 0 2.072-.2 2.76-.6.704-.4 1.056-.968 1.056-1.704 0-.448-.12-.832-.36-1.152a2.118 2.118 0 00-.96-.744c-.4-.176-.84-.264-1.32-.264-.8 0-1.512.192-2.136.576a3.753 3.753 0 00-1.392 1.44l-2.088-2.328c.352-.512.832-.944 1.44-1.296a8.074 8.074 0 012.04-.864 9.049 9.049 0 012.376-.312c1.136 0 2.144.2 3.024.6.88.384 1.568.912 2.064 1.584a3.78 3.78 0 01.744 2.304c0 .64-.136 1.224-.408 1.752a3.52 3.52 0 01-1.104 1.32 4.75 4.75 0 01-1.704.768c.704.112 1.32.376 1.848.792.544.4.96.912 1.248 1.536.304.608.456 1.272.456 1.992 0 1.008-.288 1.864-.864 2.568-.56.704-1.328 1.248-2.304 1.632-.96.384-2.048.576-3.264.576zm8.903-.168v-3.456h2.64V48h-2.64zm10.484 3.264v-6.168h.912c.432 0 .808-.168 1.128-.504.32-.336.592-.872.816-1.608.224-.736.4-1.688.528-2.856.144-1.184.24-2.616.288-4.296l.144-4.872h11.352v14.136h2.256v6.168h-2.904V48h-11.616v3.264h-2.904zm4.872-6.168h7.008V33.864h-5.064l-.048 2.4c-.048 1.664-.144 3.08-.288 4.248-.128 1.168-.32 2.128-.576 2.88-.24.752-.584 1.32-1.032 1.704zm22.394 3.024c-1.248 0-2.384-.24-3.408-.72a8.279 8.279 0 01-2.616-1.944 9.514 9.514 0 01-1.68-2.784c-.4-1.04-.6-2.104-.6-3.192 0-1.136.208-2.216.624-3.24a9.318 9.318 0 011.752-2.76 8.242 8.242 0 012.64-1.92c1.024-.48 2.144-.72 3.36-.72 1.232 0 2.352.248 3.36.744a8.066 8.066 0 012.616 1.992c.72.832 1.28 1.76 1.68 2.784.4 1.024.6 2.08.6 3.168 0 1.12-.208 2.2-.624 3.24a9.09 9.09 0 01-1.752 2.76 8.069 8.069 0 01-2.64 1.896c-1.008.464-2.112.696-3.312.696zm-4.944-8.64c0 .736.112 1.448.336 2.136.224.688.544 1.304.96 1.848.432.528.952.952 1.56 1.272.624.304 1.328.456 2.112.456.8 0 1.512-.16 2.136-.48a4.803 4.803 0 001.56-1.32c.416-.56.728-1.176.936-1.848a6.633 6.633 0 00.336-2.064c0-.736-.12-1.44-.36-2.112a5.575 5.575 0 00-.984-1.824 4.314 4.314 0 00-1.56-1.272c-.608-.32-1.296-.48-2.064-.48-.816 0-1.536.168-2.16.504-.608.32-1.12.752-1.536 1.296a6.213 6.213 0 00-.96 1.824 6.941 6.941 0 00-.312 2.064zm15.86 8.52V30.96h10.464v2.904h-7.176V48h-3.288zm20.115.12c-1.248 0-2.384-.24-3.408-.72a8.279 8.279 0 01-2.616-1.944 9.514 9.514 0 01-1.68-2.784c-.4-1.04-.6-2.104-.6-3.192 0-1.136.208-2.216.624-3.24a9.318 9.318 0 011.752-2.76 8.242 8.242 0 012.64-1.92c1.024-.48 2.144-.72 3.36-.72 1.232 0 2.352.248 3.36.744a8.066 8.066 0 012.616 1.992c.72.832 1.28 1.76 1.68 2.784.4 1.024.6 2.08.6 3.168 0 1.12-.208 2.2-.624 3.24a9.09 9.09 0 01-1.752 2.76 8.069 8.069 0 01-2.64 1.896c-1.008.464-2.112.696-3.312.696zm-4.944-8.64c0 .736.112 1.448.336 2.136.224.688.544 1.304.96 1.848.432.528.952.952 1.56 1.272.624.304 1.328.456 2.112.456.8 0 1.512-.16 2.136-.48a4.803 4.803 0 001.56-1.32c.416-.56.728-1.176.936-1.848a6.633 6.633 0 00.336-2.064c0-.736-.12-1.44-.36-2.112a5.575 5.575 0 00-.984-1.824 4.314 4.314 0 00-1.56-1.272c-.608-.32-1.296-.48-2.064-.48-.816 0-1.536.168-2.16.504-.608.32-1.12.752-1.536 1.296a6.213 6.213 0 00-.96 1.824 6.941 6.941 0 00-.312 2.064zm29.541 4.128c0 .96-.248 1.768-.744 2.424-.496.64-1.168 1.128-2.016 1.464-.832.336-1.744.504-2.736.504h-8.232V30.96h9.12c.8 0 1.488.216 2.064.648.592.416 1.04.96 1.344 1.632a4.662 4.662 0 01-.144 4.392 3.784 3.784 0 01-1.824 1.632c.976.288 1.744.808 2.304 1.56.576.752.864 1.68.864 2.784zm-3.336-.624c0-.432-.088-.816-.264-1.152a1.993 1.993 0 00-.72-.816 1.676 1.676 0 00-1.008-.312h-5.088v4.488h4.92c.4 0 .76-.096 1.08-.288.336-.208.6-.48.792-.816.192-.336.288-.704.288-1.104zm-7.08-9.192v4.296h4.416c.368 0 .704-.088 1.008-.264.304-.176.544-.424.72-.744.192-.32.288-.704.288-1.152 0-.432-.088-.808-.264-1.128a1.785 1.785 0 00-.672-.744 1.685 1.685 0 00-.936-.264h-4.56zm20.272 14.328c-1.248 0-2.384-.24-3.408-.72a8.279 8.279 0 01-2.616-1.944 9.514 9.514 0 01-1.68-2.784c-.4-1.04-.6-2.104-.6-3.192 0-1.136.208-2.216.624-3.24a9.318 9.318 0 011.752-2.76 8.242 8.242 0 012.64-1.92c1.024-.48 2.144-.72 3.36-.72 1.232 0 2.352.248 3.36.744a8.066 8.066 0 012.616 1.992c.72.832 1.28 1.76 1.68 2.784.4 1.024.6 2.08.6 3.168 0 1.12-.208 2.2-.624 3.24a9.09 9.09 0 01-1.752 2.76 8.069 8.069 0 01-2.64 1.896c-1.008.464-2.112.696-3.312.696zm-4.944-8.64c0 .736.112 1.448.336 2.136.224.688.544 1.304.96 1.848.432.528.952.952 1.56 1.272.624.304 1.328.456 2.112.456.8 0 1.512-.16 2.136-.48a4.803 4.803 0 001.56-1.32c.416-.56.728-1.176.936-1.848a6.633 6.633 0 00.336-2.064c0-.736-.12-1.44-.36-2.112a5.575 5.575 0 00-.984-1.824 4.314 4.314 0 00-1.56-1.272c-.608-.32-1.296-.48-2.064-.48-.816 0-1.536.168-2.16.504-.608.32-1.12.752-1.536 1.296a6.213 6.213 0 00-.96 1.824 6.941 6.941 0 00-.312 2.064zM817.534 48V30.96h7.224c.784 0 1.504.16 2.16.48.656.32 1.224.752 1.704 1.296.496.544.88 1.152 1.152 1.824.272.672.408 1.36.408 2.064 0 .96-.224 1.872-.672 2.736a5.75 5.75 0 01-1.848 2.112c-.784.544-1.712.816-2.784.816h-4.032V48h-3.312zm3.312-8.616h3.84c.4 0 .76-.112 1.08-.336.32-.224.576-.544.768-.96.192-.432.288-.92.288-1.464 0-.592-.112-1.096-.336-1.512-.208-.416-.488-.728-.84-.936a2.057 2.057 0 00-1.104-.312h-3.696v5.52zM689.756 83.52c0-.78.132-1.542.396-2.286a6.749 6.749 0 011.188-2.052 5.52 5.52 0 011.908-1.476c.756-.372 1.614-.558 2.574-.558 1.14 0 2.112.264 2.916.792.816.516 1.416 1.182 1.8 1.998l-.99.612c-.276-.564-.624-1.008-1.044-1.332a3.984 3.984 0 00-1.35-.72 4.752 4.752 0 00-1.404-.216c-.768 0-1.446.156-2.034.468-.588.3-1.086.708-1.494 1.224a5.422 5.422 0 00-.9 1.71 6.103 6.103 0 00-.306 1.908 5.81 5.81 0 001.368 3.762c.432.492.936.888 1.512 1.188a4.279 4.279 0 001.908.432c.48 0 .972-.084 1.476-.252a4.489 4.489 0 001.404-.774 3.724 3.724 0 001.062-1.35l1.044.54a4.042 4.042 0 01-1.224 1.62c-.552.444-1.17.78-1.854 1.008a6.139 6.139 0 01-1.98.342c-.876 0-1.68-.186-2.412-.558a6.485 6.485 0 01-1.908-1.512 7.21 7.21 0 01-1.224-2.124 6.96 6.96 0 01-.432-2.394zm16.93 6.66a4.619 4.619 0 01-1.872-.378 4.83 4.83 0 01-1.476-1.062 5.138 5.138 0 01-.954-1.548 5.083 5.083 0 01-.342-1.854c0-.672.114-1.296.342-1.872a4.7 4.7 0 01.972-1.548 4.46 4.46 0 011.476-1.062 4.439 4.439 0 011.872-.396c.672 0 1.29.132 1.854.396a4.46 4.46 0 011.476 1.062c.42.444.744.96.972 1.548.228.576.342 1.2.342 1.872 0 .648-.114 1.266-.342 1.854a4.961 4.961 0 01-.972 1.548c-.408.444-.9.798-1.476 1.062a4.538 4.538 0 01-1.872.378zm-3.402-4.824c0 .696.15 1.332.45 1.908a3.74 3.74 0 001.242 1.35 3.151 3.151 0 001.71.486c.624 0 1.194-.168 1.71-.504a3.7 3.7 0 001.242-1.368 4.009 4.009 0 00.468-1.908 3.94 3.94 0 00-.468-1.908 3.7 3.7 0 00-1.242-1.368 3.069 3.069 0 00-1.71-.504c-.624 0-1.194.174-1.71.522a3.92 3.92 0 00-1.224 1.386c-.312.564-.468 1.2-.468 1.908zM713.377 90v-9.378h5.598v1.098h-4.374V90h-1.224zm6.413.054v-1.116c.324 0 .612-.084.864-.252.252-.18.474-.48.666-.9.204-.42.366-.996.486-1.728.12-.744.198-1.686.234-2.826l.108-2.61h6.084V90h-1.224v-8.28h-3.78l-.036 1.62c-.048 1.296-.15 2.382-.306 3.258-.156.864-.378 1.548-.666 2.052-.276.504-.618.864-1.026 1.08-.408.216-.876.324-1.404.324zm10.392-2.754c0-.588.168-1.092.504-1.512.336-.432.798-.762 1.386-.99.6-.24 1.29-.36 2.07-.36.456 0 .93.036 1.422.108.492.072.93.18 1.314.324v-.792c0-.792-.234-1.422-.702-1.89-.468-.468-1.116-.702-1.944-.702a4.08 4.08 0 00-1.494.288c-.48.18-.984.45-1.512.81l-.468-.864a7.617 7.617 0 011.8-.936 5.183 5.183 0 011.8-.324c1.152 0 2.064.33 2.736.99.672.66 1.008 1.572 1.008 2.736v4.338c0 .168.036.294.108.378.072.072.186.114.342.126V90c-.132.012-.246.024-.342.036a.635.635 0 01-.216 0c-.3-.012-.528-.108-.684-.288a.956.956 0 01-.252-.576l-.018-.684c-.42.54-.966.96-1.638 1.26a5.164 5.164 0 01-2.052.432 3.54 3.54 0 01-1.638-.378 3.074 3.074 0 01-1.134-1.044 2.8 2.8 0 01-.396-1.458zm6.282.72c.132-.168.234-.33.306-.486a1.01 1.01 0 00.108-.414v-1.368a7.447 7.447 0 00-2.592-.486c-.876 0-1.584.174-2.124.522-.54.348-.81.822-.81 1.422 0 .348.09.678.27.99.18.3.444.552.792.756.348.192.756.288 1.224.288.588 0 1.134-.114 1.638-.342.516-.228.912-.522 1.188-.882zm8.35 2.16a4.664 4.664 0 01-1.89-.378 4.907 4.907 0 01-1.494-1.08 5.18 5.18 0 01-.99-1.566 5.132 5.132 0 01-.342-1.872c0-.888.198-1.698.594-2.43a4.54 4.54 0 011.656-1.746c.708-.432 1.524-.648 2.448-.648.876 0 1.65.204 2.322.612.672.396 1.17.936 1.494 1.62l-1.188.378a2.775 2.775 0 00-1.116-1.116 3.025 3.025 0 00-1.566-.414c-.624 0-1.194.162-1.71.486-.516.324-.93.768-1.242 1.332-.3.564-.45 1.206-.45 1.926 0 .708.156 1.35.468 1.926a3.853 3.853 0 001.242 1.386 3.069 3.069 0 001.71.504c.408 0 .798-.072 1.17-.216.384-.144.714-.336.99-.576.288-.252.48-.522.576-.81l1.206.36a3.12 3.12 0 01-.846 1.206c-.384.348-.84.624-1.368.828a4.763 4.763 0 01-1.674.288zm9.72 0a4.619 4.619 0 01-1.872-.378 4.83 4.83 0 01-1.476-1.062 5.138 5.138 0 01-.954-1.548 5.083 5.083 0 01-.342-1.854c0-.672.114-1.296.342-1.872a4.7 4.7 0 01.972-1.548 4.46 4.46 0 011.476-1.062 4.439 4.439 0 011.872-.396c.672 0 1.29.132 1.854.396a4.46 4.46 0 011.476 1.062c.42.444.744.96.972 1.548.228.576.342 1.2.342 1.872 0 .648-.114 1.266-.342 1.854a4.961 4.961 0 01-.972 1.548c-.408.444-.9.798-1.476 1.062a4.538 4.538 0 01-1.872.378zm-3.402-4.824c0 .696.15 1.332.45 1.908a3.74 3.74 0 001.242 1.35 3.151 3.151 0 001.71.486c.624 0 1.194-.168 1.71-.504a3.7 3.7 0 001.242-1.368 4.009 4.009 0 00.468-1.908 3.94 3.94 0 00-.468-1.908 3.7 3.7 0 00-1.242-1.368 3.069 3.069 0 00-1.71-.504c-.624 0-1.194.174-1.71.522a3.92 3.92 0 00-1.224 1.386c-.312.564-.468 1.2-.468 1.908zM761.225 90v-9.378h4.68c.528 0 .972.114 1.332.342.36.216.63.498.81.846.192.348.288.72.288 1.116 0 .504-.12.96-.36 1.368-.24.396-.588.696-1.044.9.54.156.978.438 1.314.846.336.408.504.9.504 1.476 0 .504-.126.942-.378 1.314-.24.372-.576.66-1.008.864-.42.204-.906.306-1.458.306h-4.68zm1.17-.882h3.474c.312 0 .594-.078.846-.234.264-.168.468-.384.612-.648a1.675 1.675 0 00.018-1.674 1.717 1.717 0 00-.576-.63 1.485 1.485 0 00-.828-.234h-3.546v3.42zm0-4.266h3.186c.312 0 .588-.084.828-.252.24-.168.426-.384.558-.648.132-.264.198-.54.198-.828 0-.432-.144-.81-.432-1.134-.276-.324-.636-.486-1.08-.486h-3.258v3.348zM770.857 90v-9.378h1.224v3.312h2.124c1.068 0 1.872.276 2.412.828.552.54.828 1.254.828 2.142 0 .576-.12 1.098-.36 1.566-.24.468-.594.84-1.062 1.116-.456.276-1.032.414-1.728.414h-3.438zm1.224-.972h2.052c.492 0 .888-.096 1.188-.288.3-.204.522-.462.666-.774.144-.324.216-.672.216-1.044 0-.36-.066-.69-.198-.99a1.432 1.432 0 00-.648-.738c-.3-.192-.72-.288-1.26-.288h-2.016v4.122zm7.074.972v-9.36h1.224V90h-1.224zm3.902 0v-9.378h4.68c.528 0 .972.114 1.332.342.36.216.63.498.81.846.192.348.288.72.288 1.116 0 .504-.12.96-.36 1.368-.24.396-.588.696-1.044.9.54.156.978.438 1.314.846.336.408.504.9.504 1.476 0 .504-.126.942-.378 1.314-.24.372-.576.66-1.008.864-.42.204-.906.306-1.458.306h-4.68zm1.17-.882h3.474c.312 0 .594-.078.846-.234.264-.168.468-.384.612-.648a1.675 1.675 0 00.018-1.674 1.717 1.717 0 00-.576-.63 1.485 1.485 0 00-.828-.234h-3.546v3.42zm0-4.266h3.186c.312 0 .588-.084.828-.252.24-.168.426-.384.558-.648.132-.264.198-.54.198-.828 0-.432-.144-.81-.432-1.134-.276-.324-.636-.486-1.08-.486h-3.258v3.348zm7.724 2.448c0-.588.168-1.092.504-1.512.336-.432.798-.762 1.386-.99.6-.24 1.29-.36 2.07-.36.456 0 .93.036 1.422.108.492.072.93.18 1.314.324v-.792c0-.792-.234-1.422-.702-1.89-.468-.468-1.116-.702-1.944-.702a4.08 4.08 0 00-1.494.288c-.48.18-.984.45-1.512.81l-.468-.864a7.617 7.617 0 011.8-.936 5.183 5.183 0 011.8-.324c1.152 0 2.064.33 2.736.99.672.66 1.008 1.572 1.008 2.736v4.338c0 .168.036.294.108.378.072.072.186.114.342.126V90c-.132.012-.246.024-.342.036a.635.635 0 01-.216 0c-.3-.012-.528-.108-.684-.288a.956.956 0 01-.252-.576l-.018-.684c-.42.54-.966.96-1.638 1.26a5.164 5.164 0 01-2.052.432 3.54 3.54 0 01-1.638-.378 3.074 3.074 0 01-1.134-1.044 2.8 2.8 0 01-.396-1.458zm6.282.72c.132-.168.234-.33.306-.486a1.01 1.01 0 00.108-.414v-1.368a7.447 7.447 0 00-2.592-.486c-.876 0-1.584.174-2.124.522-.54.348-.81.822-.81 1.422 0 .348.09.678.27.99.18.3.444.552.792.756.348.192.756.288 1.224.288.588 0 1.134-.114 1.638-.342.516-.228.912-.522 1.188-.882zm8.333 2.16a4.619 4.619 0 01-1.872-.378 4.768 4.768 0 01-1.494-1.062 5.18 5.18 0 01-.99-1.566 5.182 5.182 0 01-.342-1.89c0-.876.198-1.68.594-2.412a4.677 4.677 0 011.674-1.746c.708-.444 1.512-.666 2.412-.666.924 0 1.728.222 2.412.666a4.723 4.723 0 011.638 1.764c.396.72.594 1.512.594 2.376v.288c0 .084-.006.15-.018.198h-8.028c.06.672.246 1.272.558 1.8.324.516.738.93 1.242 1.242.516.3 1.074.45 1.674.45.612 0 1.188-.156 1.728-.468.552-.312.936-.72 1.152-1.224l1.062.288a3.511 3.511 0 01-.882 1.206c-.396.36-.864.642-1.404.846a4.967 4.967 0 01-1.71.288zm-3.456-5.31h6.93c-.048-.684-.234-1.284-.558-1.8a3.325 3.325 0 00-1.242-1.206 3.211 3.211 0 00-1.674-.45c-.612 0-1.17.15-1.674.45a3.464 3.464 0 00-1.242 1.224c-.312.516-.492 1.11-.54 1.782zm9.952 5.13v-9.378h1.26l3.726 6.462 3.744-6.462h1.206V90h-1.17v-7.542l-3.384 5.868h-.792l-3.42-5.868V90h-1.17zm17.209 0v-9.378h4.68c.528 0 .972.114 1.332.342.36.216.63.498.81.846.192.348.288.72.288 1.116 0 .504-.12.96-.36 1.368-.24.396-.588.696-1.044.9.54.156.978.438 1.314.846.336.408.504.9.504 1.476 0 .504-.126.942-.378 1.314-.24.372-.576.66-1.008.864-.42.204-.906.306-1.458.306h-4.68zm1.17-.882h3.474c.312 0 .594-.078.846-.234.264-.168.468-.384.612-.648a1.675 1.675 0 00.018-1.674 1.717 1.717 0 00-.576-.63 1.485 1.485 0 00-.828-.234h-3.546v3.42zm0-4.266h3.186c.312 0 .588-.084.828-.252.24-.168.426-.384.558-.648.132-.264.198-.54.198-.828 0-.432-.144-.81-.432-1.134-.276-.324-.636-.486-1.08-.486h-3.258v3.348zm12.549 5.328a4.664 4.664 0 01-1.89-.378 4.907 4.907 0 01-1.494-1.08 5.18 5.18 0 01-.99-1.566 5.132 5.132 0 01-.342-1.872c0-.888.198-1.698.594-2.43a4.54 4.54 0 011.656-1.746c.708-.432 1.524-.648 2.448-.648.876 0 1.65.204 2.322.612.672.396 1.17.936 1.494 1.62l-1.188.378a2.775 2.775 0 00-1.116-1.116 3.025 3.025 0 00-1.566-.414c-.624 0-1.194.162-1.71.486-.516.324-.93.768-1.242 1.332-.3.564-.45 1.206-.45 1.926 0 .708.156 1.35.468 1.926a3.853 3.853 0 001.242 1.386 3.069 3.069 0 001.71.504c.408 0 .798-.072 1.17-.216.384-.144.714-.336.99-.576.288-.252.48-.522.576-.81l1.206.36a3.12 3.12 0 01-.846 1.206c-.384.348-.84.624-1.368.828a4.763 4.763 0 01-1.674.288zm9.773 0a4.619 4.619 0 01-1.872-.378 4.768 4.768 0 01-1.494-1.062 5.18 5.18 0 01-.99-1.566 5.182 5.182 0 01-.342-1.89c0-.876.198-1.68.594-2.412a4.677 4.677 0 011.674-1.746c.708-.444 1.512-.666 2.412-.666.924 0 1.728.222 2.412.666a4.723 4.723 0 011.638 1.764c.396.72.594 1.512.594 2.376v.288c0 .084-.006.15-.018.198h-8.028c.06.672.246 1.272.558 1.8.324.516.738.93 1.242 1.242.516.3 1.074.45 1.674.45.612 0 1.188-.156 1.728-.468.552-.312.936-.72 1.152-1.224l1.062.288a3.511 3.511 0 01-.882 1.206c-.396.36-.864.642-1.404.846a4.967 4.967 0 01-1.71.288zm-3.456-5.31h6.93c-.048-.684-.234-1.284-.558-1.8a3.325 3.325 0 00-1.242-1.206 3.211 3.211 0 00-1.674-.45c-.612 0-1.17.15-1.674.45a3.464 3.464 0 00-1.242 1.224c-.312.516-.492 1.11-.54 1.782zM864.848 90v-9.378h1.224v4.032h5.364v-4.032h1.224V90h-1.224v-4.248h-5.364V90h-1.224zm17.946.18c-.816 0-1.542-.186-2.178-.558a4.297 4.297 0 01-1.512-1.53c-.372-.66-.588-1.404-.648-2.232h-1.872V90h-1.224v-9.378h1.224v4.158h1.872c.072-.864.3-1.62.684-2.268A4.152 4.152 0 01880.652 81c.636-.36 1.35-.54 2.142-.54.924 0 1.722.216 2.394.648a4.407 4.407 0 011.566 1.746c.372.732.558 1.56.558 2.484 0 .948-.192 1.788-.576 2.52-.372.72-.9 1.29-1.584 1.71-.672.408-1.458.612-2.358.612zm0-1.08c.648 0 1.218-.162 1.71-.486a3.16 3.16 0 001.134-1.332c.276-.564.414-1.212.414-1.944 0-.78-.144-1.452-.432-2.016a3.159 3.159 0 00-1.152-1.314 3.06 3.06 0 00-1.674-.468 2.86 2.86 0 00-1.638.486c-.48.312-.852.756-1.116 1.332-.264.564-.396 1.224-.396 1.98s.132 1.422.396 1.998c.276.564.654 1.002 1.134 1.314.48.3 1.02.45 1.62.45zm5.82-1.8c0-.588.168-1.092.504-1.512.336-.432.798-.762 1.386-.99.6-.24 1.29-.36 2.07-.36.456 0 .93.036 1.422.108.492.072.93.18 1.314.324v-.792c0-.792-.234-1.422-.702-1.89-.468-.468-1.116-.702-1.944-.702a4.08 4.08 0 00-1.494.288c-.48.18-.984.45-1.512.81l-.468-.864a7.617 7.617 0 011.8-.936 5.183 5.183 0 011.8-.324c1.152 0 2.064.33 2.736.99.672.66 1.008 1.572 1.008 2.736v4.338c0 .168.036.294.108.378.072.072.186.114.342.126V90c-.132.012-.246.024-.342.036a.635.635 0 01-.216 0c-.3-.012-.528-.108-.684-.288a.956.956 0 01-.252-.576l-.018-.684c-.42.54-.966.96-1.638 1.26a5.164 5.164 0 01-2.052.432 3.54 3.54 0 01-1.638-.378 3.074 3.074 0 01-1.134-1.044 2.8 2.8 0 01-.396-1.458zm6.282.72c.132-.168.234-.33.306-.486a1.01 1.01 0 00.108-.414v-1.368a7.447 7.447 0 00-2.592-.486c-.876 0-1.584.174-2.124.522-.54.348-.81.822-.81 1.422 0 .348.09.678.27.99.18.3.444.552.792.756.348.192.756.288 1.224.288.588 0 1.134-.114 1.638-.342.516-.228.912-.522 1.188-.882zM899.16 90v-9.378h1.224v4.032h5.364v-4.032h1.224V90h-1.224v-4.248h-5.364V90h-1.224zm14.58.18a4.664 4.664 0 01-1.89-.378 4.907 4.907 0 01-1.494-1.08 5.18 5.18 0 01-.99-1.566 5.132 5.132 0 01-.342-1.872c0-.888.198-1.698.594-2.43a4.54 4.54 0 011.656-1.746c.708-.432 1.524-.648 2.448-.648.876 0 1.65.204 2.322.612.672.396 1.17.936 1.494 1.62l-1.188.378a2.775 2.775 0 00-1.116-1.116 3.025 3.025 0 00-1.566-.414c-.624 0-1.194.162-1.71.486-.516.324-.93.768-1.242 1.332-.3.564-.45 1.206-.45 1.926 0 .708.156 1.35.468 1.926a3.853 3.853 0 001.242 1.386 3.069 3.069 0 001.71.504c.408 0 .798-.072 1.17-.216.384-.144.714-.336.99-.576.288-.252.48-.522.576-.81l1.206.36a3.12 3.12 0 01-.846 1.206c-.384.348-.84.624-1.368.828a4.763 4.763 0 01-1.674.288zm5.793-.18v-9.378h1.224v3.312h2.124c1.068 0 1.872.276 2.412.828.552.54.828 1.254.828 2.142 0 .576-.12 1.098-.36 1.566-.24.468-.594.84-1.062 1.116-.456.276-1.032.414-1.728.414h-3.438zm1.224-.972h2.052c.492 0 .888-.096 1.188-.288.3-.204.522-.462.666-.774.144-.324.216-.672.216-1.044 0-.36-.066-.69-.198-.99a1.432 1.432 0 00-.648-.738c-.3-.192-.72-.288-1.26-.288h-2.016v4.122zm7.074.972v-9.36h1.224V90h-1.224zm-237.499 21v-9.36h1.224v7.704l5.706-7.722h1.098V111h-1.224v-7.578L691.52 111h-1.188zm15.275 0v-9.378h7.542V111h-1.224v-8.28h-5.094V111h-1.224zm14.245.18a4.619 4.619 0 01-1.872-.378 4.83 4.83 0 01-1.476-1.062 5.138 5.138 0 01-.954-1.548 5.083 5.083 0 01-.342-1.854c0-.672.114-1.296.342-1.872a4.7 4.7 0 01.972-1.548 4.46 4.46 0 011.476-1.062 4.439 4.439 0 011.872-.396c.672 0 1.29.132 1.854.396a4.46 4.46 0 011.476 1.062c.42.444.744.96.972 1.548.228.576.342 1.2.342 1.872 0 .648-.114 1.266-.342 1.854a4.961 4.961 0 01-.972 1.548c-.408.444-.9.798-1.476 1.062a4.538 4.538 0 01-1.872.378zm-3.402-4.824c0 .696.15 1.332.45 1.908a3.74 3.74 0 001.242 1.35 3.151 3.151 0 001.71.486c.624 0 1.194-.168 1.71-.504a3.7 3.7 0 001.242-1.368 4.009 4.009 0 00.468-1.908 3.94 3.94 0 00-.468-1.908 3.7 3.7 0 00-1.242-1.368 3.069 3.069 0 00-1.71-.504c-.624 0-1.194.174-1.71.522a3.92 3.92 0 00-1.224 1.386c-.312.564-.468 1.2-.468 1.908zm9.067 6.822v-3.276h.162c.276 0 .528-.084.756-.252.228-.168.432-.462.612-.882s.324-.996.432-1.728c.108-.744.18-1.68.216-2.808l.09-2.61h6.102v8.28h1.26v3.276h-1.098V111h-7.452v2.178h-1.08zm2.016-3.276h5.13v-7.182h-3.78l-.054 1.62c-.036 1.116-.114 2.052-.234 2.808-.108.744-.252 1.338-.432 1.782-.168.432-.378.756-.63.972zm9.451 1.098v-9.378h7.542V111h-1.224v-8.28h-5.094V111h-1.224zm10.231 0v-9.36h1.224v7.704l5.706-7.722h1.098V111h-1.224v-7.578L748.403 111h-1.188zm14.773.18a4.664 4.664 0 01-1.89-.378 4.907 4.907 0 01-1.494-1.08 5.18 5.18 0 01-.99-1.566 5.132 5.132 0 01-.342-1.872c0-.888.198-1.698.594-2.43a4.54 4.54 0 011.656-1.746c.708-.432 1.524-.648 2.448-.648.876 0 1.65.204 2.322.612.672.396 1.17.936 1.494 1.62l-1.188.378a2.775 2.775 0 00-1.116-1.116 3.025 3.025 0 00-1.566-.414c-.624 0-1.194.162-1.71.486-.516.324-.93.768-1.242 1.332-.3.564-.45 1.206-.45 1.926 0 .708.156 1.35.468 1.926a3.853 3.853 0 001.242 1.386 3.069 3.069 0 001.71.504c.408 0 .798-.072 1.17-.216.384-.144.714-.336.99-.576.288-.252.48-.522.576-.81l1.206.36a3.12 3.12 0 01-.846 1.206c-.384.348-.84.624-1.368.828a4.763 4.763 0 01-1.674.288zm5.793-.18v-9.378h1.224v3.312h2.124c1.068 0 1.872.276 2.412.828.552.54.828 1.254.828 2.142 0 .576-.12 1.098-.36 1.566-.24.468-.594.84-1.062 1.116-.456.276-1.032.414-1.728.414h-3.438zm1.224-.972h2.052c.492 0 .888-.096 1.188-.288.3-.204.522-.462.666-.774.144-.324.216-.672.216-1.044 0-.36-.066-.69-.198-.99a1.432 1.432 0 00-.648-.738c-.3-.192-.72-.288-1.26-.288h-2.016v4.122zm7.074.972v-9.36h1.224V111h-1.224zm3.901 0v-9.378h4.68c.528 0 .972.114 1.332.342.36.216.63.498.81.846.192.348.288.72.288 1.116 0 .504-.12.96-.36 1.368-.24.396-.588.696-1.044.9.54.156.978.438 1.314.846.336.408.504.9.504 1.476 0 .504-.126.942-.378 1.314-.24.372-.576.66-1.008.864-.42.204-.906.306-1.458.306h-4.68zm1.17-.882h3.474c.312 0 .594-.078.846-.234.264-.168.468-.384.612-.648a1.675 1.675 0 00.018-1.674 1.717 1.717 0 00-.576-.63 1.485 1.485 0 00-.828-.234h-3.546v3.42zm0-4.266h3.186c.312 0 .588-.084.828-.252.24-.168.426-.384.558-.648.132-.264.198-.54.198-.828 0-.432-.144-.81-.432-1.134-.276-.324-.636-.486-1.08-.486h-3.258v3.348zm7.725 2.448c0-.588.168-1.092.504-1.512.336-.432.798-.762 1.386-.99.6-.24 1.29-.36 2.07-.36.456 0 .93.036 1.422.108.492.072.93.18 1.314.324v-.792c0-.792-.234-1.422-.702-1.89-.468-.468-1.116-.702-1.944-.702a4.08 4.08 0 00-1.494.288c-.48.18-.984.45-1.512.81l-.468-.864a7.617 7.617 0 011.8-.936 5.183 5.183 0 011.8-.324c1.152 0 2.064.33 2.736.99.672.66 1.008 1.572 1.008 2.736v4.338c0 .168.036.294.108.378.072.072.186.114.342.126V111c-.132.012-.246.024-.342.036a.635.635 0 01-.216 0c-.3-.012-.528-.108-.684-.288a.956.956 0 01-.252-.576l-.018-.684c-.42.54-.966.96-1.638 1.26a5.164 5.164 0 01-2.052.432 3.54 3.54 0 01-1.638-.378 3.074 3.074 0 01-1.134-1.044 2.8 2.8 0 01-.396-1.458zm6.282.72c.132-.168.234-.33.306-.486a1.01 1.01 0 00.108-.414v-1.368a7.447 7.447 0 00-2.592-.486c-.876 0-1.584.174-2.124.522-.54.348-.81.822-.81 1.422 0 .348.09.678.27.99.18.3.444.552.792.756.348.192.756.288 1.224.288.588 0 1.134-.114 1.638-.342.516-.228.912-.522 1.188-.882zm8.333 2.16a4.619 4.619 0 01-1.872-.378 4.768 4.768 0 01-1.494-1.062 5.18 5.18 0 01-.99-1.566 5.182 5.182 0 01-.342-1.89c0-.876.198-1.68.594-2.412a4.677 4.677 0 011.674-1.746c.708-.444 1.512-.666 2.412-.666.924 0 1.728.222 2.412.666a4.723 4.723 0 011.638 1.764c.396.72.594 1.512.594 2.376v.288c0 .084-.006.15-.018.198h-8.028c.06.672.246 1.272.558 1.8.324.516.738.93 1.242 1.242.516.3 1.074.45 1.674.45.612 0 1.188-.156 1.728-.468.552-.312.936-.72 1.152-1.224l1.062.288a3.511 3.511 0 01-.882 1.206c-.396.36-.864.642-1.404.846a4.967 4.967 0 01-1.71.288zm-3.456-5.31h6.93c-.048-.684-.234-1.284-.558-1.8a3.325 3.325 0 00-1.242-1.206 3.211 3.211 0 00-1.674-.45c-.612 0-1.17.15-1.674.45a3.464 3.464 0 00-1.242 1.224c-.312.516-.492 1.11-.54 1.782zm9.952 5.13v-9.378h1.26l3.726 6.462 3.744-6.462h1.206V111h-1.17v-7.542l-3.384 5.868h-.792l-3.42-5.868V111h-1.17zm16.183 2.178v-3.276h.162c.276 0 .528-.084.756-.252.228-.168.432-.462.612-.882s.324-.996.432-1.728c.108-.744.18-1.68.216-2.808l.09-2.61h6.102v8.28h1.26v3.276h-1.098V111h-7.452v2.178h-1.08zm2.016-3.276h5.13v-7.182h-3.78l-.054 1.62c-.036 1.116-.114 2.052-.234 2.808-.108.744-.252 1.338-.432 1.782-.168.432-.378.756-.63.972zm13.466 1.278a4.619 4.619 0 01-1.872-.378 4.83 4.83 0 01-1.476-1.062 5.138 5.138 0 01-.954-1.548 5.083 5.083 0 01-.342-1.854c0-.672.114-1.296.342-1.872a4.7 4.7 0 01.972-1.548 4.46 4.46 0 011.476-1.062 4.439 4.439 0 011.872-.396c.672 0 1.29.132 1.854.396a4.46 4.46 0 011.476 1.062c.42.444.744.96.972 1.548.228.576.342 1.2.342 1.872 0 .648-.114 1.266-.342 1.854a4.961 4.961 0 01-.972 1.548c-.408.444-.9.798-1.476 1.062a4.538 4.538 0 01-1.872.378zm-3.402-4.824c0 .696.15 1.332.45 1.908a3.74 3.74 0 001.242 1.35 3.151 3.151 0 001.71.486c.624 0 1.194-.168 1.71-.504a3.7 3.7 0 001.242-1.368 4.009 4.009 0 00.468-1.908 3.94 3.94 0 00-.468-1.908 3.7 3.7 0 00-1.242-1.368 3.069 3.069 0 00-1.71-.504c-.624 0-1.194.174-1.71.522a3.92 3.92 0 00-1.224 1.386c-.312.564-.468 1.2-.468 1.908zM848.342 111v-9.378h1.224v4.014h1.404l3.15-4.014h1.404l-3.582 4.554 4.032 4.824h-1.44l-3.564-4.23h-1.404V111h-1.224zm10.395 3.924c-.204 0-.414-.036-.63-.108a3.11 3.11 0 01-.63-.27l.45-.864c.132.072.252.132.36.18.12.048.246.072.378.072.312 0 .606-.156.882-.468.276-.312.54-.768.792-1.368l.468-1.17-4.176-9.306h1.296l3.438 8.118 3.168-8.118h1.224l-4.464 10.854c-.24.564-.492 1.026-.756 1.386-.264.36-.546.624-.846.792-.3.18-.618.27-.954.27zm8.712-3.924v-9.378h1.26l3.726 6.462 3.744-6.462h1.206V111h-1.17v-7.542l-3.384 5.868h-.792l-3.42-5.868V111h-1.17zm16.689.18a4.619 4.619 0 01-1.872-.378 4.768 4.768 0 01-1.494-1.062 5.18 5.18 0 01-.99-1.566 5.182 5.182 0 01-.342-1.89c0-.876.198-1.68.594-2.412a4.677 4.677 0 011.674-1.746c.708-.444 1.512-.666 2.412-.666.924 0 1.728.222 2.412.666a4.723 4.723 0 011.638 1.764c.396.72.594 1.512.594 2.376v.288c0 .084-.006.15-.018.198h-8.028c.06.672.246 1.272.558 1.8.324.516.738.93 1.242 1.242.516.3 1.074.45 1.674.45.612 0 1.188-.156 1.728-.468.552-.312.936-.72 1.152-1.224l1.062.288a3.511 3.511 0 01-.882 1.206c-.396.36-.864.642-1.404.846a4.967 4.967 0 01-1.71.288zm-3.456-5.31h6.93c-.048-.684-.234-1.284-.558-1.8a3.325 3.325 0 00-1.242-1.206 3.211 3.211 0 00-1.674-.45c-.612 0-1.17.15-1.674.45a3.464 3.464 0 00-1.242 1.224c-.312.516-.492 1.11-.54 1.782zm9.953 5.13v-9.378h1.224v4.032h5.364v-4.032h1.224V111h-1.224v-4.248h-5.364V111h-1.224zm12.852 0v-8.28h-3.348v-1.098h7.92v1.098h-3.348V111h-1.224zm6.22 0v-9.378h1.224v3.312h2.124c1.068 0 1.872.276 2.412.828.552.54.828 1.254.828 2.142 0 .576-.12 1.098-.36 1.566-.24.468-.594.84-1.062 1.116-.456.276-1.032.414-1.728.414h-3.438zm1.224-.972h2.052c.492 0 .888-.096 1.188-.288.3-.204.522-.462.666-.774.144-.324.216-.672.216-1.044 0-.36-.066-.69-.198-.99a1.432 1.432 0 00-.648-.738c-.3-.192-.72-.288-1.26-.288h-2.016v4.122zm7.074.972v-9.36h1.224V111h-1.224z" fill="#474747"/><path d="M791.055 220.349a70.504 70.504 0 0176.679-57.977 70.503 70.503 0 0142.759 119.837 70.5 70.5 0 01-120.078-42.075" stroke="#4FB5FF" stroke-width="2"/><circle cx="860.5" cy="232.5" r="53.5" fill="#474747"/><path d="M884.523 220.159l-24.138-12.068a.855.855 0 00-.77 0l-24.138 12.068a.863.863 0 00-.477.771v24.136a.86.86 0 00.477.775l24.138 12.068a.855.855 0 00.77 0l24.138-12.068a.859.859 0 00.477-.775V220.93a.863.863 0 00-.477-.771zM860 232.034l-6.739-3.369 21.54-11.441 7.414 3.706L860 232.034zm-13.635-6.817l21.539-11.441 5 2.499-21.537 11.443-5.002-2.501zm-1.02 1.418l5.172 2.586v6.868l-1.976-1.977a.865.865 0 00-.61-.252h-2.586v-7.225zM860 209.826l6.01 3.001-21.539 11.443-6.681-3.34L860 209.826zm-23.276 12.499l6.897 3.448v8.949a.863.863 0 00.862.862h3.091l3.196 3.195a.855.855 0 00.939.187.864.864 0 00.532-.796v-8.087l6.897 3.448v22.208l-22.414-11.206v-22.208zm24.138 33.414v-22.208l22.414-11.206v22.208l-22.414 11.206z" fill="#fff"/><path d="M959.8 204v-3.864h-7.176v-2.88l8.184-10.296h2.208v10.272h2.112v2.904h-2.112V204H959.8zm-3.936-6.768h4.296v-5.424l-4.296 5.424zM967.455 204v-3.456h2.64V204h-2.64zm10.484 3.264v-6.168h.912c.432 0 .808-.168 1.128-.504.32-.336.592-.872.816-1.608.224-.736.4-1.688.528-2.856.144-1.184.24-2.616.288-4.296l.144-4.872h11.352v14.136h2.256v6.168h-2.904V204h-11.616v3.264h-2.904zm4.872-6.168h7.008v-11.232h-5.064l-.048 2.4c-.048 1.664-.144 3.08-.288 4.248-.128 1.168-.32 2.128-.576 2.88-.24.752-.584 1.32-1.032 1.704zm22.389 3.024c-1.24 0-2.38-.24-3.4-.72a8.273 8.273 0 01-2.62-1.944 9.514 9.514 0 01-1.68-2.784c-.4-1.04-.6-2.104-.6-3.192 0-1.136.208-2.216.624-3.24a9.318 9.318 0 011.752-2.76 8.259 8.259 0 012.644-1.92c1.02-.48 2.14-.72 3.36-.72 1.23 0 2.35.248 3.36.744a8.085 8.085 0 012.61 1.992c.72.832 1.28 1.76 1.68 2.784.4 1.024.6 2.08.6 3.168 0 1.12-.21 2.2-.62 3.24a9.2 9.2 0 01-1.75 2.76c-.74.8-1.62 1.432-2.64 1.896-1.01.464-2.12.696-3.32.696zm-4.94-8.64c0 .736.11 1.448.34 2.136.22.688.54 1.304.96 1.848.43.528.95.952 1.56 1.272.62.304 1.32.456 2.11.456.8 0 1.51-.16 2.13-.48a4.682 4.682 0 001.56-1.32c.42-.56.73-1.176.94-1.848.22-.688.34-1.376.34-2.064 0-.736-.12-1.44-.36-2.112a5.74 5.74 0 00-.99-1.824 4.216 4.216 0 00-1.56-1.272c-.61-.32-1.29-.48-2.06-.48-.82 0-1.54.168-2.16.504-.61.32-1.12.752-1.54 1.296a6.51 6.51 0 00-.96 1.824c-.21.672-.31 1.36-.31 2.064zm14.78-.12c0-1.04.18-2.056.55-3.048.39-1.008.94-1.92 1.66-2.736a7.721 7.721 0 012.64-1.968c1.04-.496 2.22-.744 3.55-.744 1.57 0 2.92.344 4.06 1.032 1.15.688 2 1.584 2.56 2.688l-2.54 1.752c-.29-.64-.66-1.144-1.13-1.512a3.921 3.921 0 00-1.49-.792 5.28 5.28 0 00-1.56-.24c-.83 0-1.56.168-2.18.504-.61.336-1.12.776-1.54 1.32a5.957 5.957 0 00-.93 1.824 7.387 7.387 0 00-.29 2.016c0 .752.12 1.48.36 2.184.24.688.58 1.304 1.01 1.848.45.528.97.952 1.58 1.272.63.304 1.31.456 2.04.456.53 0 1.07-.088 1.61-.264a4.55 4.55 0 001.51-.84c.47-.384.83-.88 1.08-1.488l2.71 1.56c-.33.848-.88 1.568-1.65 2.16-.75.592-1.6 1.04-2.55 1.344a9.09 9.09 0 01-2.8.456c-1.22 0-2.33-.248-3.34-.744a8.788 8.788 0 01-2.62-2.016 10.281 10.281 0 01-1.7-2.832 8.95 8.95 0 01-.6-3.192zm30.23-5.496h-5.45V204h-3.29v-14.136h-5.44v-2.904h14.18v2.904zm5.18-2.904h3.36l6.26 17.04h-3.41l-1.58-4.248h-5.95l-1.56 4.248h-3.41l6.29-17.04zm4.03 10.464l-2.35-7.032-2.45 7.032h4.8zm21.19 2.184c0 .96-.25 1.768-.75 2.424-.49.64-1.16 1.128-2.01 1.464-.83.336-1.75.504-2.74.504h-8.23v-17.04h9.12c.8 0 1.49.216 2.06.648.6.416 1.04.96 1.35 1.632a4.65 4.65 0 01-.15 4.392c-.41.736-1.02 1.28-1.82 1.632.98.288 1.74.808 2.3 1.56.58.752.87 1.68.87 2.784zm-3.34-.624c0-.432-.09-.816-.26-1.152a2.05 2.05 0 00-.72-.816 1.695 1.695 0 00-1.01-.312h-5.09v4.488h4.92c.4 0 .76-.096 1.08-.288.34-.208.6-.48.79-.816.2-.336.29-.704.29-1.104zm-7.08-9.192v4.296h4.42c.37 0 .7-.088 1.01-.264.3-.176.54-.424.72-.744.19-.32.28-.704.28-1.152 0-.432-.08-.808-.26-1.128-.16-.32-.38-.568-.67-.744a1.698 1.698 0 00-.94-.264h-4.56zM1078.3 204v-17.04h3.29v6.864h1.68l5.06-6.864h3.7l-6.19 8.256 6.67 8.784h-4.01l-5.28-7.176h-1.63V204h-3.29zm21.11-17.04h3.36l6.26 17.04h-3.41l-1.58-4.248h-5.95l-1.56 4.248h-3.41l6.29-17.04zm4.03 10.464l-2.35-7.032-2.45 7.032h4.8zM953.602 246v-12.78h7.254v1.116h-5.994V246h-1.26zm13.025.18a4.619 4.619 0 01-1.872-.378 4.83 4.83 0 01-1.476-1.062 5.138 5.138 0 01-.954-1.548 5.083 5.083 0 01-.342-1.854c0-.672.114-1.296.342-1.872a4.7 4.7 0 01.972-1.548 4.46 4.46 0 011.476-1.062 4.439 4.439 0 011.872-.396c.672 0 1.29.132 1.854.396a4.46 4.46 0 011.476 1.062c.42.444.744.96.972 1.548.228.576.342 1.2.342 1.872 0 .648-.114 1.266-.342 1.854a4.961 4.961 0 01-.972 1.548c-.408.444-.9.798-1.476 1.062a4.538 4.538 0 01-1.872.378zm-3.402-4.824c0 .696.15 1.332.45 1.908a3.74 3.74 0 001.242 1.35 3.151 3.151 0 001.71.486c.624 0 1.194-.168 1.71-.504a3.7 3.7 0 001.242-1.368 4.009 4.009 0 00.468-1.908 3.94 3.94 0 00-.468-1.908 3.7 3.7 0 00-1.242-1.368 3.069 3.069 0 00-1.71-.504c-.624 0-1.194.174-1.71.522a3.92 3.92 0 00-1.224 1.386c-.312.564-.468 1.2-.468 1.908zM975.676 246v-8.28h-3.348v-1.098h7.92v1.098H976.9V246h-1.224zm10.234.18a4.619 4.619 0 01-1.872-.378 4.83 4.83 0 01-1.476-1.062 5.138 5.138 0 01-.954-1.548 5.083 5.083 0 01-.342-1.854c0-.672.114-1.296.342-1.872a4.7 4.7 0 01.972-1.548 4.46 4.46 0 011.476-1.062 4.439 4.439 0 011.872-.396c.672 0 1.29.132 1.854.396a4.46 4.46 0 011.476 1.062c.42.444.744.96.972 1.548.228.576.342 1.2.342 1.872 0 .648-.114 1.266-.342 1.854a4.961 4.961 0 01-.972 1.548c-.408.444-.9.798-1.476 1.062a4.538 4.538 0 01-1.872.378zm-3.402-4.824c0 .696.15 1.332.45 1.908a3.74 3.74 0 001.242 1.35 3.151 3.151 0 001.71.486c.624 0 1.194-.168 1.71-.504a3.7 3.7 0 001.242-1.368 4.009 4.009 0 00.468-1.908 3.94 3.94 0 00-.468-1.908 3.7 3.7 0 00-1.242-1.368 3.069 3.069 0 00-1.71-.504c-.624 0-1.194.174-1.71.522a3.92 3.92 0 00-1.224 1.386c-.312.564-.468 1.2-.468 1.908zM992.602 246v-9.378h4.68c.528 0 .972.114 1.332.342.36.216.63.498.81.846.192.348.288.72.288 1.116 0 .504-.12.96-.36 1.368-.24.396-.588.696-1.044.9.54.156.978.438 1.314.846.336.408.508.9.508 1.476 0 .504-.13.942-.382 1.314-.24.372-.576.66-1.008.864-.42.204-.906.306-1.458.306h-4.68zm1.17-.882h3.474c.312 0 .594-.078.846-.234.264-.168.468-.384.612-.648a1.675 1.675 0 00.018-1.674 1.717 1.717 0 00-.576-.63 1.485 1.485 0 00-.828-.234h-3.546v3.42zm0-4.266h3.186c.312 0 .588-.084.828-.252.24-.168.426-.384.558-.648.132-.264.198-.54.198-.828 0-.432-.144-.81-.432-1.134-.276-.324-.636-.486-1.08-.486h-3.258v3.348zm9.508 9.072c-.21 0-.42-.036-.63-.108-.21-.06-.42-.15-.63-.27l.45-.864c.13.072.25.132.36.18.12.048.24.072.38.072.31 0 .6-.156.88-.468.27-.312.54-.768.79-1.368l.47-1.17-4.18-9.306h1.3l3.44 8.118 3.16-8.118h1.23l-4.47 10.854c-.24.564-.49 1.026-.75 1.386-.27.36-.55.624-.85.792-.3.18-.62.27-.95.27zm16.16-3.744c-.81 0-1.54-.186-2.18-.558a4.374 4.374 0 01-1.51-1.53 5.29 5.29 0 01-.65-2.232h-1.87V246h-1.22v-9.378h1.22v4.158h1.87c.08-.864.3-1.62.69-2.268.38-.648.89-1.152 1.51-1.512a4.28 4.28 0 012.14-.54c.93 0 1.72.216 2.4.648a4.393 4.393 0 011.56 1.746c.37.732.56 1.56.56 2.484 0 .948-.19 1.788-.58 2.52-.37.72-.9 1.29-1.58 1.71-.67.408-1.46.612-2.36.612zm0-1.08c.65 0 1.22-.162 1.71-.486a3.23 3.23 0 001.14-1.332c.27-.564.41-1.212.41-1.944 0-.78-.14-1.452-.43-2.016-.28-.564-.66-1.002-1.15-1.314a3.084 3.084 0 00-1.68-.468c-.61 0-1.16.162-1.64.486-.48.312-.85.756-1.11 1.332-.27.564-.4 1.224-.4 1.98s.13 1.422.4 1.998c.27.564.65 1.002 1.13 1.314.48.3 1.02.45 1.62.45zm11.15.9v-9.378h7.54V246h-1.22v-8.28h-5.1V246h-1.22zm15.03.18c-.78 0-1.48-.204-2.1-.612a4.76 4.76 0 01-1.46-1.512v5.778h-1.22v-13.212h1.09v1.818c.38-.588.87-1.062 1.5-1.422a3.829 3.829 0 012-.558c.64 0 1.24.138 1.78.414.54.264 1.01.624 1.4 1.08.4.456.7.978.92 1.566.23.576.34 1.176.34 1.8 0 .876-.18 1.686-.54 2.43-.35.732-.84 1.32-1.47 1.764-.64.444-1.38.666-2.24.666zm-.34-1.08c.52 0 .98-.102 1.39-.306.41-.216.75-.504 1.04-.864.3-.36.53-.762.69-1.206.15-.456.23-.924.23-1.404 0-.504-.09-.984-.27-1.44a3.496 3.496 0 00-.74-1.206 3.681 3.681 0 00-1.11-.828 3.104 3.104 0 00-1.37-.306c-.31 0-.64.06-.97.18-.34.12-.66.294-.98.522-.3.216-.55.462-.75.738-.21.276-.33.57-.38.882v2.88c.19.444.45.846.77 1.206.33.348.7.63 1.12.846.43.204.88.306 1.33.306zm10.66 1.08a4.63 4.63 0 01-1.87-.378 4.897 4.897 0 01-1.48-1.062c-.4-.456-.72-.972-.95-1.548a5.04 5.04 0 01-.34-1.854 5 5 0 01.34-1.872c.23-.588.55-1.104.97-1.548.42-.456.91-.81 1.48-1.062.57-.264 1.2-.396 1.87-.396.67 0 1.29.132 1.85.396.57.252 1.06.606 1.48 1.062.42.444.74.96.97 1.548a5 5 0 01.34 1.872 5.04 5.04 0 01-.34 1.854 4.992 4.992 0 01-.97 1.548c-.41.444-.9.798-1.48 1.062-.56.252-1.18.378-1.87.378zm-3.4-4.824c0 .696.15 1.332.45 1.908a3.77 3.77 0 001.24 1.35c.52.324 1.09.486 1.71.486.63 0 1.2-.168 1.71-.504.52-.336.93-.792 1.24-1.368a3.92 3.92 0 00.47-1.908c0-.696-.15-1.332-.47-1.908a3.646 3.646 0 00-1.24-1.368 3.04 3.04 0 00-1.71-.504c-.62 0-1.19.174-1.71.522-.5.348-.91.81-1.22 1.386-.31.564-.47 1.2-.47 1.908zm9.07 6.822v-3.276h.16c.27 0 .53-.084.75-.252.23-.168.44-.462.62-.882s.32-.996.43-1.728c.11-.744.18-1.68.21-2.808l.09-2.61h6.11v8.28h1.26v3.276h-1.1V246h-7.45v2.178h-1.08zm2.01-3.276h5.13v-7.182h-3.78l-.05 1.62c-.04 1.116-.12 2.052-.24 2.808-.1.744-.25 1.338-.43 1.782-.17.432-.38.756-.63.972zm10.5 5.022c-.21 0-.42-.036-.63-.108-.21-.06-.42-.15-.63-.27l.45-.864c.13.072.25.132.36.18.12.048.24.072.38.072.31 0 .6-.156.88-.468.27-.312.54-.768.79-1.368l.47-1.17-4.18-9.306h1.3l3.44 8.118 3.16-8.118h1.23l-4.47 10.854c-.24.564-.49 1.026-.75 1.386-.27.36-.55.624-.85.792-.3.18-.62.27-.95.27zm8.71-3.924v-9.378h1.22v4.014h1.41l3.15-4.014h1.4l-3.58 4.554 4.03 4.824h-1.44l-3.56-4.23h-1.41V246h-1.22zm16.84 2.178V246h-7.49v-9.378h1.23v8.298h4.86v-8.298h1.22v8.298h1.28v3.258h-1.1zm2.94-2.178v-9.36h1.22v7.704l5.71-7.722h1.09V246h-1.22v-7.578l-5.62 7.578h-1.18zm18.13.18c-.81 0-1.54-.186-2.17-.558a4.318 4.318 0 01-1.52-1.53c-.37-.66-.58-1.404-.64-2.232h-1.88V246h-1.22v-9.378h1.22v4.158h1.88c.07-.864.3-1.62.68-2.268.38-.648.89-1.152 1.51-1.512a4.28 4.28 0 012.14-.54c.93 0 1.73.216 2.4.648a4.393 4.393 0 011.56 1.746c.38.732.56 1.56.56 2.484 0 .948-.19 1.788-.57 2.52-.38.72-.9 1.29-1.59 1.71-.67.408-1.46.612-2.36.612zm0-1.08c.65 0 1.22-.162 1.71-.486.5-.324.87-.768 1.14-1.332.27-.564.41-1.212.41-1.944 0-.78-.14-1.452-.43-2.016-.28-.564-.66-1.002-1.15-1.314-.49-.312-1.05-.468-1.68-.468-.61 0-1.15.162-1.63.486-.48.312-.86.756-1.12 1.332-.26.564-.4 1.224-.4 1.98s.14 1.422.4 1.998c.28.564.65 1.002 1.13 1.314.48.3 1.02.45 1.62.45zm-168.434 24.078v-3.276h.162c.276 0 .528-.084.756-.252.228-.168.432-.462.612-.882s.324-.996.432-1.728c.108-.744.18-1.68.216-2.808l.09-2.61h6.102v8.28h1.26v3.276h-1.098V267h-7.452v2.178h-1.08zm2.016-3.276h5.13v-7.182h-3.78l-.054 1.62c-.036 1.116-.114 2.052-.234 2.808-.108.744-.252 1.338-.432 1.782-.168.432-.378.756-.63.972zm13.465 1.278a4.619 4.619 0 01-1.872-.378 4.83 4.83 0 01-1.476-1.062 5.138 5.138 0 01-.954-1.548 5.083 5.083 0 01-.342-1.854c0-.672.114-1.296.342-1.872a4.7 4.7 0 01.972-1.548 4.46 4.46 0 011.476-1.062 4.439 4.439 0 011.872-.396c.672 0 1.29.132 1.854.396a4.46 4.46 0 011.476 1.062c.42.444.744.96.972 1.548.228.576.342 1.2.342 1.872 0 .648-.114 1.266-.342 1.854a4.961 4.961 0 01-.972 1.548c-.408.444-.9.798-1.476 1.062a4.538 4.538 0 01-1.872.378zm-3.402-4.824c0 .696.15 1.332.45 1.908a3.74 3.74 0 001.242 1.35 3.151 3.151 0 001.71.486c.624 0 1.194-.168 1.71-.504a3.7 3.7 0 001.242-1.368 4.009 4.009 0 00.468-1.908 3.94 3.94 0 00-.468-1.908 3.7 3.7 0 00-1.242-1.368 3.069 3.069 0 00-1.71-.504c-.624 0-1.194.174-1.71.522a3.92 3.92 0 00-1.224 1.386c-.312.564-.468 1.2-.468 1.908zm14.179 4.824a4.664 4.664 0 01-1.89-.378 4.907 4.907 0 01-1.494-1.08 5.18 5.18 0 01-.99-1.566 5.132 5.132 0 01-.342-1.872c0-.888.198-1.698.594-2.43a4.54 4.54 0 011.656-1.746c.708-.432 1.524-.648 2.448-.648.876 0 1.65.204 2.322.612.672.396 1.17.936 1.494 1.62l-1.188.378a2.775 2.775 0 00-1.116-1.116 3.025 3.025 0 00-1.566-.414c-.624 0-1.194.162-1.71.486-.516.324-.93.768-1.242 1.332-.3.564-.45 1.206-.45 1.926 0 .708.156 1.35.468 1.926a3.853 3.853 0 001.242 1.386 3.069 3.069 0 001.71.504c.408 0 .798-.072 1.17-.216.384-.144.714-.336.99-.576.288-.252.48-.522.576-.81l1.206.36a3.12 3.12 0 01-.846 1.206c-.384.348-.84.624-1.368.828a4.763 4.763 0 01-1.674.288zm8.151-.18v-8.28h-3.348v-1.098h7.92v1.098h-3.348V267h-1.224zm5.43-2.7c0-.588.168-1.092.504-1.512.336-.432.798-.762 1.386-.99.6-.24 1.29-.36 2.07-.36.456 0 .93.036 1.422.108.492.072.93.18 1.314.324v-.792c0-.792-.234-1.422-.702-1.89-.468-.468-1.116-.702-1.944-.702a4.08 4.08 0 00-1.494.288c-.48.18-.984.45-1.512.81l-.468-.864a7.617 7.617 0 011.8-.936 5.183 5.183 0 011.8-.324c1.152 0 2.064.33 2.736.99.672.66 1.003 1.572 1.003 2.736v4.338c0 .168.04.294.11.378.07.072.19.114.34.126V267c-.13.012-.24.024-.34.036a.618.618 0 01-.213 0c-.3-.012-.528-.108-.684-.288a.956.956 0 01-.252-.576l-.018-.684c-.42.54-.966.96-1.638 1.26a5.164 5.164 0 01-2.052.432 3.54 3.54 0 01-1.638-.378 3.074 3.074 0 01-1.134-1.044 2.8 2.8 0 01-.396-1.458zm6.282.72c.132-.168.234-.33.306-.486a1.01 1.01 0 00.108-.414v-1.368a7.447 7.447 0 00-2.592-.486c-.876 0-1.584.174-2.124.522-.54.348-.81.822-.81 1.422 0 .348.09.678.27.99.18.3.444.552.792.756.348.192.756.288 1.224.288.588 0 1.134-.114 1.638-.342.516-.228.912-.522 1.188-.882zm4.263 1.98v-9.378h4.68c.53 0 .97.114 1.33.342.36.216.63.498.81.846.2.348.29.72.29 1.116 0 .504-.12.96-.36 1.368-.24.396-.59.696-1.04.9.54.156.98.438 1.31.846.34.408.51.9.51 1.476 0 .504-.13.942-.38 1.314-.24.372-.58.66-1.01.864-.42.204-.91.306-1.46.306h-4.68zm1.17-.882h3.48c.31 0 .59-.078.84-.234.27-.168.47-.384.61-.648.16-.264.24-.54.24-.828 0-.312-.07-.594-.22-.846a1.668 1.668 0 00-.57-.63 1.497 1.497 0 00-.83-.234h-3.55v3.42zm0-4.266h3.19c.31 0 .59-.084.83-.252.24-.168.42-.384.55-.648.14-.264.2-.54.2-.828 0-.432-.14-.81-.43-1.134a1.362 1.362 0 00-1.08-.486h-3.26v3.348zm7.58 5.202v-1.116c.33 0 .61-.084.87-.252.25-.18.47-.48.66-.9.21-.42.37-.996.49-1.728.12-.744.2-1.686.23-2.826l.11-2.61h6.08V267h-1.22v-8.28h-3.78l-.04 1.62c-.04 1.296-.15 2.382-.3 3.258-.16.864-.38 1.548-.67 2.052-.27.504-.62.864-1.02 1.08-.41.216-.88.324-1.41.324zm10.45-.054l2.79-3.834c-.64-.096-1.15-.372-1.55-.828-.38-.468-.58-1.104-.58-1.908 0-.54.13-1.02.38-1.44.25-.42.61-.756 1.06-1.008.47-.252 1.02-.378 1.64-.378h3.58V267h-1.22v-3.636h-2.09l-2.64 3.636h-1.37zm3.72-4.572h2.38v-3.852h-2.16c-.62 0-1.12.18-1.49.54-.38.348-.56.792-.56 1.332 0 .552.15 1.02.45 1.404.31.384.77.576 1.38.576zm10.35 4.752c-.68 0-1.3-.126-1.88-.378a4.82 4.82 0 01-1.49-1.062 5.18 5.18 0 01-.99-1.566 5.14 5.14 0 01-.34-1.89c0-.876.2-1.68.59-2.412.41-.732.97-1.314 1.68-1.746.7-.444 1.51-.666 2.41-.666.92 0 1.73.222 2.41.666.7.444 1.24 1.032 1.64 1.764.39.72.59 1.512.59 2.376v.288c0 .084 0 .15-.02.198h-8.02c.06.672.24 1.272.55 1.8.33.516.74.93 1.25 1.242.51.3 1.07.45 1.67.45.61 0 1.19-.156 1.73-.468.55-.312.93-.72 1.15-1.224l1.06.288c-.19.444-.48.846-.88 1.206s-.86.642-1.4.846c-.53.192-1.1.288-1.71.288zm-3.46-5.31h6.93c-.05-.684-.23-1.284-.56-1.8a3.277 3.277 0 00-1.24-1.206c-.5-.3-1.06-.45-1.67-.45-.62 0-1.17.15-1.68.45-.5.288-.92.696-1.24 1.224-.31.516-.49 1.11-.54 1.782zm9.95 5.13v-9.378h1.26l3.73 6.462 3.74-6.462h1.21V267h-1.17v-7.542l-3.38 5.868h-.8l-3.42-5.868V267h-1.17zm17.21 0v-9.378h1.23v4.032h5.36v-4.032h1.22V267h-1.22v-4.248h-5.36V267h-1.23zm9.76-2.7c0-.588.17-1.092.5-1.512.34-.432.8-.762 1.39-.99.6-.24 1.29-.36 2.07-.36.45 0 .93.036 1.42.108.49.072.93.18 1.31.324v-.792c0-.792-.23-1.422-.7-1.89-.47-.468-1.11-.702-1.94-.702-.51 0-1 .096-1.5.288-.48.18-.98.45-1.51.81l-.47-.864c.62-.42 1.22-.732 1.8-.936a5.2 5.2 0 011.8-.324c1.16 0 2.07.33 2.74.99.67.66 1.01 1.572 1.01 2.736v4.338c0 .168.03.294.11.378.07.072.18.114.34.126V267c-.13.012-.25.024-.34.036a.657.657 0 01-.22 0c-.3-.012-.53-.108-.68-.288a.992.992 0 01-.26-.576l-.01-.684c-.42.54-.97.96-1.64 1.26a5.17 5.17 0 01-2.05.432c-.6 0-1.15-.126-1.64-.378a3.123 3.123 0 01-1.14-1.044c-.26-.444-.39-.93-.39-1.458zm6.28.72c.13-.168.23-.33.31-.486.07-.156.1-.294.1-.414v-1.368c-.4-.156-.83-.276-1.27-.36a6.946 6.946 0 00-1.32-.126c-.87 0-1.58.174-2.12.522-.54.348-.81.822-.81 1.422 0 .348.09.678.27.99.18.3.44.552.79.756.35.192.76.288 1.22.288.59 0 1.14-.114 1.64-.342.52-.228.91-.522 1.19-.882zm12.87 2.16c-.68 0-1.3-.126-1.88-.378a4.853 4.853 0 01-1.47-1.062 5.156 5.156 0 01-.96-1.548 5.255 5.255 0 01-.34-1.854c0-.672.12-1.296.34-1.872.23-.588.56-1.104.98-1.548.42-.456.91-.81 1.47-1.062a4.45 4.45 0 011.87-.396c.68 0 1.29.132 1.86.396.56.252 1.05.606 1.47 1.062.42.444.75.96.98 1.548.22.576.34 1.2.34 1.872 0 .648-.12 1.266-.34 1.854a5.021 5.021 0 01-.98 1.548c-.4.444-.9.798-1.47 1.062-.57.252-1.19.378-1.87.378zm-3.41-4.824c0 .696.15 1.332.45 1.908.32.564.73 1.014 1.25 1.35.51.324 1.08.486 1.71.486.62 0 1.19-.168 1.71-.504a3.73 3.73 0 001.24-1.368c.31-.588.47-1.224.47-1.908 0-.696-.16-1.332-.47-1.908a3.73 3.73 0 00-1.24-1.368 3.088 3.088 0 00-1.71-.504c-.63 0-1.2.174-1.71.522-.51.348-.92.81-1.23 1.386-.31.564-.47 1.2-.47 1.908zm14.42 4.824c-1.51 0-2.66-.462-3.44-1.386-.77-.936-1.15-2.226-1.15-3.87 0-1.164.09-2.148.29-2.952.19-.804.47-1.464.84-1.98.37-.528.83-.96 1.37-1.296a8.173 8.173 0 011.89-.828l3.94-1.296.11 1.062-3.8 1.242c-.72.24-1.32.546-1.8.918s-.86.846-1.13 1.422c-.27.564-.44 1.302-.52 2.214.31-.696.79-1.23 1.44-1.602.64-.384 1.39-.576 2.25-.576.91 0 1.68.186 2.32.558a3.61 3.61 0 011.47 1.548c.34.66.51 1.422.51 2.286 0 .912-.18 1.71-.54 2.394-.35.672-.87 1.2-1.55 1.584-.67.372-1.51.558-2.5.558zm0-1.08c1.07 0 1.89-.306 2.46-.918.59-.624.89-1.452.89-2.484 0-1.008-.29-1.83-.87-2.466-.56-.636-1.39-.954-2.48-.954-.63 0-1.19.132-1.69.396a2.98 2.98 0 00-1.21 1.152c-.29.504-.43 1.128-.43 1.872 0 .648.12 1.23.38 1.746s.64.924 1.13 1.224c.49.288 1.1.432 1.82.432zm8.03.9v-8.352h-2.85v-1.026h4.07v3.312h2.45c1.07 0 1.87.276 2.41.828.54.54.81 1.254.81 2.142 0 .576-.12 1.098-.36 1.566-.24.468-.59.84-1.06 1.116-.46.276-1.03.414-1.73.414h-3.74zm1.22-.972h2.36c.49 0 .89-.096 1.19-.288.3-.204.52-.462.66-.774.15-.324.22-.672.22-1.044 0-.36-.07-.69-.2-.99a1.445 1.445 0 00-.65-.738c-.3-.192-.72-.288-1.26-.288h-2.32v4.122zm11.62 1.152a4.63 4.63 0 01-1.87-.378 4.82 4.82 0 01-1.49-1.062 5.18 5.18 0 01-.99-1.566 5.14 5.14 0 01-.34-1.89c0-.876.19-1.68.59-2.412.41-.732.97-1.314 1.67-1.746.71-.444 1.52-.666 2.42-.666.92 0 1.72.222 2.41.666a4.81 4.81 0 011.64 1.764c.39.72.59 1.512.59 2.376v.288c0 .084-.01.15-.02.198h-8.03c.06.672.25 1.272.56 1.8.33.516.74.93 1.24 1.242.52.3 1.08.45 1.68.45.61 0 1.19-.156 1.73-.468.55-.312.93-.72 1.15-1.224l1.06.288c-.19.444-.49.846-.88 1.206-.4.36-.87.642-1.41.846-.52.192-1.09.288-1.71.288zm-3.45-5.31h6.93c-.05-.684-.24-1.284-.56-1.8a3.35 3.35 0 00-1.24-1.206c-.51-.3-1.06-.45-1.68-.45-.61 0-1.17.15-1.67.45-.5.288-.92.696-1.24 1.224-.31.516-.49 1.11-.54 1.782zm9.95 5.13v-9.378h1.23v4.014h1.4l3.15-4.014h1.4l-3.58 4.554 4.03 4.824h-1.44l-3.56-4.23h-1.4V267h-1.23zm11.71 0v-8.28h-3.35v-1.098h7.92v1.098h-3.35V267h-1.22z" fill="#474747"/><path d="M73 147c11.95 28.667 66.679 86 190 86" stroke="#4FB5FF" stroke-dasharray="2 2"/><circle cx="71.5" cy="142.5" r="5.5" fill="#4FB5FF"/><circle cx="263.5" cy="232.5" r="5.5" fill="#4FB5FF"/><circle cx="388.5" cy="187.5" r="5.5" fill="#4FB5FF"/><path d="M392 185.5c6.333-20.667 40.8-71.9 128-111.5" stroke="#4FB5FF" stroke-dasharray="2 2"/><circle cx="525.5" cy="73.5" r="5.5" fill="#4FB5FF"/><circle cx="655.5" cy="118.5" r="5.5" fill="#4FB5FF"/><circle cx="788.5" cy="229.5" r="5.5" fill="#4FB5FF"/><path d="M659 121c29.333 14.833 96.1 57.4 128.5 109" stroke="#4FB5FF" stroke-dasharray="2 2"/></svg>