<svg width="932" height="306" fill="none" xmlns="http://www.w3.org/2000/svg"><path d="M61.431 141.277a70.497 70.497 0 01-60.244-74.91 70.5 70.5 0 1180.04 74.959" stroke="#4FB5FF" stroke-width="2"/><circle cx="71.5" cy="71.5" r="53.5" fill="#474747"/><path d="M90.621 61.236a.957.957 0 00.957-.957V49.87A2.874 2.874 0 0088.707 47H53.871A2.874 2.874 0 0051 49.871V93.13A2.874 2.874 0 0053.871 96h34.836a2.874 2.874 0 002.871-2.871v-7.05a.957.957 0 10-1.914 0v7.05c0 .528-.43.957-.957.957H53.871a.958.958 0 01-.957-.957V49.87c0-.528.43-.957.957-.957h34.836c.528 0 .957.43.957.957v10.41c0 .528.429.957.957.957z" fill="#fff"/><path d="M71.29 52.168c-4.856 0-8.805 3.95-8.805 8.805a8.78 8.78 0 002.764 6.4 8.77 8.77 0 006.04 2.405 8.771 8.771 0 006.041-2.405 8.78 8.78 0 002.764-6.4c0-4.855-3.95-8.805-8.804-8.805zm0 15.696a6.854 6.854 0 01-4.163-1.404 4.754 4.754 0 014.163-2.424c1.751 0 3.32.932 4.162 2.424a6.854 6.854 0 01-4.162 1.404zm-1.532-7.274v-.622a1.532 1.532 0 013.062 0v.622c0 .844-.686 1.531-1.53 1.531a1.533 1.533 0 01-1.532-1.53zm7.077 4.468a6.64 6.64 0 00-2.82-2.364 3.43 3.43 0 00.72-2.104v-.622a3.45 3.45 0 00-3.445-3.445 3.45 3.45 0 00-3.446 3.445v.622c0 .792.27 1.522.72 2.104a6.64 6.64 0 00-2.82 2.364 6.853 6.853 0 01-1.345-4.085c0-3.8 3.09-6.89 6.89-6.89s6.891 3.09 6.891 6.89c0 1.528-.5 2.94-1.345 4.085zm-.378 18.501h-13.59a.957.957 0 000 1.914h13.59a.957.957 0 000-1.914zm0-5.359h-13.59a.957.957 0 000 1.913h13.59a.957.957 0 100-1.914zm-17.001-5.08a.964.964 0 00-.677-.28.964.964 0 00-.677.28.964.964 0 00-.28.677c0 .252.102.499.28.677.18.178.425.28.677.28a.966.966 0 00.677-.28.964.964 0 00.28-.677.964.964 0 00-.28-.677zm0 5.36a.966.966 0 00-.677-.28.966.966 0 00-.677.28.964.964 0 00-.28.676c0 .252.102.499.28.677.18.178.425.28.677.28a.966.966 0 00.677-.28.964.964 0 00.28-.677.964.964 0 00-.28-.676zm0 5.359a.966.966 0 00-.677-.28.966.966 0 00-.677.28.964.964 0 00-.28.677c0 .251.102.498.28.676a.962.962 0 001.354 0 .964.964 0 00.28-.676.964.964 0 00-.28-.677zM76.457 72.84h-13.59a.957.957 0 000 1.914h13.59a.957.957 0 000-1.914zM97.99 59.472a3.994 3.994 0 00-3.05-.402 3.993 3.993 0 00-2.44 1.873l-12.044 20.86a.958.958 0 00-.123.373l-.847 7.593a.958.958 0 001.518.877l6.152-4.53a.954.954 0 00.262-.293l12.043-20.86a4.024 4.024 0 00-1.47-5.491zM81.63 87.808l.443-3.965 2.77 1.599-3.213 2.366zm4.609-3.77l-3.647-2.106 9.665-16.74 3.646 2.105-9.664 16.74zm11.565-20.032l-.944 1.634-3.646-2.106.943-1.634a2.092 2.092 0 011.279-.98 2.091 2.091 0 011.597.21c.487.28.836.735.981 1.278.146.543.071 1.11-.21 1.598z" fill="#fff"/><path fill-rule="evenodd" clip-rule="evenodd" d="M292.584 179.063a69.504 69.504 0 0187.118 2.645l1.301-1.519a71.498 71.498 0 00-89.625-2.722 71.502 71.502 0 00-27.308 44.71l1.97.344a69.502 69.502 0 0126.544-43.458zm97.409 10.351a71.517 71.517 0 014.452 6.113l-1.677 1.09a69.504 69.504 0 01-8.984 86.887 69.503 69.503 0 01-94.698 3.606 69.499 69.499 0 01-23.677-45.084l-1.989.216a71.5 71.5 0 10126.573-52.828z" fill="#4FB5FF"/><circle cx="334.5" cy="234.5" r="53.5" fill="#474747"/><path d="M354.004 210h-33.27a.996.996 0 00-.996.996v18.727h-13.076a2.665 2.665 0 00-2.662 2.662v14.996a2.665 2.665 0 002.662 2.662h13.076v3.586h-4.383a.996.996 0 00-.996.996 6.382 6.382 0 006.375 6.375h28.09a6.182 6.182 0 006.176-6.176v-43.828a.996.996 0 00-.996-.996zm-14.814 24.108a3.462 3.462 0 01-2.393-2.393h1.723c.369 0 .67.3.67.67v1.723zm-4.432-2.393a5.451 5.451 0 004.432 4.432v7.472a5.45 5.45 0 00-4.432 4.432h-24.334a5.45 5.45 0 00-4.432-4.432v-7.472a5.452 5.452 0 004.432-4.432h24.334zm4.432 13.943v1.723c0 .369-.301.67-.67.67h-1.723a3.46 3.46 0 012.393-2.393zm-32.528-13.943h1.723a3.46 3.46 0 01-2.393 2.393v-1.723c0-.37.301-.67.67-.67zm-.67 15.666v-1.723a3.458 3.458 0 012.393 2.393h-1.723a.671.671 0 01-.67-.67zm14.742 11.627a4.39 4.39 0 01-4.268-3.387h26.061a6.357 6.357 0 001.672 3.387h-23.465zm32.274-4.184a4.189 4.189 0 01-4.184 4.184 4.388 4.388 0 01-4.383-4.383.996.996 0 00-.996-.996H321.73v-3.586h16.79a2.665 2.665 0 002.662-2.662v-14.996a2.665 2.665 0 00-2.662-2.662h-16.79v-17.731h31.278v42.832z" fill="#fff"/><path d="M316.596 239.883c0 3.185 2.69 5.777 5.995 5.777 3.306 0 5.995-2.592 5.995-5.777 0-3.186-2.689-5.778-5.995-5.778-3.305 0-5.995 2.592-5.995 5.778zm5.995-3.785c2.207 0 4.003 1.698 4.003 3.785s-1.796 3.785-4.003 3.785-4.002-1.698-4.002-3.785 1.795-3.785 4.002-3.785zm-10.609 2.789c-.262 0-.519.106-.705.292a1.003 1.003 0 00-.291.704c0 .262.106.519.291.704.186.185.443.292.705.292.262 0 .519-.107.704-.292.185-.185.292-.442.292-.704a1 1 0 00-.996-.996zm21.286 1.992a.995.995 0 10.001-1.993.995.995 0 00-.001 1.993zm-8.151-18.328h24.504c.55 0 .996-.446.996-.996v-4.782a.996.996 0 00-.996-.996h-7.77a.996.996 0 000 1.993h6.774v2.789h-22.512v-2.789h6.774a.996.996 0 000-1.993h-7.77a.996.996 0 00-.996.996v4.782c0 .55.446.996.996.996zm0 4.383h24.504a.996.996 0 000-1.993h-24.504a.996.996 0 000 1.993zm24.504 2.789h-4.383a.996.996 0 000 1.992h4.383a.996.996 0 000-1.992zm0 4.781h-4.383a.996.996 0 000 1.992h4.383a.996.996 0 000-1.992zm0 4.781h-4.383a.996.996 0 000 1.992h4.383a.996.996 0 000-1.992zm0 4.781h-4.383a.996.996 0 000 1.993h4.383a.996.996 0 000-1.993z" fill="#fff"/><path d="M337.369 217.77c.262 0 .519-.107.704-.292a1 1 0 00-.704-1.701c-.262 0-.519.107-.704.292a1.004 1.004 0 00-.292.704c0 .262.107.519.292.705.185.185.442.292.704.292z" fill="#fff"/><path fill-rule="evenodd" clip-rule="evenodd" d="M555.584 21.063a69.5 69.5 0 01103.088 88.425l1.761.949a71.5 71.5 0 11-133.363-46.26l1.97.344a69.502 69.502 0 0126.544-43.458zm92.707 105.761l-1.421-1.407-.086.087a69.503 69.503 0 01-94.698 3.606 69.499 69.499 0 01-23.677-45.084l-1.989.216a71.5 71.5 0 00121.782 42.672l.089-.09z" fill="#4FB5FF"/><circle cx="597.5" cy="76.5" r="53.5" fill="#474747"/><path d="M625.709 62.805a4.55 4.55 0 00-3.477-.457 4.552 4.552 0 00-2.782 2.134l-3.004 5.203V54.988A2.992 2.992 0 00613.457 52h-33.468A2.992 2.992 0 00577 54.988v37.603c0 .264.105.517.292.704l9.413 9.413c.187.187.44.292.705.292h9.629a.996.996 0 000-1.992h-8.633v-6.433a2.992 2.992 0 00-2.989-2.988h-6.424V54.988c0-.55.446-.996.996-.996h33.468c.55 0 .996.447.996.996v18.148l-6.782 11.748a1.029 1.029 0 00-.19-.018h-21.516a.996.996 0 000 1.992h20.566l-1.381 2.392a1 1 0 00-.131.423l-.63 8.263a.998.998 0 001.556.897l6.841-4.676a.993.993 0 00.3-.325l1.367-2.368v8.548a.997.997 0 01-.996.996h-7.454a.996.996 0 000 1.992h7.454a2.992 2.992 0 002.989-2.988V88.013l10.94-18.949a4.587 4.587 0 00-1.677-6.259zM585.417 93.58c.55 0 .996.446.996.996v5.016l-6.012-6.012h5.016zm21.469-2.176l3.469 2.003-3.821 2.612.352-4.615zm4.973.57l-4.486-2.59 11.615-20.117 4.486 2.59-11.615 20.118zm13.802-23.905l-1.191 2.063-4.486-2.59 1.191-2.063a2.592 2.592 0 013.537-.947 2.593 2.593 0 01.949 3.537z" fill="#fff"/><path d="M600.954 91.439a.995.995 0 00-.996-.996h-8.647a.996.996 0 000 1.992h8.647a.995.995 0 00.996-.996zm6.527-12.153h-15.245a.996.996 0 000 1.992h15.245a.996.996 0 000-1.992zM585.965 75.7h21.516a.996.996 0 000-1.992h-21.516a.996.996 0 000 1.993zm21.516-13.151h-21.516a.996.996 0 000 1.992h21.516a.996.996 0 000-1.992zm0 5.579h-7.523a.997.997 0 000 1.992h7.523a.996.996 0 000-1.992zm-21.516 1.992h8.849a.996.996 0 000-1.992h-8.849a.996.996 0 000 1.992zm0 11.158h1.633a.996.996 0 000-1.992h-1.633a.996.996 0 000 1.992z" fill="#fff"/><path d="M791.055 220.349a70.504 70.504 0 0176.679-57.977 70.503 70.503 0 0142.759 119.837 70.5 70.5 0 01-120.078-42.075" stroke="#4FB5FF" stroke-width="2"/><circle cx="860.5" cy="232.5" r="53.5" fill="#474747"/><path d="M884.523 220.159l-24.138-12.068a.855.855 0 00-.77 0l-24.138 12.068a.863.863 0 00-.477.771v24.136a.86.86 0 00.477.775l24.138 12.068a.855.855 0 00.77 0l24.138-12.068a.859.859 0 00.477-.775V220.93a.863.863 0 00-.477-.771zM860 232.034l-6.739-3.369 21.54-11.441 7.414 3.706L860 232.034zm-13.635-6.817l21.539-11.441 5 2.499-21.537 11.443-5.002-2.501zm-1.02 1.418l5.172 2.586v6.868l-1.976-1.977a.865.865 0 00-.61-.252h-2.586v-7.225zM860 209.826l6.01 3.001-21.539 11.443-6.681-3.34L860 209.826zm-23.276 12.499l6.897 3.448v8.949a.863.863 0 00.862.862h3.091l3.196 3.195a.855.855 0 00.939.187.864.864 0 00.532-.796v-8.087l6.897 3.448v22.208l-22.414-11.206v-22.208zm24.138 33.414v-22.208l22.414-11.206v22.208l-22.414 11.206z" fill="#fff"/><path d="M73 147c11.95 28.667 66.679 86 190 86" stroke="#4FB5FF" stroke-dasharray="2 2"/><circle cx="71.5" cy="142.5" r="5.5" fill="#4FB5FF"/><circle cx="263.5" cy="232.5" r="5.5" fill="#4FB5FF"/><circle cx="388.5" cy="187.5" r="5.5" fill="#4FB5FF"/><path d="M392 185.5c6.333-20.667 40.8-71.9 128-111.5" stroke="#4FB5FF" stroke-dasharray="2 2"/><circle cx="525.5" cy="73.5" r="5.5" fill="#4FB5FF"/><circle cx="655.5" cy="118.5" r="5.5" fill="#4FB5FF"/><circle cx="788.5" cy="229.5" r="5.5" fill="#4FB5FF"/><path d="M659 121c29.333 14.833 96.1 57.4 128.5 109" stroke="#4FB5FF" stroke-dasharray="2 2"/></svg>