<svg width="143" height="143" fill="none" xmlns="http://www.w3.org/2000/svg"><path fill-rule="evenodd" clip-rule="evenodd" d="M29.584 16.063a69.5 69.5 0 01103.088 88.425l1.761.949A71.5 71.5 0 111.07 59.177l1.97.344a69.5 69.5 0 0126.544-43.458zm92.707 105.761l-1.421-1.407-.086.087a69.502 69.502 0 01-94.698 3.606A69.499 69.499 0 012.409 79.026l-1.989.216a71.5 71.5 0 00121.782 42.672l.089-.09z" fill="#4FB5FF"/><circle cx="71.5" cy="71.5" r="53.5" fill="#474747"/><path d="M99.709 57.805a4.55 4.55 0 00-3.477-.457 4.553 4.553 0 00-2.782 2.134l-3.004 5.203V49.988A2.992 2.992 0 0087.457 47H53.99A2.991 2.991 0 0051 49.988v37.603c0 .264.105.517.292.704l9.413 9.413c.187.187.44.292.705.292h9.629a.996.996 0 100-1.992h-8.633v-6.433a2.991 2.991 0 00-2.989-2.988h-6.424V49.988c0-.55.446-.996.996-.996h33.468c.55 0 .997.447.997.996v18.148L81.67 79.884a1.023 1.023 0 00-.19-.018H59.965a.996.996 0 000 1.992h20.566L79.15 84.25a1 1 0 00-.131.423l-.63 8.263a.996.996 0 001.556.897l6.84-4.676a.975.975 0 00.301-.325l1.368-2.368v8.548c0 .55-.447.996-.997.996h-7.454a.996.996 0 100 1.992h7.454a2.992 2.992 0 002.989-2.988V83.013l10.94-18.949a4.587 4.587 0 00-1.677-6.259zM59.417 88.58c.55 0 .996.446.996.996v5.016l-6.011-6.012h5.015zm21.468-2.176l3.47 2.003-3.821 2.612.351-4.615zm4.974.57l-4.486-2.59 11.615-20.117 4.486 2.59-11.615 20.118zm13.802-23.905l-1.19 2.063-4.487-2.59 1.19-2.063a2.593 2.593 0 013.538-.947 2.592 2.592 0 01.949 3.537z" fill="#fff"/><path d="M74.954 86.439a.996.996 0 00-.996-.996h-8.647a.996.996 0 100 1.992h8.647c.55 0 .996-.446.996-.996zm6.526-12.153H66.237a.996.996 0 100 1.992h15.245a.996.996 0 100-1.992zM59.965 70.7h21.516a.996.996 0 100-1.992H59.965a.996.996 0 100 1.993zM81.48 57.549H59.966a.996.996 0 100 1.992h21.516a.996.996 0 100-1.992zm0 5.579h-7.522a.996.996 0 000 1.992h7.523a.996.996 0 100-1.992zM59.965 65.12h8.849a.996.996 0 100-1.992h-8.849a.996.996 0 100 1.992zm0 11.158h1.633a.996.996 0 100-1.992h-1.633a.996.996 0 100 1.992z" fill="#fff"/></svg>