<svg width="334" height="613" fill="none" xmlns="http://www.w3.org/2000/svg"><path d="M48.1 108.419a54 54 0 1115.162.09" stroke="#4FB5FF" stroke-width="2"/><circle cx="56" cy="55" r="41.154" fill="#474747"/><path d="M70.709 47.105c.406 0 .736-.33.736-.737v-8.006a2.211 2.211 0 00-2.209-2.208H42.44a2.21 2.21 0 00-2.208 2.208v33.276a2.21 2.21 0 002.208 2.208h26.797a2.21 2.21 0 002.209-2.208v-5.424a.736.736 0 10-1.473 0v5.424c0 .405-.33.736-.736.736H42.44a.737.737 0 01-.736-.736V38.362c0-.406.33-.736.736-.736h26.797c.406 0 .736.33.736.736v8.006c0 .407.33.736.737.736z" fill="#fff"/><path d="M55.838 40.129a6.78 6.78 0 00-6.773 6.773 6.755 6.755 0 002.205 4.996 6.746 6.746 0 004.568 1.777 6.747 6.747 0 004.647-1.85 6.754 6.754 0 002.126-4.923 6.78 6.78 0 00-6.773-6.773zm0 12.074a5.272 5.272 0 01-3.202-1.08 3.657 3.657 0 013.202-1.865c1.347 0 2.555.717 3.202 1.865-.89.677-2 1.08-3.202 1.08zm-1.178-5.596v-.478a1.179 1.179 0 012.356 0v.478a1.18 1.18 0 01-1.178 1.178 1.18 1.18 0 01-1.178-1.178zm5.444 3.437a5.108 5.108 0 00-2.17-1.818c.347-.448.554-1.01.554-1.619v-.478a2.653 2.653 0 00-2.65-2.65 2.653 2.653 0 00-2.65 2.65v.478c0 .61.207 1.17.553 1.619a5.108 5.108 0 00-2.169 1.818 5.271 5.271 0 01-1.035-3.142c0-2.923 2.378-5.3 5.301-5.3s5.3 2.377 5.3 5.3a5.271 5.271 0 01-1.035 3.142zm-.291 14.232H49.36a.736.736 0 100 1.472h10.454a.736.736 0 000-1.472zm0-4.123H49.36a.736.736 0 100 1.473h10.454a.736.736 0 000-1.473zm-13.077-3.907a.742.742 0 00-.521-.215.742.742 0 00-.521.215.742.742 0 00-.216.52c0 .194.079.384.216.521a.743.743 0 00.52.216.743.743 0 00.522-.216.742.742 0 00.216-.52.742.742 0 00-.216-.52zm0 4.123a.743.743 0 00-.521-.216.743.743 0 00-.521.216.742.742 0 00-.216.52c0 .194.079.384.216.521a.743.743 0 00.52.216.743.743 0 00.522-.216.742.742 0 00.216-.52.742.742 0 00-.216-.521zm0 4.123a.743.743 0 00-.521-.216.743.743 0 00-.521.216.742.742 0 00-.216.52c0 .194.079.384.216.52a.742.742 0 00.52.216.742.742 0 00.522-.215.742.742 0 00.216-.52.742.742 0 00-.216-.521zm13.077-8.462H49.36a.736.736 0 100 1.473h10.454a.736.736 0 000-1.472zm16.564-10.282a3.072 3.072 0 00-2.346-.31 3.072 3.072 0 00-1.878 1.442L62.89 62.926a.737.737 0 00-.094.286l-.652 5.842a.736.736 0 001.168.674l4.732-3.485a.734.734 0 00.201-.225l9.265-16.046a3.096 3.096 0 00-1.132-4.224zM63.793 67.545l.34-3.05 2.131 1.23-2.471 1.82zm3.545-2.9l-2.806-1.62 7.435-12.877 2.805 1.62-7.434 12.876zm8.896-15.41l-.726 1.257-2.805-1.62.725-1.256c.217-.375.566-.643.984-.755a1.608 1.608 0 011.229.162c.375.216.642.566.754.983.112.418.055.855-.161 1.23z" fill="#fff"/><path d="M139.53 36.822V39h-7.236v-2.178h2.484v-8.316c-.096.144-.258.306-.486.486a6.88 6.88 0 01-.756.504 5.624 5.624 0 01-.864.396 2.274 2.274 0 01-.792.162v-2.232c.324 0 .654-.084.99-.252.336-.168.648-.36.936-.576.288-.216.516-.414.684-.594l.288-.306h2.466v10.728h2.286zM140.975 39v-2.592h1.98V39h-1.98zm12.795.126c-1.044 0-1.98-.21-2.808-.63A4.899 4.899 0 01149 36.732l1.854-1.152c.3.456.69.822 1.17 1.098.48.264 1.044.396 1.692.396.768 0 1.338-.168 1.71-.504.384-.336.576-.78.576-1.332 0-.36-.084-.672-.252-.936a1.491 1.491 0 00-.72-.63c-.324-.156-.732-.234-1.224-.234h-1.53v-1.89h1.548c.384 0 .708-.066.972-.198.276-.144.48-.336.612-.576.144-.24.216-.516.216-.828 0-.324-.078-.606-.234-.846-.144-.24-.366-.426-.666-.558-.288-.144-.66-.216-1.116-.216-.648 0-1.206.132-1.674.396a2.742 2.742 0 00-1.08 1.008l-1.782-1.26a5.566 5.566 0 011.836-1.71c.756-.432 1.692-.648 2.808-.648.888 0 1.65.138 2.286.414.636.264 1.128.654 1.476 1.17.36.516.54 1.14.54 1.872 0 .588-.144 1.14-.432 1.656-.276.504-.72.894-1.332 1.17.72.216 1.272.6 1.656 1.152.396.552.594 1.194.594 1.926 0 .792-.21 1.464-.63 2.016-.408.54-.966.948-1.674 1.224s-1.518.414-2.43.414zm9.951-12.906h2.52L170.939 39h-2.556l-1.188-3.186h-4.464L161.561 39h-2.556l4.716-12.78zm3.024 7.848l-1.764-5.274-1.836 5.274h3.6zM171.999 39l3.132-5.13c-.792-.264-1.416-.72-1.872-1.368-.444-.66-.666-1.44-.666-2.34 0-.756.18-1.428.54-2.016.36-.6.858-1.068 1.494-1.404.636-.348 1.38-.522 2.232-.522h4.986V39h-2.466v-4.824h-1.746L174.789 39h-2.79zm5.148-6.948h2.232v-3.726h-2.196c-.372 0-.72.072-1.044.216a1.718 1.718 0 00-.756.612c-.18.264-.27.6-.27 1.008 0 .408.084.756.252 1.044.168.276.408.486.72.63.312.144.666.216 1.062.216zm17.654 3.654c0 .72-.186 1.326-.558 1.818-.372.48-.876.846-1.512 1.098a5.43 5.43 0 01-2.052.378h-6.174V26.22h6.84c.6 0 1.116.162 1.548.486.444.312.78.72 1.008 1.224a3.496 3.496 0 01-.108 3.294c-.312.552-.768.96-1.368 1.224.732.216 1.308.606 1.728 1.17.432.564.648 1.26.648 2.088zm-2.502-.468c0-.324-.066-.612-.198-.864a1.494 1.494 0 00-.54-.612 1.257 1.257 0 00-.756-.234h-3.816v3.366h3.69c.3 0 .57-.072.81-.216.252-.156.45-.36.594-.612a1.64 1.64 0 00.216-.828zm-5.31-6.894v3.222h3.312c.276 0 .528-.066.756-.198.228-.132.408-.318.54-.558.144-.24.216-.528.216-.864 0-.324-.066-.606-.198-.846a1.339 1.339 0 00-.504-.558 1.264 1.264 0 00-.702-.198h-3.42zM196.775 39V26.22h2.466v5.148h1.26l3.798-5.148h2.772l-4.644 6.192L207.431 39h-3.006l-3.96-5.382h-1.224V39h-2.466zm15.831-12.78h2.52L219.824 39h-2.556l-1.188-3.186h-4.464L210.446 39h-2.556l4.716-12.78zm3.024 7.848l-1.764-5.274-1.836 5.274h3.6zM136.25 71.07c-.7 0-1.335-.14-1.904-.42a4.612 4.612 0 01-1.47-1.134 5.46 5.46 0 01-.952-1.624 5.336 5.336 0 01-.336-1.862c0-.663.117-1.293.35-1.89.233-.607.56-1.143.98-1.61.429-.476.929-.85 1.498-1.12a4.128 4.128 0 011.848-.42c.7 0 1.335.145 1.904.434.569.29 1.055.677 1.456 1.162a5.46 5.46 0 01.952 1.624 5.265 5.265 0 01-.994 5.348c-.42.467-.915.835-1.484 1.106a4.246 4.246 0 01-1.848.406zm-3.682-5.04a4.7 4.7 0 00.266 1.568c.177.495.429.938.756 1.33.327.383.714.69 1.162.924a3.36 3.36 0 001.498.336 3.26 3.26 0 001.526-.35c.457-.243.845-.56 1.162-.952a4.3 4.3 0 00.742-1.344 4.672 4.672 0 00-.014-3.066 4.2 4.2 0 00-.77-1.33 3.591 3.591 0 00-1.162-.924 3.272 3.272 0 00-1.484-.336c-.56 0-1.069.117-1.526.35-.448.233-.835.55-1.162.952a4.52 4.52 0 00-.742 1.33 4.672 4.672 0 00-.252 1.512zm13.16 5.11a3.627 3.627 0 01-1.47-.294 3.811 3.811 0 01-1.162-.84 4.01 4.01 0 01-.77-1.218 3.978 3.978 0 01-.266-1.456c0-.69.154-1.32.462-1.89a3.53 3.53 0 011.288-1.358c.55-.336 1.185-.504 1.904-.504.681 0 1.283.159 1.806.476.522.308.91.728 1.162 1.26l-.924.294a2.165 2.165 0 00-.868-.868 2.352 2.352 0 00-1.218-.322c-.486 0-.929.126-1.33.378a2.782 2.782 0 00-.966 1.036c-.234.439-.35.938-.35 1.498 0 .55.121 1.05.364 1.498.242.448.564.807.966 1.078.401.261.844.392 1.33.392.317 0 .62-.056.91-.168a2.5 2.5 0 00.77-.448c.224-.196.373-.406.448-.63l.938.28c-.131.345-.35.658-.658.938a3.39 3.39 0 01-1.064.644 3.71 3.71 0 01-1.302.224zm6.339-.14v-6.44h-2.604v-.854h6.16v.854h-2.604V71h-.952zm4.223-2.1c0-.457.131-.85.392-1.176.261-.336.621-.593 1.078-.77.467-.187 1.003-.28 1.61-.28.355 0 .723.028 1.106.084.383.056.723.14 1.022.252v-.616c0-.616-.182-1.106-.546-1.47-.364-.364-.868-.546-1.512-.546-.392 0-.779.075-1.162.224-.373.14-.765.35-1.176.63l-.364-.672a5.93 5.93 0 011.4-.728 4.03 4.03 0 011.4-.252c.896 0 1.605.257 2.128.77.523.513.784 1.223.784 2.128v3.374c0 .13.028.229.084.294.056.056.145.089.266.098V71c-.103.01-.191.019-.266.028a.495.495 0 01-.168 0c-.233-.01-.411-.084-.532-.224a.743.743 0 01-.196-.448l-.014-.532c-.327.42-.751.747-1.274.98a4.02 4.02 0 01-1.596.336c-.467 0-.891-.098-1.274-.294a2.395 2.395 0 01-.882-.812 2.181 2.181 0 01-.308-1.134zm4.886.56c.103-.13.182-.257.238-.378a.786.786 0 00.084-.322v-1.064a5.792 5.792 0 00-2.016-.378c-.681 0-1.232.135-1.652.406-.42.27-.63.64-.63 1.106 0 .27.07.527.21.77.14.233.345.43.616.588.271.15.588.224.952.224a3.06 3.06 0 001.274-.266c.401-.177.709-.406.924-.686zm3.317 1.54v-7.294h3.64c.411 0 .756.089 1.036.266.28.168.49.387.63.658.149.27.224.56.224.868 0 .392-.093.747-.28 1.064a1.76 1.76 0 01-.812.7c.42.121.761.34 1.022.658.261.317.392.7.392 1.148 0 .392-.098.733-.294 1.022-.187.29-.448.513-.784.672a2.567 2.567 0 01-1.134.238h-3.64zm.91-.686h2.702c.243 0 .462-.06.658-.182a1.37 1.37 0 00.476-.504 1.302 1.302 0 00.014-1.302 1.332 1.332 0 00-.448-.49 1.155 1.155 0 00-.644-.182h-2.758v2.66zm0-3.318h2.478c.243 0 .457-.065.644-.196a1.418 1.418 0 00.588-1.148c0-.336-.112-.63-.336-.882a1.052 1.052 0 00-.84-.378h-2.534v2.604zm5.896 4.046v-.868c.252 0 .476-.065.672-.196.196-.14.369-.373.518-.7.159-.327.285-.775.378-1.344.094-.579.154-1.311.182-2.198l.084-2.03h4.732V71h-.952v-6.44h-2.94l-.028 1.26c-.037 1.008-.116 1.853-.238 2.534-.121.672-.294 1.204-.518 1.596-.214.392-.48.672-.798.84a2.297 2.297 0 01-1.092.252zm8.125-.042l2.17-2.982a1.917 1.917 0 01-1.204-.644c-.299-.364-.448-.859-.448-1.484 0-.42.098-.793.294-1.12.196-.327.471-.588.826-.784.364-.196.789-.294 1.274-.294h2.786V71h-.952v-2.828h-1.624L180.488 71h-1.064zm2.898-3.556h1.848v-2.996h-1.68c-.485 0-.873.14-1.162.42-.289.27-.434.616-.434 1.036 0 .43.117.793.35 1.092.243.299.602.448 1.078.448zm8.044 3.696a3.591 3.591 0 01-1.456-.294 3.712 3.712 0 01-1.162-.826 4.03 4.03 0 01-.77-1.218 4.037 4.037 0 01-.266-1.47c0-.681.154-1.307.462-1.876a3.633 3.633 0 011.302-1.358c.551-.345 1.176-.518 1.876-.518.719 0 1.344.173 1.876.518.541.345.966.803 1.274 1.372.308.56.462 1.176.462 1.848v.224a.684.684 0 01-.014.154h-6.244c.047.523.191.99.434 1.4.252.401.574.723.966.966.401.233.835.35 1.302.35a2.64 2.64 0 001.344-.364c.429-.243.728-.56.896-.952l.826.224a2.727 2.727 0 01-.686.938c-.308.28-.672.5-1.092.658-.411.15-.854.224-1.33.224zm-2.688-4.13h5.39a2.977 2.977 0 00-.434-1.4 2.591 2.591 0 00-.966-.938 2.498 2.498 0 00-1.302-.35 2.5 2.5 0 00-1.302.35 2.694 2.694 0 00-.966.952 3.05 3.05 0 00-.42 1.386zm9.575 3.99v-6.44h-2.604v-.854h6.16v.854h-2.604V71h-.952zm8.002.14a3.591 3.591 0 01-1.456-.294 3.7 3.7 0 01-1.162-.826 4.01 4.01 0 01-.77-1.218 4.016 4.016 0 01-.266-1.47c0-.681.154-1.307.462-1.876a3.633 3.633 0 011.302-1.358c.55-.345 1.176-.518 1.876-.518.718 0 1.344.173 1.876.518.541.345.966.803 1.274 1.372.308.56.462 1.176.462 1.848v.224a.684.684 0 01-.014.154h-6.244c.046.523.191.99.434 1.4.252.401.574.723.966.966.401.233.835.35 1.302.35a2.64 2.64 0 001.344-.364c.429-.243.728-.56.896-.952l.826.224a2.74 2.74 0 01-.686.938c-.308.28-.672.5-1.092.658-.411.15-.854.224-1.33.224zm-2.688-4.13h5.39a2.988 2.988 0 00-.434-1.4 2.591 2.591 0 00-.966-.938 2.498 2.498 0 00-1.302-.35 2.5 2.5 0 00-1.302.35 2.694 2.694 0 00-.966.952 3.05 3.05 0 00-.42 1.386zm13.437 4.074c-.672 0-1.246-.126-1.722-.378a2.675 2.675 0 01-1.092-1.092l.784-.35c.177.327.434.583.77.77.336.177.742.266 1.218.266.569 0 1.022-.13 1.358-.392a1.25 1.25 0 00.518-1.05c0-.401-.135-.723-.406-.966s-.644-.369-1.12-.378h-.742v-.658h.798a.988.988 0 00.56-.168c.168-.112.299-.261.392-.448.093-.187.14-.397.14-.63 0-.364-.131-.658-.392-.882-.252-.224-.625-.336-1.12-.336-.411 0-.756.084-1.036.252-.271.159-.49.397-.658.714l-.728-.392c.215-.43.532-.765.952-1.008.429-.243.929-.364 1.498-.364.467 0 .873.08 1.218.238.355.15.63.369.826.658.205.28.308.62.308 1.022 0 .345-.084.667-.252.966a1.64 1.64 0 01-.7.658c.429.13.761.36.994.686.243.327.364.71.364 1.148 0 .439-.117.817-.35 1.134-.233.317-.555.56-.966.728-.411.168-.882.252-1.414.252zm3.737-2.184c0-.457.131-.85.392-1.176.262-.336.621-.593 1.078-.77.467-.187 1.004-.28 1.61-.28.355 0 .724.028 1.106.084.383.056.724.14 1.022.252v-.616c0-.616-.182-1.106-.546-1.47-.364-.364-.868-.546-1.512-.546-.392 0-.779.075-1.162.224-.373.14-.765.35-1.176.63l-.364-.672a5.93 5.93 0 011.4-.728 4.034 4.034 0 011.4-.252c.896 0 1.606.257 2.128.77.523.513.784 1.223.784 2.128v3.374c0 .13.028.229.084.294.056.056.145.089.266.098V71a8.39 8.39 0 00-.266.028.496.496 0 01-.168 0c-.233-.01-.41-.084-.532-.224a.75.75 0 01-.196-.448l-.014-.532c-.326.42-.751.747-1.274.98a4.012 4.012 0 01-1.596.336c-.466 0-.891-.098-1.274-.294a2.395 2.395 0 01-.882-.812 2.181 2.181 0 01-.308-1.134zm4.886.56c.103-.13.182-.257.238-.378a.786.786 0 00.084-.322v-1.064a5.766 5.766 0 00-2.016-.378c-.681 0-1.232.135-1.652.406-.42.27-.63.64-.63 1.106 0 .27.07.527.21.77.14.233.346.43.616.588.271.15.588.224.952.224.458 0 .882-.089 1.274-.266.402-.177.71-.406.924-.686zm2.785 1.54l2.17-2.982a1.92 1.92 0 01-1.204-.644c-.298-.364-.448-.859-.448-1.484 0-.42.098-.793.294-1.12a2.16 2.16 0 01.826-.784c.364-.196.789-.294 1.274-.294h2.786V71h-.952v-2.828h-1.624L228.476 71h-1.064zm2.898-3.556h1.848v-2.996h-1.68c-.485 0-.872.14-1.162.42-.289.27-.434.616-.434 1.036 0 .43.117.793.35 1.092.243.299.602.448 1.078.448zM235.19 71v-7.294h3.64c.411 0 .756.089 1.036.266.28.168.49.387.63.658.15.27.224.56.224.868 0 .392-.093.747-.28 1.064a1.756 1.756 0 01-.812.7c.42.121.761.34 1.022.658.262.317.392.7.392 1.148 0 .392-.098.733-.294 1.022a1.84 1.84 0 01-.784.672 2.561 2.561 0 01-1.134.238h-3.64zm.91-.686h2.702c.243 0 .462-.06.658-.182a1.36 1.36 0 00.476-.504 1.302 1.302 0 00.014-1.302 1.332 1.332 0 00-.448-.49 1.153 1.153 0 00-.644-.182H236.1v2.66zm0-3.318h2.478c.243 0 .458-.065.644-.196a1.418 1.418 0 00.588-1.148c0-.336-.112-.63-.336-.882a1.049 1.049 0 00-.84-.378H236.1v2.604zM242.682 71v-7.294h.952v3.122h1.092l2.45-3.122h1.092l-2.786 3.542L248.618 71h-1.12l-2.772-3.29h-1.092V71h-.952zm8.086 3.052c-.159 0-.322-.028-.49-.084a2.415 2.415 0 01-.49-.21l.35-.672c.103.056.196.103.28.14a.782.782 0 00.294.056c.243 0 .471-.121.686-.364.215-.243.42-.597.616-1.064l.364-.91-3.248-7.238h1.008l2.674 6.314 2.464-6.314h.952l-3.472 8.442a5.458 5.458 0 01-.588 1.078c-.205.28-.425.485-.658.616a1.42 1.42 0 01-.742.21zM260.729 71v-7.294h.952v3.136h4.172v-3.136h.952V71h-.952v-3.304h-4.172V71h-.952zm7.588-2.1c0-.457.131-.85.392-1.176.262-.336.621-.593 1.078-.77.467-.187 1.004-.28 1.61-.28.355 0 .724.028 1.106.084.383.056.724.14 1.022.252v-.616c0-.616-.182-1.106-.546-1.47-.364-.364-.868-.546-1.512-.546-.392 0-.779.075-1.162.224-.373.14-.765.35-1.176.63l-.364-.672a5.93 5.93 0 011.4-.728 4.034 4.034 0 011.4-.252c.896 0 1.606.257 2.128.77.523.513.784 1.223.784 2.128v3.374c0 .13.028.229.084.294.056.056.145.089.266.098V71a8.39 8.39 0 00-.266.028.496.496 0 01-.168 0c-.233-.01-.41-.084-.532-.224a.75.75 0 01-.196-.448l-.014-.532c-.326.42-.751.747-1.274.98a4.012 4.012 0 01-1.596.336c-.466 0-.891-.098-1.274-.294a2.395 2.395 0 01-.882-.812 2.181 2.181 0 01-.308-1.134zm4.886.56c.103-.13.182-.257.238-.378a.786.786 0 00.084-.322v-1.064a5.766 5.766 0 00-2.016-.378c-.681 0-1.232.135-1.652.406-.42.27-.63.64-.63 1.106 0 .27.07.527.21.77.14.233.346.43.616.588.271.15.588.224.952.224.458 0 .882-.089 1.274-.266.402-.177.71-.406.924-.686zm10.064 1.68a3.627 3.627 0 01-1.47-.294 3.811 3.811 0 01-1.162-.84 4.01 4.01 0 01-.77-1.218 3.978 3.978 0 01-.266-1.456c0-.69.154-1.32.462-1.89a3.53 3.53 0 011.288-1.358c.55-.336 1.185-.504 1.904-.504.681 0 1.283.159 1.806.476.522.308.91.728 1.162 1.26l-.924.294a2.165 2.165 0 00-.868-.868 2.352 2.352 0 00-1.218-.322c-.486 0-.929.126-1.33.378a2.782 2.782 0 00-.966 1.036c-.234.439-.35.938-.35 1.498 0 .55.121 1.05.364 1.498.242.448.564.807.966 1.078.401.261.844.392 1.33.392.317 0 .62-.056.91-.168a2.5 2.5 0 00.77-.448c.224-.196.373-.406.448-.63l.938.28c-.131.345-.35.658-.658.938a3.39 3.39 0 01-1.064.644 3.71 3.71 0 01-1.302.224zm3.931-2.24c0-.457.131-.85.392-1.176.262-.336.621-.593 1.078-.77.467-.187 1.004-.28 1.61-.28.355 0 .724.028 1.106.084.383.056.724.14 1.022.252v-.616c0-.616-.182-1.106-.546-1.47-.364-.364-.868-.546-1.512-.546-.392 0-.779.075-1.162.224-.373.14-.765.35-1.176.63l-.364-.672a5.93 5.93 0 011.4-.728 4.034 4.034 0 011.4-.252c.896 0 1.606.257 2.128.77.523.513.784 1.223.784 2.128v3.374c0 .13.028.229.084.294.056.056.145.089.266.098V71a8.39 8.39 0 00-.266.028.496.496 0 01-.168 0c-.233-.01-.41-.084-.532-.224a.75.75 0 01-.196-.448l-.014-.532c-.326.42-.751.747-1.274.98a4.012 4.012 0 01-1.596.336c-.466 0-.891-.098-1.274-.294a2.395 2.395 0 01-.882-.812 2.181 2.181 0 01-.308-1.134zm4.886.56c.103-.13.182-.257.238-.378a.786.786 0 00.084-.322v-1.064a5.766 5.766 0 00-2.016-.378c-.681 0-1.232.135-1.652.406-.42.27-.63.64-.63 1.106 0 .27.07.527.21.77.14.233.346.43.616.588.271.15.588.224.952.224.458 0 .882-.089 1.274-.266.402-.177.71-.406.924-.686zm3.317 1.54v-7.28h.952v5.992l4.438-6.006h.854V71h-.952v-5.894L296.325 71h-.924zm3.136-8.218c-.634 0-1.124-.15-1.47-.448a1.436 1.436 0 01-.518-1.134h.7c0 .28.103.513.308.7.215.187.542.28.98.28.43 0 .742-.089.938-.266.206-.177.322-.415.35-.714h.686c0 .457-.172.835-.518 1.134-.345.299-.83.448-1.456.448zM305.548 71v-6.44h-2.604v-.854h6.16v.854H306.5V71h-.952zm8.002.14a3.591 3.591 0 01-1.456-.294 3.7 3.7 0 01-1.162-.826 4.01 4.01 0 01-.77-1.218 4.016 4.016 0 01-.266-1.47c0-.681.154-1.307.462-1.876a3.633 3.633 0 011.302-1.358c.55-.345 1.176-.518 1.876-.518.718 0 1.344.173 1.876.518.541.345.966.803 1.274 1.372.308.56.462 1.176.462 1.848v.224a.684.684 0 01-.014.154h-6.244c.046.523.191.99.434 1.4.252.401.574.723.966.966.401.233.835.35 1.302.35a2.64 2.64 0 001.344-.364c.429-.243.728-.56.896-.952l.826.224a2.74 2.74 0 01-.686.938c-.308.28-.672.5-1.092.658-.411.15-.854.224-1.33.224zm-2.688-4.13h5.39a2.988 2.988 0 00-.434-1.4 2.591 2.591 0 00-.966-.938 2.498 2.498 0 00-1.302-.35 2.5 2.5 0 00-1.302.35 2.694 2.694 0 00-.966.952 3.05 3.05 0 00-.42 1.386zM132.036 87v-7.28h.952v5.992l4.438-6.006h.854V87h-.952v-5.894L132.96 87h-.924zm7.627.042v-.868c.252 0 .476-.065.672-.196.196-.14.368-.373.518-.7.158-.327.284-.775.378-1.344.093-.579.154-1.311.182-2.198l.084-2.03h4.732V87h-.952v-6.44h-2.94l-.028 1.26c-.038 1.008-.117 1.853-.238 2.534-.122.672-.294 1.204-.518 1.596-.215.392-.481.672-.798.84a2.302 2.302 0 01-1.092.252zm8.656-.042v-7.28h.952v5.992l4.438-6.006h.854V87h-.952v-5.894L149.243 87h-.924zm14.009.084c-.672 0-1.246-.126-1.722-.378a2.675 2.675 0 01-1.092-1.092l.784-.35c.177.327.434.583.77.77.336.177.742.266 1.218.266.569 0 1.022-.13 1.358-.392a1.25 1.25 0 00.518-1.05c0-.401-.135-.723-.406-.966s-.644-.369-1.12-.378h-.742v-.658h.798a.988.988 0 00.56-.168c.168-.112.299-.261.392-.448.093-.187.14-.397.14-.63 0-.364-.131-.658-.392-.882-.252-.224-.625-.336-1.12-.336-.411 0-.756.084-1.036.252-.271.159-.49.397-.658.714l-.728-.392c.215-.43.532-.765.952-1.008.429-.243.929-.364 1.498-.364.467 0 .873.08 1.218.238.355.15.63.369.826.658.205.28.308.62.308 1.022 0 .345-.084.667-.252.966a1.64 1.64 0 01-.7.658c.429.13.761.36.994.686.243.327.364.71.364 1.148 0 .439-.117.817-.35 1.134-.233.317-.555.56-.966.728-.411.168-.882.252-1.414.252zM166.64 87v-7.294h3.64c.41 0 .756.089 1.036.266.28.168.49.387.63.658.149.27.224.56.224.868 0 .392-.094.747-.28 1.064a1.766 1.766 0 01-.812.7c.42.121.76.34 1.022.658.261.317.392.7.392 1.148 0 .392-.098.733-.294 1.022-.187.29-.448.513-.784.672a2.567 2.567 0 01-1.134.238h-3.64zm.91-.686h2.702c.242 0 .462-.06.658-.182a1.37 1.37 0 00.476-.504 1.302 1.302 0 00.014-1.302 1.34 1.34 0 00-.448-.49 1.158 1.158 0 00-.644-.182h-2.758v2.66zm0-3.318h2.478c.242 0 .457-.065.644-.196a1.34 1.34 0 00.434-.504 1.43 1.43 0 00.154-.644c0-.336-.112-.63-.336-.882a1.052 1.052 0 00-.84-.378h-2.534v2.604zm9.704 4.144a3.591 3.591 0 01-1.456-.294 3.745 3.745 0 01-1.148-.826 3.977 3.977 0 01-.742-1.204 3.94 3.94 0 01-.266-1.442c0-.523.088-1.008.266-1.456.177-.457.429-.859.756-1.204.326-.355.709-.63 1.148-.826a3.452 3.452 0 011.456-.308c.522 0 1.003.103 1.442.308a3.48 3.48 0 011.148.826c.326.345.578.747.756 1.204.177.448.266.933.266 1.456 0 .504-.089.985-.266 1.442-.178.448-.43.85-.756 1.204-.318.345-.7.62-1.148.826a3.53 3.53 0 01-1.456.294zm-2.646-3.752c0 .541.116 1.036.35 1.484.242.439.564.789.966 1.05.401.252.844.378 1.33.378.485 0 .928-.13 1.33-.392.401-.261.723-.616.966-1.064.242-.457.364-.952.364-1.484 0-.541-.122-1.036-.364-1.484a2.884 2.884 0 00-.966-1.064 2.39 2.39 0 00-1.33-.392c-.486 0-.929.135-1.33.406-.392.27-.71.63-.952 1.078a3.01 3.01 0 00-.364 1.484zm7.85 3.612v-7.294h.952v3.136h4.172v-3.136h.952V87h-.952v-3.304h-4.172V87h-.952zm8.162 0v-7.28h.952v5.992l4.438-6.006h.854V87h-.952v-5.894L191.544 87h-.924zm10.146 0v-6.44h-2.604v-.854h6.16v.854h-2.604V87h-.952zm8.002.14a3.595 3.595 0 01-1.456-.294 3.712 3.712 0 01-1.162-.826 4.049 4.049 0 01-.77-1.218 4.037 4.037 0 01-.266-1.47c0-.681.154-1.307.462-1.876a3.648 3.648 0 011.302-1.358c.551-.345 1.176-.518 1.876-.518.719 0 1.344.173 1.876.518.542.345.966.803 1.274 1.372.308.56.462 1.176.462 1.848v.224a.63.63 0 01-.014.154h-6.244c.047.523.192.99.434 1.4.252.401.574.723.966.966.402.233.836.35 1.302.35a2.64 2.64 0 001.344-.364c.43-.243.728-.56.896-.952l.826.224a2.727 2.727 0 01-.686.938c-.308.28-.672.5-1.092.658a3.86 3.86 0 01-1.33.224zm-2.688-4.13h5.39a2.977 2.977 0 00-.434-1.4 2.577 2.577 0 00-.966-.938 2.498 2.498 0 00-1.302-.35 2.5 2.5 0 00-1.302.35 2.694 2.694 0 00-.966.952 3.075 3.075 0 00-.42 1.386zM217.39 87v-7.294h.952v3.136h4.172v-3.136h.952V87h-.952v-3.304h-4.172V87h-.952zm7.588-2.1c0-.457.13-.85.392-1.176.261-.336.62-.593 1.078-.77.466-.187 1.003-.28 1.61-.28.354 0 .723.028 1.106.084.382.056.723.14 1.022.252v-.616c0-.616-.182-1.106-.546-1.47-.364-.364-.868-.546-1.512-.546-.392 0-.78.075-1.162.224-.374.14-.766.35-1.176.63l-.364-.672c.476-.327.942-.57 1.4-.728a4.03 4.03 0 011.4-.252c.896 0 1.605.257 2.128.77.522.513.784 1.223.784 2.128v3.374c0 .13.028.229.084.294.056.056.144.089.266.098V87c-.103.01-.192.019-.266.028a.495.495 0 01-.168 0c-.234-.01-.411-.084-.532-.224a.737.737 0 01-.196-.448l-.014-.532c-.327.42-.752.747-1.274.98a4.02 4.02 0 01-1.596.336 2.75 2.75 0 01-1.274-.294 2.38 2.38 0 01-.882-.812 2.172 2.172 0 01-.308-1.134zm4.886.56a1.95 1.95 0 00.238-.378.786.786 0 00.084-.322v-1.064a5.817 5.817 0 00-2.016-.378c-.682 0-1.232.135-1.652.406-.42.27-.63.64-.63 1.106 0 .27.07.527.21.77.14.233.345.43.616.588.27.15.588.224.952.224a3.06 3.06 0 001.274-.266c.401-.177.709-.406.924-.686zm3.317 1.54v-7.294h.98l2.898 5.026 2.912-5.026h.938V87h-.91v-5.866l-2.632 4.564h-.616l-2.66-4.564V87h-.91z" fill="#474747"/><path fill-rule="evenodd" clip-rule="evenodd" d="M248.9 178.155a52.996 52.996 0 0171.416 11.062 53.016 53.016 0 01-6.008 72.03 52.997 52.997 0 01-27.413 13.129l.311 1.975a54.994 54.994 0 0028.447-13.623 55.014 55.014 0 00-28.562-95.08 54.99 54.99 0 00-39.315 8.853l1.124 1.654zm26.468 98.763c-1.286-.077-2.57-.2-3.85-.368l.26-1.983a52.996 52.996 0 01-29.731-14.244 53.013 53.013 0 01-4.163-72.16l-1.54-1.277a55.012 55.012 0 0039.024 90.032z" fill="#4FB5FF"/><ellipse cx="278.674" cy="222.009" rx="41.154" ry="41.16" fill="#474747"/><path d="M293.677 203.159h-25.593a.767.767 0 00-.766.767v14.407H257.26a2.05 2.05 0 00-2.048 2.048v11.537a2.05 2.05 0 002.048 2.049h10.058v2.758h-3.371a.767.767 0 00-.766.767 4.909 4.909 0 004.903 4.904h21.608a4.756 4.756 0 004.751-4.751v-33.719a.767.767 0 00-.766-.767zm-11.396 18.548a2.66 2.66 0 01-1.84-1.841h1.325c.284 0 .515.231.515.515v1.326zm-3.409-1.841a4.194 4.194 0 003.409 3.41v5.748a4.194 4.194 0 00-3.409 3.41h-18.718a4.196 4.196 0 00-3.41-3.41v-5.749a4.193 4.193 0 003.41-3.409h18.718zm3.409 10.727v1.325a.516.516 0 01-.515.516h-1.325a2.66 2.66 0 011.84-1.841zm-25.021-10.727h1.325a2.663 2.663 0 01-1.841 1.841v-1.326c0-.284.232-.515.516-.515zm-.516 12.052v-1.325c.89.249 1.592.951 1.841 1.841h-1.325a.517.517 0 01-.516-.516zm11.34 8.946a3.378 3.378 0 01-3.283-2.606h20.047a4.898 4.898 0 001.286 2.606h-18.05zm24.826-3.219a3.222 3.222 0 01-3.218 3.219 3.375 3.375 0 01-3.371-3.372.767.767 0 00-.766-.767h-16.704v-2.758h12.915a2.05 2.05 0 002.048-2.049v-11.537a2.05 2.05 0 00-2.048-2.048h-12.915v-13.641h24.059v32.953z" fill="#fff"/><path d="M264.902 226.15c0 2.45 2.068 4.444 4.611 4.444 2.543 0 4.611-1.994 4.611-4.444 0-2.451-2.068-4.445-4.611-4.445-2.543 0-4.611 1.994-4.611 4.445zm4.611-2.912c1.698 0 3.079 1.306 3.079 2.912 0 1.605-1.381 2.912-3.079 2.912-1.698 0-3.079-1.307-3.079-2.912 0-1.606 1.381-2.912 3.079-2.912zm-8.161 2.145a.771.771 0 00-.542.225.773.773 0 00-.224.542c0 .201.082.399.224.541.143.143.34.225.542.225a.773.773 0 00.542-.225.772.772 0 00.224-.541c0-.202-.082-.4-.224-.542a.773.773 0 00-.542-.225zm16.374 1.533a.768.768 0 000-1.533.773.773 0 00-.542.225.773.773 0 00-.224.542c0 .201.082.399.224.541a.773.773 0 00.542.225zm-6.27-14.101h18.849a.766.766 0 00.766-.766v-3.678a.766.766 0 00-.766-.767h-5.976a.766.766 0 100 1.533h5.21v2.146h-17.317v-2.146h5.211a.766.766 0 000-1.533h-5.977a.766.766 0 00-.766.767v3.678c0 .423.343.766.766.766zm0 3.372h18.849a.766.766 0 000-1.532h-18.849a.766.766 0 000 1.532zm18.849 2.146h-3.371a.766.766 0 000 1.533h3.371a.766.766 0 000-1.533zm0 3.678h-3.371a.767.767 0 000 1.533h3.371a.766.766 0 000-1.533zm0 3.679h-3.371a.766.766 0 000 1.533h3.371a.767.767 0 000-1.533zm0 3.678h-3.371a.767.767 0 000 1.533h3.371a.766.766 0 000-1.533z" fill="#fff"/><path d="M280.881 209.137a.769.769 0 00.766-.766.77.77 0 00-.766-.767.77.77 0 00-.767.767.769.769 0 00.767.766z" fill="#fff"/><path d="M1.738 209c0-.732.048-1.374.144-1.926a5.75 5.75 0 01.45-1.494 4.3 4.3 0 01.828-1.17c.336-.336.75-.654 1.242-.954.42-.24.852-.474 1.296-.702.456-.228.876-.468 1.26-.72.396-.252.714-.54.954-.864.252-.324.378-.72.378-1.188 0-.36-.078-.666-.234-.918a1.457 1.457 0 00-.648-.612c-.276-.144-.612-.216-1.008-.216-.456 0-.882.084-1.278.252a4.447 4.447 0 00-1.044.594 6.39 6.39 0 00-.774.684l-1.512-1.584c.168-.192.396-.408.684-.648.3-.24.654-.474 1.062-.702.42-.228.894-.414 1.422-.558a6.626 6.626 0 011.746-.216c.936 0 1.722.168 2.358.504.636.324 1.116.774 1.44 1.35.336.564.504 1.218.504 1.962 0 .54-.09 1.02-.27 1.44a3.424 3.424 0 01-.702 1.08c-.3.312-.636.594-1.008.846-.372.24-.756.474-1.152.702-.624.336-1.128.63-1.512.882a6.68 6.68 0 00-.918.702 2.97 2.97 0 00-.504.648c-.108.204-.204.42-.288.648h6.372V209H1.738zm11.257 0v-2.592h1.98V209h-1.98zm8.655 0v-12.78h5.418c.588 0 1.128.12 1.62.36.492.24.918.564 1.278.972.372.408.66.864.864 1.368.204.504.306 1.02.306 1.548 0 .72-.168 1.404-.504 2.052a4.312 4.312 0 01-1.386 1.584c-.588.408-1.284.612-2.088.612h-3.024V209H21.65zm2.484-6.462h2.88c.3 0 .57-.084.81-.252.24-.168.432-.408.576-.72.144-.324.216-.69.216-1.098 0-.444-.084-.822-.252-1.134a1.64 1.64 0 00-.63-.702 1.543 1.543 0 00-.828-.234h-2.772v4.14zm11.274-6.318h2.52L42.626 209H40.07l-1.188-3.186h-4.464L33.248 209h-2.556l4.716-12.78zm3.024 7.848l-1.764-5.274-1.836 5.274h3.6zm4.33-1.548c0-.78.137-1.542.413-2.286a6.664 6.664 0 011.242-2.052 5.791 5.791 0 011.98-1.476c.78-.372 1.668-.558 2.664-.558 1.176 0 2.19.258 3.042.774.864.516 1.506 1.188 1.926 2.016l-1.908 1.314c-.216-.48-.498-.858-.846-1.134a2.968 2.968 0 00-1.116-.594 4.02 4.02 0 00-1.17-.18c-.624 0-1.17.126-1.638.378-.456.252-.84.582-1.152.99a4.35 4.35 0 00-.702 1.368 5.481 5.481 0 00-.216 1.512c0 .564.09 1.11.27 1.638.18.516.432.978.756 1.386a3.97 3.97 0 001.188.954c.468.228.978.342 1.53.342.396 0 .798-.066 1.206-.198a3.42 3.42 0 001.134-.63c.348-.288.618-.66.81-1.116l2.034 1.17a3.784 3.784 0 01-1.242 1.62c-.564.444-1.2.78-1.908 1.008a6.84 6.84 0 01-2.106.342c-.912 0-1.746-.186-2.502-.558a6.56 6.56 0 01-1.962-1.512 7.648 7.648 0 01-1.278-2.124c-.3-.792-.45-1.59-.45-2.394zM62.966 209v-4.986c-.132.06-.324.138-.576.234-.252.096-.57.18-.954.252a7.409 7.409 0 01-1.35.108c-1.488 0-2.604-.33-3.348-.99-.744-.66-1.116-1.716-1.116-3.168v-4.23h2.412v3.96c0 .756.192 1.314.576 1.674.396.348 1.068.522 2.016.522.42 0 .84-.042 1.26-.126.42-.096.78-.216 1.08-.36v-5.67h2.412V209h-2.412zm13.946-2.178V209h-8.874v-12.78h8.712v2.178h-6.228v3.078h5.382v2.016h-5.382v3.33h6.39zm11.495-8.424h-4.086V209h-2.466v-10.602H77.77v-2.178h10.638v2.178zm4.609 4.122c0-.78.138-1.542.414-2.286a6.664 6.664 0 011.242-2.052 5.791 5.791 0 011.98-1.476c.78-.372 1.668-.558 2.664-.558 1.176 0 2.19.258 3.042.774.864.516 1.506 1.188 1.926 2.016l-1.908 1.314c-.216-.48-.498-.858-.846-1.134a2.968 2.968 0 00-1.116-.594 4.02 4.02 0 00-1.17-.18c-.624 0-1.17.126-1.638.378-.456.252-.84.582-1.152.99a4.35 4.35 0 00-.702 1.368 5.481 5.481 0 00-.216 1.512c0 .564.09 1.11.27 1.638.18.516.432.978.756 1.386a3.97 3.97 0 001.188.954c.468.228.978.342 1.53.342.396 0 .798-.066 1.206-.198a3.42 3.42 0 001.134-.63c.348-.288.618-.66.81-1.116l2.034 1.17a3.784 3.784 0 01-1.242 1.62c-.564.444-1.2.78-1.908 1.008a6.84 6.84 0 01-2.106.342c-.912 0-1.746-.186-2.502-.558a6.56 6.56 0 01-1.962-1.512 7.648 7.648 0 01-1.278-2.124c-.3-.792-.45-1.59-.45-2.394zm22.672-4.122h-4.086V209h-2.466v-10.602h-4.086v-2.178h10.638v2.178zm6.742 10.692c-.936 0-1.788-.18-2.556-.54a6.209 6.209 0 01-1.962-1.458 7.136 7.136 0 01-1.26-2.088c-.3-.78-.45-1.578-.45-2.394 0-.852.156-1.662.468-2.43.324-.78.762-1.47 1.314-2.07a6.182 6.182 0 011.98-1.44 5.863 5.863 0 012.52-.54c.924 0 1.764.186 2.52.558a6.05 6.05 0 011.962 1.494c.54.624.96 1.32 1.26 2.088.3.768.45 1.56.45 2.376 0 .84-.156 1.65-.468 2.43a6.817 6.817 0 01-1.314 2.07 6.052 6.052 0 01-1.98 1.422 5.869 5.869 0 01-2.484.522zm-3.708-6.48c0 .552.084 1.086.252 1.602.168.516.408.978.72 1.386.324.396.714.714 1.17.954a3.57 3.57 0 001.584.342c.6 0 1.134-.12 1.602-.36a3.602 3.602 0 001.17-.99c.312-.42.546-.882.702-1.386a4.975 4.975 0 00.252-1.548c0-.552-.09-1.08-.27-1.584a4.181 4.181 0 00-.738-1.368 3.235 3.235 0 00-1.17-.954 3.273 3.273 0 00-1.548-.36c-.612 0-1.152.126-1.62.378-.456.24-.84.564-1.152.972a4.66 4.66 0 00-.72 1.368 5.206 5.206 0 00-.234 1.548zm11.949 6.39v-12.78h2.466v9.288l6.192-9.288h2.304V209h-2.466v-9.18l-6.12 9.18h-2.376zm24.131 0v-8.388l-3.276 6.246h-1.386l-3.276-6.246V209h-2.484v-12.78h2.664l3.78 7.272 3.816-7.272h2.646V209h-2.484zm10.606.09c-.936 0-1.788-.18-2.556-.54a6.209 6.209 0 01-1.962-1.458 7.136 7.136 0 01-1.26-2.088c-.3-.78-.45-1.578-.45-2.394 0-.852.156-1.662.468-2.43.324-.78.762-1.47 1.314-2.07a6.182 6.182 0 011.98-1.44 5.863 5.863 0 012.52-.54c.924 0 1.764.186 2.52.558a6.05 6.05 0 011.962 1.494c.54.624.96 1.32 1.26 2.088.3.768.45 1.56.45 2.376 0 .84-.156 1.65-.468 2.43a6.817 6.817 0 01-1.314 2.07 6.052 6.052 0 01-1.98 1.422 5.869 5.869 0 01-2.484.522zm-3.708-6.48c0 .552.084 1.086.252 1.602.168.516.408.978.72 1.386.324.396.714.714 1.17.954a3.57 3.57 0 001.584.342c.6 0 1.134-.12 1.602-.36a3.602 3.602 0 001.17-.99c.312-.42.546-.882.702-1.386a4.975 4.975 0 00.252-1.548c0-.552-.09-1.08-.27-1.584a4.181 4.181 0 00-.738-1.368 3.235 3.235 0 00-1.17-.954 3.273 3.273 0 00-1.548-.36c-.612 0-1.152.126-1.62.378-.456.24-.84.564-1.152.972a4.66 4.66 0 00-.72 1.368 5.206 5.206 0 00-.234 1.548zm11.086-.09c0-.78.138-1.542.414-2.286a6.664 6.664 0 011.242-2.052 5.791 5.791 0 011.98-1.476c.78-.372 1.668-.558 2.664-.558 1.176 0 2.19.258 3.042.774.864.516 1.506 1.188 1.926 2.016l-1.908 1.314c-.216-.48-.498-.858-.846-1.134a2.968 2.968 0 00-1.116-.594 4.02 4.02 0 00-1.17-.18c-.624 0-1.17.126-1.638.378-.456.252-.84.582-1.152.99a4.35 4.35 0 00-.702 1.368 5.481 5.481 0 00-.216 1.512c0 .564.09 1.11.27 1.638.18.516.432.978.756 1.386a3.97 3.97 0 001.188.954c.468.228.978.342 1.53.342.396 0 .798-.066 1.206-.198a3.42 3.42 0 001.134-.63c.348-.288.618-.66.81-1.116l2.034 1.17a3.784 3.784 0 01-1.242 1.62c-.564.444-1.2.78-1.908 1.008a6.84 6.84 0 01-2.106.342c-.912 0-1.746-.186-2.502-.558a6.56 6.56 0 01-1.962-1.512 7.648 7.648 0 01-1.278-2.124c-.3-.792-.45-1.59-.45-2.394zm22.671-4.122h-4.086V209h-2.466v-10.602h-4.086v-2.178h10.638v2.178zM197.135 209v-12.78h2.466v9.288l6.192-9.288h2.304V209h-2.466v-9.18l-6.12 9.18h-2.376zM4.246 241v-9.94h4.116c.43 0 .821.089 1.176.266.364.177.677.42.938.728.261.299.467.635.616 1.008.15.364.224.737.224 1.12 0 .541-.121 1.055-.364 1.54a3.002 3.002 0 01-.994 1.162c-.43.299-.933.448-1.512.448h-3.22V241h-.98zm.98-4.536h3.178c.392 0 .733-.107 1.022-.322.29-.215.513-.495.672-.84a2.65 2.65 0 00.238-1.12 2.34 2.34 0 00-.28-1.134 2.157 2.157 0 00-.742-.812 1.718 1.718 0 00-.994-.308H5.226v4.536zm6.863 2.436c0-.457.13-.849.392-1.176.261-.336.62-.593 1.078-.77.467-.187 1.003-.28 1.61-.28.355 0 .723.028 1.106.084.383.056.723.14 1.022.252v-.616c0-.616-.182-1.106-.546-1.47-.364-.364-.868-.546-1.512-.546-.392 0-.78.075-1.162.224-.373.14-.765.35-1.176.63l-.364-.672a5.923 5.923 0 011.4-.728 4.03 4.03 0 011.4-.252c.896 0 1.605.257 2.128.77.523.513.784 1.223.784 2.128v3.374c0 .131.028.229.084.294.056.056.145.089.266.098V241a8.057 8.057 0 00-.266.028.512.512 0 01-.168 0c-.233-.009-.41-.084-.532-.224a.742.742 0 01-.196-.448l-.014-.532c-.327.42-.751.747-1.274.98a4.017 4.017 0 01-1.596.336c-.467 0-.891-.098-1.274-.294a2.387 2.387 0 01-.882-.812 2.176 2.176 0 01-.308-1.134zm4.886.56a1.95 1.95 0 00.238-.378.786.786 0 00.084-.322v-1.064a5.794 5.794 0 00-2.016-.378c-.681 0-1.232.135-1.652.406-.42.271-.63.639-.63 1.106 0 .271.07.527.21.77.14.233.345.429.616.588.27.149.588.224.952.224a3.06 3.06 0 001.274-.266c.401-.177.71-.406.924-.686zm6.495 1.68a3.627 3.627 0 01-1.47-.294 3.805 3.805 0 01-1.162-.84 4.035 4.035 0 01-.77-1.218 3.99 3.99 0 01-.266-1.456c0-.691.154-1.321.462-1.89a3.534 3.534 0 011.288-1.358c.55-.336 1.185-.504 1.904-.504.681 0 1.283.159 1.806.476.523.308.91.728 1.162 1.26l-.924.294a2.16 2.16 0 00-.868-.868 2.35 2.35 0 00-1.218-.322 2.45 2.45 0 00-1.33.378 2.79 2.79 0 00-.966 1.036c-.233.439-.35.938-.35 1.498 0 .551.121 1.05.364 1.498.242.448.564.807.966 1.078a2.39 2.39 0 001.33.392 2.5 2.5 0 00.91-.168 2.49 2.49 0 00.77-.448c.224-.196.373-.406.448-.63l.938.28a2.43 2.43 0 01-.658.938 3.38 3.38 0 01-1.064.644 3.712 3.712 0 01-1.302.224zm7.615 0a3.627 3.627 0 01-1.47-.294 3.805 3.805 0 01-1.162-.84 4.037 4.037 0 01-.77-1.218 3.992 3.992 0 01-.266-1.456c0-.691.154-1.321.462-1.89a3.534 3.534 0 011.288-1.358c.55-.336 1.185-.504 1.904-.504.681 0 1.283.159 1.806.476.523.308.91.728 1.162 1.26l-.924.294a2.159 2.159 0 00-.868-.868 2.35 2.35 0 00-1.218-.322c-.485 0-.929.126-1.33.378a2.791 2.791 0 00-.966 1.036c-.233.439-.35.938-.35 1.498 0 .551.121 1.05.364 1.498a3 3 0 00.966 1.078 2.39 2.39 0 001.33.392c.317 0 .62-.056.91-.168.299-.112.555-.261.77-.448.224-.196.373-.406.448-.63l.938.28a2.43 2.43 0 01-.658.938 3.38 3.38 0 01-1.064.644 3.712 3.712 0 01-1.302.224zm8.692-.14v-3.052a4.68 4.68 0 01-.938.322 5.377 5.377 0 01-1.05.098c-.803 0-1.41-.205-1.82-.616-.402-.411-.602-1.041-.602-1.89v-2.156h.952v2.03c0 .653.13 1.129.392 1.428.27.299.7.448 1.288.448.326 0 .653-.037.98-.112.326-.075.592-.173.798-.294v-3.5h.952V241h-.952zm3.032 0v-7.28h.952v5.992l4.438-6.006h.854V241h-.952v-5.894L43.733 241h-.924zm10.147 0v-6.44h-2.604v-.854h6.16v.854h-2.604V241h-.952zm4.838 0v-7.294h.952v2.576h1.652c.83 0 1.456.215 1.876.644.43.42.644.975.644 1.666 0 .448-.093.854-.28 1.218a2.114 2.114 0 01-.826.868c-.355.215-.803.322-1.344.322h-2.674zm.952-.756h1.596c.383 0 .69-.075.924-.224a1.46 1.46 0 00.518-.602c.112-.252.168-.523.168-.812 0-.28-.051-.537-.154-.77a1.113 1.113 0 00-.504-.574c-.233-.149-.56-.224-.98-.224h-1.568v3.206zm5.502.756v-7.28h.952V241h-.952zm3.034 0v-7.294h3.64c.41 0 .756.089 1.036.266.28.168.49.387.63.658.15.271.224.56.224.868 0 .392-.093.747-.28 1.064a1.763 1.763 0 01-.812.7c.42.121.76.341 1.022.658.261.317.392.7.392 1.148 0 .392-.098.733-.294 1.022a1.85 1.85 0 01-.784.672 2.561 2.561 0 01-1.134.238h-3.64zm.91-.686h2.702c.243 0 .462-.061.658-.182.205-.131.364-.299.476-.504a1.302 1.302 0 00.014-1.302 1.335 1.335 0 00-.448-.49 1.158 1.158 0 00-.644-.182h-2.758v2.66zm0-3.318h2.478c.243 0 .457-.065.644-.196s.331-.299.434-.504a1.42 1.42 0 00.154-.644c0-.336-.112-.63-.336-.882a1.051 1.051 0 00-.84-.378h-2.534v2.604zM74.2 238.9c0-.457.13-.849.392-1.176.262-.336.62-.593 1.078-.77.467-.187 1.004-.28 1.61-.28.355 0 .724.028 1.106.084.383.056.724.14 1.022.252v-.616c0-.616-.182-1.106-.546-1.47-.364-.364-.868-.546-1.512-.546-.392 0-.78.075-1.162.224-.373.14-.765.35-1.176.63l-.364-.672a5.923 5.923 0 011.4-.728 4.03 4.03 0 011.4-.252c.896 0 1.606.257 2.128.77.523.513.784 1.223.784 2.128v3.374c0 .131.028.229.084.294.056.056.145.089.266.098V241a8.057 8.057 0 00-.266.028.512.512 0 01-.168 0c-.233-.009-.41-.084-.532-.224a.742.742 0 01-.196-.448l-.014-.532c-.326.42-.751.747-1.274.98a4.017 4.017 0 01-1.596.336c-.466 0-.891-.098-1.274-.294a2.387 2.387 0 01-.882-.812 2.176 2.176 0 01-.308-1.134zm4.886.56a1.95 1.95 0 00.238-.378.786.786 0 00.084-.322v-1.064a5.794 5.794 0 00-2.016-.378c-.681 0-1.232.135-1.652.406-.42.271-.63.639-.63 1.106 0 .271.07.527.21.77.14.233.346.429.616.588.27.149.588.224.952.224a3.06 3.06 0 001.274-.266c.402-.177.71-.406.924-.686zm6.481 1.68a3.592 3.592 0 01-1.456-.294 3.709 3.709 0 01-1.162-.826 4.037 4.037 0 01-.77-1.218 4.029 4.029 0 01-.266-1.47c0-.681.154-1.307.462-1.876a3.64 3.64 0 011.302-1.358c.55-.345 1.176-.518 1.876-.518.719 0 1.344.173 1.876.518.541.345.966.803 1.274 1.372.308.56.462 1.176.462 1.848v.224a.666.666 0 01-.014.154h-6.244c.047.523.192.989.434 1.4.252.401.574.723.966.966.401.233.835.35 1.302.35a2.64 2.64 0 001.344-.364c.43-.243.728-.56.896-.952l.826.224c-.15.345-.378.658-.686.938-.308.28-.672.499-1.092.658a3.87 3.87 0 01-1.33.224zm-2.688-4.13h5.39a2.98 2.98 0 00-.434-1.4 2.59 2.59 0 00-.966-.938 2.5 2.5 0 00-1.302-.35 2.5 2.5 0 00-1.302.35 2.692 2.692 0 00-.966.952 3.055 3.055 0 00-.42 1.386zM90.62 241v-7.294h.98l2.898 5.026 2.912-5.026h.938V241h-.91v-5.866l-2.632 4.564h-.616l-2.66-4.564V241h-.91zm16.563.14a3.627 3.627 0 01-1.47-.294 3.801 3.801 0 01-1.162-.84 4.017 4.017 0 01-.77-1.218 3.978 3.978 0 01-.266-1.456c0-.691.154-1.321.462-1.89a3.532 3.532 0 011.288-1.358c.55-.336 1.185-.504 1.904-.504.681 0 1.283.159 1.806.476.522.308.91.728 1.162 1.26l-.924.294a2.165 2.165 0 00-.868-.868 2.35 2.35 0 00-1.218-.322c-.486 0-.929.126-1.33.378a2.78 2.78 0 00-.966 1.036c-.234.439-.35.938-.35 1.498 0 .551.121 1.05.364 1.498.242.448.564.807.966 1.078.401.261.844.392 1.33.392.317 0 .62-.056.91-.168a2.5 2.5 0 00.77-.448c.224-.196.373-.406.448-.63l.938.28c-.131.345-.35.658-.658.938a3.39 3.39 0 01-1.064.644 3.717 3.717 0 01-1.302.224zm6.339-.14v-6.44h-2.604v-.854h6.16v.854h-2.604V241h-.952zm7.96.14a3.595 3.595 0 01-1.456-.294 3.77 3.77 0 01-1.148-.826 4.02 4.02 0 01-.742-1.204 3.96 3.96 0 01-.266-1.442c0-.523.089-1.008.266-1.456.178-.457.43-.859.756-1.204.327-.355.71-.63 1.148-.826a3.46 3.46 0 011.456-.308 3.36 3.36 0 011.442.308c.439.196.822.471 1.148.826.327.345.579.747.756 1.204.178.448.266.933.266 1.456 0 .504-.088.985-.266 1.442a3.85 3.85 0 01-.756 1.204c-.317.345-.7.621-1.148.826a3.527 3.527 0 01-1.456.294zm-2.646-3.752c0 .541.117 1.036.35 1.484.243.439.565.789.966 1.05.402.252.845.378 1.33.378.486 0 .929-.131 1.33-.392.402-.261.724-.616.966-1.064.243-.457.364-.952.364-1.484 0-.541-.121-1.036-.364-1.484a2.865 2.865 0 00-.966-1.064 2.387 2.387 0 00-1.33-.392c-.485 0-.928.135-1.33.406-.392.271-.709.63-.952 1.078a3.02 3.02 0 00-.364 1.484zm7.85 3.612v-7.28h.952v5.992l4.438-6.006h.854V241h-.952v-5.894L127.61 241h-.924zm8.313 0v-7.294h.98l2.898 5.026 2.912-5.026h.938V241h-.91v-5.866l-2.632 4.564h-.616l-2.66-4.564V241h-.91zm12.938.14a3.595 3.595 0 01-1.456-.294 3.77 3.77 0 01-1.148-.826 4.02 4.02 0 01-.742-1.204 3.96 3.96 0 01-.266-1.442c0-.523.089-1.008.266-1.456.178-.457.43-.859.756-1.204.327-.355.71-.63 1.148-.826a3.46 3.46 0 011.456-.308 3.36 3.36 0 011.442.308c.439.196.822.471 1.148.826.327.345.579.747.756 1.204.178.448.266.933.266 1.456 0 .504-.088.985-.266 1.442a3.85 3.85 0 01-.756 1.204c-.317.345-.7.621-1.148.826a3.527 3.527 0 01-1.456.294zm-2.646-3.752c0 .541.117 1.036.35 1.484.243.439.565.789.966 1.05.402.252.845.378 1.33.378.486 0 .929-.131 1.33-.392.402-.261.724-.616.966-1.064.243-.457.364-.952.364-1.484 0-.541-.121-1.036-.364-1.484a2.865 2.865 0 00-.966-1.064 2.387 2.387 0 00-1.33-.392c-.485 0-.928.135-1.33.406-.392.271-.709.63-.952 1.078a3.02 3.02 0 00-.364 1.484zm11.028 3.752a3.627 3.627 0 01-1.47-.294 3.813 3.813 0 01-1.162-.84 4.056 4.056 0 01-.77-1.218 3.999 3.999 0 01-.266-1.456c0-.691.154-1.321.462-1.89a3.539 3.539 0 011.288-1.358c.551-.336 1.186-.504 1.904-.504.682 0 1.284.159 1.806.476.523.308.91.728 1.162 1.26l-.924.294a2.152 2.152 0 00-.868-.868 2.35 2.35 0 00-1.218-.322c-.485 0-.928.126-1.33.378a2.796 2.796 0 00-.966 1.036c-.233.439-.35.938-.35 1.498a3.1 3.1 0 00.364 1.498c.243.448.565.807.966 1.078.402.261.845.392 1.33.392.318 0 .621-.056.91-.168.299-.112.556-.261.77-.448.224-.196.374-.406.448-.63l.938.28c-.13.345-.35.658-.658.938a3.368 3.368 0 01-1.064.644 3.71 3.71 0 01-1.302.224zm6.34-.14v-6.44h-2.604v-.854h6.16v.854h-2.604V241h-.952zm4.838 0v-7.294h.952v2.576h1.89c.831 0 1.456.215 1.876.644.429.42.644.975.644 1.666 0 .448-.093.854-.28 1.218a2.115 2.115 0 01-.826.868c-.355.215-.803.322-1.344.322h-2.912zm.952-.756h1.834c.383 0 .691-.075.924-.224.233-.159.406-.359.518-.602.112-.252.168-.523.168-.812 0-.28-.051-.537-.154-.77a1.11 1.11 0 00-.504-.574c-.233-.149-.56-.224-.98-.224h-1.806v3.206zM4.036 257v-7.294h.952v3.122H6.08l2.45-3.122h1.092l-2.786 3.542L9.972 257h-1.12l-2.772-3.29H4.988V257h-.952zm10.013.14a3.593 3.593 0 01-1.456-.294 3.758 3.758 0 01-1.148-.826 4.003 4.003 0 01-.742-1.204 3.953 3.953 0 01-.266-1.442c0-.523.088-1.008.266-1.456.177-.457.429-.859.756-1.204.326-.355.709-.63 1.148-.826a3.458 3.458 0 011.456-.308c.522 0 1.003.103 1.442.308.438.196.821.471 1.148.826.326.345.578.747.756 1.204.177.448.266.933.266 1.456 0 .504-.089.985-.266 1.442-.178.448-.43.849-.756 1.204-.318.345-.7.621-1.148.826a3.53 3.53 0 01-1.456.294zm-2.646-3.752c0 .541.116 1.036.35 1.484.242.439.564.789.966 1.05.401.252.844.378 1.33.378a2.39 2.39 0 001.33-.392c.401-.261.723-.616.966-1.064.242-.457.364-.952.364-1.484 0-.541-.122-1.036-.364-1.484a2.875 2.875 0 00-.966-1.064 2.39 2.39 0 00-1.33-.392c-.486 0-.929.135-1.33.406-.392.271-.71.63-.952 1.078a3.014 3.014 0 00-.364 1.484zm7.85 3.612v-7.294h.952v3.136h4.172v-3.136h.952V257h-.952v-3.304h-4.172V257h-.952zm11.34.14a3.627 3.627 0 01-1.47-.294 3.805 3.805 0 01-1.162-.84 4.037 4.037 0 01-.77-1.218 3.992 3.992 0 01-.266-1.456c0-.691.154-1.321.462-1.89a3.534 3.534 0 011.288-1.358c.55-.336 1.185-.504 1.904-.504.681 0 1.283.159 1.806.476.523.308.91.728 1.162 1.26l-.924.294a2.159 2.159 0 00-.868-.868 2.35 2.35 0 00-1.218-.322c-.485 0-.929.126-1.33.378a2.791 2.791 0 00-.966 1.036c-.233.439-.35.938-.35 1.498 0 .551.121 1.05.364 1.498a3 3 0 00.966 1.078 2.39 2.39 0 001.33.392c.317 0 .62-.056.91-.168.299-.112.555-.261.77-.448.224-.196.373-.406.448-.63l.938.28a2.43 2.43 0 01-.658.938 3.38 3.38 0 01-1.064.644 3.712 3.712 0 01-1.302.224zm6.34-.14v-6.44h-2.605v-.854h6.16v.854h-2.603V257h-.953zm8.575.14a2.93 2.93 0 01-1.638-.476 3.673 3.673 0 01-1.134-1.176v4.494h-.952v-10.276h.854v1.414c.29-.457.677-.826 1.162-1.106a2.988 2.988 0 011.554-.434c.504 0 .966.107 1.386.322.42.205.784.485 1.092.84.308.355.546.761.714 1.218.178.448.266.915.266 1.4 0 .681-.14 1.311-.42 1.89a3.44 3.44 0 01-1.148 1.372c-.494.345-1.073.518-1.736.518zm-.266-.84a2.37 2.37 0 001.078-.238 2.56 2.56 0 00.812-.672c.234-.28.411-.593.532-.938.122-.355.182-.719.182-1.092 0-.392-.07-.765-.21-1.12a2.764 2.764 0 00-.574-.938 2.922 2.922 0 00-.868-.644 2.398 2.398 0 00-1.064-.238c-.242 0-.494.047-.756.14a2.975 2.975 0 00-.756.406 2.653 2.653 0 00-.588.574 1.537 1.537 0 00-.294.686v2.24c.15.345.35.658.602.938.252.271.542.49.868.658.336.159.682.238 1.036.238zm5.735 3.752c-.159 0-.322-.028-.49-.084a2.457 2.457 0 01-.49-.21l.35-.672c.103.056.196.103.28.14a.79.79 0 00.294.056c.243 0 .471-.121.686-.364.215-.243.42-.597.616-1.064l.364-.91-3.248-7.238h1.008l2.674 6.314 2.464-6.314h.952l-3.472 8.442a5.419 5.419 0 01-.588 1.078c-.205.28-.425.485-.658.616-.233.14-.48.21-.742.21zM57.753 257v-7.294h.952v3.122h1.092l2.45-3.122h1.092l-2.786 3.542L63.689 257h-1.12l-2.772-3.29h-1.092V257h-.952zm13.097 1.694V257h-5.824v-7.294h.952v6.454h3.78v-6.454h.952v6.454h.994v2.534h-.854zM73.134 257v-7.28h.952v5.992l4.438-6.006h.854V257h-.952v-5.894L74.058 257h-.924zm8.312 0v-7.28h.952v5.992l4.438-6.006h.854V257h-.952v-5.894L82.37 257h-.924zm11.881 0v-7.294h5.866V257h-.952v-6.44h-3.962V257h-.952zm11.079.14a3.591 3.591 0 01-1.456-.294 3.757 3.757 0 01-1.148-.826 4 4 0 01-.742-1.204 3.96 3.96 0 01-.266-1.442c0-.523.089-1.008.266-1.456.177-.457.429-.859.756-1.204.327-.355.709-.63 1.148-.826a3.456 3.456 0 011.456-.308c.523 0 1.003.103 1.442.308.439.196.821.471 1.148.826.327.345.579.747.756 1.204.177.448.266.933.266 1.456 0 .504-.089.985-.266 1.442a3.85 3.85 0 01-.756 1.204c-.317.345-.7.621-1.148.826a3.53 3.53 0 01-1.456.294zm-2.646-3.752c0 .541.117 1.036.35 1.484.243.439.565.789.966 1.05.401.252.845.378 1.33.378a2.39 2.39 0 001.33-.392c.401-.261.723-.616.966-1.064.243-.457.364-.952.364-1.484 0-.541-.121-1.036-.364-1.484a2.881 2.881 0 00-.966-1.064 2.39 2.39 0 00-1.33-.392c-.485 0-.929.135-1.33.406-.392.271-.709.63-.952 1.078a3.01 3.01 0 00-.364 1.484zM117.365 257v-3.052a4.68 4.68 0 01-.938.322 5.382 5.382 0 01-1.05.098c-.803 0-1.41-.205-1.82-.616-.402-.411-.602-1.041-.602-1.89v-2.156h.952v2.03c0 .653.13 1.129.392 1.428.27.299.7.448 1.288.448.326 0 .653-.037.98-.112.326-.075.592-.173.798-.294v-3.5h.952V257h-.952zm6.196.14a3.595 3.595 0 01-1.456-.294 3.712 3.712 0 01-1.162-.826 4.056 4.056 0 01-.77-1.218 4.035 4.035 0 01-.266-1.47c0-.681.154-1.307.462-1.876a3.65 3.65 0 011.302-1.358c.551-.345 1.176-.518 1.876-.518.719 0 1.344.173 1.876.518.542.345.966.803 1.274 1.372.308.56.462 1.176.462 1.848v.224a.63.63 0 01-.014.154h-6.244c.047.523.192.989.434 1.4.252.401.574.723.966.966.402.233.836.35 1.302.35a2.64 2.64 0 001.344-.364c.43-.243.728-.56.896-.952l.826.224a2.73 2.73 0 01-.686.938c-.308.28-.672.499-1.092.658-.41.149-.854.224-1.33.224zm-2.688-4.13h5.39a2.976 2.976 0 00-.434-1.4 2.58 2.58 0 00-.966-.938 2.5 2.5 0 00-1.302-.35 2.5 2.5 0 00-1.302.35 2.692 2.692 0 00-.966.952 3.072 3.072 0 00-.42 1.386zm11.479 4.13a2.929 2.929 0 01-1.638-.476 3.673 3.673 0 01-1.134-1.176v4.494h-.952v-10.276h.854v1.414a3.307 3.307 0 011.162-1.106 2.986 2.986 0 011.554-.434c.504 0 .966.107 1.386.322.42.205.784.485 1.092.84.308.355.546.761.714 1.218.177.448.266.915.266 1.4 0 .681-.14 1.311-.42 1.89a3.44 3.44 0 01-1.148 1.372c-.495.345-1.073.518-1.736.518zm-.266-.84c.401 0 .761-.079 1.078-.238.317-.168.588-.392.812-.672.233-.28.411-.593.532-.938.121-.355.182-.719.182-1.092 0-.392-.07-.765-.21-1.12a2.769 2.769 0 00-.574-.938 2.917 2.917 0 00-.868-.644 2.398 2.398 0 00-1.064-.238c-.243 0-.495.047-.756.14a2.989 2.989 0 00-.756.406 2.653 2.653 0 00-.588.574 1.53 1.53 0 00-.294.686v2.24c.149.345.35.658.602.938.252.271.541.49.868.658.336.159.681.238 1.036.238zm7.003.7v-6.44h-2.604v-.854h6.16v.854h-2.604V257h-.952zm8.002.14a3.591 3.591 0 01-1.456-.294 3.7 3.7 0 01-1.162-.826 4.017 4.017 0 01-.77-1.218 4.014 4.014 0 01-.266-1.47c0-.681.154-1.307.462-1.876a3.635 3.635 0 011.302-1.358c.55-.345 1.176-.518 1.876-.518.718 0 1.344.173 1.876.518.541.345.966.803 1.274 1.372.308.56.462 1.176.462 1.848v.224a.684.684 0 01-.014.154h-6.244c.046.523.191.989.434 1.4.252.401.574.723.966.966.401.233.835.35 1.302.35a2.64 2.64 0 001.344-.364c.429-.243.728-.56.896-.952l.826.224c-.15.345-.378.658-.686.938-.308.28-.672.499-1.092.658a3.872 3.872 0 01-1.33.224zm-2.688-4.13h5.39c-.038-.532-.182-.999-.434-1.4a2.594 2.594 0 00-.966-.938 2.5 2.5 0 00-1.302-.35 2.5 2.5 0 00-1.302.35 2.692 2.692 0 00-.966.952 3.048 3.048 0 00-.42 1.386zm7.236 3.99l2.73-3.752-2.464-3.542h1.078l2.198 3.15h.952v-3.15h.98v3.15h.98l2.156-3.15h1.092l-2.478 3.542 2.758 3.752h-1.106l-2.422-3.304h-.98V257h-.98v-3.304h-.952L152.745 257h-1.106zm12.363 3.052c-.158 0-.322-.028-.49-.084a2.474 2.474 0 01-.49-.21l.35-.672c.103.056.196.103.28.14a.796.796 0 00.294.056c.243 0 .472-.121.686-.364.215-.243.42-.597.616-1.064l.364-.91-3.248-7.238h1.008l2.674 6.314 2.464-6.314h.952l-3.472 8.442a5.348 5.348 0 01-.588 1.078c-.205.28-.424.485-.658.616-.233.14-.48.21-.742.21z" fill="#474747"/><path fill-rule="evenodd" clip-rule="evenodd" d="M43.158 337.499a52.998 52.998 0 0138.472 5.292l.98-1.743a55 55 0 10-34.93 102.368l.29-1.979a52.999 52.999 0 01-4.811-103.938zm19.93 103.98l.28 1.98a55 55 0 0031.51-93.033l-1.425 1.403a52.996 52.996 0 011.958 72.241 53 53 0 01-32.323 17.409z" fill="#4FB5FF"/><circle cx="55.673" cy="389" fill="#474747" r="41.154"/><path d="M77.373 378.466a3.499 3.499 0 00-2.675-.352c-.91.243-1.67.826-2.14 1.642l-2.31 4.002v-11.306a2.301 2.301 0 00-2.3-2.298H42.203a2.301 2.301 0 00-2.298 2.298v28.925c0 .204.08.399.224.542l7.241 7.241a.764.764 0 00.542.224h7.407a.766.766 0 100-1.532h-6.641v-4.948a2.301 2.301 0 00-2.299-2.299h-4.942v-28.153c0-.422.344-.766.766-.766h25.745c.423 0 .767.344.767.766v13.96l-5.218 9.037a.78.78 0 00-.146-.014h-16.55a.766.766 0 100 1.532h15.82l-1.063 1.841a.765.765 0 00-.1.325l-.485 6.356a.767.767 0 001.197.691l5.262-3.598a.772.772 0 00.23-.249l1.053-1.822v6.575a.767.767 0 01-.767.766h-5.733a.766.766 0 100 1.532h5.733a2.301 2.301 0 002.3-2.298v-9.23l8.415-14.576a3.528 3.528 0 00-1.29-4.814zm-30.994 23.671c.423 0 .767.344.767.767v3.858l-4.625-4.625h3.858zm16.514-1.674l2.669 1.541-2.94 2.009.271-3.55zm3.826.44l-3.45-1.992 8.934-15.475 3.45 1.992-8.934 15.475zm10.617-18.389l-.916 1.586-3.451-1.992.916-1.586a1.994 1.994 0 012.721-.729 1.994 1.994 0 01.73 2.721z" fill="#fff"/><path d="M58.331 400.492a.766.766 0 00-.766-.767h-6.652a.766.766 0 000 1.533h6.652a.766.766 0 00.766-.766zm5.02-9.349H51.625a.766.766 0 100 1.532H63.35a.766.766 0 100-1.532zM46.8 388.385h16.551a.766.766 0 100-1.532h-16.55a.766.766 0 100 1.532zm16.551-10.117h-16.55a.766.766 0 000 1.533h16.55a.766.766 0 100-1.533zm0 4.292h-5.786a.766.766 0 000 1.533h5.786a.766.766 0 000-1.533zM46.8 384.093h6.807a.766.766 0 000-1.533h-6.806a.766.766 0 100 1.533zm0 8.582h1.257a.766.766 0 100-1.532H46.8a.766.766 0 100 1.532z" fill="#fff"/><path d="M135.896 375.126a6.541 6.541 0 01-1.872-.252 4.8 4.8 0 01-1.458-.756 3.85 3.85 0 01-.972-1.188l1.296-1.638c.12.264.312.522.576.774.264.252.594.456.99.612a3.66 3.66 0 001.35.234c.492 0 .918-.072 1.278-.216.36-.144.636-.342.828-.594.204-.264.306-.582.306-.954 0-.396-.126-.732-.378-1.008-.24-.276-.6-.486-1.08-.63-.48-.144-1.068-.216-1.764-.216h-.594v-1.8h.63c.864 0 1.554-.15 2.07-.45.528-.3.792-.726.792-1.278 0-.336-.09-.624-.27-.864a1.588 1.588 0 00-.72-.558c-.3-.132-.63-.198-.99-.198-.6 0-1.134.144-1.602.432a2.815 2.815 0 00-1.044 1.08l-1.566-1.746a3.271 3.271 0 011.08-.972 6.055 6.055 0 011.53-.648 6.786 6.786 0 011.782-.234c.852 0 1.608.15 2.268.45.66.288 1.176.684 1.548 1.188.372.504.558 1.08.558 1.728 0 .48-.102.918-.306 1.314a2.64 2.64 0 01-.828.99c-.36.264-.786.456-1.278.576.528.084.99.282 1.386.594.408.3.72.684.936 1.152.228.456.342.954.342 1.494 0 .756-.216 1.398-.648 1.926-.42.528-.996.936-1.728 1.224-.72.288-1.536.432-2.448.432zm6.677-.126v-2.592h1.98V375h-1.98zm7.863 2.448v-4.626h.684c.324 0 .606-.126.846-.378s.444-.654.612-1.206c.168-.552.3-1.266.396-2.142.108-.888.18-1.962.216-3.222l.108-3.654h8.514v10.602h1.692v4.626h-2.178V375h-8.712v2.448h-2.178zm3.654-4.626h5.256v-8.424h-3.798l-.036 1.8a34.802 34.802 0 01-.216 3.186c-.096.876-.24 1.596-.432 2.16-.18.564-.438.99-.774 1.278zm16.796 2.268c-.936 0-1.788-.18-2.556-.54a6.209 6.209 0 01-1.962-1.458 7.136 7.136 0 01-1.26-2.088c-.3-.78-.45-1.578-.45-2.394 0-.852.156-1.662.468-2.43.324-.78.762-1.47 1.314-2.07a6.182 6.182 0 011.98-1.44 5.863 5.863 0 012.52-.54c.924 0 1.764.186 2.52.558a6.05 6.05 0 011.962 1.494c.54.624.96 1.32 1.26 2.088.3.768.45 1.56.45 2.376 0 .84-.156 1.65-.468 2.43a6.817 6.817 0 01-1.314 2.07 6.052 6.052 0 01-1.98 1.422 5.869 5.869 0 01-2.484.522zm-3.708-6.48c0 .552.084 1.086.252 1.602.168.516.408.978.72 1.386.324.396.714.714 1.17.954a3.57 3.57 0 001.584.342c.6 0 1.134-.12 1.602-.36a3.602 3.602 0 001.17-.99c.312-.42.546-.882.702-1.386a4.975 4.975 0 00.252-1.548c0-.552-.09-1.08-.27-1.584a4.181 4.181 0 00-.738-1.368 3.235 3.235 0 00-1.17-.954 3.273 3.273 0 00-1.548-.36c-.612 0-1.152.126-1.62.378-.456.24-.84.564-1.152.972a4.66 4.66 0 00-.72 1.368 5.206 5.206 0 00-.234 1.548zm11.895 6.39v-12.78h7.848v2.178h-5.382V375h-2.466zm15.086.09c-.936 0-1.788-.18-2.556-.54a6.209 6.209 0 01-1.962-1.458 7.136 7.136 0 01-1.26-2.088c-.3-.78-.45-1.578-.45-2.394 0-.852.156-1.662.468-2.43.324-.78.762-1.47 1.314-2.07a6.182 6.182 0 011.98-1.44 5.863 5.863 0 012.52-.54c.924 0 1.764.186 2.52.558a6.05 6.05 0 011.962 1.494c.54.624.96 1.32 1.26 2.088.3.768.45 1.56.45 2.376 0 .84-.156 1.65-.468 2.43a6.817 6.817 0 01-1.314 2.07 6.052 6.052 0 01-1.98 1.422 5.869 5.869 0 01-2.484.522zm-3.708-6.48c0 .552.084 1.086.252 1.602.168.516.408.978.72 1.386.324.396.714.714 1.17.954a3.57 3.57 0 001.584.342c.6 0 1.134-.12 1.602-.36a3.602 3.602 0 001.17-.99c.312-.42.546-.882.702-1.386a4.975 4.975 0 00.252-1.548c0-.552-.09-1.08-.27-1.584a4.181 4.181 0 00-.738-1.368 3.235 3.235 0 00-1.17-.954 3.273 3.273 0 00-1.548-.36c-.612 0-1.152.126-1.62.378-.456.24-.84.564-1.152.972a4.66 4.66 0 00-.72 1.368 5.206 5.206 0 00-.234 1.548zm22.156 3.096c0 .72-.186 1.326-.558 1.818-.372.48-.876.846-1.512 1.098a5.43 5.43 0 01-2.052.378h-6.174v-12.78h6.84c.6 0 1.116.162 1.548.486.444.312.78.72 1.008 1.224a3.496 3.496 0 01-.108 3.294c-.312.552-.768.96-1.368 1.224.732.216 1.308.606 1.728 1.17.432.564.648 1.26.648 2.088zm-2.502-.468c0-.324-.066-.612-.198-.864a1.494 1.494 0 00-.54-.612 1.257 1.257 0 00-.756-.234h-3.816v3.366h3.69c.3 0 .57-.072.81-.216.252-.156.45-.36.594-.612a1.64 1.64 0 00.216-.828zm-5.31-6.894v3.222h3.312c.276 0 .528-.066.756-.198.228-.132.408-.318.54-.558.144-.24.216-.528.216-.864 0-.324-.066-.606-.198-.846a1.339 1.339 0 00-.504-.558 1.264 1.264 0 00-.702-.198h-3.42zm15.204 10.746c-.936 0-1.788-.18-2.556-.54a6.209 6.209 0 01-1.962-1.458 7.136 7.136 0 01-1.26-2.088c-.3-.78-.45-1.578-.45-2.394 0-.852.156-1.662.468-2.43.324-.78.762-1.47 1.314-2.07a6.182 6.182 0 011.98-1.44 5.863 5.863 0 012.52-.54c.924 0 1.764.186 2.52.558a6.05 6.05 0 011.962 1.494c.54.624.96 1.32 1.26 2.088.3.768.45 1.56.45 2.376 0 .84-.156 1.65-.468 2.43a6.817 6.817 0 01-1.314 2.07 6.052 6.052 0 01-1.98 1.422 5.869 5.869 0 01-2.484.522zm-3.708-6.48c0 .552.084 1.086.252 1.602.168.516.408.978.72 1.386.324.396.714.714 1.17.954a3.57 3.57 0 001.584.342c.6 0 1.134-.12 1.602-.36a3.602 3.602 0 001.17-.99c.312-.42.546-.882.702-1.386a4.975 4.975 0 00.252-1.548c0-.552-.09-1.08-.27-1.584a4.181 4.181 0 00-.738-1.368 3.235 3.235 0 00-1.17-.954 3.273 3.273 0 00-1.548-.36c-.612 0-1.152.126-1.62.378-.456.24-.84.564-1.152.972a4.66 4.66 0 00-.72 1.368 5.206 5.206 0 00-.234 1.548zM228.15 375v-12.78h5.418c.588 0 1.128.12 1.62.36.492.24.918.564 1.278.972.372.408.66.864.864 1.368.204.504.306 1.02.306 1.548 0 .72-.168 1.404-.504 2.052a4.312 4.312 0 01-1.386 1.584c-.588.408-1.284.612-2.088.612h-3.024V375h-2.484zm2.484-6.462h2.88c.3 0 .57-.084.81-.252.24-.168.432-.408.576-.72.144-.324.216-.69.216-1.098 0-.444-.084-.822-.252-1.134a1.64 1.64 0 00-.63-.702 1.543 1.543 0 00-.828-.234h-2.772v4.14zm-99.046 33.422c0-.607.103-1.199.308-1.778.215-.588.523-1.12.924-1.596a4.294 4.294 0 011.484-1.148c.588-.289 1.255-.434 2.002-.434.887 0 1.643.205 2.268.616.635.401 1.101.919 1.4 1.554l-.77.476c-.215-.439-.485-.784-.812-1.036a3.11 3.11 0 00-1.05-.56 3.696 3.696 0 00-1.092-.168c-.597 0-1.125.121-1.582.364a3.48 3.48 0 00-1.162.952 4.22 4.22 0 00-.7 1.33c-.159.485-.238.98-.238 1.484a4.51 4.51 0 001.064 2.926 4.02 4.02 0 001.176.924c.457.224.952.336 1.484.336a3.611 3.611 0 002.24-.798c.345-.271.621-.621.826-1.05l.812.42a3.139 3.139 0 01-.952 1.26 4.6 4.6 0 01-1.442.784 4.785 4.785 0 01-1.54.266 4.085 4.085 0 01-1.876-.434 5.06 5.06 0 01-1.484-1.176 5.601 5.601 0 01-.952-1.652 5.415 5.415 0 01-.336-1.862zm13.168 5.18a3.591 3.591 0 01-1.456-.294 3.745 3.745 0 01-1.148-.826 3.98 3.98 0 01-.742-1.204 3.938 3.938 0 01-.266-1.442c0-.523.088-1.008.266-1.456.177-.457.429-.859.756-1.204.326-.355.709-.63 1.148-.826a3.456 3.456 0 011.456-.308c.522 0 1.003.103 1.442.308.438.196.821.471 1.148.826.326.345.578.747.756 1.204.177.448.266.933.266 1.456 0 .504-.089.985-.266 1.442-.178.448-.43.849-.756 1.204-.318.345-.7.621-1.148.826a3.53 3.53 0 01-1.456.294zm-2.646-3.752c0 .541.116 1.036.35 1.484.242.439.564.789.966 1.05.401.252.844.378 1.33.378.485 0 .928-.131 1.33-.392.401-.261.723-.616.966-1.064.242-.457.364-.952.364-1.484 0-.541-.122-1.036-.364-1.484a2.881 2.881 0 00-.966-1.064 2.392 2.392 0 00-1.33-.392c-.486 0-.929.135-1.33.406-.392.271-.71.63-.952 1.078a3.01 3.01 0 00-.364 1.484zm7.85 3.612v-7.294h4.354v.854h-3.402V407h-.952zm4.988.042v-.868c.252 0 .476-.065.672-.196.196-.14.368-.373.518-.7.158-.327.284-.775.378-1.344.093-.579.154-1.311.182-2.198l.084-2.03h4.732V407h-.952v-6.44h-2.94l-.028 1.26c-.038 1.008-.117 1.853-.238 2.534-.122.672-.294 1.204-.518 1.596-.215.392-.481.672-.798.84a2.302 2.302 0 01-1.092.252zm8.082-2.142c0-.457.131-.849.392-1.176.262-.336.621-.593 1.078-.77.467-.187 1.004-.28 1.61-.28.355 0 .724.028 1.106.084.383.056.724.14 1.022.252v-.616c0-.616-.182-1.106-.546-1.47-.364-.364-.868-.546-1.512-.546-.392 0-.779.075-1.162.224-.373.14-.765.35-1.176.63l-.364-.672a5.93 5.93 0 011.4-.728 4.034 4.034 0 011.4-.252c.896 0 1.606.257 2.128.77.523.513.784 1.223.784 2.128v3.374c0 .131.028.229.084.294.056.056.145.089.266.098V407a8.39 8.39 0 00-.266.028.513.513 0 01-.168 0c-.233-.009-.41-.084-.532-.224a.748.748 0 01-.196-.448l-.014-.532c-.326.42-.751.747-1.274.98a4.012 4.012 0 01-1.596.336c-.466 0-.891-.098-1.274-.294a2.393 2.393 0 01-.882-.812 2.18 2.18 0 01-.308-1.134zm4.886.56c.103-.131.182-.257.238-.378a.786.786 0 00.084-.322v-1.064a5.766 5.766 0 00-2.016-.378c-.681 0-1.232.135-1.652.406-.42.271-.63.639-.63 1.106 0 .271.07.527.21.77.14.233.346.429.616.588.271.149.588.224.952.224.458 0 .882-.089 1.274-.266.402-.177.71-.406.924-.686zm6.495 1.68a3.627 3.627 0 01-1.47-.294 3.813 3.813 0 01-1.162-.84 4.056 4.056 0 01-.77-1.218 3.999 3.999 0 01-.266-1.456c0-.691.154-1.321.462-1.89a3.539 3.539 0 011.288-1.358c.551-.336 1.186-.504 1.904-.504.682 0 1.284.159 1.806.476.523.308.91.728 1.162 1.26l-.924.294a2.152 2.152 0 00-.868-.868 2.35 2.35 0 00-1.218-.322c-.485 0-.928.126-1.33.378a2.796 2.796 0 00-.966 1.036c-.233.439-.35.938-.35 1.498a3.1 3.1 0 00.364 1.498c.243.448.565.807.966 1.078.402.261.845.392 1.33.392.318 0 .621-.056.91-.168.299-.112.556-.261.77-.448.224-.196.374-.406.448-.63l.938.28c-.13.345-.35.658-.658.938a3.368 3.368 0 01-1.064.644 3.71 3.71 0 01-1.302.224zm7.56 0a3.591 3.591 0 01-1.456-.294 3.745 3.745 0 01-1.148-.826 3.98 3.98 0 01-.742-1.204 3.938 3.938 0 01-.266-1.442c0-.523.088-1.008.266-1.456.177-.457.429-.859.756-1.204.326-.355.709-.63 1.148-.826a3.456 3.456 0 011.456-.308c.522 0 1.003.103 1.442.308.438.196.821.471 1.148.826.326.345.578.747.756 1.204.177.448.266.933.266 1.456 0 .504-.089.985-.266 1.442-.178.448-.43.849-.756 1.204-.318.345-.7.621-1.148.826a3.53 3.53 0 01-1.456.294zm-2.646-3.752c0 .541.116 1.036.35 1.484.242.439.564.789.966 1.05.401.252.844.378 1.33.378.485 0 .928-.131 1.33-.392.401-.261.723-.616.966-1.064.242-.457.364-.952.364-1.484 0-.541-.122-1.036-.364-1.484a2.881 2.881 0 00-.966-1.064 2.392 2.392 0 00-1.33-.392c-.486 0-.929.135-1.33.406-.392.271-.71.63-.952 1.078a3.01 3.01 0 00-.364 1.484zm7.85 3.612v-7.294h3.64c.41 0 .756.089 1.036.266.28.168.49.387.63.658.149.271.224.56.224.868 0 .392-.094.747-.28 1.064a1.767 1.767 0 01-.812.7c.42.121.76.341 1.022.658.261.317.392.7.392 1.148 0 .392-.098.733-.294 1.022a1.852 1.852 0 01-.784.672 2.563 2.563 0 01-1.134.238h-3.64zm.91-.686h2.702c.242 0 .462-.061.658-.182.205-.131.364-.299.476-.504a1.302 1.302 0 00.014-1.302 1.34 1.34 0 00-.448-.49 1.16 1.16 0 00-.644-.182h-2.758v2.66zm0-3.318h2.478c.242 0 .457-.065.644-.196.186-.131.331-.299.434-.504a1.43 1.43 0 00.154-.644c0-.336-.112-.63-.336-.882a1.052 1.052 0 00-.84-.378h-2.534v2.604zm6.582 4.004v-7.294h.952v2.576h1.652c.831 0 1.456.215 1.876.644.429.42.644.975.644 1.666 0 .448-.093.854-.28 1.218a2.115 2.115 0 01-.826.868c-.355.215-.803.322-1.344.322h-2.674zm.952-.756h1.596c.383 0 .691-.075.924-.224.233-.159.406-.359.518-.602.112-.252.168-.523.168-.812 0-.28-.051-.537-.154-.77a1.11 1.11 0 00-.504-.574c-.233-.149-.56-.224-.98-.224h-1.568v3.206zm5.502.756v-7.28h.952V407h-.952zm3.034 0v-7.294h3.64c.411 0 .756.089 1.036.266.28.168.49.387.63.658.149.271.224.56.224.868 0 .392-.093.747-.28 1.064a1.763 1.763 0 01-.812.7c.42.121.761.341 1.022.658s.392.7.392 1.148c0 .392-.098.733-.294 1.022a1.852 1.852 0 01-.784.672 2.563 2.563 0 01-1.134.238h-3.64zm.91-.686h2.702c.243 0 .462-.061.658-.182.205-.131.364-.299.476-.504a1.302 1.302 0 00.014-1.302 1.332 1.332 0 00-.448-.49 1.158 1.158 0 00-.644-.182h-2.758v2.66zm0-3.318h2.478c.243 0 .457-.065.644-.196s.331-.299.434-.504c.103-.205.154-.42.154-.644 0-.336-.112-.63-.336-.882a1.052 1.052 0 00-.84-.378h-2.534v2.604zm6.008 1.904c0-.457.131-.849.392-1.176.262-.336.621-.593 1.078-.77.467-.187 1.004-.28 1.61-.28.355 0 .724.028 1.106.084.383.056.724.14 1.022.252v-.616c0-.616-.182-1.106-.546-1.47-.364-.364-.868-.546-1.512-.546-.392 0-.779.075-1.162.224-.373.14-.765.35-1.176.63l-.364-.672a5.93 5.93 0 011.4-.728 4.034 4.034 0 011.4-.252c.896 0 1.606.257 2.128.77.523.513.784 1.223.784 2.128v3.374c0 .131.028.229.084.294.056.056.145.089.266.098V407a8.39 8.39 0 00-.266.028.513.513 0 01-.168 0c-.233-.009-.41-.084-.532-.224a.748.748 0 01-.196-.448l-.014-.532c-.326.42-.751.747-1.274.98a4.012 4.012 0 01-1.596.336c-.466 0-.891-.098-1.274-.294a2.393 2.393 0 01-.882-.812 2.18 2.18 0 01-.308-1.134zm4.886.56c.103-.131.182-.257.238-.378a.786.786 0 00.084-.322v-1.064a5.766 5.766 0 00-2.016-.378c-.681 0-1.232.135-1.652.406-.42.271-.63.639-.63 1.106 0 .271.07.527.21.77.14.233.346.429.616.588.271.149.588.224.952.224.458 0 .882-.089 1.274-.266.402-.177.71-.406.924-.686zm6.481 1.68a3.595 3.595 0 01-1.456-.294 3.712 3.712 0 01-1.162-.826 4.056 4.056 0 01-.77-1.218 4.035 4.035 0 01-.266-1.47c0-.681.154-1.307.462-1.876a3.65 3.65 0 011.302-1.358c.551-.345 1.176-.518 1.876-.518.719 0 1.344.173 1.876.518.542.345.966.803 1.274 1.372.308.56.462 1.176.462 1.848v.224a.63.63 0 01-.014.154h-6.244c.047.523.192.989.434 1.4.252.401.574.723.966.966.402.233.836.35 1.302.35a2.64 2.64 0 001.344-.364c.43-.243.728-.56.896-.952l.826.224a2.73 2.73 0 01-.686.938c-.308.28-.672.499-1.092.658-.41.149-.854.224-1.33.224zm-2.688-4.13h5.39a2.976 2.976 0 00-.434-1.4 2.58 2.58 0 00-.966-.938 2.5 2.5 0 00-1.302-.35 2.5 2.5 0 00-1.302.35 2.692 2.692 0 00-.966.952 3.072 3.072 0 00-.42 1.386zm7.741 3.99v-7.294h.98l2.898 5.026 2.912-5.026h.938V407h-.91v-5.866l-2.632 4.564h-.616l-2.66-4.564V407h-.91zm13.385 0v-7.294h3.64c.41 0 .756.089 1.036.266.28.168.49.387.63.658.149.271.224.56.224.868 0 .392-.094.747-.28 1.064a1.767 1.767 0 01-.812.7c.42.121.76.341 1.022.658.261.317.392.7.392 1.148 0 .392-.098.733-.294 1.022a1.852 1.852 0 01-.784.672 2.563 2.563 0 01-1.134.238h-3.64zm.91-.686h2.702c.242 0 .462-.061.658-.182.205-.131.364-.299.476-.504a1.302 1.302 0 00.014-1.302 1.34 1.34 0 00-.448-.49 1.16 1.16 0 00-.644-.182h-2.758v2.66zm0-3.318h2.478c.242 0 .457-.065.644-.196.186-.131.331-.299.434-.504a1.43 1.43 0 00.154-.644c0-.336-.112-.63-.336-.882a1.052 1.052 0 00-.84-.378h-2.534v2.604zm9.76 4.144a3.627 3.627 0 01-1.47-.294 3.801 3.801 0 01-1.162-.84 4.037 4.037 0 01-.77-1.218 3.999 3.999 0 01-.266-1.456c0-.691.154-1.321.462-1.89a3.532 3.532 0 011.288-1.358c.551-.336 1.185-.504 1.904-.504.681 0 1.283.159 1.806.476.523.308.91.728 1.162 1.26l-.924.294a2.159 2.159 0 00-.868-.868 2.35 2.35 0 00-1.218-.322c-.485 0-.929.126-1.33.378a2.796 2.796 0 00-.966 1.036c-.233.439-.35.938-.35 1.498 0 .551.121 1.05.364 1.498.243.448.565.807.966 1.078a2.39 2.39 0 001.33.392c.317 0 .621-.056.91-.168.299-.112.555-.261.77-.448.224-.196.373-.406.448-.63l.938.28c-.131.345-.35.658-.658.938a3.38 3.38 0 01-1.064.644 3.71 3.71 0 01-1.302.224zm7.601 0a3.595 3.595 0 01-1.456-.294 3.712 3.712 0 01-1.162-.826 4.056 4.056 0 01-.77-1.218 4.035 4.035 0 01-.266-1.47c0-.681.154-1.307.462-1.876a3.65 3.65 0 011.302-1.358c.551-.345 1.176-.518 1.876-.518.719 0 1.344.173 1.876.518.542.345.966.803 1.274 1.372.308.56.462 1.176.462 1.848v.224a.63.63 0 01-.014.154h-6.244c.047.523.192.989.434 1.4.252.401.574.723.966.966.402.233.836.35 1.302.35a2.64 2.64 0 001.344-.364c.43-.243.728-.56.896-.952l.826.224a2.73 2.73 0 01-.686.938c-.308.28-.672.499-1.092.658-.41.149-.854.224-1.33.224zm-2.688-4.13h5.39a2.976 2.976 0 00-.434-1.4 2.58 2.58 0 00-.966-.938 2.5 2.5 0 00-1.302-.35 2.5 2.5 0 00-1.302.35 2.692 2.692 0 00-.966.952 3.072 3.072 0 00-.42 1.386zM267.77 407v-7.294h.952v3.136h4.172v-3.136h.952V407h-.952v-3.304h-4.172V407h-.952zm13.958.14c-.634 0-1.199-.145-1.694-.434a3.345 3.345 0 01-1.176-1.19 4.098 4.098 0 01-.504-1.736h-1.456V407h-.952v-7.294h.952v3.234h1.456c.056-.672.234-1.26.532-1.764a3.234 3.234 0 011.176-1.176c.495-.28 1.05-.42 1.666-.42.719 0 1.34.168 1.862.504.523.336.929.789 1.218 1.358.29.569.434 1.213.434 1.932 0 .737-.149 1.391-.448 1.96-.289.56-.7 1.003-1.232 1.33-.522.317-1.134.476-1.834.476zm0-.84c.504 0 .948-.126 1.33-.378.383-.252.677-.597.882-1.036.215-.439.322-.943.322-1.512 0-.607-.112-1.129-.336-1.568a2.45 2.45 0 00-.896-1.022 2.373 2.373 0 00-1.302-.364c-.476 0-.9.126-1.274.378a2.392 2.392 0 00-.868 1.036c-.205.439-.308.952-.308 1.54 0 .588.103 1.106.308 1.554.215.439.509.779.882 1.022.374.233.794.35 1.26.35zm4.527-1.4c0-.457.131-.849.392-1.176.261-.336.621-.593 1.078-.77.467-.187 1.003-.28 1.61-.28.355 0 .723.028 1.106.084.383.056.723.14 1.022.252v-.616c0-.616-.182-1.106-.546-1.47-.364-.364-.868-.546-1.512-.546-.392 0-.779.075-1.162.224-.373.14-.765.35-1.176.63l-.364-.672a5.93 5.93 0 011.4-.728 4.03 4.03 0 011.4-.252c.896 0 1.605.257 2.128.77.523.513.784 1.223.784 2.128v3.374c0 .131.028.229.084.294.056.056.145.089.266.098V407a8.086 8.086 0 00-.266.028.511.511 0 01-.168 0c-.233-.009-.411-.084-.532-.224a.743.743 0 01-.196-.448l-.014-.532c-.327.42-.751.747-1.274.98a4.02 4.02 0 01-1.596.336c-.467 0-.891-.098-1.274-.294a2.393 2.393 0 01-.882-.812 2.18 2.18 0 01-.308-1.134zm4.886.56c.103-.131.182-.257.238-.378a.786.786 0 00.084-.322v-1.064a5.792 5.792 0 00-2.016-.378c-.681 0-1.232.135-1.652.406-.42.271-.63.639-.63 1.106 0 .271.07.527.21.77.14.233.345.429.616.588.271.149.588.224.952.224a3.06 3.06 0 001.274-.266c.401-.177.709-.406.924-.686zm3.317 1.54v-7.294h.952v3.136h4.172v-3.136h.952V407h-.952v-3.304h-4.172V407h-.952zm11.34.14a3.627 3.627 0 01-1.47-.294 3.801 3.801 0 01-1.162-.84 4.037 4.037 0 01-.77-1.218 3.999 3.999 0 01-.266-1.456c0-.691.154-1.321.462-1.89a3.532 3.532 0 011.288-1.358c.551-.336 1.185-.504 1.904-.504.681 0 1.283.159 1.806.476.523.308.91.728 1.162 1.26l-.924.294a2.159 2.159 0 00-.868-.868 2.35 2.35 0 00-1.218-.322c-.485 0-.929.126-1.33.378a2.796 2.796 0 00-.966 1.036c-.233.439-.35.938-.35 1.498 0 .551.121 1.05.364 1.498.243.448.565.807.966 1.078a2.39 2.39 0 001.33.392c.317 0 .621-.056.91-.168.299-.112.555-.261.77-.448.224-.196.373-.406.448-.63l.938.28c-.131.345-.35.658-.658.938a3.38 3.38 0 01-1.064.644 3.71 3.71 0 01-1.302.224zm4.506-.14v-7.294h.952v2.576h1.652c.83 0 1.456.215 1.876.644.429.42.644.975.644 1.666 0 .448-.094.854-.28 1.218a2.115 2.115 0 01-.826.868c-.355.215-.803.322-1.344.322h-2.674zm.952-.756h1.596c.382 0 .69-.075.924-.224.233-.159.406-.359.518-.602.112-.252.168-.523.168-.812a1.9 1.9 0 00-.154-.77 1.119 1.119 0 00-.504-.574c-.234-.149-.56-.224-.98-.224h-1.568v3.206zm5.502.756v-7.28h.952V407h-.952zm-184.722 16v-7.28h.952v5.992l4.438-6.006h.854V423h-.952v-5.894L132.96 423h-.924zm11.881 0v-7.294h5.866V423h-.952v-6.44h-3.962V423h-.952zm11.079.14a3.591 3.591 0 01-1.456-.294 3.757 3.757 0 01-1.148-.826 4 4 0 01-.742-1.204 3.96 3.96 0 01-.266-1.442c0-.523.089-1.008.266-1.456.177-.457.429-.859.756-1.204.327-.355.709-.63 1.148-.826a3.456 3.456 0 011.456-.308c.523 0 1.003.103 1.442.308.439.196.821.471 1.148.826.327.345.579.747.756 1.204.177.448.266.933.266 1.456 0 .504-.089.985-.266 1.442a3.85 3.85 0 01-.756 1.204c-.317.345-.7.621-1.148.826a3.53 3.53 0 01-1.456.294zm-2.646-3.752c0 .541.117 1.036.35 1.484.243.439.565.789.966 1.05.401.252.845.378 1.33.378a2.39 2.39 0 001.33-.392c.401-.261.723-.616.966-1.064.243-.457.364-.952.364-1.484 0-.541-.121-1.036-.364-1.484a2.881 2.881 0 00-.966-1.064 2.39 2.39 0 00-1.33-.392c-.485 0-.929.135-1.33.406-.392.271-.709.63-.952 1.078a3.01 3.01 0 00-.364 1.484zm7.052 5.306v-2.548h.126a.965.965 0 00.588-.196c.177-.131.336-.359.476-.686.14-.327.252-.775.336-1.344.084-.579.14-1.307.168-2.184l.07-2.03h4.746v6.44h.98v2.548h-.854V423h-5.796v1.694h-.84zm1.568-2.548h3.99v-5.586h-2.94l-.042 1.26a18.045 18.045 0 01-.182 2.184c-.084.579-.196 1.041-.336 1.386-.131.336-.294.588-.49.756zm7.351.854v-7.294h5.866V423h-.952v-6.44h-3.962V423h-.952zm7.957 0v-7.28h.952v5.992l4.438-6.006h.854V423h-.952v-5.894L177.202 423h-.924zm11.491.14a3.627 3.627 0 01-1.47-.294 3.801 3.801 0 01-1.162-.84 4.017 4.017 0 01-.77-1.218 3.978 3.978 0 01-.266-1.456c0-.691.154-1.321.462-1.89a3.532 3.532 0 011.288-1.358c.55-.336 1.185-.504 1.904-.504.681 0 1.283.159 1.806.476.522.308.91.728 1.162 1.26l-.924.294a2.165 2.165 0 00-.868-.868 2.35 2.35 0 00-1.218-.322c-.486 0-.929.126-1.33.378a2.78 2.78 0 00-.966 1.036c-.234.439-.35.938-.35 1.498 0 .551.121 1.05.364 1.498.242.448.564.807.966 1.078.401.261.844.392 1.33.392.317 0 .62-.056.91-.168a2.5 2.5 0 00.77-.448c.224-.196.373-.406.448-.63l.938.28c-.131.345-.35.658-.658.938a3.39 3.39 0 01-1.064.644 3.717 3.717 0 01-1.302.224zm4.505-.14v-7.294h.952v2.576h1.652c.831 0 1.456.215 1.876.644.43.42.644.975.644 1.666 0 .448-.093.854-.28 1.218a2.11 2.11 0 01-.826.868c-.354.215-.802.322-1.344.322h-2.674zm.952-.756h1.596c.383 0 .691-.075.924-.224.234-.159.406-.359.518-.602.112-.252.168-.523.168-.812 0-.28-.051-.537-.154-.77a1.11 1.11 0 00-.504-.574c-.233-.149-.56-.224-.98-.224h-1.568v3.206zm5.502.756v-7.28h.952V423h-.952zm3.035 0v-7.294h3.64c.41 0 .756.089 1.036.266.28.168.49.387.63.658.149.271.224.56.224.868 0 .392-.094.747-.28 1.064a1.767 1.767 0 01-.812.7c.42.121.76.341 1.022.658.261.317.392.7.392 1.148 0 .392-.098.733-.294 1.022a1.852 1.852 0 01-.784.672 2.563 2.563 0 01-1.134.238h-3.64zm.91-.686h2.702c.242 0 .462-.061.658-.182.205-.131.364-.299.476-.504a1.302 1.302 0 00.014-1.302 1.34 1.34 0 00-.448-.49 1.16 1.16 0 00-.644-.182h-2.758v2.66zm0-3.318h2.478c.242 0 .457-.065.644-.196.186-.131.331-.299.434-.504a1.43 1.43 0 00.154-.644c0-.336-.112-.63-.336-.882a1.052 1.052 0 00-.84-.378h-2.534v2.604zm6.008 1.904c0-.457.13-.849.392-1.176.261-.336.62-.593 1.078-.77.466-.187 1.003-.28 1.61-.28.354 0 .723.028 1.106.084.382.056.723.14 1.022.252v-.616c0-.616-.182-1.106-.546-1.47-.364-.364-.868-.546-1.512-.546-.392 0-.78.075-1.162.224-.374.14-.766.35-1.176.63l-.364-.672a5.912 5.912 0 011.4-.728 4.03 4.03 0 011.4-.252c.896 0 1.605.257 2.128.77.522.513.784 1.223.784 2.128v3.374c0 .131.028.229.084.294.056.056.144.089.266.098V423a7.804 7.804 0 00-.266.028.511.511 0 01-.168 0c-.234-.009-.411-.084-.532-.224a.737.737 0 01-.196-.448l-.014-.532c-.327.42-.752.747-1.274.98a4.02 4.02 0 01-1.596.336 2.75 2.75 0 01-1.274-.294 2.378 2.378 0 01-.882-.812 2.17 2.17 0 01-.308-1.134zm4.886.56a1.98 1.98 0 00.238-.378.786.786 0 00.084-.322v-1.064a5.817 5.817 0 00-2.016-.378c-.682 0-1.232.135-1.652.406-.42.271-.63.639-.63 1.106 0 .271.07.527.21.77.14.233.345.429.616.588.27.149.588.224.952.224a3.06 3.06 0 001.274-.266c.401-.177.709-.406.924-.686zm6.481 1.68a3.591 3.591 0 01-1.456-.294 3.7 3.7 0 01-1.162-.826 4.017 4.017 0 01-.77-1.218 4.014 4.014 0 01-.266-1.47c0-.681.154-1.307.462-1.876a3.635 3.635 0 011.302-1.358c.55-.345 1.176-.518 1.876-.518.718 0 1.344.173 1.876.518.541.345.966.803 1.274 1.372.308.56.462 1.176.462 1.848v.224a.684.684 0 01-.014.154h-6.244c.046.523.191.989.434 1.4.252.401.574.723.966.966.401.233.835.35 1.302.35a2.64 2.64 0 001.344-.364c.429-.243.728-.56.896-.952l.826.224c-.15.345-.378.658-.686.938-.308.28-.672.499-1.092.658a3.872 3.872 0 01-1.33.224zm-2.688-4.13h5.39c-.038-.532-.182-.999-.434-1.4a2.594 2.594 0 00-.966-.938 2.5 2.5 0 00-1.302-.35 2.5 2.5 0 00-1.302.35 2.692 2.692 0 00-.966.952 3.048 3.048 0 00-.42 1.386zm7.74 3.99v-7.294h.98l2.898 5.026 2.912-5.026h.938V423h-.91v-5.866l-2.632 4.564h-.616l-2.66-4.564V423h-.91zm12.587 1.694v-2.548h.126a.965.965 0 00.588-.196c.178-.131.336-.359.476-.686.14-.327.252-.775.336-1.344.084-.579.14-1.307.168-2.184l.07-2.03h4.746v6.44h.98v2.548h-.854V423h-5.796v1.694h-.84zm1.568-2.548h3.99v-5.586h-2.94l-.042 1.26c-.028.868-.088 1.596-.182 2.184-.084.579-.196 1.041-.336 1.386-.13.336-.294.588-.49.756zm10.473.994a3.595 3.595 0 01-1.456-.294 3.77 3.77 0 01-1.148-.826 4.02 4.02 0 01-.742-1.204 3.96 3.96 0 01-.266-1.442c0-.523.089-1.008.266-1.456.178-.457.43-.859.756-1.204.327-.355.71-.63 1.148-.826a3.46 3.46 0 011.456-.308 3.36 3.36 0 011.442.308c.439.196.822.471 1.148.826.327.345.579.747.756 1.204.178.448.266.933.266 1.456 0 .504-.088.985-.266 1.442a3.85 3.85 0 01-.756 1.204c-.317.345-.7.621-1.148.826a3.527 3.527 0 01-1.456.294zm-2.646-3.752c0 .541.117 1.036.35 1.484.243.439.565.789.966 1.05.402.252.845.378 1.33.378.486 0 .929-.131 1.33-.392.402-.261.724-.616.966-1.064.243-.457.364-.952.364-1.484 0-.541-.121-1.036-.364-1.484a2.865 2.865 0 00-.966-1.064 2.387 2.387 0 00-1.33-.392c-.485 0-.928.135-1.33.406-.392.271-.709.63-.952 1.078a3.02 3.02 0 00-.364 1.484zm7.85 3.612v-7.294h.952v3.122h1.092l2.45-3.122h1.092l-2.786 3.542 3.136 3.752h-1.12l-2.772-3.29h-1.092V423h-.952zm8.086 3.052c-.159 0-.322-.028-.49-.084a2.45 2.45 0 01-.49-.21l.35-.672c.103.056.196.103.28.14a.788.788 0 00.294.056c.243 0 .471-.121.686-.364.215-.243.42-.597.616-1.064l.364-.91-3.248-7.238h1.008l2.674 6.314 2.464-6.314h.952l-3.472 8.442a5.45 5.45 0 01-.588 1.078c-.205.28-.425.485-.658.616a1.42 1.42 0 01-.742.21zm6.776-3.052v-7.294h.98l2.898 5.026 2.912-5.026h.938V423h-.91v-5.866l-2.632 4.564h-.616l-2.66-4.564V423h-.91zm12.98.14a3.595 3.595 0 01-1.456-.294 3.712 3.712 0 01-1.162-.826 4.056 4.056 0 01-.77-1.218 4.035 4.035 0 01-.266-1.47c0-.681.154-1.307.462-1.876a3.65 3.65 0 011.302-1.358c.551-.345 1.176-.518 1.876-.518.719 0 1.344.173 1.876.518.542.345.966.803 1.274 1.372.308.56.462 1.176.462 1.848v.224a.63.63 0 01-.014.154h-6.244c.047.523.192.989.434 1.4.252.401.574.723.966.966.402.233.836.35 1.302.35a2.64 2.64 0 001.344-.364c.43-.243.728-.56.896-.952l.826.224a2.73 2.73 0 01-.686.938c-.308.28-.672.499-1.092.658-.41.149-.854.224-1.33.224zm-2.688-4.13h5.39a2.976 2.976 0 00-.434-1.4 2.58 2.58 0 00-.966-.938 2.5 2.5 0 00-1.302-.35 2.5 2.5 0 00-1.302.35 2.692 2.692 0 00-.966.952 3.072 3.072 0 00-.42 1.386zm7.741 3.99v-7.294h.952v3.136h4.172v-3.136h.952V423h-.952v-3.304h-4.172V423h-.952zm9.996 0v-6.44h-2.604v-.854h6.16v.854h-2.604V423h-.952zm4.838 0v-7.294h.952v2.576h1.652c.831 0 1.456.215 1.876.644.429.42.644.975.644 1.666 0 .448-.093.854-.28 1.218a2.115 2.115 0 01-.826.868c-.355.215-.803.322-1.344.322h-2.674zm.952-.756h1.596c.383 0 .691-.075.924-.224.233-.159.406-.359.518-.602.112-.252.168-.523.168-.812 0-.28-.051-.537-.154-.77a1.11 1.11 0 00-.504-.574c-.233-.149-.56-.224-.98-.224h-1.568v3.206zm5.502.756v-7.28h.952V423h-.952z" fill="#474747"/><path d="M247.187 511.442a54.997 54.997 0 0174.09 11.615 54.998 54.998 0 01-6.373 74.724 54.999 54.999 0 01-79.168-75.977" stroke="#4FB5FF" stroke-width="2"/><circle cx="278" cy="557" r="41.902" fill="#474747"/><path d="M296.815 547.334l-18.905-9.452a.687.687 0 00-.603 0l-18.906 9.452a.673.673 0 00-.373.604v18.904a.673.673 0 00.373.607l18.906 9.452a.67.67 0 00.603 0l18.905-9.452a.674.674 0 00.374-.607v-18.904a.677.677 0 00-.374-.604zm-19.207 9.301l-5.278-2.639 16.871-8.961 5.806 2.903-17.399 8.697zm-10.679-5.339l16.87-8.961 3.916 1.958-16.868 8.962-3.918-1.959zm-.799 1.11l4.051 2.026v5.379l-1.548-1.548a.672.672 0 00-.477-.198h-2.026v-5.659zm11.478-13.165l4.708 2.351-16.87 8.962-5.233-2.616 17.395-8.697zm-18.23 9.79l5.402 2.7v7.009a.676.676 0 00.675.675h2.421l2.503 2.503a.676.676 0 001.153-.477v-6.334l5.401 2.7v17.394l-17.555-8.777v-17.393zm18.906 26.17v-17.394l17.554-8.776v17.393l-17.554 8.777z" fill="#fff"/><path d="M51.85 543v-2.898h-5.382v-2.16l6.138-7.722h1.656v7.704h1.584v2.178h-1.584V543H51.85zm-2.952-5.076h3.222v-4.068l-3.222 4.068zM57.591 543v-2.592h1.98V543h-1.98zm7.863 2.448v-4.626h.684c.324 0 .606-.126.846-.378s.444-.654.612-1.206c.168-.552.3-1.266.396-2.142.108-.888.18-1.962.216-3.222l.108-3.654h8.514v10.602h1.692v4.626h-2.178V543h-8.712v2.448h-2.178zm3.654-4.626h5.256v-8.424h-3.798l-.036 1.8a34.802 34.802 0 01-.216 3.186c-.096.876-.24 1.596-.432 2.16-.18.564-.438.99-.774 1.278zm16.795 2.268c-.936 0-1.788-.18-2.556-.54a6.209 6.209 0 01-1.962-1.458 7.136 7.136 0 01-1.26-2.088c-.3-.78-.45-1.578-.45-2.394 0-.852.156-1.662.468-2.43.324-.78.762-1.47 1.314-2.07a6.182 6.182 0 011.98-1.44 5.863 5.863 0 012.52-.54c.924 0 1.764.186 2.52.558a6.05 6.05 0 011.962 1.494c.54.624.96 1.32 1.26 2.088.3.768.45 1.56.45 2.376 0 .84-.156 1.65-.468 2.43a6.817 6.817 0 01-1.314 2.07 6.052 6.052 0 01-1.98 1.422 5.869 5.869 0 01-2.484.522zm-3.708-6.48c0 .552.084 1.086.252 1.602.168.516.408.978.72 1.386.324.396.714.714 1.17.954a3.57 3.57 0 001.584.342c.6 0 1.134-.12 1.602-.36a3.602 3.602 0 001.17-.99c.312-.42.546-.882.702-1.386a4.975 4.975 0 00.252-1.548c0-.552-.09-1.08-.27-1.584a4.181 4.181 0 00-.738-1.368 3.235 3.235 0 00-1.17-.954 3.273 3.273 0 00-1.548-.36c-.612 0-1.152.126-1.62.378-.456.24-.84.564-1.152.972a4.66 4.66 0 00-.72 1.368 5.206 5.206 0 00-.234 1.548zm11.086-.09c0-.78.138-1.542.414-2.286a6.664 6.664 0 011.242-2.052 5.791 5.791 0 011.98-1.476c.78-.372 1.668-.558 2.664-.558 1.176 0 2.19.258 3.042.774.864.516 1.506 1.188 1.926 2.016l-1.908 1.314c-.216-.48-.498-.858-.846-1.134a2.968 2.968 0 00-1.116-.594 4.022 4.022 0 00-1.17-.18c-.624 0-1.17.126-1.638.378-.456.252-.84.582-1.152.99a4.35 4.35 0 00-.702 1.368 5.481 5.481 0 00-.216 1.512c0 .564.09 1.11.27 1.638.18.516.432.978.756 1.386a3.97 3.97 0 001.188.954c.468.228.978.342 1.53.342.396 0 .798-.066 1.206-.198a3.42 3.42 0 001.134-.63c.348-.288.618-.66.81-1.116l2.034 1.17a3.784 3.784 0 01-1.242 1.62c-.564.444-1.2.78-1.908 1.008a6.84 6.84 0 01-2.106.342c-.912 0-1.746-.186-2.502-.558a6.56 6.56 0 01-1.962-1.512 7.648 7.648 0 01-1.278-2.124c-.3-.792-.45-1.59-.45-2.394zm22.672-4.122h-4.086V543h-2.466v-10.602h-4.086v-2.178h10.638v2.178zm3.882-2.178h2.52l4.698 12.78h-2.556l-1.188-3.186h-4.464l-1.17 3.186h-2.556l4.716-12.78zm3.024 7.848l-1.764-5.274-1.836 5.274h3.6zm15.892 1.638c0 .72-.186 1.326-.558 1.818-.372.48-.876.846-1.512 1.098a5.43 5.43 0 01-2.052.378h-6.174v-12.78h6.84c.6 0 1.116.162 1.548.486.444.312.78.72 1.008 1.224a3.496 3.496 0 01-.108 3.294c-.312.552-.768.96-1.368 1.224.732.216 1.308.606 1.728 1.17.432.564.648 1.26.648 2.088zm-2.502-.468c0-.324-.066-.612-.198-.864a1.494 1.494 0 00-.54-.612 1.257 1.257 0 00-.756-.234h-3.816v3.366h3.69c.3 0 .57-.072.81-.216.252-.156.45-.36.594-.612a1.64 1.64 0 00.216-.828zm-5.31-6.894v3.222h3.312c.276 0 .528-.066.756-.198.228-.132.408-.318.54-.558.144-.24.216-.528.216-.864 0-.324-.066-.606-.198-.846a1.339 1.339 0 00-.504-.558 1.264 1.264 0 00-.702-.198h-3.42zM140.725 543v-12.78h2.466v5.148h1.26l3.798-5.148h2.772l-4.644 6.192 5.004 6.588h-3.006l-3.96-5.382h-1.224V543h-2.466zm15.831-12.78h2.52l4.698 12.78h-2.556l-1.188-3.186h-4.464l-1.17 3.186h-2.556l4.716-12.78zm3.024 7.848l-1.764-5.274-1.836 5.274h3.6zM47.246 575v-9.94h5.642v.868h-4.662V575h-.98zm10.13.14a3.592 3.592 0 01-1.455-.294 3.756 3.756 0 01-1.148-.826 3.999 3.999 0 01-.742-1.204 3.95 3.95 0 01-.266-1.442c0-.523.088-1.008.266-1.456.177-.457.43-.859.756-1.204.326-.355.71-.63 1.148-.826a3.457 3.457 0 011.456-.308c.522 0 1.003.103 1.442.308.438.196.821.471 1.148.826.326.345.578.747.756 1.204.177.448.266.933.266 1.456 0 .504-.089.985-.266 1.442-.178.448-.43.849-.756 1.204-.318.345-.7.621-1.148.826a3.53 3.53 0 01-1.456.294zm-2.645-3.752c0 .541.116 1.036.35 1.484.242.439.564.789.966 1.05a2.45 2.45 0 001.33.378 2.39 2.39 0 001.33-.392c.401-.261.723-.616.966-1.064.242-.457.364-.952.364-1.484 0-.541-.122-1.036-.364-1.484a2.876 2.876 0 00-.966-1.064 2.39 2.39 0 00-1.33-.392c-.486 0-.929.135-1.33.406a3.05 3.05 0 00-.952 1.078 3.013 3.013 0 00-.364 1.484zM64.415 575v-6.44H61.81v-.854h6.16v.854h-2.604V575h-.952zm7.96.14a3.592 3.592 0 01-1.456-.294 3.757 3.757 0 01-1.148-.826 4 4 0 01-.742-1.204 3.953 3.953 0 01-.266-1.442c0-.523.088-1.008.266-1.456.177-.457.43-.859.756-1.204.327-.355.71-.63 1.148-.826a3.457 3.457 0 011.456-.308c.523 0 1.003.103 1.442.308.438.196.821.471 1.148.826.326.345.579.747.756 1.204.177.448.266.933.266 1.456 0 .504-.089.985-.266 1.442-.177.448-.43.849-.756 1.204-.317.345-.7.621-1.148.826a3.53 3.53 0 01-1.456.294zm-2.646-3.752c0 .541.117 1.036.35 1.484.243.439.565.789.966 1.05.401.252.844.378 1.33.378a2.39 2.39 0 001.33-.392c.401-.261.723-.616.966-1.064.242-.457.364-.952.364-1.484 0-.541-.121-1.036-.364-1.484a2.876 2.876 0 00-.966-1.064 2.39 2.39 0 00-1.33-.392c-.486 0-.929.135-1.33.406-.392.271-.71.63-.952 1.078a3.013 3.013 0 00-.364 1.484zm7.85 3.612v-7.294h3.64c.41 0 .756.089 1.036.266.28.168.49.387.63.658.15.271.224.56.224.868 0 .392-.093.747-.28 1.064a1.763 1.763 0 01-.812.7c.42.121.76.341 1.022.658.261.317.392.7.392 1.148 0 .392-.098.733-.294 1.022a1.85 1.85 0 01-.784.672 2.561 2.561 0 01-1.134.238h-3.64zm.91-.686h2.702c.243 0 .462-.061.658-.182.205-.131.364-.299.476-.504a1.302 1.302 0 00.014-1.302 1.336 1.336 0 00-.448-.49 1.158 1.158 0 00-.644-.182h-2.758v2.66zm0-3.318h2.478c.243 0 .457-.065.644-.196a1.34 1.34 0 00.434-.504c.103-.205.154-.42.154-.644 0-.336-.112-.63-.336-.882a1.051 1.051 0 00-.84-.378h-2.534v2.604zm7.394 7.056c-.158 0-.322-.028-.49-.084a2.457 2.457 0 01-.49-.21l.35-.672c.103.056.196.103.28.14a.79.79 0 00.294.056c.243 0 .472-.121.686-.364.215-.243.42-.597.616-1.064l.364-.91-3.248-7.238h1.008l2.674 6.314 2.464-6.314h.952l-3.472 8.442a5.419 5.419 0 01-.588 1.078c-.205.28-.424.485-.658.616-.233.14-.48.21-.742.21zm12.572-2.912c-.635 0-1.2-.145-1.694-.434a3.34 3.34 0 01-1.176-1.19 4.09 4.09 0 01-.504-1.736h-1.456V575h-.952v-7.294h.952v3.234h1.456c.056-.672.233-1.26.532-1.764A3.23 3.23 0 0196.789 568c.495-.28 1.05-.42 1.666-.42.719 0 1.34.168 1.862.504.523.336.929.789 1.218 1.358.289.569.434 1.213.434 1.932 0 .737-.149 1.391-.448 1.96-.289.56-.7 1.003-1.232 1.33-.523.317-1.134.476-1.834.476zm0-.84c.504 0 .947-.126 1.33-.378.383-.252.677-.597.882-1.036.215-.439.322-.943.322-1.512 0-.607-.112-1.129-.336-1.568a2.457 2.457 0 00-.896-1.022 2.376 2.376 0 00-1.302-.364c-.476 0-.9.126-1.274.378a2.386 2.386 0 00-.868 1.036c-.205.439-.308.952-.308 1.54 0 .588.103 1.106.308 1.554.215.439.509.779.882 1.022.373.233.793.35 1.26.35zm8.669.7v-7.294h5.866V575h-.952v-6.44h-3.962V575h-.952zm11.695.14a2.929 2.929 0 01-1.638-.476 3.673 3.673 0 01-1.134-1.176v4.494h-.952v-10.276h.854v1.414a3.307 3.307 0 011.162-1.106 2.986 2.986 0 011.554-.434c.504 0 .966.107 1.386.322.42.205.784.485 1.092.84.308.355.546.761.714 1.218.177.448.266.915.266 1.4 0 .681-.14 1.311-.42 1.89a3.44 3.44 0 01-1.148 1.372c-.495.345-1.073.518-1.736.518zm-.266-.84c.401 0 .761-.079 1.078-.238.317-.168.588-.392.812-.672.233-.28.411-.593.532-.938.121-.355.182-.719.182-1.092 0-.392-.07-.765-.21-1.12a2.769 2.769 0 00-.574-.938 2.917 2.917 0 00-.868-.644 2.398 2.398 0 00-1.064-.238c-.243 0-.495.047-.756.14a2.989 2.989 0 00-.756.406 2.653 2.653 0 00-.588.574 1.53 1.53 0 00-.294.686v2.24c.149.345.35.658.602.938.252.271.541.49.868.658.336.159.681.238 1.036.238zm8.291.84a3.591 3.591 0 01-1.456-.294 3.745 3.745 0 01-1.148-.826 3.98 3.98 0 01-.742-1.204 3.938 3.938 0 01-.266-1.442c0-.523.088-1.008.266-1.456.177-.457.429-.859.756-1.204.326-.355.709-.63 1.148-.826a3.456 3.456 0 011.456-.308c.522 0 1.003.103 1.442.308.438.196.821.471 1.148.826.326.345.578.747.756 1.204.177.448.266.933.266 1.456 0 .504-.089.985-.266 1.442-.178.448-.43.849-.756 1.204-.318.345-.7.621-1.148.826a3.53 3.53 0 01-1.456.294zm-2.646-3.752c0 .541.116 1.036.35 1.484.242.439.564.789.966 1.05.401.252.844.378 1.33.378.485 0 .928-.131 1.33-.392.401-.261.723-.616.966-1.064.242-.457.364-.952.364-1.484 0-.541-.122-1.036-.364-1.484a2.881 2.881 0 00-.966-1.064 2.392 2.392 0 00-1.33-.392c-.486 0-.929.135-1.33.406-.392.271-.71.63-.952 1.078a3.01 3.01 0 00-.364 1.484zm7.052 5.306v-2.548h.126a.97.97 0 00.588-.196c.177-.131.336-.359.476-.686.14-.327.252-.775.336-1.344.084-.579.14-1.307.168-2.184l.07-2.03h4.746v6.44h.98v2.548h-.854V575h-5.796v1.694h-.84zm1.568-2.548h3.99v-5.586h-2.94l-.042 1.26a18.045 18.045 0 01-.182 2.184c-.084.579-.196 1.041-.336 1.386-.131.336-.294.588-.49.756zm8.163 3.906c-.159 0-.322-.028-.49-.084a2.45 2.45 0 01-.49-.21l.35-.672c.102.056.196.103.28.14a.788.788 0 00.294.056c.242 0 .471-.121.686-.364.214-.243.42-.597.616-1.064l.364-.91-3.248-7.238h1.008l2.674 6.314 2.464-6.314h.952l-3.472 8.442a5.45 5.45 0 01-.588 1.078c-.206.28-.425.485-.658.616-.234.14-.481.21-.742.21zm6.776-3.052v-7.294h.952v3.122h1.092l2.45-3.122h1.092l-2.786 3.542 3.136 3.752h-1.12l-2.772-3.29h-1.092V575h-.952zm13.097 1.694V575h-5.824v-7.294h.952v6.454h3.78v-6.454h.952v6.454h.994v2.534h-.854zm2.284-1.694v-7.28h.952v5.992l4.438-6.006h.854V575h-.952v-5.894L164.062 575h-.924zm14.108.14c-.635 0-1.199-.145-1.694-.434a3.345 3.345 0 01-1.176-1.19 4.098 4.098 0 01-.504-1.736h-1.456V575h-.952v-7.294h.952v3.234h1.456c.056-.672.233-1.26.532-1.764A3.234 3.234 0 01175.58 568c.495-.28 1.05-.42 1.666-.42.719 0 1.339.168 1.862.504.523.336.929.789 1.218 1.358.289.569.434 1.213.434 1.932 0 .737-.149 1.391-.448 1.96-.289.56-.7 1.003-1.232 1.33-.523.317-1.134.476-1.834.476zm0-.84c.504 0 .947-.126 1.33-.378.383-.252.677-.597.882-1.036.215-.439.322-.943.322-1.512 0-.607-.112-1.129-.336-1.568a2.457 2.457 0 00-.896-1.022 2.378 2.378 0 00-1.302-.364c-.476 0-.901.126-1.274.378a2.385 2.385 0 00-.868 1.036c-.205.439-.308.952-.308 1.54 0 .588.103 1.106.308 1.554.215.439.509.779.882 1.022.373.233.793.35 1.26.35zM46.238 592.694v-2.548h.126c.215 0 .41-.065.588-.196.177-.131.336-.359.476-.686.14-.327.252-.775.336-1.344.084-.579.14-1.307.168-2.184l.07-2.03h4.746v6.44h.98v2.548h-.854V591h-5.796v1.694h-.84zm1.568-2.548h3.99v-5.586h-2.94l-.042 1.26a17.984 17.984 0 01-.182 2.184c-.084.579-.196 1.041-.336 1.386-.13.336-.294.588-.49.756zm10.473.994a3.592 3.592 0 01-1.456-.294 3.757 3.757 0 01-1.148-.826 4 4 0 01-.742-1.204 3.953 3.953 0 01-.266-1.442c0-.523.089-1.008.266-1.456.177-.457.43-.859.756-1.204.327-.355.71-.63 1.148-.826a3.457 3.457 0 011.456-.308c.523 0 1.003.103 1.442.308.439.196.821.471 1.148.826.327.345.579.747.756 1.204.177.448.266.933.266 1.456 0 .504-.089.985-.266 1.442-.177.448-.43.849-.756 1.204-.317.345-.7.621-1.148.826a3.53 3.53 0 01-1.456.294zm-2.646-3.752c0 .541.117 1.036.35 1.484.243.439.565.789.966 1.05.401.252.845.378 1.33.378a2.39 2.39 0 001.33-.392c.401-.261.723-.616.966-1.064.243-.457.364-.952.364-1.484 0-.541-.121-1.036-.364-1.484a2.876 2.876 0 00-.966-1.064 2.39 2.39 0 00-1.33-.392c-.485 0-.929.135-1.33.406-.392.271-.71.63-.952 1.078a3.013 3.013 0 00-.364 1.484zm11.028 3.752a3.627 3.627 0 01-1.47-.294 3.805 3.805 0 01-1.162-.84 4.035 4.035 0 01-.77-1.218 3.99 3.99 0 01-.266-1.456c0-.691.154-1.321.462-1.89a3.534 3.534 0 011.288-1.358c.55-.336 1.186-.504 1.904-.504.682 0 1.284.159 1.806.476.523.308.91.728 1.162 1.26l-.924.294a2.16 2.16 0 00-.868-.868 2.35 2.35 0 00-1.218-.322 2.45 2.45 0 00-1.33.378 2.79 2.79 0 00-.966 1.036c-.233.439-.35.938-.35 1.498a3.1 3.1 0 00.364 1.498c.243.448.565.807.966 1.078a2.39 2.39 0 001.33.392 2.5 2.5 0 00.91-.168 2.49 2.49 0 00.77-.448c.224-.196.374-.406.448-.63l.938.28a2.43 2.43 0 01-.658.938 3.38 3.38 0 01-1.064.644 3.712 3.712 0 01-1.302.224zm6.34-.14v-6.44h-2.604v-.854h6.16v.854h-2.604V591H73zm4.223-2.1c0-.457.13-.849.392-1.176.261-.336.62-.593 1.078-.77.466-.187 1.003-.28 1.61-.28.354 0 .723.028 1.106.084.382.056.723.14 1.022.252v-.616c0-.616-.182-1.106-.546-1.47-.364-.364-.868-.546-1.512-.546-.392 0-.78.075-1.162.224-.374.14-.766.35-1.176.63l-.364-.672a5.925 5.925 0 011.4-.728 4.031 4.031 0 011.4-.252c.896 0 1.605.257 2.128.77.522.513.784 1.223.784 2.128v3.374c0 .131.028.229.084.294.056.056.144.089.266.098V591a8.116 8.116 0 00-.266.028.512.512 0 01-.168 0c-.234-.009-.41-.084-.532-.224a.743.743 0 01-.196-.448l-.014-.532c-.327.42-.752.747-1.274.98a4.016 4.016 0 01-1.596.336 2.75 2.75 0 01-1.274-.294 2.388 2.388 0 01-.882-.812 2.177 2.177 0 01-.308-1.134zm4.886.56a1.98 1.98 0 00.238-.378.786.786 0 00.084-.322v-1.064a5.79 5.79 0 00-2.016-.378c-.682 0-1.232.135-1.652.406-.42.271-.63.639-.63 1.106 0 .271.07.527.21.77.14.233.345.429.616.588.27.149.588.224.952.224a3.06 3.06 0 001.274-.266c.401-.177.71-.406.924-.686zm3.317 1.54v-7.294h3.64c.41 0 .756.089 1.036.266.28.168.49.387.63.658.149.271.224.56.224.868 0 .392-.094.747-.28 1.064a1.762 1.762 0 01-.812.7c.42.121.76.341 1.022.658.261.317.392.7.392 1.148 0 .392-.098.733-.294 1.022a1.85 1.85 0 01-.784.672 2.56 2.56 0 01-1.134.238h-3.64zm.91-.686h2.702c.242 0 .462-.061.658-.182.205-.131.364-.299.476-.504a1.302 1.302 0 00.014-1.302 1.335 1.335 0 00-.448-.49 1.158 1.158 0 00-.644-.182h-2.758v2.66zm0-3.318h2.478c.242 0 .457-.065.644-.196.186-.131.331-.299.434-.504a1.42 1.42 0 00.154-.644c0-.336-.112-.63-.336-.882a1.05 1.05 0 00-.84-.378h-2.534v2.604zm5.896 4.046v-.868c.252 0 .476-.065.672-.196.196-.14.368-.373.518-.7.159-.327.284-.775.378-1.344.093-.579.154-1.311.182-2.198l.084-2.03h4.732V591h-.952v-6.44h-2.94l-.028 1.26c-.038 1.008-.117 1.853-.238 2.534-.122.672-.294 1.204-.518 1.596-.215.392-.48.672-.798.84a2.299 2.299 0 01-1.092.252zm8.125-.042l2.17-2.982c-.495-.075-.896-.289-1.204-.644-.299-.364-.448-.859-.448-1.484 0-.42.098-.793.294-1.12.196-.327.471-.588.826-.784.364-.196.788-.294 1.274-.294h2.786V591h-.952v-2.828h-1.624L101.422 591h-1.064zm2.898-3.556h1.848v-2.996h-1.68c-.486 0-.873.14-1.162.42-.29.271-.434.616-.434 1.036 0 .429.116.793.35 1.092.242.299.602.448 1.078.448zm8.044 3.696a3.591 3.591 0 01-1.456-.294 3.7 3.7 0 01-1.162-.826 4.017 4.017 0 01-.77-1.218 4.014 4.014 0 01-.266-1.47c0-.681.154-1.307.462-1.876a3.635 3.635 0 011.302-1.358c.55-.345 1.176-.518 1.876-.518.718 0 1.344.173 1.876.518.541.345.966.803 1.274 1.372.308.56.462 1.176.462 1.848v.224a.684.684 0 01-.014.154h-6.244c.046.523.191.989.434 1.4.252.401.574.723.966.966.401.233.835.35 1.302.35a2.64 2.64 0 001.344-.364c.429-.243.728-.56.896-.952l.826.224c-.15.345-.378.658-.686.938-.308.28-.672.499-1.092.658a3.872 3.872 0 01-1.33.224zm-2.688-4.13h5.39c-.038-.532-.182-.999-.434-1.4a2.594 2.594 0 00-.966-.938 2.5 2.5 0 00-1.302-.35 2.5 2.5 0 00-1.302.35 2.692 2.692 0 00-.966.952 3.048 3.048 0 00-.42 1.386zm7.74 3.99v-7.294h.98l2.898 5.026 2.912-5.026h.938V591h-.91v-5.866l-2.632 4.564h-.616l-2.66-4.564V591h-.91zm13.385 0v-7.294h.952v3.136h4.172v-3.136h.952V591h-.952v-3.304h-4.172V591h-.952zm7.588-2.1c0-.457.131-.849.392-1.176.262-.336.621-.593 1.078-.77.467-.187 1.004-.28 1.61-.28.355 0 .724.028 1.106.084.383.056.724.14 1.022.252v-.616c0-.616-.182-1.106-.546-1.47-.364-.364-.868-.546-1.512-.546-.392 0-.779.075-1.162.224-.373.14-.765.35-1.176.63l-.364-.672a5.93 5.93 0 011.4-.728 4.034 4.034 0 011.4-.252c.896 0 1.606.257 2.128.77.523.513.784 1.223.784 2.128v3.374c0 .131.028.229.084.294.056.056.145.089.266.098V591a8.39 8.39 0 00-.266.028.513.513 0 01-.168 0c-.233-.009-.41-.084-.532-.224a.748.748 0 01-.196-.448l-.014-.532c-.326.42-.751.747-1.274.98a4.012 4.012 0 01-1.596.336c-.466 0-.891-.098-1.274-.294a2.393 2.393 0 01-.882-.812 2.18 2.18 0 01-.308-1.134zm4.886.56c.103-.131.182-.257.238-.378a.786.786 0 00.084-.322v-1.064a5.766 5.766 0 00-2.016-.378c-.681 0-1.232.135-1.652.406-.42.271-.63.639-.63 1.106 0 .271.07.527.21.77.14.233.346.429.616.588.271.149.588.224.952.224.458 0 .882-.089 1.274-.266.402-.177.71-.406.924-.686zm10.008 1.68a3.591 3.591 0 01-1.456-.294 3.745 3.745 0 01-1.148-.826 3.98 3.98 0 01-.742-1.204 3.938 3.938 0 01-.266-1.442c0-.523.088-1.008.266-1.456.177-.457.429-.859.756-1.204.326-.355.709-.63 1.148-.826a3.456 3.456 0 011.456-.308c.522 0 1.003.103 1.442.308.438.196.821.471 1.148.826.326.345.578.747.756 1.204.177.448.266.933.266 1.456 0 .504-.089.985-.266 1.442-.178.448-.43.849-.756 1.204-.318.345-.7.621-1.148.826a3.53 3.53 0 01-1.456.294zm-2.646-3.752c0 .541.116 1.036.35 1.484.242.439.564.789.966 1.05.401.252.844.378 1.33.378.485 0 .928-.131 1.33-.392.401-.261.723-.616.966-1.064.242-.457.364-.952.364-1.484 0-.541-.122-1.036-.364-1.484a2.881 2.881 0 00-.966-1.064 2.392 2.392 0 00-1.33-.392c-.486 0-.929.135-1.33.406-.392.271-.71.63-.952 1.078a3.01 3.01 0 00-.364 1.484zm11.21 3.752c-1.176 0-2.068-.359-2.674-1.078-.598-.728-.896-1.731-.896-3.01 0-.905.074-1.671.224-2.296.149-.625.368-1.139.658-1.54a3.636 3.636 0 011.064-1.008 6.418 6.418 0 011.47-.644l3.066-1.008.084.826-2.954.966c-.56.187-1.027.425-1.4.714a3.016 3.016 0 00-.882 1.106c-.206.439-.341 1.013-.406 1.722a2.643 2.643 0 011.12-1.246c.504-.299 1.087-.448 1.75-.448.709 0 1.311.145 1.806.434a2.86 2.86 0 011.148 1.204c.261.513.392 1.106.392 1.778 0 .709-.14 1.33-.42 1.862a2.946 2.946 0 01-1.204 1.232c-.523.289-1.172.434-1.946.434zm0-.84c.83 0 1.47-.238 1.918-.714.457-.485.686-1.129.686-1.932 0-.784-.224-1.423-.672-1.918-.439-.495-1.083-.742-1.932-.742-.486 0-.924.103-1.316.308a2.335 2.335 0 00-.938.896c-.224.392-.336.877-.336 1.456 0 .504.098.957.294 1.358.205.401.499.719.882.952.382.224.854.336 1.414.336zm6.243.7v-6.496h-2.212v-.798h3.164v2.576h1.904c.831 0 1.456.215 1.876.644.42.42.63.975.63 1.666 0 .448-.093.854-.28 1.218a2.11 2.11 0 01-.826.868c-.354.215-.802.322-1.344.322h-2.912zm.952-.756h1.834c.383 0 .691-.075.924-.224.234-.159.406-.359.518-.602.112-.252.168-.523.168-.812 0-.28-.051-.537-.154-.77a1.11 1.11 0 00-.504-.574c-.233-.149-.56-.224-.98-.224h-1.806v3.206zm9.042.896a3.595 3.595 0 01-1.456-.294 3.712 3.712 0 01-1.162-.826 4.056 4.056 0 01-.77-1.218 4.035 4.035 0 01-.266-1.47c0-.681.154-1.307.462-1.876a3.65 3.65 0 011.302-1.358c.551-.345 1.176-.518 1.876-.518.719 0 1.344.173 1.876.518.542.345.966.803 1.274 1.372.308.56.462 1.176.462 1.848v.224a.63.63 0 01-.014.154h-6.244c.047.523.192.989.434 1.4.252.401.574.723.966.966.402.233.836.35 1.302.35a2.64 2.64 0 001.344-.364c.43-.243.728-.56.896-.952l.826.224a2.73 2.73 0 01-.686.938c-.308.28-.672.499-1.092.658-.41.149-.854.224-1.33.224zm-2.688-4.13h5.39a2.976 2.976 0 00-.434-1.4 2.58 2.58 0 00-.966-.938 2.5 2.5 0 00-1.302-.35 2.5 2.5 0 00-1.302.35 2.692 2.692 0 00-.966.952 3.072 3.072 0 00-.42 1.386zm7.741 3.99v-7.294h.952v3.122h1.092l2.45-3.122h1.092l-2.786 3.542 3.136 3.752h-1.12l-2.772-3.29h-1.092V591h-.952zm9.108 0v-6.44h-2.604v-.854h6.16v.854h-2.604V591h-.952z" fill="#474747"/><path d="M55.5 112s3.5 59.5 87 52 98 17 98 17" stroke="#4FB5FF" stroke-dasharray="2 2"/><circle cx="242.5" cy="181.5" r="4.5" fill="#4FB5FF"/><circle cx="55.5" cy="108.5" r="4.5" fill="#4FB5FF"/><circle cx="279.5" cy="277.5" r="4.5" fill="#4FB5FF"/><circle cx="89.5" cy="345.5" r="4.5" fill="#4FB5FF"/><path d="M279.5 281s-30 83-106.5 21-81.5 40.5-81.5 40.5" stroke="#4FB5FF" stroke-dasharray="2 2"/><circle cx="55.5" cy="443.5" r="4.5" fill="#4FB5FF"/><circle cx="241.5" cy="516.5" r="4.5" fill="#4FB5FF"/><path d="M56 446s76.79 61.39 107.706 19.279C194.621 423.169 240 513.5 240 513.5" stroke="#4FB5FF" stroke-dasharray="2 2"/></svg>