<svg width="84" height="84" viewBox="0 0 84 84" fill="none" xmlns="http://www.w3.org/2000/svg">
<path d="M80.2259 17.7969C78.4802 16.7888 76.4467 16.521 74.4991 17.0433C72.5522 17.5649 70.9243 18.8134 69.9163 20.5591L64.9688 29.1288V4.92188C64.9688 2.20779 62.761 0 60.0469 0H4.92188C2.20779 0 0 2.20779 0 4.92188V66.8555C0 67.2906 0.173035 67.7078 0.480652 68.0154L15.9846 83.5193C16.2922 83.827 16.7094 84 17.1445 84H33.0041C33.9103 84 34.6447 83.2656 34.6447 82.3594C34.6447 81.4532 33.9103 80.7188 33.0041 80.7188H18.7852V70.1233C18.7852 67.4092 16.5774 65.2014 13.8633 65.2014H3.28125V4.92188C3.28125 4.01697 4.01697 3.28125 4.92188 3.28125H60.0469C60.9518 3.28125 61.6875 4.01697 61.6875 4.92188V34.812L50.5159 54.1624C50.4146 54.1432 50.3102 54.1317 50.2031 54.1317H14.7656C13.8594 54.1317 13.125 54.8667 13.125 55.7723C13.125 56.6785 13.8594 57.4129 14.7656 57.4129H48.6388L46.3637 61.3536C46.2406 61.5664 46.1676 61.8041 46.1483 62.0496L45.1114 75.6584C45.0634 76.2878 45.3806 76.8889 45.9266 77.2042C46.181 77.351 46.4643 77.424 46.7469 77.424C47.0712 77.424 47.3948 77.3279 47.673 77.1376L58.9407 69.435C59.1432 69.2959 59.3124 69.1133 59.4355 68.9005L61.6875 64.9995V79.0781C61.6875 79.983 60.9518 80.7188 60.0469 80.7188H47.7697C46.8636 80.7188 46.1291 81.4532 46.1291 82.3594C46.1291 83.2656 46.8636 84 47.7697 84H60.0469C62.761 84 64.9688 81.7922 64.9688 79.0781V59.3163L82.9881 28.106C85.069 24.5023 83.8295 19.8772 80.2259 17.7969ZM13.8633 68.4826C14.7682 68.4826 15.5039 69.2184 15.5039 70.1233V78.3847L5.60184 68.4826H13.8633ZM49.2226 64.8983L54.9366 68.1974L48.6432 72.4996L49.2226 64.8983ZM57.4142 65.8391L50.0256 61.5734L69.1562 28.4386L76.5448 32.7042L57.4142 65.8391ZM80.1465 26.4653L78.1854 29.8619L70.7968 25.5963L72.7579 22.1997C73.9339 20.163 76.548 19.4626 78.5847 20.6385C80.622 21.8145 81.3224 24.4286 80.1465 26.4653Z" fill="white"/>
<path d="M39.4538 64.9585C39.4538 64.0523 38.7194 63.3179 37.8132 63.3179H23.5705C22.6643 63.3179 21.9299 64.0523 21.9299 64.9585C21.9299 65.8647 22.6643 66.5991 23.5705 66.5991H37.8132C38.7194 66.5991 39.4538 65.8647 39.4538 64.9585Z" fill="white"/>
<path d="M50.2031 44.9409H25.0945C24.1883 44.9409 23.4539 45.6754 23.4539 46.5815C23.4539 47.4877 24.1883 48.2222 25.0945 48.2222H50.2031C51.1093 48.2222 51.8438 47.4877 51.8438 46.5815C51.8438 45.6754 51.1093 44.9409 50.2031 44.9409Z" fill="white"/>
<path d="M14.7656 39.0366H50.2031C51.1093 39.0366 51.8438 38.3022 51.8438 37.396C51.8438 36.4898 51.1093 35.7554 50.2031 35.7554H14.7656C13.8594 35.7554 13.125 36.4898 13.125 37.396C13.125 38.3022 13.8594 39.0366 14.7656 39.0366Z" fill="white"/>
<path d="M50.2031 17.374H14.7656C13.8594 17.374 13.125 18.1085 13.125 19.0146C13.125 19.9208 13.8594 20.6553 14.7656 20.6553H50.2031C51.1093 20.6553 51.8438 19.9208 51.8438 19.0146C51.8438 18.1085 51.1093 17.374 50.2031 17.374Z" fill="white"/>
<path d="M50.2031 26.5647H37.8132C36.9077 26.5647 36.1726 27.2991 36.1726 28.2053C36.1726 29.1115 36.9077 29.8459 37.8132 29.8459H50.2031C51.1093 29.8459 51.8438 29.1115 51.8438 28.2053C51.8438 27.2991 51.1093 26.5647 50.2031 26.5647Z" fill="white"/>
<path d="M14.7656 29.8459H29.3396C30.2458 29.8459 30.9803 29.1115 30.9803 28.2053C30.9803 27.2991 30.2458 26.5647 29.3396 26.5647H14.7656C13.8594 26.5647 13.125 27.2991 13.125 28.2053C13.125 29.1115 13.8594 29.8459 14.7656 29.8459Z" fill="white"/>
<path d="M14.7656 48.2222H17.4547C18.3609 48.2222 19.0953 47.4877 19.0953 46.5815C19.0953 45.6754 18.3609 44.9409 17.4547 44.9409H14.7656C13.8594 44.9409 13.125 45.6754 13.125 46.5815C13.125 47.4877 13.8594 48.2222 14.7656 48.2222Z" fill="white"/>
<path d="M40.3876 80.7188C39.9543 80.7188 39.5327 80.8943 39.2276 81.1994C38.9206 81.5045 38.7469 81.9281 38.7469 82.3594C38.7469 82.7907 38.9206 83.2143 39.2276 83.5193C39.5327 83.8244 39.9543 84 40.3876 84C40.8189 84 41.2425 83.8244 41.5475 83.5193C41.8526 83.2143 42.0282 82.7907 42.0282 82.3594C42.0282 81.9281 41.8526 81.5045 41.5475 81.1994C41.2419 80.8943 40.8189 80.7188 40.3876 80.7188Z" fill="white"/>
</svg>
