<svg width="92" height="80" fill="none" xmlns="http://www.w3.org/2000/svg"><path d="M40.435 60.022H4.453A4.452 4.452 0 010 55.571V11.485a4.452 4.452 0 014.452-4.452h31.16a1.484 1.484 0 010 2.968H4.453a1.484 1.484 0 00-1.484 1.484V55.6a1.484 1.484 0 001.484 1.484h34.5V8.606a1.484 1.484 0 112.967 0v50.007a1.484 1.484 0 01-1.483 1.41zm47.113 0H51.565a1.484 1.484 0 01-1.484-1.484V8.606a1.484 1.484 0 011.484-1.484h35.983A4.452 4.452 0 0192 11.574V55.6a4.451 4.451 0 01-4.452 4.422zm-34.514-2.968h34.514a1.484 1.484 0 001.484-1.483V11.485A1.484 1.484 0 0087.548 10h-34.5v47.038l-.014.015z" fill="#fff"/><path d="M40.435 54.265H18.726a4.02 4.02 0 01-4.02-4.021v-3.057a1.484 1.484 0 00-1.485-1.484h-3.19a4.006 4.006 0 01-4.007-4.006V25.522a4.006 4.006 0 014.007-4.006h3.13a1.484 1.484 0 001.485-1.484v-3.205a4.021 4.021 0 014.021-4.021h21.768a1.484 1.484 0 011.484 1.484v38.49a1.484 1.484 0 01-1.484 1.484zM10.031 24.469a1.053 1.053 0 00-1.039 1.039v16.055a1.053 1.053 0 001.039 1.039h3.13a4.452 4.452 0 014.452 4.451v3.131a1.069 1.069 0 001.054 1.054h20.285V15.773H18.726a1.068 1.068 0 00-1.053 1.054v3.13a4.452 4.452 0 01-4.452 4.453h-3.19v.059zm63.228 29.796H51.565a1.484 1.484 0 01-1.484-1.484V14.29a1.484 1.484 0 011.484-1.484h21.694a4.036 4.036 0 014.036 4.021v3.13a1.484 1.484 0 001.484 1.485h3.13a4.021 4.021 0 014.022 4.006v16.115a4.021 4.021 0 01-4.021 4.006h-3.087a1.484 1.484 0 00-1.484 1.484v3.131a4.035 4.035 0 01-4.08 4.081zm-20.21-2.968h20.21a1.068 1.068 0 001.068-1.053v-3.057a4.452 4.452 0 014.452-4.452h3.13a1.053 1.053 0 001.054-1.038V25.522a1.054 1.054 0 00-1.053-1.038h-3.087a4.452 4.452 0 01-4.451-4.452v-3.205a1.068 1.068 0 00-1.069-1.054H53.048v35.524z" fill="#fff"/><path d="M40.435 45.555a1.5 1.5 0 01-.682-.163 13.355 13.355 0 010-23.742 1.483 1.483 0 012.166 1.32v21.101a1.484 1.484 0 01-1.483 1.484zm-1.483-19.72a10.388 10.388 0 000 15.402V25.834zm12.613 19.72a1.484 1.484 0 01-1.484-1.484V23.015a1.485 1.485 0 012.166-1.32 13.354 13.354 0 010 23.741 1.484 1.484 0 01-.682.119zm1.483-19.72v15.417a10.386 10.386 0 000-15.403v-.015zm-35.524 11.93a4.229 4.229 0 110-8.458 4.229 4.229 0 010 8.458zm0-5.49a1.262 1.262 0 101.262 1.26 1.261 1.261 0 00-1.262-1.186v-.075zm56.951 5.489a4.229 4.229 0 11-.118-8.457 4.229 4.229 0 01.118 8.457zm0-5.49a1.26 1.26 0 101.262 1.261 1.262 1.262 0 00-1.261-1.187v-.074zM58.613 10.001h-7.048a1.484 1.484 0 01-1.484-1.484V5.001a5.015 5.015 0 0110.016 0v3.516a1.484 1.484 0 01-1.484 1.484zm-5.565-2.968h4.081V5.001a2.048 2.048 0 00-2.048-2.033 2.018 2.018 0 00-2.033 2.047v2.018z" fill="#fff"/><path d="M46 79.55a1.483 1.483 0 01-1.053-.43L34.47 68.644a1.484 1.484 0 011.054-2.538h3.487V5.772A5.772 5.772 0 0144.783 0H55.17a1.484 1.484 0 110 2.968 2.018 2.018 0 00-2.033 2.047v61.15h3.502a1.484 1.484 0 011.054 2.538l-3.858 3.71a1.484 1.484 0 01-2.092-2.092l1.231-1.232a2.967 2.967 0 01-2.893-2.968V5.015a5.002 5.002 0 01.37-2.062h-5.787a2.805 2.805 0 00-2.804 2.804v60.394a2.968 2.968 0 01-2.82 2.968l7.94 7.938A1.484 1.484 0 0146 79.55z" fill="#fff"/><path d="M46 79.55a1.484 1.484 0 01-1.053-2.537l4.02-3.992a1.484 1.484 0 012.093 2.092l-3.992 3.992A1.485 1.485 0 0146 79.55z" fill="#fff"/></svg>