<svg width="79" height="80" fill="none" xmlns="http://www.w3.org/2000/svg"><path d="M78.628 36.62c-.094-1.357-.444-2.715-1.275-3.88l-6.632-9.479c-1.278-1.826-3.345-2.916-5.527-2.916h-51.77c-2.183 0-4.25 1.09-5.527 2.916l-6.632 9.48c-1.86 2.696-1.657 6.446.533 8.9l32.516 36.133c2.56 2.966 7.43 2.97 9.99 0L76.82 41.64c1.276-1.398 1.807-3.216 1.808-5.02zm-10.13-11.804c.233.429 7.33 10.22 7.126 10.448H56.39l-6.658-12.207h15.463c1.298 0 2.533.657 3.304 1.76zm-43.486 13.16h28.593L39.31 74.909 25.012 37.977zm.305-2.712l6.659-12.207h14.666L53.3 35.264H25.317zM10.12 24.816c.771-1.102 2.007-1.759 3.305-1.759h15.463l-6.659 12.207H2.993c-.217-.205 6.909-10.042 7.126-10.448zM3.813 39.827a4.376 4.376 0 01-.975-1.85h19.266l14.94 38.594a3.856 3.856 0 01-.714-.611L3.813 39.827zM42.288 75.96a3.841 3.841 0 01-.714.61l14.94-38.593H75.78a4.376 4.376 0 01-.976 1.85L42.288 75.96zm-2.979-62.397c.75 0 1.356-.607 1.356-1.356V1.357a1.356 1.356 0 10-2.712 0v10.85c0 .75.606 1.356 1.356 1.356zm-13.166.959c1.257 1.247 3.169-.658 1.918-1.918L20.388 4.93a1.356 1.356 0 10-1.918 1.918l7.673 7.673zm25.372.398c.347 0 .694-.133.96-.398l7.672-7.673c1.247-1.256-.657-3.169-1.918-1.918l-7.673 7.673c-.864.805-.201 2.357.96 2.315z" fill="#fff"/></svg>