<svg width="81" height="81" fill="none" xmlns="http://www.w3.org/2000/svg"><path d="M16.77 49.834h47.46c.656 0 1.187-.532 1.187-1.187V1.188C65.417.53 64.887 0 64.231 0H16.77c-.656 0-1.187.531-1.187 1.187v47.46c0 .656.53 1.187 1.187 1.187zm1.186-47.461h17.798v8.306a1.186 1.186 0 102.373 0V2.373h7.12V23.73h-7.12v-8.305a1.186 1.186 0 10-2.373 0v9.492c0 .655.53 1.186 1.186 1.186h9.493c.655 0 1.186-.53 1.186-1.186V2.373h15.425v45.088H17.956V2.373zM7.12 68.977a1.187 1.187 0 11-2.375-.001 1.187 1.187 0 012.374 0zm69.134 0a1.187 1.187 0 11-2.374-.001 1.187 1.187 0 012.374 0z" fill="#fff"/><path d="M79.814 61.7H1.187C.53 61.7 0 62.23 0 62.885v16.928C0 80.469.53 81 1.187 81h78.627c.655 0 1.186-.531 1.186-1.186V62.886c0-.655-.53-1.187-1.186-1.187zm-68.977 2.372v4.905a1.186 1.186 0 102.373 0v-4.905h2.373v2.373a1.186 1.186 0 102.373 0v-2.373h2.373v2.373a1.186 1.186 0 102.373 0v-2.373h2.373v4.905a1.186 1.186 0 102.373 0v-4.905h2.373v2.373a1.186 1.186 0 102.373 0v-2.373h2.373v2.373a1.186 1.186 0 102.373 0v-2.373h2.373v4.905a1.186 1.186 0 102.373 0v-4.905h2.374v2.373a1.186 1.186 0 102.373 0v-2.373h2.373v2.373a1.186 1.186 0 102.373 0v-2.373h2.373v4.905a1.186 1.186 0 102.373 0v-4.905h2.373v2.373a1.186 1.186 0 102.373 0v-2.373h2.373v2.373a1.186 1.186 0 102.373 0v-2.373h2.373v4.905a1.187 1.187 0 002.373 0v-4.905h8.464v9.809H2.373v-9.809h8.464zM2.373 78.627v-2.373h76.254v2.373H2.373zM16.77 59.326c.655 0 1.186-.531 1.186-1.186v-1.187h45.088v1.187a1.187 1.187 0 102.373 0v-4.746a1.187 1.187 0 10-2.373 0v1.186H17.956v-1.186a1.187 1.187 0 10-2.373 0v4.746c0 .655.53 1.186 1.187 1.186zM68.977 47.46a1.187 1.187 0 100 2.374h4.746a1.186 1.186 0 100-2.373h-1.187V2.373h1.187a1.186 1.186 0 100-2.373h-4.746a1.186 1.186 0 100 2.373h1.186v45.088h-1.186z" fill="#fff"/></svg>