<svg width="80" height="80" fill="none" xmlns="http://www.w3.org/2000/svg"><path d="M79.633 63.725L62.385 46.477c.086-.067.175-.129.269-.184l4.597-2.446a5.092 5.092 0 002.196-6.762l-2.29-4.683a2.599 2.599 0 010-2.295l2.29-4.683a5.092 5.092 0 00-2.196-6.762l-4.602-2.443a2.594 2.594 0 01-1.348-1.856l-.9-5.135a5.092 5.092 0 00-5.75-4.18l-5.162.732a2.625 2.625 0 01-2.182-.709l-3.75-3.624a5.09 5.09 0 00-7.11 0L32.699 5.07a2.624 2.624 0 01-2.182.709l-5.163-.731a5.095 5.095 0 00-5.75 4.18l-.9 5.134a2.591 2.591 0 01-1.35 1.856l-4.596 2.443a5.092 5.092 0 00-2.196 6.762l2.29 4.683a2.597 2.597 0 010 2.295l-2.295 4.683a5.092 5.092 0 002.196 6.762l4.607 2.444c.092.055.182.117.267.183L.378 63.722a1.25 1.25 0 00.602 2.103L11.708 68.3l2.476 10.727a1.25 1.25 0 002.102.603l19.352-19.353.811.786a5.092 5.092 0 007.11 0l.81-.786 19.356 19.355a1.25 1.25 0 002.102-.602l2.476-10.728 10.728-2.476a1.25 1.25 0 00.602-2.102zM16.11 76.271l-2.144-9.291a1.25 1.25 0 00-.937-.938L3.736 63.9l15.087-15.087.784 4.47a5.097 5.097 0 005.75 4.179l5.162-.731a2.632 2.632 0 012.182.708l1.138 1.101-17.73 17.732zm22.079-17.004l-1.681-1.625-2.068-2a5.08 5.08 0 00-4.27-1.389l-5.164.732a2.598 2.598 0 01-2.938-2.136l-.901-5.135a5.097 5.097 0 00-.625-1.652 1.27 1.27 0 00-.099-.175 5.062 5.062 0 00-1.91-1.805l-4.605-2.443a2.6 2.6 0 01-1.125-3.455l2.29-4.68a5.092 5.092 0 000-4.492l-2.29-4.683a2.6 2.6 0 011.125-3.454l4.604-2.444a5.077 5.077 0 002.64-3.632l.9-5.135a2.592 2.592 0 012.934-2.14l5.164.732a5.087 5.087 0 004.27-1.389l3.749-3.624a2.6 2.6 0 013.632 0l3.75 3.624a5.086 5.086 0 004.268 1.39l5.164-.732a2.596 2.596 0 012.939 2.136l.9 5.134a5.08 5.08 0 002.64 3.632l4.605 2.444a2.6 2.6 0 011.125 3.454l-2.295 4.68a5.092 5.092 0 000 4.492l2.29 4.683a2.6 2.6 0 01-1.125 3.455l-4.605 2.443a5.076 5.076 0 00-2.64 3.633l-.9 5.134a2.598 2.598 0 01-2.934 2.14l-5.166-.733a5.088 5.088 0 00-4.27 1.389l-3.749 3.625a2.6 2.6 0 01-3.63 0zm28.792 6.775a1.25 1.25 0 00-.938.938L63.9 76.27 46.167 58.54l1.137-1.1a2.637 2.637 0 012.182-.71l5.164.732a5.096 5.096 0 005.75-4.18l.783-4.47L76.27 63.9l-9.291 2.143z" fill="#fff"/><path d="M58.752 31.256c0-4.49-1.61-8.83-4.54-12.23a1.249 1.249 0 10-1.892 1.624 16.23 16.23 0 11-3.28-2.907 1.252 1.252 0 001.764-.32 1.248 1.248 0 00-.371-1.755 18.748 18.748 0 108.319 15.588z" fill="#fff"/><path d="M47.222 25.396l-9.74 10.256-4.664-5.314a1.251 1.251 0 10-1.875 1.647l5.561 6.343a1.25 1.25 0 00.915.426h.025a1.249 1.249 0 00.906-.39l10.68-11.248a1.249 1.249 0 10-1.812-1.72h.004z" fill="#fff"/></svg>