<svg width="84" height="80" fill="none" xmlns="http://www.w3.org/2000/svg"><path d="M83.34 43.85a32.944 32.944 0 00-9.469-19.98 32.686 32.686 0 00-16.08-8.83v-4.135a5.543 5.543 0 004.2-5.37A5.54 5.54 0 0056.455 0h-11.72A5.54 5.54 0 0039.2 5.534a5.544 5.544 0 004.199 5.37v4.148a32.684 32.684 0 00-16.03 8.818 33.166 33.166 0 00-2.764 3.136 1.634 1.634 0 00-.123-.006h-11.6a1.628 1.628 0 000 3.256h9.509a32.63 32.63 0 00-2.889 6.256H1.787a1.628 1.628 0 000 3.256h16.796a33.099 33.099 0 00-.808 6.256h-7.198a1.628 1.628 0 000 3.256h7.25a33.046 33.046 0 001.017 6.257H8.298a1.628 1.628 0 000 3.255h11.585a32.69 32.69 0 007.487 11.579 32.941 32.941 0 0020 9.47c1.076.106 2.152.159 3.226.159 6.352 0 12.623-1.838 17.944-5.303a1.628 1.628 0 00-1.776-2.729c-11.648 7.585-27.247 5.945-37.092-3.9-11.55-11.55-11.55-30.345 0-41.896 11.551-11.55 30.346-11.55 41.897 0 9.831 9.832 11.48 25.418 3.92 37.06a1.628 1.628 0 102.73 1.773c4.04-6.22 5.858-13.734 5.12-21.155zM42.456 5.535a2.281 2.281 0 012.279-2.28h11.72a2.281 2.281 0 012.279 2.28 2.281 2.281 0 01-2.28 2.278H44.737a2.281 2.281 0 01-2.279-2.278zm4.199 8.958v-3.424h7.88v3.418a33.165 33.165 0 00-7.88.006z" fill="#fff"/><path d="M72.72 67.59a1.634 1.634 0 00-1.628 1.628 1.63 1.63 0 002.779 1.15 1.64 1.64 0 00.477-1.15 1.64 1.64 0 00-.477-1.15 1.644 1.644 0 00-1.15-.477zm-22.1-45.722c-13.923 0-25.25 11.328-25.25 25.252 0 13.923 11.327 25.251 25.25 25.251 13.924 0 25.252-11.328 25.252-25.251 0-13.924-11.328-25.252-25.251-25.252zm0 47.248c-12.128 0-21.995-9.868-21.995-21.996 0-12.129 9.867-21.996 21.996-21.996 12.128 0 21.995 9.867 21.995 21.996 0 12.128-9.867 21.995-21.995 21.995z" fill="#fff"/><path d="M60.917 34.522l-8.062 8.062a5.029 5.029 0 00-2.234-.522c-.802 0-1.56.189-2.235.522l-3.608-3.608a1.628 1.628 0 00-2.302 2.302l3.608 3.608a5.024 5.024 0 00-.522 2.234 5.064 5.064 0 005.059 5.058 5.064 5.064 0 005.058-5.058 5.03 5.03 0 00-.522-2.234l7.826-7.826.236-.236a1.628 1.628 0 00-2.302-2.302zm-10.296 14.4a1.805 1.805 0 01-1.803-1.802c0-.994.809-1.802 1.803-1.802.993 0 1.802.808 1.802 1.802s-.809 1.803-1.802 1.803zm17.404-3.41h-1.509a1.628 1.628 0 000 3.255h1.508a1.628 1.628 0 100-3.255zm-33.3-.039h-1.508a1.628 1.628 0 000 3.255h1.508a1.628 1.628 0 000-3.255zM50.64 32.851c.9 0 1.628-.728 1.628-1.627v-1.508a1.628 1.628 0 00-3.255 0v1.508c0 .899.729 1.627 1.627 1.627zm-.04 28.538c-.898 0-1.627.728-1.627 1.627v1.508a1.628 1.628 0 003.255 0v-1.508c0-.899-.729-1.627-1.627-1.627z" fill="#fff"/></svg>