<svg width="14" height="11" fill="none" xmlns="http://www.w3.org/2000/svg"><path d="M1.91.363C.856.363 0 1.205 0 2.238v6.25c0 1.034.857 1.875 1.91 1.875h10.18c1.053 0 1.91-.841 1.91-1.875v-6.25c0-1.033-.857-1.875-1.91-1.875H1.91zm0 .625h10.18c.712 0 1.274.552 1.274 1.25v6.25c0 .698-.563 1.25-1.273 1.25H1.909c-.71 0-1.273-.552-1.273-1.25v-6.25c0-.698.562-1.25 1.273-1.25z" fill="#4FB5FF"/><path d="M2.237 2.238a.323.323 0 00-.235.092.31.31 0 000 .442l3.818 3.75c.65.637 1.71.637 2.36 0l3.818-3.75a.31.31 0 000-.442.321.321 0 00-.45 0L7.73 6.08a1.04 1.04 0 01-1.46 0L2.452 2.33a.321.321 0 00-.215-.092z" fill="#4FB5FF"/></svg>