<svg width="12" height="12" fill="none" xmlns="http://www.w3.org/2000/svg"><path d="M11.452 8.707c-.498-.512-1.912-1.47-2.84-1.47-.214 0-.402.048-.555.147-.453.29-.815.515-.988.515-.096 0-.198-.085-.423-.28l-.038-.034c-.623-.542-.756-.682-.998-.934l-.062-.065c-.044-.044-.081-.085-.119-.122-.211-.219-.365-.375-.907-.989l-.024-.027c-.259-.293-.429-.484-.44-.624-.01-.136.11-.358.413-.77.368-.498.382-1.112.045-1.824-.27-.563-.71-1.102-1.098-1.575L3.384.614C3.05.204 2.66 0 2.228 0c-.48 0-.88.26-1.09.395-.017.01-.035.024-.052.035-.473.3-.818.712-.946 1.13-.194.631-.324 1.45.607 3.15.804 1.473 1.533 2.462 2.692 3.652 1.091 1.118 1.575 1.479 2.66 2.263C7.303 11.5 8.462 12 9.273 12c.753 0 1.346 0 2.192-1.02.886-1.07.518-1.724-.014-2.273zm-.392 1.905c-.682.825-1.074.825-1.783.825-.692 0-1.765-.477-2.87-1.271C5.351 9.402 4.88 9.05 3.82 7.964 2.7 6.814 1.993 5.857 1.216 4.435.394 2.932.486 2.274.654 1.732c.088-.29.354-.6.715-.825.017-.01.034-.024.055-.034.18-.116.48-.31.808-.31.272 0 .514.136.746.419l.034.04c.87 1.064 1.548 2.005 1.037 2.7-.362.488-.553.819-.522 1.16.027.33.249.58.583.954l.024.028c.549.62.705.784.923 1.005.038.038.075.079.12.123l.061.065c.252.262.392.405 1.033.968l.037.034c.273.239.474.413.767.413.304 0 .638-.191 1.272-.597a.511.511 0 01.273-.065c.74 0 2.014.846 2.46 1.306.41.416.614.73-.02 1.497z" fill="#4FB5FF"/></svg>