<svg width="10" height="13" fill="none" xmlns="http://www.w3.org/2000/svg"><path d="M5 0C2.243 0 0 2.154 0 4.802c0 .872.407 1.81.424 1.85.132.299.391.764.578 1.037l3.428 4.99c.14.204.348.321.57.321.222 0 .43-.117.57-.322L8.998 7.69c.188-.273.447-.738.578-1.038.017-.04.424-.977.424-1.849C10 2.154 7.757 0 5 0zm4.034 6.432a7.008 7.008 0 01-.527.946l-3.428 4.99c-.068.098-.09.098-.157 0l-3.429-4.99a7.01 7.01 0 01-.527-.946C.961 6.42.588 5.557.588 4.802.588 2.466 2.568.565 5 .565c2.433 0 4.412 1.9 4.412 4.237 0 .756-.374 1.621-.378 1.63z" fill="#4FB5FF"/><path d="M5 2.26c-1.46 0-2.647 1.14-2.647 2.542S3.54 7.345 5 7.345c1.46 0 2.647-1.141 2.647-2.543C7.647 3.4 6.46 2.26 5 2.26zm0 4.52c-1.135 0-2.059-.887-2.059-1.978 0-1.09.924-1.977 2.059-1.977 1.135 0 2.059.887 2.059 1.977S6.135 6.78 4.999 6.78z" fill="#4FB5FF"/></svg>