<svg width="128" height="29" fill="none" xmlns="http://www.w3.org/2000/svg"><path d="M.151 27.9c.909 0 1.363-.315 1.363-.944V3.16c0-.628-.454-.943-1.363-.943v-.944h8.702v.944c-.91 0-1.363.315-1.363.943v23.796c0 .63.454.944 1.363.944v.943H.151v-.944zm33.864-14.362c1.258 0 2.306-.095 3.145-.288.839-.192 1.502-.463 1.992-.813.489-.348.839-.76 1.048-1.231a3.76 3.76 0 00.315-1.546c0-.559-.105-1.075-.315-1.547-.21-.471-.559-.881-1.048-1.231-.49-.349-1.153-.62-1.992-.812-.838-.192-1.887-.289-3.145-.289h-9.07v7.757h9.07zm1.363-12.264c1.677 0 3.197.149 4.56.445 1.363.298 2.534.77 3.512 1.415a6.517 6.517 0 012.255 2.516c.524 1.031.786 2.298.786 3.8 0 2.306-.682 4.071-2.044 5.294-1.363 1.223-3.198 2.044-5.505 2.463l6.972 9.959c.244.35.533.559.865.629.332.07.638.105.918.105v.943h-9.803V27.9c.314 0 .585-.053.812-.158.227-.104.341-.244.341-.419 0-.174-.07-.375-.21-.603a15.84 15.84 0 00-.629-.917l-5.766-8.176h-7.496v9.33c0 .314.113.55.34.707.227.157.638.236 1.233.236v.943h-9.07V27.9c1.014 0 1.521-.315 1.521-.944V3.161c0-.63-.507-.944-1.52-.944v-.943h17.928zm36.117 4.507c-1.329 0-2.656.21-3.984.63a12.159 12.159 0 00-3.59 1.807 9.391 9.391 0 00-2.596 2.91c-.664 1.152-.996 2.463-.996 3.93 0 1.468.332 2.778.996 3.931a9.39 9.39 0 002.595 2.909 12.16 12.16 0 003.59 1.808c1.329.42 2.656.63 3.985.63 1.328 0 2.655-.21 3.984-.63a12.177 12.177 0 003.59-1.808 9.41 9.41 0 002.596-2.909c.663-1.153.996-2.463.996-3.93 0-1.468-.333-2.778-.996-3.932a9.411 9.411 0 00-2.595-2.909 12.174 12.174 0 00-3.59-1.808 13.162 13.162 0 00-3.985-.629zm0-4.822c1.921 0 3.88.289 5.871.865a18.252 18.252 0 015.452 2.594 14.058 14.058 0 014.037 4.377c1.048 1.765 1.572 3.852 1.572 6.263s-.524 4.5-1.572 6.264a14.048 14.048 0 01-4.037 4.376 16.89 16.89 0 01-5.452 2.516c-1.992.524-3.95.786-5.871.786-1.922 0-3.879-.262-5.87-.786a16.888 16.888 0 01-5.453-2.516 14.035 14.035 0 01-4.036-4.376c-1.049-1.764-1.573-3.853-1.573-6.264 0-2.41.524-4.498 1.573-6.263a14.045 14.045 0 014.036-4.377 18.25 18.25 0 015.452-2.594c1.992-.577 3.949-.865 5.871-.865zM96.657 27.9c.664 0 .996-.315.996-.944V3.16c0-.628-.332-.943-.996-.943v-.944h8.964v.944c-.28 0-.419.175-.419.524 0 .28.349.77 1.048 1.468l15.045 15.619V3.16c0-.628-.454-.943-1.363-.943v-.944h7.916v.944c-.665 0-.996.315-.996.943v23.796c0 .63.331.944.996.944v.943h-8.492v-.944c.453 0 .681-.157.681-.471 0-.244-.28-.646-.838-1.206L103.21 9.555v17.401c0 .63.401.944 1.206.944v.943h-7.759v-.944z" fill="#231F20"/></svg>