<svg width="14" height="14" fill="none" xmlns="http://www.w3.org/2000/svg"><path d="M13.36 10.158c-.58-.597-2.23-1.714-3.312-1.714-.25 0-.47.055-.648.17-.529.339-.95.601-1.153.601-.112 0-.231-.1-.493-.326l-.044-.04c-.728-.632-.883-.795-1.165-1.09l-.072-.075c-.052-.052-.095-.1-.14-.143-.246-.255-.425-.438-1.057-1.154l-.028-.031c-.302-.342-.5-.565-.513-.728-.012-.16.127-.418.481-.899.43-.58.446-1.297.052-2.128-.314-.656-.827-1.285-1.28-1.837l-.04-.048C3.558.239 3.105 0 2.6 0c-.561 0-1.026.302-1.273.461-.02.012-.04.028-.06.04-.552.35-.954.831-1.105 1.32-.227.736-.378 1.69.708 3.676.938 1.718 1.79 2.871 3.141 4.26 1.273 1.304 1.838 1.725 3.102 2.64C8.521 13.415 9.873 14 10.82 14c.878 0 1.57 0 2.557-1.19 1.034-1.248.604-2.012-.016-2.652zm-.457 2.223c-.795.963-1.252.963-2.08.963-.807 0-2.06-.557-3.348-1.484-1.233-.89-1.781-1.3-3.018-2.57-1.308-1.34-2.132-2.457-3.038-4.116C.46 3.42.568 2.653.762 2.02c.104-.338.414-.7.836-.962.02-.012.04-.028.063-.04.211-.135.56-.362.943-.362.318 0 .6.16.87.49l.04.047c1.014 1.241 1.806 2.339 1.21 3.15-.422.569-.645.955-.61 1.352.033.386.291.677.68 1.114l.029.032c.64.724.823.915 1.077 1.173.044.044.088.092.14.143l.071.076c.294.306.458.473 1.205 1.13l.044.04c.318.278.553.48.895.48.354 0 .743-.222 1.483-.695a.596.596 0 01.318-.076c.863 0 2.35.986 2.871 1.523.478.486.716.851-.024 1.746z" fill="#4FB5FF"/></svg>