<svg width="92" height="80" viewBox="0 0 92 80" fill="none" xmlns="http://www.w3.org/2000/svg">
<path d="M40.4355 60.0222H4.45161C3.27097 60.0222 2.13869 59.5532 1.30385 58.7184C0.469008 57.8836 0 56.7513 0 55.5706V11.4848C0 10.3042 0.469008 9.17189 1.30385 8.33705C2.13869 7.50221 3.27097 7.0332 4.45161 7.0332H35.6129C36.0064 7.0332 36.3839 7.18954 36.6622 7.46782C36.9404 7.7461 37.0968 8.12353 37.0968 8.51707C37.0968 8.91062 36.9404 9.28805 36.6622 9.56633C36.3839 9.84461 36.0064 10.0009 35.6129 10.0009H4.45161C4.05807 10.0009 3.68064 10.1573 3.40236 10.4356C3.12408 10.7138 2.96774 11.0913 2.96774 11.4848V55.6003C2.96774 55.9938 3.12408 56.3713 3.40236 56.6496C3.68064 56.9278 4.05807 57.0842 4.45161 57.0842H38.9516V8.60611C38.9516 8.21256 39.1079 7.83513 39.3862 7.55685C39.6645 7.27857 40.0419 7.12224 40.4355 7.12224C40.829 7.12224 41.2065 7.27857 41.4847 7.55685C41.763 7.83513 41.9194 8.21256 41.9194 8.60611V58.6126C41.9003 58.9931 41.7356 59.3517 41.4594 59.6142C41.1831 59.8766 40.8165 60.0227 40.4355 60.0222Z" fill="white"/>
<path d="M87.5484 60.0221H51.5646C51.171 60.0221 50.7936 59.8657 50.5153 59.5875C50.237 59.3092 50.0807 58.9318 50.0807 58.5382V8.60594C50.0807 8.21239 50.237 7.83497 50.5153 7.55669C50.7936 7.27841 51.171 7.12207 51.5646 7.12207H87.5484C88.7291 7.12207 89.8614 7.59108 90.6962 8.42592C91.531 9.26076 92 10.393 92 11.5737V55.6001C91.9922 56.7756 91.5197 57.9003 90.6857 58.7287C89.8518 59.5572 88.7239 60.0221 87.5484 60.0221ZM53.0336 57.0543H87.5484C87.942 57.0543 88.3194 56.898 88.5977 56.6197C88.876 56.3414 89.0323 55.964 89.0323 55.5705V11.4847C89.0323 11.0911 88.876 10.7137 88.5977 10.4354C88.3194 10.1571 87.942 10.0008 87.5484 10.0008H53.0484V57.0395L53.0336 57.0543Z" fill="white"/>
<path d="M40.4354 54.265H18.7263C17.6598 54.265 16.637 53.8414 15.8829 53.0872C15.1287 52.3331 14.7051 51.3102 14.7051 50.2437V47.187C14.7051 46.7934 14.5487 46.416 14.2704 46.1377C13.9922 45.8594 13.6147 45.7031 13.2212 45.7031H10.0309C8.96829 45.7031 7.94923 45.281 7.19788 44.5296C6.44652 43.7783 6.02441 42.7592 6.02441 41.6966V25.5224C6.02441 24.4599 6.44652 23.4408 7.19788 22.6895C7.94923 21.9381 8.96829 21.516 10.0309 21.516H13.1618C13.5554 21.516 13.9328 21.3597 14.2111 21.0814C14.4894 20.8031 14.6457 20.4257 14.6457 20.0321V16.827C14.6457 15.7604 15.0694 14.7376 15.8235 13.9835C16.5777 13.2293 17.6005 12.8057 18.667 12.8057H40.4354C40.8289 12.8057 41.2064 12.962 41.4846 13.2403C41.7629 13.5186 41.9193 13.896 41.9193 14.2895V52.7812C41.9193 53.1747 41.7629 53.5521 41.4846 53.8304C41.2064 54.1087 40.8289 54.265 40.4354 54.265ZM10.0309 24.4689C9.75658 24.4727 9.4946 24.5834 9.30063 24.7774C9.10666 24.9713 8.99599 25.2333 8.99216 25.5076V41.5631C8.99599 41.8374 9.10666 42.0993 9.30063 42.2933C9.4946 42.4873 9.75658 42.598 10.0309 42.6018H13.1618C14.3425 42.6018 15.4748 43.0708 16.3096 43.9056C17.1444 44.7405 17.6134 45.8728 17.6134 47.0534V50.1844C17.6173 50.4626 17.7295 50.7283 17.9263 50.9251C18.123 51.1219 18.3888 51.2341 18.667 51.2379H38.9515V15.7734H18.7263C18.4481 15.7772 18.1824 15.8895 17.9856 16.0862C17.7889 16.283 17.6766 16.5487 17.6728 16.827V19.9579C17.6728 21.1386 17.2038 22.2708 16.369 23.1057C15.5341 23.9405 14.4018 24.4095 13.2212 24.4095H10.0309V24.4689Z" fill="white"/>
<path d="M73.2588 54.265H51.5646C51.171 54.265 50.7936 54.1087 50.5153 53.8304C50.237 53.5521 50.0807 53.1747 50.0807 52.7812V14.2895C50.0807 13.896 50.237 13.5186 50.5153 13.2403C50.7936 12.962 51.171 12.8057 51.5646 12.8057H73.2588C74.3266 12.8057 75.351 13.2289 76.1075 13.9826C76.864 14.7363 77.291 15.7591 77.2949 16.827V19.9579C77.2949 20.3515 77.4512 20.7289 77.7295 21.0072C78.0078 21.2855 78.3852 21.4418 78.7788 21.4418H81.9097C82.9737 21.4418 83.9943 21.8634 84.748 22.6144C85.5017 23.3653 85.9271 24.3843 85.931 25.4482V41.5631C85.9271 42.627 85.5017 43.646 84.748 44.397C83.9943 45.1479 82.9737 45.5695 81.9097 45.5695H78.8233C78.4297 45.5695 78.0523 45.7259 77.774 46.0042C77.4957 46.2824 77.3394 46.6599 77.3394 47.0534V50.1844C77.3454 50.7219 77.2439 51.2552 77.0409 51.753C76.838 52.2508 76.5376 52.703 76.1575 53.0831C75.7774 53.4632 75.3252 53.7636 74.8274 53.9665C74.3296 54.1695 73.7963 54.271 73.2588 54.265ZM53.0484 51.2973H73.2588C73.5396 51.2973 73.8091 51.1868 74.009 50.9896C74.209 50.7925 74.3232 50.5245 74.3271 50.2437V47.187C74.3271 46.0063 74.7962 44.874 75.631 44.0392C76.4658 43.2044 77.5981 42.7353 78.7788 42.7353H81.9097C82.1866 42.7354 82.4523 42.6264 82.6495 42.432C82.8467 42.2376 82.9594 41.9735 82.9633 41.6966V25.5224C82.9594 25.2456 82.8467 24.9814 82.6495 24.787C82.4523 24.5927 82.1866 24.4837 81.9097 24.4837H78.8233C77.6426 24.4837 76.5103 24.0147 75.6755 23.1799C74.8407 22.345 74.3717 21.2128 74.3717 20.0321V16.827C74.3678 16.5462 74.2535 16.2782 74.0535 16.0811C73.8536 15.8839 73.5841 15.7734 73.3033 15.7734H53.0484V51.2973Z" fill="white"/>
<path d="M40.4355 45.5549C40.1982 45.5558 39.9641 45.4999 39.7529 45.3917C37.573 44.2682 35.7445 42.5661 34.468 40.4721C33.1915 38.3781 32.5162 35.9731 32.5162 33.5207C32.5162 31.0683 33.1915 28.6632 34.468 26.5693C35.7445 24.4753 37.573 22.7732 39.7529 21.6497C39.9793 21.5324 40.2322 21.4754 40.487 21.4843C40.7419 21.4931 40.9901 21.5675 41.2079 21.7003C41.4256 21.833 41.6055 22.0196 41.7301 22.2421C41.8547 22.4645 41.9199 22.7154 41.9194 22.9704V44.071C41.9194 44.4646 41.763 44.842 41.4848 45.1203C41.2065 45.3985 40.829 45.5549 40.4355 45.5549ZM38.9516 25.8342C37.8757 26.808 37.0158 27.9964 36.4272 29.3229C35.8387 30.6493 35.5346 32.0844 35.5346 33.5355C35.5346 34.9867 35.8387 36.4217 36.4272 37.7482C37.0158 39.0746 37.8757 40.263 38.9516 41.2368V25.8491V25.8342Z" fill="white"/>
<path d="M51.5646 45.5548C51.171 45.5548 50.7936 45.3985 50.5153 45.1202C50.237 44.8419 50.0807 44.4645 50.0807 44.0709V23.0148C50.0802 22.7598 50.1454 22.509 50.27 22.2865C50.3946 22.064 50.5745 21.8774 50.7922 21.7447C51.0099 21.612 51.2582 21.5376 51.513 21.5287C51.7679 21.5199 52.0207 21.5768 52.2471 21.6941C54.4271 22.8176 56.2555 24.5197 57.532 26.6137C58.8085 28.7077 59.4838 31.1127 59.4838 33.5651C59.4838 36.0175 58.8085 38.4226 57.532 40.5165C56.2555 42.6105 54.4271 44.3126 52.2471 45.4361C52.0322 45.529 51.7983 45.5696 51.5646 45.5548ZM53.0484 25.8341V41.2516C54.1244 40.2778 54.9843 39.0894 55.5728 37.7629C56.1614 36.4365 56.4655 35.0014 56.4655 33.5503C56.4655 32.0991 56.1614 30.6641 55.5728 29.3376C54.9843 28.0112 54.1244 26.8228 53.0484 25.849V25.8341Z" fill="white"/>
<path d="M17.5244 37.7647C16.688 37.7647 15.8704 37.5167 15.1749 37.052C14.4795 36.5873 13.9374 35.9268 13.6173 35.1541C13.2972 34.3813 13.2135 33.531 13.3767 32.7106C13.5398 31.8903 13.9426 31.1367 14.5341 30.5453C15.1255 29.9539 15.879 29.5511 16.6994 29.3879C17.5198 29.2247 18.3701 29.3085 19.1428 29.6286C19.9156 29.9486 20.5761 30.4907 21.0408 31.1862C21.5054 31.8816 21.7535 32.6992 21.7535 33.5357C21.7535 34.6573 21.3079 35.733 20.5148 36.5261C19.7217 37.3191 18.6461 37.7647 17.5244 37.7647ZM17.5244 32.2744C17.275 32.2744 17.0311 32.3484 16.8237 32.4869C16.6163 32.6255 16.4546 32.8225 16.3592 33.053C16.2637 33.2835 16.2387 33.5371 16.2874 33.7817C16.3361 34.0264 16.4562 34.2511 16.6326 34.4275C16.809 34.6039 17.0337 34.7241 17.2784 34.7727C17.523 34.8214 17.7766 34.7964 18.0071 34.701C18.2376 34.6055 18.4346 34.4438 18.5732 34.2364C18.7118 34.029 18.7857 33.7851 18.7857 33.5357C18.7668 33.2142 18.6256 32.9121 18.3911 32.6914C18.1566 32.4707 17.8465 32.348 17.5244 32.3486V32.2744Z" fill="white"/>
<path d="M74.4755 37.7643C73.636 37.7761 72.812 37.5377 72.1085 37.0796C71.4049 36.6214 70.8537 35.9643 70.5249 35.1918C70.1961 34.4192 70.1047 33.5664 70.2623 32.7417C70.42 31.9171 70.8195 31.158 71.41 30.5612C72.0005 29.9644 72.7552 29.5569 73.5781 29.3905C74.4011 29.2241 75.2549 29.3065 76.0308 29.627C76.8068 29.9476 77.4698 30.4918 77.9354 31.1905C78.4009 31.8891 78.648 32.7105 78.6452 33.5501C78.6414 34.6589 78.2023 35.7219 77.4224 36.5101C76.6425 37.2983 75.5842 37.7487 74.4755 37.7643ZM74.4755 32.274C74.226 32.274 73.9822 32.3479 73.7748 32.4865C73.5673 32.6251 73.4057 32.8221 73.3102 33.0526C73.2148 33.2831 73.1898 33.5367 73.2384 33.7813C73.2871 34.026 73.4072 34.2507 73.5836 34.4271C73.76 34.6035 73.9848 34.7236 74.2294 34.7723C74.4741 34.821 74.7277 34.796 74.9582 34.7005C75.1886 34.6051 75.3856 34.4434 75.5242 34.236C75.6628 34.0286 75.7368 33.7847 75.7368 33.5353C75.7178 33.2138 75.5766 32.9117 75.3421 32.691C75.1076 32.4703 74.7975 32.3476 74.4755 32.3482V32.274Z" fill="white"/>
<path d="M58.6129 10.0012H51.5646C51.171 10.0012 50.7936 9.8449 50.5153 9.56662C50.237 9.28834 50.0807 8.91091 50.0807 8.51737V5.00059C50.1504 3.71951 50.7085 2.51387 51.64 1.63167C52.5716 0.749479 53.8058 0.257812 55.0888 0.257812C56.3717 0.257812 57.6059 0.749479 58.5375 1.63167C59.469 2.51387 60.0271 3.71951 60.0968 5.00059V8.51737C60.0968 8.91091 59.9405 9.28834 59.6622 9.56662C59.3839 9.8449 59.0065 10.0012 58.6129 10.0012ZM53.0484 7.03349H57.1291V5.00059C57.1252 4.46007 56.9077 3.94302 56.5241 3.5622C56.1405 3.18138 55.6219 2.96767 55.0813 2.96769C54.8126 2.96568 54.5461 3.01739 54.2976 3.11977C54.049 3.22216 53.8235 3.37316 53.6341 3.56391C53.4447 3.75466 53.2954 3.98132 53.1948 4.23057C53.0942 4.47983 53.0445 4.74667 53.0484 5.01543V7.03349Z" fill="white"/>
<path d="M46 79.5503C45.8047 79.5515 45.6111 79.514 45.4303 79.4402C45.2495 79.3663 45.0851 79.2575 44.9465 79.12L34.4703 68.6439C34.2611 68.4363 34.1183 68.1712 34.0604 67.8822C34.0024 67.5932 34.0318 67.2935 34.1448 67.0213C34.2578 66.7491 34.4494 66.5167 34.695 66.3538C34.9406 66.1908 35.2291 66.1047 35.5239 66.1065H39.011V5.77226C39.011 4.24136 39.6191 2.77316 40.7016 1.69066C41.7841 0.608147 43.2523 0 44.7832 0H55.1703C55.5639 0 55.9413 0.156336 56.2196 0.434616C56.4979 0.712896 56.6542 1.09032 56.6542 1.48387C56.6542 1.87742 56.4979 2.25485 56.2196 2.53313C55.9413 2.81141 55.5639 2.96774 55.1703 2.96774C54.9015 2.96574 54.6351 3.01744 54.3866 3.11983C54.138 3.22221 53.9125 3.37321 53.7231 3.56396C53.5337 3.75471 53.3844 3.98137 53.2838 4.23063C53.1832 4.47989 53.1335 4.74673 53.1374 5.01548V66.1658H56.6394C56.9341 66.1641 57.2227 66.2502 57.4683 66.4131C57.7139 66.576 57.9054 66.8084 58.0184 67.0806C58.1314 67.3528 58.1608 67.6525 58.1029 67.9415C58.0449 68.2305 57.9022 68.4957 57.6929 68.7032L53.8348 72.4129C53.551 72.656 53.1858 72.783 52.8124 72.7686C52.4389 72.7542 52.0847 72.5994 51.8204 72.3351C51.5561 72.0708 51.4013 71.7166 51.3869 71.3431C51.3725 70.9697 51.4995 70.6045 51.7426 70.3206L52.9742 69.089C52.2 69.0697 51.4641 68.7485 50.9235 68.194C50.3829 67.6395 50.0804 66.8957 50.0806 66.1213V5.01548C50.0572 4.30947 50.1837 3.60651 50.4516 2.9529H44.6645C43.9207 2.9529 43.2074 3.24838 42.6814 3.77433C42.1555 4.30028 41.86 5.01362 41.86 5.75742V66.151C41.861 66.913 41.5687 67.6462 41.0439 68.1987C40.519 68.7512 39.8017 69.0806 39.0406 69.1187L46.9794 77.0574C47.1706 77.2622 47.3 77.517 47.3524 77.7922C47.4049 78.0675 47.3784 78.352 47.276 78.6128C47.1735 78.8736 46.9993 79.1 46.7735 79.266C46.5477 79.4319 46.2795 79.5305 46 79.5503Z" fill="white"/>
<path d="M46.0001 79.5499C45.7053 79.5516 45.4168 79.4655 45.1712 79.3026C44.9256 79.1397 44.734 78.9073 44.621 78.6351C44.508 78.3629 44.4786 78.0632 44.5366 77.7742C44.5945 77.4852 44.7373 77.22 44.9465 77.0125L48.9678 73.0209C49.2517 72.7778 49.6168 72.6507 49.9903 72.6652C50.3637 72.6796 50.718 72.8344 50.9823 73.0987C51.2465 73.3629 51.4013 73.7172 51.4158 74.0907C51.4302 74.4641 51.3032 74.8293 51.0601 75.1131L47.0685 79.1047C46.9293 79.2467 46.763 79.3593 46.5795 79.4358C46.3959 79.5123 46.1989 79.5511 46.0001 79.5499Z" fill="white"/>
</svg>
