<svg width="80" height="80" viewBox="0 0 80 80" fill="none" xmlns="http://www.w3.org/2000/svg">
<path d="M79.6333 63.725L62.3851 46.4768C62.4706 46.4098 62.5604 46.3484 62.6539 46.2931L67.2509 43.8471C68.4265 43.229 69.314 42.1761 69.7243 40.9129C70.1346 39.6497 70.035 38.2762 69.4469 37.0853L67.1571 32.4021C66.9814 32.0451 66.8899 31.6525 66.8899 31.2547C66.8899 30.8568 66.9814 30.4642 67.1571 30.1073L69.4469 25.424C70.035 24.2332 70.1346 22.8597 69.7243 21.5964C69.314 20.3332 68.4265 19.2803 67.2509 18.6622L62.6488 16.2187C62.297 16.0334 61.9925 15.7696 61.7588 15.4478C61.5252 15.1259 61.3687 14.7547 61.3015 14.3627L60.4003 9.22823C60.1761 7.91946 59.4496 6.75004 58.3756 5.96928C57.3015 5.18851 55.965 4.85816 54.6509 5.04866L49.489 5.77984C49.0953 5.83465 48.6943 5.79935 48.3163 5.67659C47.9383 5.55382 47.5931 5.34681 47.3067 5.07116L43.5571 1.44654C42.6063 0.519107 41.3307 0 40.0025 0C38.6743 0 37.3986 0.519107 36.4478 1.44654L32.6982 5.07116C32.4119 5.34681 32.0667 5.55382 31.6886 5.67659C31.3106 5.79935 30.9096 5.83465 30.516 5.77984L25.3528 5.04866C24.0388 4.85882 22.7026 5.18942 21.6287 5.97008C20.5548 6.75073 19.8281 7.91976 19.6034 9.22823L18.7022 14.3627C18.635 14.7548 18.4784 15.1262 18.2445 15.4481C18.0107 15.77 17.7058 16.0337 17.3536 16.2187L12.7566 18.6622C11.581 19.2803 10.6934 20.3332 10.2831 21.5964C9.87289 22.8597 9.97244 24.2332 10.5606 25.424L12.8503 30.1073C13.0261 30.4642 13.1175 30.8568 13.1175 31.2547C13.1175 31.6525 13.0261 32.0451 12.8503 32.4021L10.5556 37.0853C9.96744 38.2762 9.86789 39.6497 10.2781 40.9129C10.6884 42.1761 11.576 43.229 12.7516 43.8471L17.3586 46.2906C17.4515 46.3462 17.5408 46.4076 17.6261 46.4743L0.377877 63.7225C0.21995 63.8803 0.107141 64.0774 0.0511687 64.2934C-0.00480327 64.5095 -0.00189531 64.7366 0.0595904 64.9512C0.121076 65.1658 0.238896 65.3599 0.400809 65.5136C0.562722 65.6672 0.76282 65.7747 0.980314 65.8248L11.7079 68.3008L14.1839 79.0284C14.2341 79.2459 14.3415 79.446 14.4952 79.6079C14.6488 79.7698 14.843 79.8877 15.0575 79.9492C15.2721 80.0106 15.4992 80.0135 15.7153 79.9576C15.9313 79.9016 16.1285 79.7888 16.2862 79.6309L35.6379 60.2779L36.4491 61.0641C37.4 61.9912 38.6756 62.5101 40.0037 62.5101C41.3318 62.5101 42.6074 61.9912 43.5584 61.0641L44.3695 60.2779L63.725 79.6334C63.8827 79.7913 64.0798 79.9041 64.2959 79.9601C64.512 80.016 64.7391 80.0131 64.9537 79.9516C65.1682 79.8902 65.3624 79.7723 65.516 79.6104C65.6697 79.4485 65.7771 79.2484 65.8273 79.0309L68.3033 68.3033L79.0309 65.8273C79.2484 65.7772 79.4485 65.6697 79.6104 65.5161C79.7723 65.3624 79.8901 65.1683 79.9516 64.9537C80.0131 64.7391 80.016 64.512 79.96 64.296C79.9041 64.0799 79.7912 63.8828 79.6333 63.725ZM16.1087 76.2712L13.9652 66.9797C13.9126 66.7513 13.7968 66.5422 13.631 66.3765C13.4653 66.2107 13.2562 66.0949 13.0278 66.0423L3.73627 63.8988L18.8234 48.8116L19.6071 53.2811C19.8325 54.5893 20.5593 55.7579 21.633 56.5385C22.7068 57.319 24.0426 57.6499 25.3565 57.4607L30.5185 56.7295C30.9121 56.6753 31.3129 56.7108 31.6909 56.8336C32.0688 56.9563 32.4141 57.163 32.7007 57.4382L33.8394 58.5393L16.1087 76.2712ZM38.1877 59.2667L36.5066 57.6419L34.4393 55.6421C33.4908 54.7189 32.2195 54.2024 30.8959 54.2023C30.653 54.2027 30.4103 54.2198 30.1698 54.2535L25.0053 54.9847C24.3335 55.0834 23.6497 54.9151 23.1005 54.5159C22.5513 54.1166 22.1802 53.5182 22.0669 52.8487L21.1657 47.7142C21.0551 47.1312 20.8437 46.5721 20.5408 46.0619C20.5125 46.001 20.4795 45.9425 20.442 45.8869C19.9754 45.1277 19.3166 44.5051 18.5322 44.0821L13.9265 41.6386C13.3252 41.3234 12.871 40.7857 12.6609 40.1402C12.4507 39.4948 12.5012 38.7927 12.8016 38.1839L15.0913 33.5044C15.4348 32.8055 15.6135 32.0372 15.6135 31.2584C15.6135 30.4797 15.4348 29.7113 15.0913 29.0124L12.8016 24.3291C12.5012 23.7204 12.4507 23.0183 12.6609 22.3729C12.871 21.7274 13.3252 21.1897 13.9265 20.8745L18.531 18.431C19.22 18.0685 19.8165 17.5524 20.2742 16.9226C20.7319 16.2928 21.0387 15.5662 21.1707 14.7989L22.0719 9.66443C22.1832 8.99465 22.5528 8.39529 23.1014 7.99516C23.6499 7.59504 24.3335 7.4261 25.0053 7.52465L30.1685 8.25583C30.939 8.36645 31.7246 8.29878 32.4648 8.05804C33.205 7.8173 33.8801 7.4099 34.4381 6.86722L38.1877 3.2426C38.6733 2.76851 39.3251 2.50312 40.0037 2.50312C40.6824 2.50312 41.3342 2.76851 41.8198 3.2426L45.5694 6.86722C46.1271 7.41002 46.8019 7.8176 47.5419 8.05855C48.2819 8.29951 49.0673 8.36743 49.8377 8.25708L55.0022 7.52465C55.674 7.42559 56.3579 7.59374 56.9072 7.99305C57.4566 8.39237 57.8275 8.99104 57.9406 9.66068L58.8417 14.7951C58.9738 15.5623 59.2805 16.2887 59.7379 16.9185C60.1954 17.5483 60.7915 18.0645 61.4802 18.4273L66.086 20.8708C66.6872 21.1859 67.1414 21.7236 67.3516 22.3691C67.5618 23.0146 67.5113 23.7167 67.2109 24.3254L64.9161 29.0049C64.5726 29.7038 64.394 30.4722 64.394 31.2509C64.394 32.0297 64.5726 32.798 64.9161 33.4969L67.2059 38.1802C67.5063 38.7889 67.5568 39.491 67.3466 40.1365C67.1364 40.7819 66.6822 41.3197 66.081 41.6348L61.4765 44.0783C60.7874 44.4408 60.191 44.9569 59.7333 45.5867C59.2755 46.2165 58.9688 46.9432 58.8368 47.7105L57.9356 52.8449C57.8228 53.514 57.4528 54.1123 56.9046 54.5122C56.3565 54.912 55.6737 55.0816 55.0022 54.9847L49.8364 54.2523C49.066 54.1417 48.2804 54.2095 47.5402 54.4502C46.8 54.6909 46.1249 55.0983 45.5669 55.6409L41.8173 59.2655C41.3319 59.739 40.6808 60.0042 40.0027 60.0044C39.3247 60.0046 38.6733 59.7399 38.1877 59.2667ZM66.9796 66.0423C66.7512 66.0949 66.5422 66.2107 66.3764 66.3765C66.2107 66.5422 66.0949 66.7513 66.0422 66.9797L63.8987 76.2712L46.1668 58.5393L47.3042 57.4382C47.5911 57.1633 47.9364 56.9568 48.3142 56.8341C48.6921 56.7114 49.0928 56.6756 49.4865 56.7295L54.6497 57.4607C55.9636 57.6502 57.2997 57.3195 58.3734 56.5389C59.4472 55.7583 60.174 54.5894 60.3991 53.2811L61.1828 48.8116L76.2712 63.8988L66.9796 66.0423Z" fill="white"/>
<path d="M58.7517 31.2555C58.7524 26.7667 57.1415 22.4268 54.2122 19.0255C54.1096 18.8885 53.98 18.774 53.8313 18.6892C53.6827 18.6043 53.5182 18.5509 53.348 18.5322C53.1779 18.5136 53.0057 18.5301 52.8422 18.5807C52.6787 18.6313 52.5273 18.7149 52.3975 18.8264C52.2676 18.9379 52.1621 19.0749 52.0873 19.2289C52.0126 19.3828 51.9703 19.5505 51.963 19.7215C51.9557 19.8925 51.9836 20.0632 52.045 20.223C52.1064 20.3828 52.2 20.5282 52.3199 20.6503C55.002 23.7702 56.3991 27.7922 56.2286 31.9029C56.0581 36.0136 54.3328 39.9062 51.4016 42.7932C48.4704 45.6803 44.5521 47.3463 40.4393 47.4544C36.3265 47.5625 32.3261 46.1045 29.2473 43.3754C26.1686 40.6462 24.2412 36.8497 23.8551 32.7536C23.4689 28.6575 24.6529 24.5676 27.1674 21.3113C29.682 18.0549 33.3394 15.875 37.4 15.2126C41.4606 14.5502 45.6212 15.4547 49.0402 17.7431C49.1763 17.8403 49.3305 17.9092 49.4936 17.9458C49.6568 17.9823 49.8256 17.9857 49.9902 17.9558C50.1547 17.9259 50.3115 17.8633 50.4514 17.7717C50.5913 17.6801 50.7113 17.5614 50.8045 17.4225C50.8977 17.2837 50.9621 17.1276 50.9938 16.9634C51.0256 16.7993 51.0241 16.6304 50.9894 16.4668C50.9547 16.3033 50.8875 16.1483 50.7919 16.0112C50.6963 15.874 50.5741 15.7574 50.4326 15.6684C46.959 13.3432 42.808 12.2455 38.6391 12.5497C34.4702 12.854 30.5226 14.5427 27.4234 17.3475C24.3242 20.1524 22.2512 23.9125 21.5338 28.0304C20.8164 32.1484 21.4958 36.388 23.4639 40.0756C25.4321 43.7632 28.5761 46.6874 32.3966 48.3834C36.217 50.0795 40.4946 50.4501 44.5499 49.4365C48.6051 48.4229 52.2053 46.0832 54.7784 42.7891C57.3516 39.495 58.7501 35.4355 58.7517 31.2555Z" fill="white"/>
<path d="M47.2217 25.3956L37.4827 35.6521L32.8182 30.3376C32.7133 30.2037 32.5822 30.0925 32.4329 30.011C32.2836 29.9295 32.1193 29.8793 31.9499 29.8635C31.7805 29.8478 31.6097 29.8667 31.4479 29.9193C31.2861 29.9718 31.1368 30.0568 31.009 30.1691C30.8812 30.2814 30.7777 30.4186 30.7048 30.5722C30.6318 30.7259 30.5911 30.8929 30.5849 31.0629C30.5788 31.2329 30.6074 31.4023 30.669 31.5609C30.7307 31.7194 30.824 31.8637 30.9434 31.9849L36.504 38.328C36.6185 38.4588 36.759 38.5642 36.9166 38.6376C37.0741 38.711 37.2452 38.7507 37.419 38.7542H37.4439C37.6135 38.7541 37.7813 38.7195 37.9371 38.6524C38.0929 38.5854 38.2334 38.4874 38.3501 38.3643L49.0302 27.1155C49.1494 26.9977 49.2437 26.8572 49.3074 26.7023C49.3712 26.5474 49.4032 26.3813 49.4015 26.2138C49.3998 26.0463 49.3645 25.8808 49.2976 25.7272C49.2307 25.5737 49.1336 25.4351 49.0121 25.3198C48.8906 25.2045 48.7471 25.1148 48.5902 25.056C48.4334 24.9972 48.2663 24.9706 48.0989 24.9777C47.9316 24.9848 47.7673 25.0254 47.616 25.0972C47.4646 25.169 47.3293 25.2705 47.2179 25.3956H47.2217Z" fill="white"/>
</svg>
