<svg width="84" height="80" viewBox="0 0 84 80" fill="none" xmlns="http://www.w3.org/2000/svg">
<path d="M83.3394 43.8495C82.5911 36.323 79.2286 29.2274 73.871 23.8696C69.2924 19.2912 63.6883 16.349 57.7915 15.0408V10.9049C60.2 10.3057 61.9902 8.12566 61.9902 5.53442C61.9902 2.48267 59.5075 0 56.4558 0H44.7359C41.6841 0 39.2014 2.48267 39.2014 5.53442C39.2014 8.1255 40.9917 10.3056 43.3999 10.9049V15.0523C37.5213 16.3661 31.9357 19.3042 27.3702 23.8698C26.371 24.8689 25.4497 25.917 24.6064 27.0063C24.5655 27.0032 24.5247 27.0001 24.483 27.0001H12.8833C11.9845 27.0001 11.2556 27.7289 11.2556 28.6279C11.2556 29.5269 11.9845 30.2557 12.8833 30.2557H22.3915C21.198 32.2538 20.2356 34.3521 19.5031 36.5122H1.78732C0.888461 36.5122 0.159546 37.2409 0.159546 38.1399C0.159546 39.039 0.888461 39.7677 1.78732 39.7677H18.5833C18.1142 41.827 17.8449 43.9228 17.7754 46.0244H10.5773C9.67842 46.0244 8.9495 46.7531 8.9495 47.6521C8.9495 48.5512 9.67842 49.2799 10.5773 49.2799H17.8274C17.9647 51.3869 18.3035 53.4828 18.8437 55.5366H8.2984C7.39954 55.5366 6.67062 56.2653 6.67062 57.1643C6.67062 58.0634 7.39954 58.7921 8.2984 58.7921H19.8826C21.4794 63.0163 23.975 66.9756 27.3702 70.3708C32.733 75.7336 39.8359 79.0969 47.3702 79.8413C48.4455 79.9474 49.5217 80 50.5963 80C56.9482 80 63.2193 78.1618 68.5405 74.6966C69.2939 74.206 69.5069 73.1975 69.0163 72.4442C68.5257 71.6909 67.5173 71.4778 66.764 71.9684C55.1161 79.5533 39.5167 77.9134 29.6722 68.0688C18.1212 56.5178 18.1212 37.7231 29.6722 26.1719C41.223 14.6211 60.0177 14.6211 71.5688 26.1719C81.4004 36.0037 83.0493 51.5897 75.4895 63.2319C74.9998 63.9858 75.2142 64.9941 75.968 65.4836C76.7224 65.9732 77.7303 65.7588 78.2197 65.0048C82.2589 58.7843 84.0771 51.2713 83.3394 43.8495ZM42.457 5.53458C42.457 4.27794 43.4792 3.2557 44.7359 3.2557H56.4558C57.7124 3.2557 58.7347 4.27794 58.7347 5.53458C58.7347 6.79122 57.7124 7.81346 56.4558 7.81346H56.1638H45.0277H44.7359C43.4792 7.81346 42.457 6.79106 42.457 5.53458ZM46.6555 14.4927V11.069H54.536V14.4868C51.9192 14.1756 49.2718 14.1775 46.6555 14.4927Z" fill="white"/>
<path d="M72.7206 67.5908C72.2909 67.5908 71.8726 67.765 71.57 68.0677C71.2656 68.3705 71.0929 68.7905 71.0929 69.2186C71.0929 69.6467 71.2656 70.0666 71.57 70.3694C71.8726 70.6738 72.2911 70.8463 72.7206 70.8463C73.1487 70.8463 73.5671 70.6738 73.8715 70.3694C74.1742 70.0666 74.3484 69.6467 74.3484 69.2186C74.3484 68.7905 74.1744 68.3705 73.8715 68.0677C73.5671 67.765 73.1486 67.5908 72.7206 67.5908Z" fill="white"/>
<path d="M50.6206 21.8682C36.697 21.8682 25.3691 33.1958 25.3691 47.1196C25.3691 61.0434 36.697 72.371 50.6206 72.371C64.5442 72.371 75.872 61.0434 75.872 47.1196C75.872 33.1958 64.5442 21.8682 50.6206 21.8682ZM50.6206 69.1155C38.4919 69.1155 28.6247 59.2481 28.6247 47.1196C28.6247 34.9911 38.4919 25.1237 50.6206 25.1237C62.7492 25.1237 72.6165 34.9911 72.6165 47.1196C72.6165 59.2481 62.7492 69.1155 50.6206 69.1155Z" fill="white"/>
<path d="M60.9172 34.5217L52.8549 42.5838C52.1806 42.2505 51.4223 42.0621 50.6206 42.0621C49.8187 42.0621 49.0605 42.2505 48.3863 42.5838L44.778 38.9756C44.1422 38.3399 43.1118 38.3399 42.4759 38.9756C41.8402 39.6112 41.8402 40.6419 42.4759 41.2776L46.0842 44.8858C45.7506 45.56 45.5625 46.3184 45.5625 47.1201C45.5625 49.9091 47.8314 52.1782 50.6206 52.1782C53.4098 52.1782 55.6787 49.9091 55.6787 47.1201C55.6787 46.3184 55.4904 45.56 55.157 44.8858L62.9827 37.0602L63.2192 36.8236C63.8548 36.188 63.8548 35.1573 63.2192 34.5217C62.5836 33.886 61.5532 33.886 60.9172 34.5217ZM50.6206 48.9229C49.6267 48.9229 48.818 48.1142 48.818 47.1203C48.818 46.1264 49.6267 45.3177 50.6206 45.3177C51.6145 45.3177 52.4232 46.1264 52.4232 47.1203C52.4232 48.1142 51.6145 48.9229 50.6206 48.9229Z" fill="white"/>
<path d="M68.0245 45.5117H66.5164C65.6176 45.5117 64.8887 46.2405 64.8887 47.1395C64.8887 48.0385 65.6176 48.7672 66.5164 48.7672H68.0245C68.9234 48.7672 69.6523 48.0385 69.6523 47.1395C69.6523 46.2405 68.9234 45.5117 68.0245 45.5117Z" fill="white"/>
<path d="M34.7246 45.4727H33.2166C32.3178 45.4727 31.5889 46.2014 31.5889 47.1004C31.5889 47.9994 32.3178 48.7281 33.2166 48.7281H34.7246C35.6234 48.7281 36.3523 47.9994 36.3523 47.1004C36.3523 46.2014 35.6234 45.4727 34.7246 45.4727Z" fill="white"/>
<path d="M50.6404 32.8513C51.5393 32.8513 52.2682 32.1226 52.2682 31.2236V29.7156C52.2682 28.8166 51.5393 28.0879 50.6404 28.0879C49.7416 28.0879 49.0127 28.8166 49.0127 29.7156V31.2236C49.0127 32.1226 49.7416 32.8513 50.6404 32.8513Z" fill="white"/>
<path d="M50.6006 61.3887C49.7018 61.3887 48.9729 62.1174 48.9729 63.0164V64.5244C48.9729 65.4234 49.7018 66.1521 50.6006 66.1521C51.4995 66.1521 52.2284 65.4234 52.2284 64.5244V63.0164C52.2284 62.1174 51.4995 61.3887 50.6006 61.3887Z" fill="white"/>
</svg>
