<svg width="79" height="80" viewBox="0 0 79 80" fill="none" xmlns="http://www.w3.org/2000/svg">
<path d="M78.6281 36.6203C78.5342 35.2625 78.1839 33.9054 77.3525 32.7409L70.7208 23.2613C69.4427 21.4348 67.3764 20.3447 65.1937 20.3447H13.4239C11.2411 20.3447 9.17493 21.4348 7.89676 23.2613L1.26502 32.7409C-0.595683 35.4368 -0.391696 39.1867 1.7975 41.6415L34.3141 77.7741C36.8741 80.7397 41.7435 80.7449 44.3035 77.7739C44.3035 77.7741 76.8202 41.6415 76.8202 41.6415C78.0964 40.2425 78.6274 38.4247 78.6281 36.6203ZM68.4983 24.8163C68.7307 25.2447 75.8278 35.0365 75.6243 35.264H56.3893L49.7311 23.0573H65.1937C66.4917 23.0573 67.7274 23.7143 68.4983 24.8163ZM25.0123 37.9766H53.6054L39.3088 74.9078L25.0123 37.9766ZM25.3173 35.264L31.9759 23.0573H46.6416L53.3002 35.264H25.3173ZM10.1193 24.8163C10.8902 23.7143 12.126 23.0573 13.4239 23.0573H28.8865L22.2283 35.264H2.99335C2.7758 35.059 9.9015 25.2224 10.1193 24.8163ZM3.81336 39.827C3.33079 39.29 3.01003 38.6505 2.83764 37.9766H22.1038L37.0434 76.5708C36.7873 76.3974 36.5451 76.1985 36.3301 75.9595L3.81336 39.827ZM42.2877 75.9595C42.0726 76.1986 41.8303 76.3974 41.5742 76.5708L56.514 37.9766H75.7802C75.6078 38.6505 75.287 39.29 74.8044 39.827L42.2877 75.9595Z" fill="white"/>
<path d="M39.3089 13.563C40.0586 13.563 40.6652 12.9563 40.6652 12.2067V1.3563C40.6652 0.606671 40.0586 0 39.3089 0C38.5593 0 37.9526 0.606671 37.9526 1.3563V12.2067C37.9526 12.9563 38.5593 13.563 39.3089 13.563Z" fill="white"/>
<path d="M26.1433 14.5218C27.4002 15.769 29.3117 13.8645 28.0611 12.6039L20.3883 4.93102C19.8585 4.40125 19.0003 4.40125 18.4704 4.93102C17.9405 5.46079 17.9406 6.31905 18.4704 6.84895L26.1433 14.5218Z" fill="white"/>
<path d="M51.5154 14.9191C51.8624 14.9191 52.2094 14.7865 52.4743 14.5217L60.1471 6.84883C61.3938 5.5929 59.4905 3.67998 58.2292 4.93103L50.5563 12.6039C49.6924 13.4088 50.3548 14.9607 51.5154 14.9191Z" fill="white"/>
</svg>
