<svg width="81" height="81" viewBox="0 0 81 81" fill="none" xmlns="http://www.w3.org/2000/svg">
<path d="M16.7695 49.834H64.2305C64.8861 49.834 65.417 49.3025 65.417 48.6475V1.18652C65.417 0.531464 64.8861 0 64.2305 0H16.7695C16.1139 0 15.583 0.531464 15.583 1.18652V48.6475C15.583 49.3025 16.1139 49.834 16.7695 49.834ZM17.9561 2.37305H35.7539V10.6787C35.7539 11.3338 36.2848 11.8652 36.9404 11.8652C37.5961 11.8652 38.127 11.3338 38.127 10.6787V2.37305H45.2461V23.7305H38.127V15.4248C38.127 14.7697 37.5961 14.2383 36.9404 14.2383C36.2848 14.2383 35.7539 14.7697 35.7539 15.4248V24.917C35.7539 25.5721 36.2848 26.1035 36.9404 26.1035H46.4326C47.0883 26.1035 47.6191 25.5721 47.6191 24.917V2.37305H63.0439V47.4609H17.9561V2.37305Z" fill="white"/>
<path d="M7.11914 68.9766C7.11914 69.6316 6.58768 70.1631 5.93262 70.1631C5.27756 70.1631 4.74609 69.6316 4.74609 68.9766C4.74609 68.3215 5.27756 67.79 5.93262 67.79C6.58768 67.79 7.11914 68.3215 7.11914 68.9766Z" fill="white"/>
<path d="M76.2539 68.9766C76.2539 69.6316 75.7224 70.1631 75.0674 70.1631C74.4123 70.1631 73.8809 69.6316 73.8809 68.9766C73.8809 68.3215 74.4123 67.79 75.0674 67.79C75.7224 67.79 76.2539 68.3215 76.2539 68.9766Z" fill="white"/>
<path d="M79.8135 61.6992H1.18652C0.530846 61.6992 0 62.2307 0 62.8857V79.8135C0 80.4685 0.530846 81 1.18652 81H79.8135C80.4692 81 81 80.4685 81 79.8135V62.8857C81 62.2307 80.4692 61.6992 79.8135 61.6992ZM10.8369 64.0723V68.9766C10.8369 69.6316 11.3678 70.1631 12.0234 70.1631C12.6791 70.1631 13.21 69.6316 13.21 68.9766V64.0723H15.583V66.4453C15.583 67.1004 16.1139 67.6318 16.7695 67.6318C17.4252 67.6318 17.9561 67.1004 17.9561 66.4453V64.0723H20.3291V66.4453C20.3291 67.1004 20.8599 67.6318 21.5156 67.6318C22.1713 67.6318 22.7021 67.1004 22.7021 66.4453V64.0723H25.0752V68.9766C25.0752 69.6316 25.606 70.1631 26.2617 70.1631C26.9174 70.1631 27.4482 69.6316 27.4482 68.9766V64.0723H29.8213V66.4453C29.8213 67.1004 30.3521 67.6318 31.0078 67.6318C31.6635 67.6318 32.1943 67.1004 32.1943 66.4453V64.0723H34.5674V66.4453C34.5674 67.1004 35.0982 67.6318 35.7539 67.6318C36.4096 67.6318 36.9404 67.1004 36.9404 66.4453V64.0723H39.3135V68.9766C39.3135 69.6316 39.8443 70.1631 40.5 70.1631C41.1557 70.1631 41.6865 69.6316 41.6865 68.9766V64.0723H44.0596V66.4453C44.0596 67.1004 44.5904 67.6318 45.2461 67.6318C45.9018 67.6318 46.4326 67.1004 46.4326 66.4453V64.0723H48.8057V66.4453C48.8057 67.1004 49.3365 67.6318 49.9922 67.6318C50.6479 67.6318 51.1787 67.1004 51.1787 66.4453V64.0723H53.5518V68.9766C53.5518 69.6316 54.0826 70.1631 54.7383 70.1631C55.394 70.1631 55.9248 69.6316 55.9248 68.9766V64.0723H58.2979V66.4453C58.2979 67.1004 58.8287 67.6318 59.4844 67.6318C60.1401 67.6318 60.6709 67.1004 60.6709 66.4453V64.0723H63.0439V66.4453C63.0439 67.1004 63.5748 67.6318 64.2305 67.6318C64.8861 67.6318 65.417 67.1004 65.417 66.4453V64.0723H67.79V68.9766C67.79 69.6316 68.3209 70.1631 68.9766 70.1631C69.6322 70.1631 70.1631 69.6316 70.1631 68.9766V64.0723H78.627V73.8809H2.37305V64.0723H10.8369ZM2.37305 78.627V76.2539H78.627V78.627H2.37305Z" fill="white"/>
<path d="M16.7695 59.3262C17.4252 59.3262 17.9561 58.7947 17.9561 58.1396V56.9531H63.0439V58.1396C63.0439 58.7947 63.5748 59.3262 64.2305 59.3262C64.8861 59.3262 65.417 58.7947 65.417 58.1396V53.3936C65.417 52.7385 64.8861 52.207 64.2305 52.207C63.5748 52.207 63.0439 52.7385 63.0439 53.3936V54.5801H17.9561V53.3936C17.9561 52.7385 17.4252 52.207 16.7695 52.207C16.1139 52.207 15.583 52.7385 15.583 53.3936V58.1396C15.583 58.7947 16.1139 59.3262 16.7695 59.3262Z" fill="white"/>
<path d="M68.9766 47.4609C68.3209 47.4609 67.79 47.9924 67.79 48.6475C67.79 49.3025 68.3209 49.834 68.9766 49.834H73.7227C74.3783 49.834 74.9092 49.3025 74.9092 48.6475C74.9092 47.9924 74.3783 47.4609 73.7227 47.4609H72.5361V2.37305H73.7227C74.3783 2.37305 74.9092 1.84158 74.9092 1.18652C74.9092 0.531464 74.3783 0 73.7227 0H68.9766C68.3209 0 67.79 0.531464 67.79 1.18652C67.79 1.84158 68.3209 2.37305 68.9766 2.37305H70.1631V47.4609H68.9766Z" fill="white"/>
</svg>
