<svg width="12" height="12" viewBox="0 0 12 12" fill="none" xmlns="http://www.w3.org/2000/svg">
<path d="M11.4521 8.70682C10.9544 8.19545 9.53986 7.2375 8.61271 7.2375C8.39797 7.2375 8.21049 7.28523 8.0571 7.38409C7.60375 7.67386 7.24244 7.89886 7.06859 7.89886C6.97315 7.89886 6.87089 7.81364 6.64592 7.61932L6.60843 7.58523C5.98465 7.04318 5.85171 6.90341 5.6097 6.65114L5.54834 6.58636C5.50403 6.54205 5.46653 6.50114 5.42904 6.46364C5.2177 6.24545 5.06431 6.08864 4.52234 5.475L4.49848 5.44773C4.23942 5.15455 4.06899 4.96364 4.05876 4.82386C4.04854 4.6875 4.16784 4.46591 4.47121 4.05341C4.83934 3.55568 4.85298 2.94205 4.51552 2.22955C4.24624 1.66705 3.80652 1.12841 3.41794 0.654546L3.38385 0.613636C3.04981 0.204545 2.66122 0 2.22832 0C1.7477 0 1.34889 0.259091 1.13756 0.395454C1.12051 0.405682 1.10347 0.419318 1.08643 0.429545C0.612627 0.729545 0.268354 1.14205 0.138825 1.56136C-0.0554672 2.19205 -0.184996 3.01023 0.745564 4.71136C1.55 6.18409 2.27945 7.17273 3.43839 8.3625C4.52916 9.48068 5.01318 9.84204 6.09713 10.6261C7.30379 11.4989 8.46273 12 9.27399 12C10.0273 12 10.6204 12 11.4657 10.9807C12.352 9.91023 11.9839 9.25568 11.4521 8.70682ZM11.0601 10.6125C10.3784 11.4375 9.98639 11.4375 9.2774 11.4375C8.58544 11.4375 7.51172 10.9602 6.40732 10.1659C5.35064 9.40227 4.88025 9.05114 3.82016 7.96364C2.69872 6.81477 1.99313 5.85682 1.21596 4.43523C0.394473 2.93182 0.486507 2.27386 0.65353 1.73182C0.742155 1.44205 1.00803 1.13182 1.36935 0.906818C1.38639 0.896591 1.40343 0.882955 1.42388 0.872727C1.60454 0.756818 1.9045 0.5625 2.23173 0.5625C2.50442 0.5625 2.74644 0.698864 2.97822 0.981818L3.01231 1.02273C3.88151 2.08636 4.55983 3.02727 4.04854 3.72273C3.68722 4.21023 3.49634 4.54091 3.52702 4.88182C3.55428 5.2125 3.77585 5.46136 4.10989 5.83636L4.13375 5.86364C4.68255 6.48409 4.83934 6.64773 5.0575 6.86932C5.09499 6.90682 5.13249 6.94773 5.1768 6.99205L5.23815 7.05682C5.49039 7.31932 5.63015 7.4625 6.27097 8.025L6.30847 8.05909C6.58116 8.29773 6.78227 8.47159 7.07541 8.47159C7.37878 8.47159 7.71283 8.28068 8.34684 7.875C8.4116 7.83409 8.50363 7.81023 8.61953 7.81023C9.3592 7.81023 10.634 8.65568 11.0806 9.11591C11.4896 9.53182 11.6941 9.84545 11.0601 10.6125Z" fill="#4FB5FF"/>
</svg>
