<svg width="14" height="11" viewBox="0 0 14 11" fill="none" xmlns="http://www.w3.org/2000/svg">
<path d="M1.90909 0.363281C0.856959 0.363281 0 1.20494 0 2.23828V8.48828C0 9.52162 0.856959 10.3633 1.90909 10.3633H12.0909C13.143 10.3633 14 9.52162 14 8.48828V2.23828C14 1.20494 13.143 0.363281 12.0909 0.363281H1.90909ZM1.90909 0.988281H12.0909C12.8015 0.988281 13.3636 1.54037 13.3636 2.23828V8.48828C13.3636 9.18619 12.8015 9.73828 12.0909 9.73828H1.90909C1.1985 9.73828 0.636364 9.18619 0.636364 8.48828V2.23828C0.636364 1.54037 1.1985 0.988281 1.90909 0.988281Z" fill="#4FB5FF"/>
<path d="M2.23652 2.23841C2.19318 2.23719 2.15004 2.24468 2.10975 2.26042C2.06946 2.27616 2.03287 2.29983 2.00223 2.32996C1.94257 2.38857 1.90906 2.46804 1.90906 2.55092C1.90906 2.63379 1.94257 2.71327 2.00223 2.77187L5.82041 6.52187C6.46919 7.15906 7.53068 7.15906 8.17945 6.52187L11.9976 2.77187C12.0573 2.71327 12.0908 2.63379 12.0908 2.55092C12.0908 2.46804 12.0573 2.38857 11.9976 2.32996C11.938 2.27137 11.857 2.23845 11.7727 2.23845C11.6883 2.23845 11.6074 2.27137 11.5477 2.32996L7.72951 6.07996C7.32392 6.47831 6.67594 6.47831 6.27036 6.07996L2.45217 2.32996C2.39482 2.27355 2.31767 2.24079 2.23653 2.23841H2.23652Z" fill="#4FB5FF"/>
</svg>
