<svg width="10" height="13" viewBox="0 0 10 13" fill="none" xmlns="http://www.w3.org/2000/svg">
<path d="M5 0C2.24294 0 0 2.15424 0 4.80226C0 5.67401 0.407059 6.61158 0.424118 6.65113C0.555588 6.95085 0.815 7.41638 1.00206 7.68927L4.43029 12.6782C4.57059 12.8828 4.77824 13 5 13C5.22177 13 5.42941 12.8828 5.56971 12.6785L8.99824 7.68927C9.18559 7.41638 9.44471 6.95085 9.57618 6.65113C9.59324 6.61186 10 5.67429 10 4.80226C10 2.15424 7.75706 0 5 0ZM9.03382 6.43192C8.91647 6.70056 8.675 7.13362 8.50706 7.37825L5.07853 12.3675C5.01088 12.4661 4.98941 12.4661 4.92176 12.3675L1.49324 7.37825C1.32529 7.13362 1.08382 6.70028 0.96647 6.43164C0.96147 6.42006 0.588235 5.55706 0.588235 4.80226C0.588235 2.46582 2.56735 0.564972 5 0.564972C7.43265 0.564972 9.41176 2.46582 9.41176 4.80226C9.41176 5.55819 9.03765 6.42345 9.03382 6.43192Z" fill="#4FB5FF"/>
<path d="M4.99984 2.25977C3.54014 2.25977 2.35278 3.40044 2.35278 4.80214C2.35278 6.20383 3.54014 7.34451 4.99984 7.34451C6.45955 7.34451 7.6469 6.20383 7.6469 4.80214C7.6469 3.40044 6.45955 2.25977 4.99984 2.25977ZM4.99984 6.77954C3.86484 6.77954 2.94102 5.89253 2.94102 4.80214C2.94102 3.71174 3.86484 2.82474 4.99984 2.82474C6.13484 2.82474 7.05867 3.71174 7.05867 4.80214C7.05867 5.89253 6.13484 6.77954 4.99984 6.77954Z" fill="#4FB5FF"/>
</svg>
