<svg width="128" height="29" viewBox="0 0 128 29" fill="none" xmlns="http://www.w3.org/2000/svg">
<path d="M0.151123 27.8995C1.0595 27.8995 1.51419 27.5852 1.51419 26.956V3.16042C1.51419 2.53153 1.0595 2.21692 0.151123 2.21692V1.27343H8.85309V2.21692C7.94371 2.21692 7.49002 2.53153 7.49002 3.16042V26.956C7.49002 27.5852 7.94371 27.8995 8.85309 27.8995V28.843H0.151123V27.8995Z" fill="#231F20"/>
<path d="M34.0148 13.5383C35.2727 13.5383 36.3215 13.4426 37.16 13.25C37.9989 13.0584 38.6621 12.7874 39.1521 12.4375C39.641 12.0887 39.9906 11.6776 40.2005 11.206C40.4104 10.7341 40.5148 10.2193 40.5148 9.6596C40.5148 9.10121 40.4104 8.58507 40.2005 8.11348C39.9906 7.6419 39.641 7.23151 39.1521 6.88165C38.6621 6.53312 37.9989 6.26208 37.16 6.06952C36.3215 5.87763 35.2727 5.78118 34.0148 5.78118H24.9459V13.5383H34.0148ZM35.3779 1.27355C37.0553 1.27355 38.5753 1.42254 39.9384 1.71919C41.3015 2.0165 42.4716 2.48809 43.4505 3.13427C44.4287 3.78145 45.1805 4.61985 45.7047 5.65015C46.2289 6.68111 46.491 7.9482 46.491 9.45008C46.491 11.7564 45.8094 13.521 44.4467 14.7439C43.0836 15.9674 41.2489 16.7879 38.9422 17.2072L45.9142 27.1657C46.1584 27.5155 46.4467 27.725 46.7794 27.7949C47.111 27.8651 47.4167 27.8996 47.6967 27.8996V28.8431H37.8941V27.8996C38.2084 27.8996 38.4789 27.8471 38.7064 27.7423C38.9335 27.6376 39.0473 27.4982 39.0473 27.323C39.0473 27.1487 38.9768 26.9478 38.8374 26.7204C38.6974 26.4935 38.4878 26.1879 38.2084 25.8028L32.4422 17.6266H24.9459V26.9561C24.9459 27.2708 25.059 27.5062 25.2865 27.6639C25.5134 27.8208 25.9238 27.8996 26.5186 27.8996V28.8431H17.4497V27.8996C18.4629 27.8996 18.9701 27.585 18.9701 26.9561V3.16054C18.9701 2.53166 18.4629 2.21705 17.4497 2.21705V1.27355H35.3779Z" fill="#231F20"/>
<path d="M71.495 5.78107C70.1665 5.78107 68.839 5.99059 67.5108 6.41029C66.1824 6.82933 64.9859 7.43227 63.9202 8.21847C62.8538 9.00466 61.9887 9.9741 61.3255 11.1274C60.6612 12.2805 60.3293 13.5908 60.3293 15.0584C60.3293 16.526 60.6612 17.8363 61.3255 18.9894C61.9887 20.1424 62.8538 21.1121 63.9202 21.898C64.9859 22.6845 66.1824 23.2871 67.5108 23.7065C68.839 24.1259 70.1665 24.3354 71.495 24.3354C72.8228 24.3354 74.1502 24.1259 75.4791 23.7065C76.8069 23.2871 78.0033 22.6845 79.0697 21.898C80.1357 21.1121 81.0005 20.1424 81.6648 18.9894C82.328 17.8363 82.6606 16.526 82.6606 15.0584C82.6606 13.5908 82.328 12.2805 81.6648 11.1274C81.0005 9.9741 80.1357 9.00466 79.0697 8.21847C78.0033 7.43227 76.8069 6.82933 75.4791 6.41029C74.1502 5.99059 72.8228 5.78107 71.495 5.78107ZM71.495 0.959164C73.4165 0.959164 75.3743 1.2475 77.366 1.82384C79.3584 2.40051 81.1752 3.26553 82.818 4.41821C84.4601 5.57156 85.8059 7.03086 86.8546 8.79481C87.9027 10.5597 88.4269 12.6473 88.4269 15.0584C88.4269 17.4692 87.9027 19.5577 86.8546 21.3217C85.8059 23.0866 84.4601 24.5449 82.818 25.6983C81.1752 26.8513 79.3584 27.6897 77.366 28.2141C75.3743 28.7379 73.4165 29 71.495 29C69.5727 29 67.616 28.7379 65.6242 28.2141C63.6318 27.6897 61.8144 26.8513 60.1719 25.6983C58.5291 24.5449 57.184 23.0866 56.1356 21.3217C55.0872 19.5577 54.563 17.4692 54.563 15.0584C54.563 12.6473 55.0872 10.5597 56.1356 8.79481C57.184 7.03086 58.5291 5.57156 60.1719 4.41821C61.8144 3.26553 63.6318 2.40051 65.6242 1.82384C67.616 1.2475 69.5727 0.959164 71.495 0.959164Z" fill="#231F20"/>
<path d="M96.6573 27.8995C97.3206 27.8995 97.6532 27.5852 97.6532 26.956V3.16042C97.6532 2.53153 97.3206 2.21692 96.6573 2.21692V1.27343H105.621V2.21692C105.341 2.21692 105.202 2.39219 105.202 2.74138C105.202 3.0214 105.551 3.51028 106.25 4.20867L121.295 19.8278V3.16042C121.295 2.53153 120.841 2.21692 119.932 2.21692V1.27343H127.848V2.21692C127.183 2.21692 126.852 2.53153 126.852 3.16042V26.956C126.852 27.5852 127.183 27.8995 127.848 27.8995V28.843H119.356V27.8995C119.809 27.8995 120.037 27.7422 120.037 27.4279C120.037 27.1838 119.757 26.7818 119.199 26.2224L103.21 9.55504V26.956C103.21 27.5852 103.611 27.8995 104.416 27.8995V28.843H96.6573V27.8995Z" fill="#231F20"/>
</svg>
