<svg width="14" height="14" viewBox="0 0 14 14" fill="none" xmlns="http://www.w3.org/2000/svg">
<path d="M13.3608 10.158C12.7802 9.56136 11.1298 8.44375 10.0482 8.44375C9.79763 8.44375 9.5789 8.49943 9.39995 8.61477C8.87104 8.95284 8.44951 9.21534 8.24669 9.21534C8.13534 9.21534 8.01604 9.11591 7.75358 8.8892L7.70983 8.84943C6.98209 8.21705 6.82699 8.05398 6.54465 7.75966L6.47306 7.68409C6.42137 7.63239 6.37762 7.58466 6.33388 7.54091C6.08732 7.28636 5.90837 7.10341 5.27606 6.3875L5.24822 6.35568C4.94599 6.01364 4.74715 5.79091 4.73522 5.62784C4.72329 5.46875 4.86248 5.21023 5.21641 4.72898C5.6459 4.1483 5.66181 3.43239 5.26811 2.60114C4.95395 1.94489 4.44094 1.31648 3.9876 0.763637L3.94783 0.715909C3.55811 0.238636 3.10476 0 2.59971 0C2.03899 0 1.57371 0.302273 1.32715 0.461364C1.30727 0.473295 1.28738 0.489204 1.2675 0.501136C0.714731 0.851136 0.313079 1.33239 0.161963 1.82159C-0.0647118 2.55739 -0.215828 3.51193 0.869824 5.49659C1.80834 7.21477 2.65936 8.36818 4.01146 9.75625C5.28402 11.0608 5.84871 11.4824 7.11332 12.3972C8.52109 13.4153 9.87318 14 10.8197 14C11.6985 14 12.3905 14 13.3767 12.8108C14.4107 11.5619 13.9812 10.7983 13.3608 10.158ZM12.9035 12.3812C12.1081 13.3437 11.6508 13.3438 10.8236 13.3438C10.0163 13.3438 8.76367 12.7869 7.4752 11.8602C6.24241 10.9693 5.69362 10.5597 4.45685 9.29091C3.1485 7.95057 2.32531 6.83295 1.41862 5.17443C0.460219 3.42045 0.567591 2.65284 0.762452 2.02045C0.865847 1.68239 1.17603 1.32045 1.59757 1.05795C1.61745 1.04602 1.63734 1.03011 1.6612 1.01818C1.87196 0.882954 2.22192 0.65625 2.60369 0.65625C2.92183 0.65625 3.20418 0.815341 3.47459 1.14545L3.51436 1.19318C4.52843 2.43409 5.31981 3.53182 4.72329 4.34318C4.30176 4.91193 4.07906 5.29773 4.11485 5.69546C4.14667 6.08125 4.40515 6.37159 4.79488 6.80909L4.82271 6.84091C5.46297 7.56477 5.6459 7.75568 5.90041 8.0142C5.94416 8.05795 5.9879 8.10568 6.0396 8.15739L6.11118 8.23295C6.40546 8.5392 6.56851 8.70625 7.31613 9.3625L7.35988 9.40227C7.67802 9.68068 7.91265 9.88352 8.25465 9.88352C8.60858 9.88352 8.9983 9.6608 9.73797 9.1875C9.81353 9.13977 9.9209 9.11193 10.0561 9.11193C10.9191 9.11193 12.4064 10.0983 12.9273 10.6352C13.4045 11.1205 13.6431 11.4864 12.9035 12.3812Z" fill="#4FB5FF"/>
</svg>
