<svg width="8" height="16" viewBox="0 0 8 16" fill="none" xmlns="http://www.w3.org/2000/svg">
<path d="M0.168786 8.43906L7.02019 15.8191C7.24467 16.0607 7.6081 16.0603 7.8322 15.8178C8.05613 15.5753 8.05555 15.1826 7.83105 14.9407L1.38746 7.99997L7.83128 1.05925C8.05576 0.817373 8.05634 0.424843 7.83244 0.182343C7.7201 0.0607815 7.57292 -3.73363e-08 7.42575 -5.02027e-08C7.27895 -6.30361e-08 7.13236 0.0603751 7.02022 0.181093L0.168786 7.56091C0.0606701 7.6771 7.13788e-07 7.83522 6.99385e-07 7.99997C6.84982e-07 8.16472 0.0608437 8.32266 0.168786 8.43906Z" fill="#474747"/>
</svg>
