<svg width="84" height="84" fill="none" xmlns="http://www.w3.org/2000/svg"><path d="M80.226 17.797a7.494 7.494 0 00-5.727-.754 7.498 7.498 0 00-4.583 3.516l-4.947 8.57V4.922A4.927 4.927 0 0060.047 0H4.922A4.927 4.927 0 000 4.922v61.934c0 .435.173.852.48 1.16l15.505 15.503c.307.308.724.481 1.16.481h15.86a1.64 1.64 0 100-3.281h-14.22V70.123a4.927 4.927 0 00-4.922-4.922H3.281V4.921c0-.904.736-1.64 1.64-1.64h55.126c.905 0 1.64.736 1.64 1.64v29.891l-11.171 19.35a1.677 1.677 0 00-.313-.03H14.766a1.64 1.64 0 000 3.28h33.873l-2.275 3.942c-.123.212-.196.45-.216.696l-1.037 13.608a1.641 1.641 0 002.562 1.48l11.268-7.703c.202-.14.371-.322.494-.535l2.252-3.9v14.078c0 .905-.735 1.64-1.64 1.64H47.77a1.64 1.64 0 100 3.282h12.277a4.927 4.927 0 004.922-4.922V59.316l18.02-31.21c2.08-3.604.84-8.229-2.763-10.31zM13.863 68.483c.905 0 1.64.735 1.64 1.64v8.262l-9.901-9.902h8.261zm35.36-3.585l5.714 3.3-6.294 4.302.58-7.602zm8.191.941l-7.388-4.266 19.13-33.134 7.389 4.265-19.13 33.135zm22.733-39.374l-1.962 3.397-7.388-4.266 1.96-3.396a4.27 4.27 0 015.828-1.561 4.27 4.27 0 011.562 5.826z" fill="#fff"/><path d="M39.454 64.959a1.64 1.64 0 00-1.64-1.641H23.57a1.64 1.64 0 100 3.281h14.243a1.64 1.64 0 001.64-1.64zM50.203 44.94H25.094a1.64 1.64 0 100 3.282h25.11a1.64 1.64 0 100-3.281zm-35.437-5.903h35.437a1.64 1.64 0 100-3.282H14.766a1.64 1.64 0 100 3.282zm35.437-21.663H14.766a1.64 1.64 0 100 3.281h35.437a1.64 1.64 0 100-3.281zm0 9.191h-12.39a1.64 1.64 0 000 3.28h12.39a1.64 1.64 0 100-3.28zm-35.437 3.281H29.34a1.64 1.64 0 100-3.281H14.766a1.64 1.64 0 100 3.28zm0 18.376h2.689a1.64 1.64 0 100-3.281h-2.69a1.64 1.64 0 100 3.281zm25.622 32.497a1.65 1.65 0 00-1.16.48c-.307.305-.481.73-.481 1.16A1.645 1.645 0 0040.387 84c.432 0 .855-.176 1.16-.48.306-.306.481-.73.481-1.16a1.65 1.65 0 00-.48-1.16 1.654 1.654 0 00-1.16-.481z" fill="#fff"/></svg>