<svg width="143" height="143" viewBox="0 0 143 143" fill="none" xmlns="http://www.w3.org/2000/svg">
<path d="M61.4312 141.277C43.7751 138.73 27.7413 129.583 16.5618 115.682C5.38221 101.781 -0.111811 84.1581 1.18715 66.3665C2.48611 48.5749 10.4815 31.9372 23.5616 19.8071C36.6417 7.67699 53.8339 0.95648 71.6728 1.00021C89.5117 1.04394 106.671 7.84867 119.691 20.0427C132.712 32.2368 140.625 48.9135 141.837 66.7113C143.049 84.509 137.469 102.104 126.221 115.951C114.973 129.797 98.8949 138.865 81.2265 141.326" stroke="#4FB5FF" stroke-width="2"/>
<circle cx="71.5" cy="71.5" r="53.5" fill="#474747"/>
<path d="M90.6211 61.2358C91.1496 61.2358 91.5781 60.8074 91.5781 60.2788V49.8711C91.5781 48.288 90.2902 47 88.707 47H53.8711C52.288 47 51 48.288 51 49.8711V93.1289C51 94.712 52.288 96 53.8711 96H88.707C90.2902 96 91.5781 94.712 91.5781 93.1289V86.0783C91.5781 85.5497 91.1496 85.1212 90.6211 85.1212C90.0926 85.1212 89.6641 85.5497 89.6641 86.0783V93.1289C89.6641 93.6566 89.2347 94.0859 88.707 94.0859H53.8711C53.3434 94.0859 52.9141 93.6566 52.9141 93.1289V49.8711C52.9141 49.3434 53.3434 48.9141 53.8711 48.9141H88.707C89.2347 48.9141 89.6641 49.3434 89.6641 49.8711V60.2788C89.6641 60.8074 90.0926 61.2358 90.6211 61.2358Z" fill="white"/>
<path d="M71.2895 52.168C66.4345 52.168 62.4846 56.1178 62.4846 60.9729C62.4846 63.4916 63.5479 65.7663 65.2488 67.3726C65.2807 67.4067 65.3145 67.439 65.3516 67.4683C66.9184 68.9019 69.0035 69.7777 71.2894 69.7777C73.5754 69.7777 75.6605 68.9018 77.2273 67.4683C77.2644 67.439 77.2982 67.4066 77.3301 67.3726C79.0312 65.7663 80.0945 63.4916 80.0945 60.9729C80.0945 56.1178 76.1446 52.168 71.2895 52.168ZM71.2895 67.8637C69.7268 67.8637 68.2845 67.34 67.1272 66.4599C67.9684 64.9683 69.538 64.0355 71.2895 64.0355C73.0411 64.0355 74.6107 64.9683 75.4519 66.4599C74.2945 67.34 72.8523 67.8637 71.2895 67.8637ZM69.7583 60.5901V59.968C69.7583 59.1237 70.4452 58.4367 71.2895 58.4367C72.1339 58.4367 72.8208 59.1237 72.8208 59.968V60.5901C72.8208 61.4344 72.1339 62.1214 71.2895 62.1214C70.4452 62.1214 69.7583 61.4344 69.7583 60.5901ZM76.8347 65.0579C76.1289 64.0111 75.1507 63.1969 74.015 62.6943C74.4657 62.1117 74.7349 61.3819 74.7349 60.5901V59.968C74.7349 58.0681 73.1894 56.5226 71.2895 56.5226C69.3897 56.5226 67.8441 58.0681 67.8441 59.968V60.5901C67.8441 61.3819 68.1134 62.1117 68.5641 62.6943C67.4284 63.1969 66.4502 64.0111 65.7444 65.0579C64.8994 63.9139 64.3987 62.501 64.3987 60.9729C64.3987 57.1733 67.4899 54.0821 71.2895 54.0821C75.0892 54.0821 78.1803 57.1733 78.1803 60.9729C78.1803 62.501 77.6797 63.9139 76.8347 65.0579Z" fill="white"/>
<path d="M76.4574 83.5586H62.8672C62.3387 83.5586 61.9102 83.9871 61.9102 84.5157C61.9102 85.0442 62.3387 85.4727 62.8672 85.4727H76.4574C76.9859 85.4727 77.4145 85.0442 77.4145 84.5157C77.4145 83.9871 76.9859 83.5586 76.4574 83.5586Z" fill="white"/>
<path d="M76.4574 78.1992H62.8672C62.3387 78.1992 61.9102 78.6277 61.9102 79.1563C61.9102 79.6849 62.3387 80.1133 62.8672 80.1133H76.4574C76.9859 80.1133 77.4145 79.6849 77.4145 79.1563C77.4145 78.6277 76.9859 78.1992 76.4574 78.1992Z" fill="white"/>
<path d="M59.4563 73.1203C59.2784 72.9422 59.0315 72.8398 58.7788 72.8398C58.527 72.8398 58.2801 72.9422 58.1022 73.1203C57.9242 73.2983 57.8218 73.5452 57.8218 73.7969C57.8218 74.0486 57.9241 74.2955 58.1022 74.4735C58.2812 74.6516 58.527 74.754 58.7788 74.754C59.0315 74.754 59.2775 74.6516 59.4563 74.4735C59.6343 74.2955 59.7368 74.0486 59.7368 73.7969C59.7368 73.5452 59.6344 73.2983 59.4563 73.1203Z" fill="white"/>
<path d="M59.4563 78.4796C59.2775 78.3016 59.0315 78.1992 58.7788 78.1992C58.527 78.1992 58.2812 78.3016 58.1022 78.4796C57.9242 78.6576 57.8218 78.9046 57.8218 79.1563C57.8218 79.408 57.9241 79.6549 58.1022 79.8329C58.2812 80.0109 58.527 80.1133 58.7788 80.1133C59.0315 80.1133 59.2775 80.0109 59.4563 79.8329C59.6343 79.6549 59.7368 79.408 59.7368 79.1563C59.7368 78.9046 59.6344 78.6576 59.4563 78.4796Z" fill="white"/>
<path d="M59.4563 83.839C59.2775 83.661 59.0315 83.5586 58.7788 83.5586C58.527 83.5586 58.2812 83.661 58.1022 83.839C57.9242 84.017 57.8218 84.2639 57.8218 84.5157C57.8218 84.7674 57.9241 85.0143 58.1022 85.1923C58.2801 85.3703 58.527 85.4727 58.7788 85.4727C59.0315 85.4727 59.2784 85.3703 59.4563 85.1923C59.6343 85.0143 59.7368 84.7674 59.7368 84.5157C59.7368 84.2639 59.6344 84.017 59.4563 83.839Z" fill="white"/>
<path d="M76.4574 72.8398H62.8672C62.3387 72.8398 61.9102 73.2683 61.9102 73.7969C61.9102 74.3255 62.3387 74.754 62.8672 74.754H76.4574C76.9859 74.754 77.4145 74.3255 77.4145 73.7969C77.4145 73.2683 76.9859 72.8398 76.4574 72.8398Z" fill="white"/>
<path d="M97.9903 59.4719C97.0605 58.9351 95.9773 58.7925 94.9401 59.0703C93.903 59.3482 93.0361 60.0134 92.4994 60.9432L80.4556 81.8035C80.3897 81.9178 80.3479 82.0446 80.3333 82.1759L79.4855 89.7695C79.4434 90.1474 79.6289 90.5144 79.9581 90.7046C80.1068 90.7903 80.2718 90.8328 80.4366 90.8328C80.6368 90.8328 80.8362 90.7701 81.0042 90.6464L87.1565 86.1153C87.2629 86.037 87.3519 85.9376 87.4178 85.8232L99.4615 64.9629C100.57 63.0434 99.9098 60.5802 97.9903 59.4719ZM81.6305 87.8078L82.0732 83.8426L84.8431 85.4418L81.6305 87.8078ZM86.2387 84.0372L82.5918 81.9317L92.2567 65.1918L95.9035 67.2974L86.2387 84.0372ZM97.8039 64.0057L96.8605 65.6397L93.2136 63.5342L94.157 61.9002C94.4382 61.4132 94.8922 61.0648 95.4355 60.9192C95.9789 60.7736 96.5462 60.8484 97.0332 61.1296C97.5202 61.4108 97.8686 61.8648 98.0141 62.408C98.1597 62.9513 98.0851 63.5187 97.8039 64.0057Z" fill="white"/>
</svg>
