<svg width="932" height="306" viewBox="0 0 932 306" fill="none" xmlns="http://www.w3.org/2000/svg">
<path d="M61.4312 141.277C43.7751 138.73 27.7413 129.583 16.5618 115.682C5.38221 101.781 -0.111811 84.1581 1.18715 66.3665C2.48611 48.5749 10.4815 31.9372 23.5616 19.8071C36.6417 7.67699 53.8339 0.95648 71.6728 1.00021C89.5117 1.04394 106.671 7.84867 119.691 20.0427C132.712 32.2368 140.625 48.9135 141.837 66.7113C143.049 84.509 137.469 102.104 126.221 115.951C114.973 129.797 98.8949 138.865 81.2265 141.326" stroke="#4FB5FF" stroke-width="2"/>
<circle cx="71.5" cy="71.5" r="53.5" fill="#474747"/>
<path d="M90.6211 61.2358C91.1496 61.2358 91.5781 60.8074 91.5781 60.2788V49.8711C91.5781 48.288 90.2902 47 88.707 47H53.8711C52.288 47 51 48.288 51 49.8711V93.1289C51 94.712 52.288 96 53.8711 96H88.707C90.2902 96 91.5781 94.712 91.5781 93.1289V86.0783C91.5781 85.5497 91.1496 85.1212 90.6211 85.1212C90.0926 85.1212 89.6641 85.5497 89.6641 86.0783V93.1289C89.6641 93.6566 89.2347 94.0859 88.707 94.0859H53.8711C53.3434 94.0859 52.9141 93.6566 52.9141 93.1289V49.8711C52.9141 49.3434 53.3434 48.9141 53.8711 48.9141H88.707C89.2347 48.9141 89.6641 49.3434 89.6641 49.8711V60.2788C89.6641 60.8074 90.0926 61.2358 90.6211 61.2358Z" fill="white"/>
<path d="M71.2895 52.168C66.4345 52.168 62.4846 56.1178 62.4846 60.9729C62.4846 63.4916 63.5479 65.7663 65.2488 67.3726C65.2807 67.4067 65.3145 67.439 65.3516 67.4683C66.9184 68.9019 69.0035 69.7777 71.2894 69.7777C73.5754 69.7777 75.6605 68.9018 77.2273 67.4683C77.2644 67.439 77.2982 67.4066 77.3301 67.3726C79.0312 65.7663 80.0945 63.4916 80.0945 60.9729C80.0945 56.1178 76.1446 52.168 71.2895 52.168ZM71.2895 67.8637C69.7268 67.8637 68.2845 67.34 67.1272 66.4599C67.9684 64.9683 69.538 64.0355 71.2895 64.0355C73.0411 64.0355 74.6107 64.9683 75.4519 66.4599C74.2945 67.34 72.8523 67.8637 71.2895 67.8637ZM69.7583 60.5901V59.968C69.7583 59.1237 70.4452 58.4367 71.2895 58.4367C72.1339 58.4367 72.8208 59.1237 72.8208 59.968V60.5901C72.8208 61.4344 72.1339 62.1214 71.2895 62.1214C70.4452 62.1214 69.7583 61.4344 69.7583 60.5901ZM76.8347 65.0579C76.1289 64.0111 75.1507 63.1969 74.015 62.6943C74.4657 62.1117 74.7349 61.3819 74.7349 60.5901V59.968C74.7349 58.0681 73.1894 56.5226 71.2895 56.5226C69.3897 56.5226 67.8441 58.0681 67.8441 59.968V60.5901C67.8441 61.3819 68.1134 62.1117 68.5641 62.6943C67.4284 63.1969 66.4502 64.0111 65.7444 65.0579C64.8994 63.9139 64.3987 62.501 64.3987 60.9729C64.3987 57.1733 67.4899 54.0821 71.2895 54.0821C75.0892 54.0821 78.1803 57.1733 78.1803 60.9729C78.1803 62.501 77.6797 63.9139 76.8347 65.0579Z" fill="white"/>
<path d="M76.4574 83.5586H62.8672C62.3387 83.5586 61.9102 83.9871 61.9102 84.5157C61.9102 85.0442 62.3387 85.4727 62.8672 85.4727H76.4574C76.9859 85.4727 77.4145 85.0442 77.4145 84.5157C77.4145 83.9871 76.9859 83.5586 76.4574 83.5586Z" fill="white"/>
<path d="M76.4574 78.1992H62.8672C62.3387 78.1992 61.9102 78.6277 61.9102 79.1563C61.9102 79.6849 62.3387 80.1133 62.8672 80.1133H76.4574C76.9859 80.1133 77.4145 79.6849 77.4145 79.1563C77.4145 78.6277 76.9859 78.1992 76.4574 78.1992Z" fill="white"/>
<path d="M59.4563 73.1203C59.2784 72.9422 59.0315 72.8398 58.7788 72.8398C58.527 72.8398 58.2801 72.9422 58.1022 73.1203C57.9242 73.2983 57.8218 73.5452 57.8218 73.7969C57.8218 74.0486 57.9241 74.2955 58.1022 74.4735C58.2812 74.6516 58.527 74.754 58.7788 74.754C59.0315 74.754 59.2775 74.6516 59.4563 74.4735C59.6343 74.2955 59.7368 74.0486 59.7368 73.7969C59.7368 73.5452 59.6344 73.2983 59.4563 73.1203Z" fill="white"/>
<path d="M59.4563 78.4796C59.2775 78.3016 59.0315 78.1992 58.7788 78.1992C58.527 78.1992 58.2812 78.3016 58.1022 78.4796C57.9242 78.6576 57.8218 78.9046 57.8218 79.1563C57.8218 79.408 57.9241 79.6549 58.1022 79.8329C58.2812 80.0109 58.527 80.1133 58.7788 80.1133C59.0315 80.1133 59.2775 80.0109 59.4563 79.8329C59.6343 79.6549 59.7368 79.408 59.7368 79.1563C59.7368 78.9046 59.6344 78.6576 59.4563 78.4796Z" fill="white"/>
<path d="M59.4563 83.839C59.2775 83.661 59.0315 83.5586 58.7788 83.5586C58.527 83.5586 58.2812 83.661 58.1022 83.839C57.9242 84.017 57.8218 84.2639 57.8218 84.5157C57.8218 84.7674 57.9241 85.0143 58.1022 85.1923C58.2801 85.3703 58.527 85.4727 58.7788 85.4727C59.0315 85.4727 59.2784 85.3703 59.4563 85.1923C59.6343 85.0143 59.7368 84.7674 59.7368 84.5157C59.7368 84.2639 59.6344 84.017 59.4563 83.839Z" fill="white"/>
<path d="M76.4574 72.8398H62.8672C62.3387 72.8398 61.9102 73.2683 61.9102 73.7969C61.9102 74.3255 62.3387 74.754 62.8672 74.754H76.4574C76.9859 74.754 77.4145 74.3255 77.4145 73.7969C77.4145 73.2683 76.9859 72.8398 76.4574 72.8398Z" fill="white"/>
<path d="M97.9903 59.4719C97.0605 58.9351 95.9773 58.7925 94.9401 59.0703C93.903 59.3482 93.0361 60.0134 92.4994 60.9432L80.4556 81.8035C80.3897 81.9178 80.3479 82.0446 80.3333 82.1759L79.4855 89.7695C79.4434 90.1474 79.6289 90.5144 79.9581 90.7046C80.1068 90.7903 80.2718 90.8328 80.4366 90.8328C80.6368 90.8328 80.8362 90.7701 81.0042 90.6464L87.1565 86.1153C87.2629 86.037 87.3519 85.9376 87.4178 85.8232L99.4615 64.9629C100.57 63.0434 99.9098 60.5802 97.9903 59.4719ZM81.6305 87.8078L82.0732 83.8426L84.8431 85.4418L81.6305 87.8078ZM86.2387 84.0372L82.5918 81.9317L92.2567 65.1918L95.9035 67.2974L86.2387 84.0372ZM97.8039 64.0057L96.8605 65.6397L93.2136 63.5342L94.157 61.9002C94.4382 61.4132 94.8922 61.0648 95.4355 60.9192C95.9789 60.7736 96.5462 60.8484 97.0332 61.1296C97.5202 61.4108 97.8686 61.8648 98.0141 62.408C98.1597 62.9513 98.0851 63.5187 97.8039 64.0057Z" fill="white"/>
<path fill-rule="evenodd" clip-rule="evenodd" d="M292.584 179.063C306.612 168.457 324.138 163.563 341.632 165.367C355.766 166.825 369.029 172.569 379.702 181.708L381.003 180.189C382.802 181.729 384.522 183.356 386.156 185.064C374.449 172.831 358.749 165.122 341.837 163.378C323.84 161.521 305.809 166.556 291.378 177.467C276.947 188.379 267.188 204.355 264.07 222.177L266.04 222.521C269.071 205.199 278.557 189.669 292.584 179.063ZM389.993 189.414C391.582 191.369 393.068 193.41 394.445 195.527L392.768 196.617C400.474 208.469 404.426 222.465 403.964 236.749C403.395 254.326 396.183 271.033 383.784 283.504C371.384 295.974 354.718 303.281 337.145 303.95C319.572 304.619 302.398 298.602 289.086 287.11C275.774 275.619 267.313 259.508 265.409 242.026L263.42 242.242C265.379 260.228 274.084 276.802 287.779 288.624C301.474 300.446 319.142 306.637 337.221 305.948C355.3 305.26 372.446 297.743 385.202 284.914C397.958 272.085 405.377 254.896 405.963 236.814C406.521 219.579 400.831 202.753 389.993 189.414Z" fill="#4FB5FF"/>
<circle cx="334.5" cy="234.5" r="53.5" fill="#474747"/>
<path d="M354.004 210H320.734C320.184 210 319.738 210.446 319.738 210.996V229.723H306.662C305.194 229.723 304 230.917 304 232.385V247.381C304 248.849 305.194 250.043 306.662 250.043H319.738V253.629H315.355C314.805 253.629 314.359 254.075 314.359 254.625C314.359 258.14 317.219 261 320.734 261H348.824C352.23 261 355 258.23 355 254.824V210.996C355 210.446 354.554 210 354.004 210ZM339.19 234.108C338.033 233.784 337.121 232.872 336.797 231.715H338.52C338.889 231.715 339.19 232.015 339.19 232.385V234.108ZM334.758 231.715C335.147 233.973 336.932 235.757 339.19 236.147V243.619C336.932 244.008 335.147 245.793 334.758 248.051H310.424C310.035 245.793 308.25 244.008 305.992 243.619V236.147C308.25 235.757 310.035 233.972 310.424 231.715H334.758V231.715ZM339.19 245.658V247.381C339.19 247.75 338.889 248.051 338.52 248.051H336.797C337.121 246.894 338.033 245.981 339.19 245.658ZM306.662 231.715H308.385C308.062 232.872 307.149 233.784 305.992 234.108V232.385C305.992 232.015 306.293 231.715 306.662 231.715ZM305.992 247.381V245.658C307.149 245.981 308.062 246.894 308.385 248.051H306.662C306.293 248.051 305.992 247.75 305.992 247.381ZM320.734 259.008C318.66 259.008 316.918 257.56 316.466 255.621H342.527C342.732 256.922 343.331 258.093 344.199 259.008H320.734ZM353.008 254.824C353.008 257.131 351.131 259.008 348.824 259.008C346.407 259.008 344.441 257.042 344.441 254.625C344.441 254.075 343.995 253.629 343.445 253.629H321.73V250.043H338.52C339.988 250.043 341.182 248.849 341.182 247.381V232.385C341.182 230.917 339.988 229.723 338.52 229.723H321.73V211.992H353.008V254.824Z" fill="white"/>
<path d="M316.596 239.883C316.596 243.068 319.286 245.66 322.591 245.66C325.897 245.66 328.586 243.068 328.586 239.883C328.586 236.697 325.897 234.105 322.591 234.105C319.286 234.105 316.596 236.697 316.596 239.883ZM322.591 236.098C324.798 236.098 326.594 237.796 326.594 239.883C326.594 241.97 324.798 243.668 322.591 243.668C320.384 243.668 318.589 241.97 318.589 239.883C318.589 237.796 320.384 236.098 322.591 236.098Z" fill="white"/>
<path d="M311.982 238.887C311.72 238.887 311.463 238.993 311.277 239.179C311.092 239.364 310.986 239.621 310.986 239.883C310.986 240.145 311.092 240.402 311.277 240.587C311.463 240.772 311.72 240.879 311.982 240.879C312.244 240.879 312.501 240.772 312.686 240.587C312.871 240.402 312.978 240.145 312.978 239.883C312.978 239.621 312.871 239.364 312.686 239.179C312.501 238.993 312.244 238.887 311.982 238.887Z" fill="white"/>
<path d="M333.268 240.879C333.531 240.879 333.787 240.772 333.972 240.587C334.159 240.402 334.264 240.145 334.264 239.883C334.264 239.621 334.159 239.364 333.972 239.179C333.787 238.993 333.531 238.887 333.268 238.887C333.006 238.887 332.749 238.993 332.564 239.179C332.379 239.364 332.272 239.621 332.272 239.883C332.272 240.145 332.379 240.402 332.564 240.587C332.749 240.772 333.006 240.879 333.268 240.879Z" fill="white"/>
<path d="M325.117 222.551H349.621C350.171 222.551 350.617 222.105 350.617 221.555V216.773C350.617 216.223 350.171 215.777 349.621 215.777H341.851C341.301 215.777 340.855 216.223 340.855 216.773C340.855 217.324 341.301 217.77 341.851 217.77H348.625V220.559H326.113V217.77H332.887C333.437 217.77 333.883 217.324 333.883 216.773C333.883 216.223 333.437 215.777 332.887 215.777H325.117C324.567 215.777 324.121 216.223 324.121 216.773V221.555C324.121 222.105 324.567 222.551 325.117 222.551Z" fill="white"/>
<path d="M325.117 226.934H349.621C350.171 226.934 350.617 226.488 350.617 225.938C350.617 225.387 350.171 224.941 349.621 224.941H325.117C324.567 224.941 324.121 225.387 324.121 225.938C324.121 226.488 324.567 226.934 325.117 226.934Z" fill="white"/>
<path d="M349.621 229.723H345.238C344.688 229.723 344.242 230.169 344.242 230.719C344.242 231.269 344.688 231.715 345.238 231.715H349.621C350.171 231.715 350.617 231.269 350.617 230.719C350.617 230.169 350.171 229.723 349.621 229.723Z" fill="white"/>
<path d="M349.621 234.504H345.238C344.688 234.504 344.242 234.95 344.242 235.5C344.242 236.05 344.688 236.496 345.238 236.496H349.621C350.171 236.496 350.617 236.05 350.617 235.5C350.617 234.95 350.171 234.504 349.621 234.504Z" fill="white"/>
<path d="M349.621 239.285H345.238C344.688 239.285 344.242 239.731 344.242 240.281C344.242 240.831 344.688 241.277 345.238 241.277H349.621C350.171 241.277 350.617 240.831 350.617 240.281C350.617 239.731 350.171 239.285 349.621 239.285Z" fill="white"/>
<path d="M349.621 244.066H345.238C344.688 244.066 344.242 244.512 344.242 245.062C344.242 245.613 344.688 246.059 345.238 246.059H349.621C350.171 246.059 350.617 245.613 350.617 245.062C350.617 244.512 350.171 244.066 349.621 244.066Z" fill="white"/>
<path d="M337.369 217.77C337.631 217.77 337.888 217.663 338.073 217.478C338.259 217.292 338.365 217.035 338.365 216.773C338.365 216.511 338.259 216.254 338.073 216.069C337.888 215.884 337.631 215.777 337.369 215.777C337.107 215.777 336.85 215.884 336.665 216.069C336.48 216.254 336.373 216.511 336.373 216.773C336.373 217.035 336.48 217.292 336.665 217.478C336.85 217.663 337.107 217.77 337.369 217.77Z" fill="white"/>
<path fill-rule="evenodd" clip-rule="evenodd" d="M555.584 21.0628C569.612 10.4566 587.138 5.56251 604.632 7.36705C622.125 9.17158 638.283 17.5405 649.85 30.787C661.417 44.0335 667.533 61.1724 666.964 78.7491C666.613 89.5893 663.735 100.099 658.672 109.488L660.433 110.437C657.251 116.337 653.256 121.76 648.565 126.546C661.099 113.757 668.383 96.7242 668.963 78.8138C669.548 60.7313 663.257 43.0992 651.357 29.4715C639.457 15.8439 622.833 7.23407 604.837 5.3776C586.84 3.52114 568.809 8.55605 554.378 19.4675C539.947 30.3789 530.188 46.3554 527.07 64.1766L529.04 64.5213C532.071 47.1986 541.557 31.669 555.584 21.0628ZM648.291 126.824L646.87 125.417C646.841 125.446 646.813 125.475 646.784 125.504C634.384 137.974 617.718 145.281 600.145 145.95C582.572 146.619 565.398 140.602 552.086 129.11C538.774 117.619 530.313 101.508 528.409 84.0257L526.42 84.2423C528.379 102.228 537.084 118.802 550.779 130.624C564.474 142.446 582.142 148.637 600.221 147.948C618.3 147.26 635.446 139.743 648.202 126.914C648.232 126.884 648.261 126.854 648.291 126.824Z" fill="#4FB5FF"/>
<circle cx="597.5" cy="76.5" r="53.5" fill="#474747"/>
<path d="M625.709 62.8053C624.649 62.1932 623.414 62.0306 622.232 62.3477C621.05 62.6644 620.062 63.4224 619.45 64.4823L616.446 69.6853V54.9883C616.446 53.3404 615.105 52 613.457 52H579.989C578.341 52 577 53.3404 577 54.9883V92.5908C577 92.855 577.105 93.1083 577.292 93.2951L586.705 102.708C586.892 102.895 587.145 103 587.41 103H597.039C597.589 103 598.035 102.554 598.035 102.004C598.035 101.454 597.589 101.008 597.039 101.008H588.406V94.5748C588.406 92.927 587.065 91.5866 585.417 91.5866H578.993V54.9883C578.993 54.4389 579.439 53.9922 579.989 53.9922H613.457C614.007 53.9922 614.453 54.4389 614.453 54.9883V73.1359L607.671 84.8843C607.609 84.8727 607.546 84.8656 607.481 84.8656H585.965C585.415 84.8656 584.969 85.3119 584.969 85.8617C584.969 86.4119 585.415 86.8578 585.965 86.8578H606.531L605.15 89.2504C605.075 89.3796 605.031 89.5239 605.019 89.673L604.389 97.9355C604.36 98.3176 604.553 98.6826 604.884 98.874C605.039 98.9631 605.211 99.0075 605.382 99.0075C605.579 99.0075 605.776 98.9491 605.945 98.8335L612.786 94.1569C612.909 94.0725 613.011 93.9616 613.086 93.8324L614.453 91.464V100.012C614.453 100.561 614.007 101.008 613.457 101.008H606.003C605.453 101.008 605.007 101.454 605.007 102.004C605.007 102.554 605.453 103 606.003 103H613.457C615.105 103 616.446 101.66 616.446 100.012V88.0135L627.386 69.0643C628.649 66.8764 627.897 64.0683 625.709 62.8053ZM585.417 93.5787C585.967 93.5787 586.413 94.0254 586.413 94.5748V99.5907L580.401 93.5787H585.417ZM606.886 91.4025L610.355 93.4056L606.534 96.0176L606.886 91.4025ZM611.859 91.9737L607.373 89.3839L618.988 69.2663L623.474 71.8561L611.859 91.9737ZM625.661 68.0682L624.47 70.1305L619.984 67.5406L621.175 65.4784C621.889 64.2418 623.476 63.8166 624.712 64.5305C625.949 65.2445 626.375 66.8317 625.661 68.0682Z" fill="white"/>
<path d="M600.954 91.439C600.954 90.8888 600.509 90.4429 599.958 90.4429H591.311C590.761 90.4429 590.315 90.8888 590.315 91.439C590.315 91.9892 590.761 92.4351 591.311 92.4351H599.958C600.509 92.4351 600.954 91.9892 600.954 91.439Z" fill="white"/>
<path d="M607.481 79.2861H592.236C591.686 79.2861 591.24 79.732 591.24 80.2822C591.24 80.8324 591.686 81.2783 592.236 81.2783H607.481C608.031 81.2783 608.477 80.8324 608.477 80.2822C608.477 79.732 608.031 79.2861 607.481 79.2861Z" fill="white"/>
<path d="M585.965 75.7007H607.481C608.031 75.7007 608.477 75.2548 608.477 74.7046C608.477 74.1544 608.031 73.7085 607.481 73.7085H585.965C585.415 73.7085 584.969 74.1544 584.969 74.7046C584.969 75.2548 585.415 75.7007 585.965 75.7007Z" fill="white"/>
<path d="M607.481 62.5488H585.965C585.415 62.5488 584.969 62.9947 584.969 63.5449C584.969 64.0951 585.415 64.541 585.965 64.541H607.481C608.031 64.541 608.477 64.0951 608.477 63.5449C608.477 62.9947 608.031 62.5488 607.481 62.5488Z" fill="white"/>
<path d="M607.481 68.1279H599.958C599.409 68.1279 598.962 68.5738 598.962 69.124C598.962 69.6742 599.409 70.1201 599.958 70.1201H607.481C608.031 70.1201 608.477 69.6742 608.477 69.124C608.477 68.5738 608.031 68.1279 607.481 68.1279Z" fill="white"/>
<path d="M585.965 70.1201H594.814C595.364 70.1201 595.81 69.6742 595.81 69.124C595.81 68.5738 595.364 68.1279 594.814 68.1279H585.965C585.415 68.1279 584.969 68.5738 584.969 69.124C584.969 69.6742 585.415 70.1201 585.965 70.1201Z" fill="white"/>
<path d="M585.965 81.2783H587.598C588.148 81.2783 588.594 80.8324 588.594 80.2822C588.594 79.732 588.148 79.2861 587.598 79.2861H585.965C585.415 79.2861 584.969 79.732 584.969 80.2822C584.969 80.8324 585.415 81.2783 585.965 81.2783Z" fill="white"/>
<path d="M791.055 220.349C794.13 202.777 803.752 187.024 817.981 176.265C832.21 165.506 849.989 160.542 867.734 162.372C885.479 164.203 901.87 172.692 913.604 186.129C925.337 199.566 931.54 216.952 930.963 234.781C930.386 252.611 923.071 269.559 910.493 282.209C897.915 294.859 881.009 302.27 863.183 302.949C845.357 303.628 827.936 297.524 814.433 285.867C800.929 274.21 792.346 257.868 790.415 240.134" stroke="#4FB5FF" stroke-width="2"/>
<circle cx="860.5" cy="232.5" r="53.5" fill="#474747"/>
<path d="M884.523 220.159L860.385 208.091C860.266 208.031 860.134 208 860 208C859.866 208 859.734 208.031 859.615 208.091L835.477 220.159C835.333 220.23 835.213 220.34 835.129 220.477C835.045 220.613 835 220.77 835 220.93V245.066C834.999 245.226 835.043 245.384 835.128 245.522C835.212 245.659 835.333 245.769 835.477 245.841L859.615 257.909C859.734 257.969 859.866 258 860 258C860.134 258 860.266 257.969 860.385 257.909L884.523 245.841C884.667 245.769 884.788 245.659 884.872 245.522C884.957 245.384 885.001 245.226 885 245.066V220.93C885 220.77 884.955 220.613 884.871 220.477C884.787 220.34 884.667 220.23 884.523 220.159ZM860 232.034L853.261 228.665L874.801 217.224L882.215 220.93L860 232.034ZM846.365 225.217L867.904 213.776L872.904 216.275L851.367 227.718L846.365 225.217ZM845.345 226.635L850.517 229.221V236.089L848.541 234.112C848.379 233.951 848.16 233.86 847.931 233.86H845.345V226.635ZM860 209.826L866.01 212.827L844.471 224.27L837.79 220.93L860 209.826ZM836.724 222.325L843.621 225.773V234.722C843.621 234.95 843.712 235.17 843.873 235.331C844.035 235.493 844.254 235.584 844.483 235.584H847.574L850.77 238.779C850.89 238.9 851.044 238.982 851.211 239.015C851.378 239.048 851.552 239.031 851.709 238.966C851.867 238.901 852.001 238.79 852.096 238.649C852.191 238.507 852.241 238.34 852.241 238.17V230.083L859.138 233.531V255.739L836.724 244.533V222.325ZM860.862 255.739V233.531L883.276 222.325V244.533L860.862 255.739Z" fill="white"/>
<path d="M73 147C84.9497 175.667 139.679 233 263 233" stroke="#4FB5FF" stroke-dasharray="2 2"/>
<circle cx="71.5" cy="142.5" r="5.5" fill="#4FB5FF"/>
<circle cx="263.5" cy="232.5" r="5.5" fill="#4FB5FF"/>
<circle cx="388.5" cy="187.5" r="5.5" fill="#4FB5FF"/>
<path d="M392 185.5C398.333 164.833 432.8 113.6 520 74" stroke="#4FB5FF" stroke-dasharray="2 2"/>
<circle cx="525.5" cy="73.5" r="5.5" fill="#4FB5FF"/>
<circle cx="655.5" cy="118.5" r="5.5" fill="#4FB5FF"/>
<circle cx="788.5" cy="229.5" r="5.5" fill="#4FB5FF"/>
<path d="M659 121C688.333 135.833 755.1 178.4 787.5 230" stroke="#4FB5FF" stroke-dasharray="2 2"/>
</svg>
