<svg width="143" height="143" viewBox="0 0 143 143" fill="none" xmlns="http://www.w3.org/2000/svg">
<path d="M2.05507 59.3488C5.12975 41.7768 14.7515 26.0237 28.981 15.2649C43.2104 4.50613 60.9894 -0.45836 78.7342 1.37214C96.479 3.20264 112.87 11.692 124.604 25.1291C136.337 38.5661 142.54 55.9517 141.963 73.7813C141.386 91.6109 134.071 108.559 121.493 121.209C108.915 133.859 92.0089 141.27 74.1829 141.949C56.3569 142.628 38.9363 136.524 25.4325 124.867C11.9288 113.21 3.34614 96.8679 1.41452 79.1338" stroke="#4FB5FF" stroke-width="2"/>
<circle cx="71.5" cy="71.5" r="53.5" fill="#474747"/>
<path d="M95.5233 59.1586L71.3853 47.0909C71.2657 47.0311 71.1338 47 71 47C70.8662 47 70.7343 47.0311 70.6147 47.0909L46.4767 59.1586C46.3334 59.2302 46.2129 59.3404 46.1287 59.4766C46.0445 59.6129 45.9999 59.7699 46 59.9301V84.0656C45.9991 84.2265 46.0433 84.3844 46.1276 84.5215C46.2118 84.6586 46.3328 84.7694 46.4767 84.8414L70.6147 96.9091C70.7343 96.9689 70.8662 97 71 97C71.1338 97 71.2657 96.9689 71.3853 96.9091L95.5233 84.8414C95.6672 84.7694 95.7882 84.6586 95.8724 84.5215C95.9567 84.3844 96.0009 84.2265 96 84.0656V59.9301C96.0001 59.7699 95.9555 59.6129 95.8713 59.4766C95.7871 59.3404 95.6666 59.2302 95.5233 59.1586V59.1586ZM71 71.0341L64.2612 67.6647L85.8009 56.2236L93.2146 59.9301L71 71.0341ZM57.3647 64.2167L78.9043 52.7757L83.9043 55.2754L62.3672 66.7182L57.3647 64.2167ZM56.3448 65.6347L61.5172 68.2206V75.0889L59.5405 73.1124C59.3789 72.9507 59.1597 72.8599 58.931 72.8598H56.3448V65.6347ZM71 48.8261L77.0103 51.8275L55.4707 63.2703L48.7897 59.9301L71 48.8261ZM47.7242 61.3248L54.6207 64.7727V73.7218C54.6207 73.9504 54.7115 74.1697 54.8732 74.3313C55.0349 74.493 55.2541 74.5838 55.4828 74.5838H58.5741L61.7698 77.7792C61.8904 77.8997 62.044 77.9817 62.2112 78.015C62.3784 78.0482 62.5517 78.0311 62.7092 77.9659C62.8667 77.9007 63.0013 77.7902 63.096 77.6485C63.1908 77.5068 63.2413 77.3402 63.2414 77.1697V69.0826L70.1379 72.5305V94.7386L47.7242 83.5329V61.3248ZM71.8621 94.7386V72.5305L94.2759 61.3248V83.5329L71.8621 94.7386Z" fill="white"/>
</svg>
