<svg width="143" height="143" viewBox="0 0 143 143" fill="none" xmlns="http://www.w3.org/2000/svg">
<path fill-rule="evenodd" clip-rule="evenodd" d="M29.5841 16.0628C43.6117 5.45658 61.1385 0.562508 78.6316 2.36705C96.1247 4.17158 112.283 12.5405 123.85 25.787C135.417 39.0335 141.533 56.1724 140.964 73.7491C140.613 84.5893 137.735 95.0988 132.672 104.488L134.433 105.437C131.251 111.337 127.256 116.76 122.565 121.546C135.099 108.757 142.383 91.7242 142.963 73.8138C143.548 55.7313 137.257 38.0992 125.357 24.4715C113.457 10.8439 96.8333 2.23407 78.8368 0.377602C60.8403 -1.47886 42.8092 3.55605 28.3779 14.4675C13.9466 25.3789 4.18834 41.3554 1.07005 59.1766L3.04012 59.5213C6.07119 42.1986 15.5565 26.669 29.5841 16.0628ZM122.291 121.824L120.87 120.417C120.841 120.446 120.813 120.475 120.784 120.504C108.384 132.974 91.7181 140.281 74.1449 140.95C56.5717 141.619 39.3982 135.602 26.086 124.11C12.7738 112.619 4.31287 96.5082 2.40865 79.0257L0.42041 79.2423C2.37943 97.2279 11.0838 113.802 24.7791 125.624C38.4744 137.446 56.1421 143.637 74.221 142.948C92.2999 142.26 109.446 134.743 122.202 121.914C122.232 121.884 122.261 121.854 122.291 121.824Z" fill="#4FB5FF"/>
<circle cx="71.5" cy="71.5" r="53.5" fill="#474747"/>
<path d="M99.709 57.8053C98.6491 57.1932 97.4144 57.0306 96.232 57.3477C95.0499 57.6644 94.0616 58.4224 93.4495 59.4823L90.4457 64.6853V49.9883C90.4457 48.3404 89.1052 47 87.4574 47H53.9886C52.3408 47 51.0004 48.3404 51.0004 49.9883V87.5908C51.0004 87.855 51.1054 88.1083 51.2922 88.2951L60.7053 97.7082C60.892 97.8949 61.1453 98 61.4095 98H71.0386C71.5888 98 72.0347 97.5541 72.0347 97.0039C72.0347 96.4537 71.5888 96.0078 71.0386 96.0078H62.4056V89.5748C62.4056 87.927 61.0652 86.5866 59.4174 86.5866H52.9926V49.9883C52.9926 49.4389 53.4392 48.9922 53.9886 48.9922H87.4574C88.0068 48.9922 88.4535 49.4389 88.4535 49.9883V68.1359L81.6707 79.8843C81.6092 79.8727 81.5458 79.8656 81.4808 79.8656H59.9652C59.415 79.8656 58.9691 80.3119 58.9691 80.8617C58.9691 81.4119 59.415 81.8578 59.9652 81.8578H80.531L79.1497 84.2504C79.075 84.3796 79.0307 84.5239 79.019 84.673L78.3894 92.9355C78.3603 93.3176 78.5529 93.6826 78.8844 93.874C79.0388 93.9631 79.2108 94.0075 79.3824 94.0075C79.5793 94.0075 79.7758 93.9491 79.9447 93.8335L86.7858 89.1569C86.9088 89.0725 87.0115 88.9616 87.0862 88.8324L88.4535 86.464V95.0117C88.4535 95.5611 88.0068 96.0078 87.4574 96.0078H80.0034C79.4532 96.0078 79.0073 96.4537 79.0073 97.0039C79.0073 97.5541 79.4532 98 80.0034 98H87.4574C89.1052 98 90.4457 96.6596 90.4457 95.0117V83.0135L101.386 64.0643C102.649 61.8764 101.897 59.0683 99.709 57.8053ZM59.4174 88.5787C59.9668 88.5787 60.4135 89.0254 60.4135 89.5748V94.5907L54.4015 88.5787H59.4174ZM80.8855 86.4025L84.3547 88.4056L80.5338 91.0176L80.8855 86.4025ZM85.859 86.9737L81.3731 84.3839L92.9881 64.2663L97.474 66.8561L85.859 86.9737ZM99.6607 63.0682L98.4701 65.1305L93.9841 62.5406L95.1748 60.4784C95.8888 59.2418 97.4759 58.8166 98.7125 59.5305C99.9494 60.2445 100.375 61.8317 99.6607 63.0682Z" fill="white"/>
<path d="M74.9545 86.439C74.9545 85.8888 74.5086 85.4429 73.9584 85.4429H65.311C64.7608 85.4429 64.3149 85.8888 64.3149 86.439C64.3149 86.9892 64.7608 87.4351 65.311 87.4351H73.9584C74.5086 87.4351 74.9545 86.9892 74.9545 86.439Z" fill="white"/>
<path d="M81.4808 74.2861H66.2363C65.6861 74.2861 65.2402 74.732 65.2402 75.2822C65.2402 75.8324 65.6861 76.2783 66.2363 76.2783H81.4808C82.031 76.2783 82.4769 75.8324 82.4769 75.2822C82.4769 74.732 82.031 74.2861 81.4808 74.2861Z" fill="white"/>
<path d="M59.9652 70.7007H81.4808C82.031 70.7007 82.4769 70.2548 82.4769 69.7046C82.4769 69.1544 82.031 68.7085 81.4808 68.7085H59.9652C59.415 68.7085 58.9691 69.1544 58.9691 69.7046C58.9691 70.2548 59.415 70.7007 59.9652 70.7007Z" fill="white"/>
<path d="M81.4808 57.5488H59.9652C59.415 57.5488 58.9691 57.9947 58.9691 58.5449C58.9691 59.0951 59.415 59.541 59.9652 59.541H81.4808C82.031 59.541 82.4769 59.0951 82.4769 58.5449C82.4769 57.9947 82.031 57.5488 81.4808 57.5488Z" fill="white"/>
<path d="M81.4808 63.1279H73.9584C73.4086 63.1279 72.9623 63.5738 72.9623 64.124C72.9623 64.6742 73.4086 65.1201 73.9584 65.1201H81.4808C82.031 65.1201 82.4769 64.6742 82.4769 64.124C82.4769 63.5738 82.031 63.1279 81.4808 63.1279Z" fill="white"/>
<path d="M59.9652 65.1201H68.8137C69.3639 65.1201 69.8098 64.6742 69.8098 64.124C69.8098 63.5738 69.3639 63.1279 68.8137 63.1279H59.9652C59.415 63.1279 58.9691 63.5738 58.9691 64.124C58.9691 64.6742 59.415 65.1201 59.9652 65.1201Z" fill="white"/>
<path d="M59.9652 76.2783H61.5979C62.1481 76.2783 62.594 75.8324 62.594 75.2822C62.594 74.732 62.1481 74.2861 61.5979 74.2861H59.9652C59.415 74.2861 58.9691 74.732 58.9691 75.2822C58.9691 75.8324 59.415 76.2783 59.9652 76.2783Z" fill="white"/>
</svg>
