<svg width="143" height="143" viewBox="0 0 143 143" fill="none" xmlns="http://www.w3.org/2000/svg">
<path fill-rule="evenodd" clip-rule="evenodd" d="M29.5841 16.0628C43.6117 5.45658 61.1385 0.562508 78.6316 2.36705C92.7656 3.82507 106.029 9.56856 116.702 18.7077L118.003 17.1886C119.802 18.7292 121.522 20.3564 123.156 22.0637C111.449 9.83104 95.7492 2.12223 78.8368 0.377602C60.8403 -1.47886 42.8092 3.55605 28.3779 14.4675C13.9466 25.3789 4.18834 41.3554 1.07005 59.1766L3.04012 59.5213C6.07119 42.1986 15.5565 26.669 29.5841 16.0628ZM126.993 26.4139C128.582 28.3695 130.068 30.41 131.445 32.5275L129.768 33.6175C137.474 45.4693 141.426 59.4647 140.964 73.7491C140.395 91.3258 133.183 108.033 120.784 120.504C108.384 132.974 91.7181 140.281 74.1449 140.95C56.5717 141.619 39.3982 135.602 26.086 124.11C12.7738 112.619 4.31287 96.5082 2.40865 79.0257L0.42041 79.2423C2.37943 97.2279 11.0838 113.802 24.7791 125.624C38.4744 137.446 56.1421 143.637 74.221 142.948C92.2999 142.26 109.446 134.743 122.202 121.914C134.958 109.085 142.377 91.8964 142.963 73.8138C143.521 56.5789 137.831 39.7532 126.993 26.4139Z" fill="#4FB5FF"/>
<circle cx="71.5" cy="71.5" r="53.5" fill="#474747"/>
<path d="M91.0039 47H57.7342C57.184 47 56.7381 47.446 56.7381 47.9961V66.7227H43.6623C42.1943 66.7227 41 67.917 41 69.3849V84.3806C41 85.8487 42.1943 87.043 43.6623 87.043H56.7381V90.6289H52.3553C51.8051 90.6289 51.3592 91.075 51.3592 91.625C51.3592 95.1402 54.219 98 57.7342 98H85.8242C89.2296 98 92 95.2296 92 91.8242V47.9961C92 47.446 91.554 47 91.0039 47ZM76.19 71.1078C75.0331 70.7843 74.1205 69.8717 73.7972 68.7148H75.5199C75.8894 68.7148 76.19 69.0155 76.19 69.3849V71.1078ZM71.758 68.7148C72.1474 70.9726 73.9323 72.7575 76.19 73.1469V80.6189C73.9323 81.0082 72.1474 82.7931 71.758 85.0509H47.4242C47.0348 82.793 45.2499 81.0081 42.9922 80.6188V73.1468C45.2499 72.7574 47.0348 70.9725 47.4242 68.7147H71.758V68.7148ZM76.19 82.658V84.3807C76.19 84.7503 75.8894 85.0509 75.5199 85.0509H73.7972C74.1205 83.8939 75.0331 82.9814 76.19 82.658ZM43.6623 68.7148H45.3851C45.0617 69.8717 44.1491 70.7843 42.9922 71.1078V69.3849C42.9922 69.0155 43.2928 68.7148 43.6623 68.7148ZM42.9922 84.3806V82.6579C44.1491 82.9813 45.0617 83.8939 45.3851 85.0507H43.6623C43.2928 85.0508 42.9922 84.7502 42.9922 84.3806ZM57.7342 96.0078C55.66 96.0078 53.9177 94.5596 53.4655 92.6211H79.5269C79.7318 93.9217 80.3315 95.0928 81.1989 96.0078H57.7342ZM90.0078 91.8242C90.0078 94.1311 88.1311 96.0078 85.8242 96.0078C83.4075 96.0078 81.4414 94.0417 81.4414 91.625C81.4414 91.075 80.9955 90.6289 80.4453 90.6289H58.7303V87.043H75.5199C76.9879 87.043 78.1822 85.8487 78.1822 84.3806V69.3849C78.1822 67.917 76.9879 66.7227 75.5199 66.7227H58.7303V48.9922H90.0078V91.8242Z" fill="white"/>
<path d="M53.5964 76.8828C53.5964 80.0684 56.2857 82.6602 59.5911 82.6602C62.8966 82.6602 65.5858 80.0684 65.5858 76.8828C65.5858 73.6972 62.8966 71.1055 59.5911 71.1055C56.2857 71.1055 53.5964 73.6972 53.5964 76.8828V76.8828ZM59.5911 73.0977C61.7981 73.0977 63.5936 74.7957 63.5936 76.8828C63.5936 78.9699 61.7982 80.668 59.5911 80.668C57.3841 80.668 55.5886 78.9699 55.5886 76.8828C55.5886 74.7957 57.3842 73.0977 59.5911 73.0977Z" fill="white"/>
<path d="M48.9817 75.8867C48.7197 75.8867 48.4627 75.9932 48.2775 76.1786C48.0922 76.3638 47.9856 76.6208 47.9856 76.8828C47.9856 77.1448 48.0922 77.4018 48.2775 77.587C48.4627 77.7722 48.7197 77.8789 48.9817 77.8789C49.2437 77.8789 49.5007 77.7723 49.6859 77.587C49.8712 77.4018 49.9778 77.1448 49.9778 76.8828C49.9778 76.6208 49.8712 76.3638 49.6859 76.1786C49.5007 75.9932 49.2437 75.8867 48.9817 75.8867Z" fill="white"/>
<path d="M70.2682 77.8789C70.5312 77.8789 70.7872 77.7723 70.9724 77.587C71.1587 77.4018 71.2643 77.1448 71.2643 76.8828C71.2643 76.6208 71.1587 76.3638 70.9724 76.1786C70.7872 75.9933 70.5312 75.8867 70.2682 75.8867C70.0062 75.8867 69.7492 75.9932 69.564 76.1786C69.3787 76.3639 69.2721 76.6208 69.2721 76.8828C69.2721 77.1448 69.3787 77.4018 69.564 77.587C69.7492 77.7723 70.0062 77.8789 70.2682 77.8789Z" fill="white"/>
<path d="M62.1169 59.5508H86.6211C87.1712 59.5508 87.6171 59.1048 87.6171 58.5547V53.7734C87.6171 53.2233 87.1712 52.7773 86.6211 52.7773H78.8514C78.3013 52.7773 77.8553 53.2233 77.8553 53.7734C77.8553 54.3236 78.3013 54.7695 78.8514 54.7695H85.625V57.5586H63.113V54.7695H69.8867C70.4368 54.7695 70.8828 54.3236 70.8828 53.7734C70.8828 53.2233 70.4368 52.7773 69.8867 52.7773H62.1169C61.5668 52.7773 61.1208 53.2233 61.1208 53.7734V58.5547C61.1208 59.1048 61.5668 59.5508 62.1169 59.5508Z" fill="white"/>
<path d="M62.1169 63.9336H86.6211C87.1712 63.9336 87.6171 63.4876 87.6171 62.9375C87.6171 62.3874 87.1712 61.9414 86.6211 61.9414H62.1169C61.5668 61.9414 61.1208 62.3874 61.1208 62.9375C61.1208 63.4876 61.5668 63.9336 62.1169 63.9336Z" fill="white"/>
<path d="M86.6211 66.7227H82.2383C81.6881 66.7227 81.2422 67.1686 81.2422 67.7188C81.2422 68.2689 81.6881 68.7148 82.2383 68.7148H86.6211C87.1712 68.7148 87.6172 68.2689 87.6172 67.7188C87.6172 67.1686 87.1712 66.7227 86.6211 66.7227Z" fill="white"/>
<path d="M86.6211 71.5039H82.2383C81.6881 71.5039 81.2422 71.9499 81.2422 72.5C81.2422 73.05 81.6881 73.4961 82.2383 73.4961H86.6211C87.1712 73.4961 87.6172 73.05 87.6172 72.5C87.6172 71.9499 87.1712 71.5039 86.6211 71.5039Z" fill="white"/>
<path d="M86.6211 76.2852H82.2383C81.6881 76.2852 81.2422 76.7312 81.2422 77.2812C81.2422 77.8313 81.6881 78.2773 82.2383 78.2773H86.6211C87.1712 78.2773 87.6172 77.8313 87.6172 77.2812C87.6172 76.7312 87.1712 76.2852 86.6211 76.2852Z" fill="white"/>
<path d="M86.6211 81.0664H82.2383C81.6881 81.0664 81.2422 81.5125 81.2422 82.0625C81.2422 82.6125 81.6881 83.0586 82.2383 83.0586H86.6211C87.1712 83.0586 87.6172 82.6125 87.6172 82.0625C87.6172 81.5125 87.1712 81.0664 86.6211 81.0664Z" fill="white"/>
<path d="M74.3691 54.7695C74.6311 54.7695 74.8881 54.6629 75.0734 54.4777C75.2587 54.2924 75.3652 54.0354 75.3652 53.7734C75.3652 53.5115 75.2587 53.2545 75.0734 53.0692C74.8881 52.8839 74.6311 52.7773 74.3691 52.7773C74.1072 52.7773 73.8502 52.8839 73.6649 53.0692C73.4796 53.2545 73.373 53.5115 73.373 53.7734C73.373 54.0354 73.4796 54.2924 73.6649 54.4777C73.8502 54.6629 74.1072 54.7695 74.3691 54.7695Z" fill="white"/>
</svg>
